<svg width="1953" height="1259" viewBox="0 0 1953 1259" fill="none" xmlns="http://www.w3.org/2000/svg">
<g clip-path="url(#clip0_47_5688)">
<rect width="435.555" height="927.269" transform="matrix(-1 0 0 1 796.66 720)" fill="#9E6969"/>
<rect width="49.2592" height="52.253" transform="matrix(-1 0 0 1 773.324 790.851)" fill="#976565"/>
<rect width="48.395" height="52.253" transform="matrix(-1 0 0 1 706.78 790.851)" fill="#976565"/>
<rect width="49.2592" height="52.253" transform="matrix(-1 0 0 1 641.103 790.851)" fill="#976565"/>
<rect width="49.2592" height="52.253" transform="matrix(-1 0 0 1 574.559 790.851)" fill="#976565"/>
<rect width="48.395" height="52.253" transform="matrix(-1 0 0 1 508.015 790.851)" fill="#976565"/>
<rect width="49.2592" height="52.253" transform="matrix(-1 0 0 1 442.337 790.851)" fill="#976565"/>
<rect width="49.2592" height="52.253" transform="matrix(-1 0 0 1 773.324 878.53)" fill="#976565"/>
<rect width="48.395" height="52.253" transform="matrix(-1 0 0 1 706.78 878.53)" fill="#976565"/>
<rect width="49.2592" height="52.253" transform="matrix(-1 0 0 1 641.103 878.53)" fill="#976565"/>
<rect width="49.2592" height="52.253" transform="matrix(-1 0 0 1 574.559 878.53)" fill="#976565"/>
<rect width="48.395" height="52.253" transform="matrix(-1 0 0 1 508.015 878.53)" fill="#976565"/>
<rect width="49.2592" height="52.253" transform="matrix(-1 0 0 1 442.337 878.53)" fill="#976565"/>
<rect width="49.2592" height="52.253" transform="matrix(-1 0 0 1 773.324 965.556)" fill="#976565"/>
<rect width="48.395" height="52.253" transform="matrix(-1 0 0 1 706.78 965.556)" fill="#976565"/>
<rect width="49.2592" height="52.253" transform="matrix(-1 0 0 1 641.103 965.556)" fill="#976565"/>
<rect width="49.2592" height="52.253" transform="matrix(-1 0 0 1 574.559 965.556)" fill="#976565"/>
<rect width="48.395" height="52.253" transform="matrix(-1 0 0 1 508.015 965.556)" fill="#976565"/>
<rect width="49.2592" height="52.253" transform="matrix(-1 0 0 1 442.337 965.556)" fill="#976565"/>
<rect width="49.2592" height="52.253" transform="matrix(-1 0 0 1 773.324 1052.58)" fill="#976565"/>
<rect width="48.395" height="52.253" transform="matrix(-1 0 0 1 706.78 1052.58)" fill="#976565"/>
<rect width="49.2592" height="52.253" transform="matrix(-1 0 0 1 641.103 1052.58)" fill="#976565"/>
<rect width="49.2592" height="52.253" transform="matrix(-1 0 0 1 574.559 1052.58)" fill="#976565"/>
<rect width="48.395" height="52.253" transform="matrix(-1 0 0 1 508.015 1052.58)" fill="#976565"/>
<rect width="49.2592" height="52.253" transform="matrix(-1 0 0 1 442.337 1052.58)" fill="#976565"/>
<rect width="49.2592" height="52.253" transform="matrix(-1 0 0 1 773.324 1139.61)" fill="#976565"/>
<rect width="48.395" height="52.253" transform="matrix(-1 0 0 1 706.78 1139.61)" fill="#976565"/>
<rect width="49.2592" height="52.253" transform="matrix(-1 0 0 1 641.103 1139.61)" fill="#976565"/>
<rect width="49.2592" height="52.253" transform="matrix(-1 0 0 1 574.559 1139.61)" fill="#976565"/>
<rect width="48.395" height="52.253" transform="matrix(-1 0 0 1 508.015 1139.61)" fill="#976565"/>
<rect width="49.2592" height="52.253" transform="matrix(-1 0 0 1 442.337 1139.61)" fill="#976565"/>
<rect width="49.2592" height="52.253" transform="matrix(-1 0 0 1 773.324 1226.63)" fill="#976565"/>
<rect width="48.395" height="52.253" transform="matrix(-1 0 0 1 706.78 1226.63)" fill="#976565"/>
<rect width="49.2592" height="52.253" transform="matrix(-1 0 0 1 641.103 1226.63)" fill="#976565"/>
<rect width="49.2592" height="52.253" transform="matrix(-1 0 0 1 574.559 1226.63)" fill="#976565"/>
<rect width="48.395" height="52.253" transform="matrix(-1 0 0 1 508.015 1226.63)" fill="#976565"/>
<rect width="49.2592" height="52.253" transform="matrix(-1 0 0 1 442.337 1226.63)" fill="#976565"/>
<rect width="435.555" height="927.269" transform="matrix(-1 0 0 1 375.55 458.889)" fill="#9E6969"/>
<rect width="49.2592" height="52.253" transform="matrix(-1 0 0 1 352.214 529.74)" fill="#976565"/>
<rect width="48.395" height="52.253" transform="matrix(-1 0 0 1 285.67 529.74)" fill="#976565"/>
<rect width="49.2592" height="52.253" transform="matrix(-1 0 0 1 219.992 529.74)" fill="#976565"/>
<rect width="49.2592" height="52.253" transform="matrix(-1 0 0 1 153.448 529.74)" fill="#976565"/>
<rect width="48.395" height="52.253" transform="matrix(-1 0 0 1 86.9043 529.74)" fill="#976565"/>
<rect width="49.2592" height="52.253" transform="matrix(-1 0 0 1 21.2266 529.74)" fill="#976565"/>
<rect width="49.2592" height="52.253" transform="matrix(-1 0 0 1 352.214 617.419)" fill="#976565"/>
<rect width="48.395" height="52.253" transform="matrix(-1 0 0 1 285.67 617.419)" fill="#976565"/>
<rect width="49.2592" height="52.253" transform="matrix(-1 0 0 1 219.992 617.419)" fill="#976565"/>
<rect width="49.2592" height="52.253" transform="matrix(-1 0 0 1 153.448 617.419)" fill="#976565"/>
<rect width="48.395" height="52.253" transform="matrix(-1 0 0 1 86.9043 617.419)" fill="#976565"/>
<rect width="49.2592" height="52.253" transform="matrix(-1 0 0 1 21.2266 617.419)" fill="#976565"/>
<rect width="49.2592" height="52.253" transform="matrix(-1 0 0 1 352.215 705.097)" fill="#976565"/>
<rect width="48.395" height="52.253" transform="matrix(-1 0 0 1 285.671 705.097)" fill="#976565"/>
<rect width="49.2592" height="52.253" transform="matrix(-1 0 0 1 219.993 705.097)" fill="#976565"/>
<rect width="49.2592" height="52.253" transform="matrix(-1 0 0 1 153.449 705.097)" fill="#976565"/>
<rect width="48.395" height="52.253" transform="matrix(-1 0 0 1 86.9053 705.097)" fill="#976565"/>
<rect width="49.2592" height="52.253" transform="matrix(-1 0 0 1 21.2275 705.097)" fill="#976565"/>
<rect width="49.2592" height="52.253" transform="matrix(-1 0 0 1 352.215 792.776)" fill="#976565"/>
<rect width="48.395" height="52.253" transform="matrix(-1 0 0 1 285.671 792.776)" fill="#976565"/>
<rect width="49.2592" height="52.253" transform="matrix(-1 0 0 1 219.993 792.776)" fill="#976565"/>
<rect width="49.2592" height="52.253" transform="matrix(-1 0 0 1 153.449 792.776)" fill="#976565"/>
<rect width="48.395" height="52.253" transform="matrix(-1 0 0 1 86.9053 792.776)" fill="#976565"/>
<rect width="49.2592" height="52.253" transform="matrix(-1 0 0 1 21.2275 792.776)" fill="#976565"/>
<rect width="49.2592" height="52.253" transform="matrix(-1 0 0 1 352.215 880.455)" fill="#976565"/>
<rect width="48.395" height="52.253" transform="matrix(-1 0 0 1 285.671 880.455)" fill="#976565"/>
<rect width="49.2592" height="52.253" transform="matrix(-1 0 0 1 219.993 880.455)" fill="#976565"/>
<rect width="49.2592" height="52.253" transform="matrix(-1 0 0 1 153.449 880.455)" fill="#976565"/>
<rect width="48.395" height="52.253" transform="matrix(-1 0 0 1 86.9053 880.455)" fill="#976565"/>
<rect width="49.2592" height="52.253" transform="matrix(-1 0 0 1 21.2275 880.455)" fill="#976565"/>
<rect width="49.2592" height="52.253" transform="matrix(-1 0 0 1 352.215 968.134)" fill="#976565"/>
<rect width="48.395" height="52.253" transform="matrix(-1 0 0 1 285.671 968.134)" fill="#976565"/>
<rect width="49.2592" height="52.253" transform="matrix(-1 0 0 1 219.993 968.134)" fill="#976565"/>
<rect width="49.2592" height="52.253" transform="matrix(-1 0 0 1 153.449 968.134)" fill="#976565"/>
<rect width="48.395" height="52.253" transform="matrix(-1 0 0 1 86.9053 968.134)" fill="#976565"/>
<rect width="49.2592" height="52.253" transform="matrix(-1 0 0 1 21.2275 968.134)" fill="#976565"/>
<rect width="49.2592" height="52.253" transform="matrix(-1 0 0 1 352.215 1055.81)" fill="#976565"/>
<rect width="48.395" height="52.253" transform="matrix(-1 0 0 1 285.671 1055.81)" fill="#976565"/>
<rect width="49.2592" height="52.253" transform="matrix(-1 0 0 1 219.993 1055.81)" fill="#976565"/>
<rect width="49.2592" height="52.253" transform="matrix(-1 0 0 1 153.449 1055.81)" fill="#976565"/>
<rect width="48.395" height="52.253" transform="matrix(-1 0 0 1 86.9053 1055.81)" fill="#976565"/>
<rect width="49.2592" height="52.253" transform="matrix(-1 0 0 1 21.2275 1055.81)" fill="#976565"/>
<rect width="49.2592" height="52.253" transform="matrix(-1 0 0 1 352.215 1143.49)" fill="#976565"/>
<rect width="48.395" height="52.253" transform="matrix(-1 0 0 1 285.671 1143.49)" fill="#976565"/>
<rect width="49.2592" height="52.253" transform="matrix(-1 0 0 1 219.993 1143.49)" fill="#976565"/>
<rect width="49.2592" height="52.253" transform="matrix(-1 0 0 1 153.449 1143.49)" fill="#976565"/>
<rect width="48.395" height="52.253" transform="matrix(-1 0 0 1 86.9053 1143.49)" fill="#976565"/>
<rect width="49.2592" height="52.253" transform="matrix(-1 0 0 1 21.2275 1143.49)" fill="#976565"/>
<rect width="49.2592" height="52.253" transform="matrix(-1 0 0 1 352.215 1231.17)" fill="#976565"/>
<rect width="48.395" height="52.253" transform="matrix(-1 0 0 1 285.671 1231.17)" fill="#976565"/>
<rect width="49.2592" height="52.253" transform="matrix(-1 0 0 1 219.993 1231.17)" fill="#976565"/>
<rect width="49.2592" height="52.253" transform="matrix(-1 0 0 1 153.449 1231.17)" fill="#976565"/>
<rect width="48.395" height="52.253" transform="matrix(-1 0 0 1 86.9053 1231.17)" fill="#976565"/>
<rect width="49.2592" height="52.253" transform="matrix(-1 0 0 1 21.2275 1231.17)" fill="#976565"/>
<path d="M796.667 715.556H344.444C344.444 728.073 356.561 736.741 368.876 734.497C388.697 730.884 404.529 732.748 427.185 740.796C474.99 760.717 502.661 760.233 552.723 740.796C587.783 731.738 612.51 731.226 655.12 738.052C665.775 739.758 676.138 742.976 686.371 746.4C718.541 757.164 742.017 757.473 772.707 748.758C787.302 744.613 796.667 730.727 796.667 715.556Z" fill="#B18788"/>
<path d="M346.479 1659.77H487.359V495.05H346.479V1659.77ZM472.959 1645.63H360.879V509.196H472.959V1645.63Z" fill="#5B3C3E"/>
<path d="M352.907 1397.81H477.709C480.568 1397.81 483.16 1396.15 484.312 1393.57C485.457 1391 484.939 1388 482.994 1385.93L362.994 1258.61L352.425 1268.22L461.235 1383.66H352.914V1397.81H352.907Z" fill="#5B3C3E"/>
<path d="M352.907 1270.26H477.709C480.568 1270.26 483.16 1268.59 484.312 1266.01C485.457 1263.44 484.939 1260.44 482.994 1258.37L362.994 1131.05L352.425 1140.66L461.235 1256.1H352.914V1270.26H352.907Z" fill="#5B3C3E"/>
<path d="M352.907 1142.7H477.709C480.568 1142.7 483.16 1141.04 484.312 1138.45C485.457 1135.88 484.939 1132.88 482.994 1130.81L362.994 1003.5L352.425 1013.1L461.235 1128.54H352.914V1142.7H352.907Z" fill="#5B3C3E"/>
<path d="M352.907 1015.14H477.709C480.568 1015.14 483.16 1013.48 484.312 1010.9C485.457 1008.32 484.939 1005.32 482.994 1003.26L362.994 875.938L352.425 885.543L461.235 1000.99H352.914V1015.14H352.907Z" fill="#5B3C3E"/>
<path d="M352.907 887.579H477.709C480.568 887.579 483.16 885.917 484.312 883.335C485.457 880.76 484.939 877.761 482.994 875.696L362.994 748.378L352.425 757.983L461.235 873.426H352.914V887.579H352.907Z" fill="#5B3C3E"/>
<path d="M352.907 760.021H477.709C480.568 760.021 483.16 758.359 484.312 755.777C485.457 753.202 484.939 750.203 482.994 748.138L362.994 620.819L352.425 630.425L461.235 745.867H352.914V760.021H352.907Z" fill="#5B3C3E"/>
<path d="M352.911 632.462H477.713C480.572 632.462 483.164 630.8 484.316 628.218C485.468 625.637 484.942 622.645 482.998 620.579L362.998 493.261L352.428 502.866L461.239 618.309H352.918V632.462H352.911Z" fill="#5B3C3E"/>
<path d="M346.713 445.862H575.099V635H346.713V445.862Z" fill="#5B3C3E"/>
<path d="M-14 446H232V554H-14V446Z" fill="#5B3C3E"/>
<path d="M7.29626 459.677H1135.34C1139.32 459.677 1142.54 456.508 1142.54 452.604C1142.54 448.699 1139.32 445.53 1135.34 445.53H7.29626C3.32171 445.53 0.0959826 448.699 0.0959826 452.604C0.0959826 456.508 3.32171 459.677 7.29626 459.677Z" fill="#5B3C3E"/>
<path d="M460.069 457.824C460.991 457.824 461.913 457.477 462.611 456.791L522.762 397.701H1074.2L1130.75 453.254C1132.16 454.634 1134.44 454.634 1135.84 453.254C1137.25 451.875 1137.25 449.633 1135.84 448.254L1077.19 390.635H519.788L457.535 451.79C456.131 453.17 456.131 455.412 457.535 456.791C458.226 457.477 459.148 457.824 460.069 457.824Z" fill="#5B3C3E"/>
<path d="M2.49004 457.824C3.78609 457.824 5.03889 457.13 5.67972 455.928L65.8742 342.968H211.853L268.454 452.356C269.354 454.096 271.529 454.775 273.293 453.905C275.064 453.021 275.77 450.892 274.87 449.152L216.266 335.895H61.5107L-0.699633 452.646C-1.62127 454.379 -0.944453 456.515 0.819615 457.42C1.35964 457.696 1.92842 457.824 2.49004 457.824Z" fill="#5B3C3E"/>
<path d="M923.244 397.651C924.785 397.651 926.218 396.668 926.686 395.147C927.269 393.28 926.196 391.299 924.295 390.733L391.237 231.062C390.423 230.821 389.559 230.864 388.789 231.189L136.138 335.937C134.309 336.694 133.445 338.766 134.223 340.57C134.993 342.374 137.11 343.215 138.939 342.451L390.38 238.199L922.193 397.495C922.546 397.601 922.891 397.651 923.244 397.651Z" fill="#5B3C3E"/>
<path d="M474.047 458.298C474.896 458.298 475.76 458.15 476.603 457.831C480.318 456.445 482.183 452.364 480.772 448.707L396.838 231.742C395.7 228.807 392.748 226.947 389.515 227.208C386.319 227.47 383.676 229.769 383.05 232.86L339.661 444.463C338.876 448.289 341.403 452.017 345.299 452.795C349.187 453.538 352.988 451.083 353.78 447.257L392.244 259.674L467.322 453.736C468.409 456.558 471.145 458.298 474.047 458.298Z" fill="#5B3C3E"/>
<path d="M375.603 234.253C375.603 242.125 382.098 248.505 390.112 248.505C398.126 248.505 404.62 242.125 404.62 234.253C404.62 226.38 398.126 220 390.112 220C382.098 220 375.603 226.38 375.603 234.253Z" fill="#5B3C3E"/>
<path d="M999.141 458.495C999.933 458.495 1000.73 458.24 1001.4 457.71L1072.1 401.569V454.06C1072.1 456.012 1073.71 457.596 1075.7 457.596C1077.69 457.596 1079.3 456.012 1079.3 454.06V394.164C1079.3 392.799 1078.5 391.561 1077.25 390.974C1076 390.387 1074.51 390.549 1073.43 391.419L996.866 452.214C995.318 453.437 995.08 455.665 996.333 457.186C997.046 458.049 998.09 458.495 999.141 458.495Z" fill="#5B3C3E"/>
<path d="M930.767 458.495C931.559 458.495 932.358 458.24 933.027 457.71L1003.73 401.569V454.06C1003.73 456.012 1005.35 457.597 1007.33 457.597C1009.32 457.597 1010.93 456.012 1010.93 454.06V394.164C1010.93 392.799 1010.14 391.561 1008.88 390.974C1007.64 390.387 1006.15 390.549 1005.07 391.419L928.499 452.214C926.95 453.437 926.713 455.666 927.966 457.186C928.679 458.049 929.715 458.495 930.767 458.495Z" fill="#5B3C3E"/>
<path d="M862.399 458.495C863.191 458.495 863.991 458.24 864.66 457.71L935.367 401.569V454.06C935.367 456.012 936.98 457.597 938.967 457.597C940.955 457.597 942.567 456.012 942.567 454.06V394.164C942.567 392.799 941.768 391.561 940.515 390.974C939.277 390.387 937.786 390.549 936.699 391.419L860.131 452.214C858.583 453.437 858.346 455.666 859.598 457.186C860.304 458.049 861.348 458.495 862.399 458.495Z" fill="#5B3C3E"/>
<path d="M794.024 458.495C794.816 458.495 795.615 458.24 796.285 457.71L866.984 401.569V454.06C866.984 456.012 868.597 457.596 870.584 457.596C872.572 457.596 874.185 456.012 874.185 454.06V394.164C874.185 392.799 873.385 391.561 872.132 390.974C870.887 390.387 869.404 390.549 868.316 391.419L791.749 452.214C790.201 453.437 789.963 455.665 791.216 457.186C791.936 458.049 792.973 458.495 794.024 458.495Z" fill="#5B3C3E"/>
<path d="M725.657 458.495C726.449 458.495 727.248 458.24 727.918 457.71L798.625 401.569V454.06C798.625 456.012 800.238 457.597 802.225 457.597C804.212 457.597 805.825 456.012 805.825 454.06V394.164C805.825 392.799 805.026 391.561 803.773 390.974C802.527 390.387 801.044 390.549 799.957 391.419L723.389 452.214C721.841 453.437 721.603 455.666 722.856 457.186C723.562 458.049 724.606 458.495 725.657 458.495Z" fill="#5B3C3E"/>
<path d="M657.289 458.495C658.081 458.495 658.88 458.24 659.55 457.71L730.257 401.569V454.06C730.257 456.012 731.87 457.597 733.857 457.597C735.844 457.597 737.457 456.012 737.457 454.06V394.164C737.457 392.799 736.658 391.561 735.405 390.974C734.166 390.387 732.676 390.549 731.589 391.419L655.021 452.214C653.473 453.437 653.235 455.666 654.488 457.186C655.201 458.049 656.238 458.495 657.289 458.495Z" fill="#5B3C3E"/>
<path d="M588.922 458.495C589.714 458.495 590.513 458.24 591.183 457.71L661.89 401.569V454.06C661.89 456.012 663.502 457.596 665.49 457.596C667.477 457.596 669.09 456.012 669.09 454.06V394.164C669.09 392.799 668.291 391.561 667.038 390.974C665.799 390.387 664.309 390.549 663.222 391.419L586.654 452.214C585.106 453.437 584.868 455.665 586.121 457.186C586.834 458.049 587.871 458.495 588.922 458.495Z" fill="#5B3C3E"/>
<path d="M520.547 458.495C521.339 458.495 522.138 458.24 522.808 457.71L593.515 401.57V454.06C593.515 456.012 595.127 457.597 597.115 457.597C599.102 457.597 600.715 456.012 600.715 454.06V394.164C600.715 392.799 599.916 391.561 598.663 390.974C597.417 390.387 595.927 390.549 594.847 391.419L518.279 452.214C516.731 453.438 516.493 455.666 517.746 457.186C518.459 458.049 519.496 458.495 520.547 458.495Z" fill="#5B3C3E"/>
<path d="M116.368 458.496C117.39 458.496 118.405 458.072 119.118 457.244L210.943 350.785V454.061C210.943 456.013 212.556 457.598 214.543 457.598C216.531 457.598 218.144 456.013 218.144 454.061V341.144C218.144 339.659 217.2 338.336 215.782 337.827C214.356 337.31 212.772 337.721 211.793 338.859L113.617 452.675C112.328 454.16 112.523 456.395 114.035 457.655C114.719 458.22 115.547 458.496 116.368 458.496Z" fill="#5B3C3E"/>
<path d="M45.7362 458.495C46.9026 458.495 48.0474 457.936 48.7459 456.91L118.711 352.906V454.06C118.711 456.012 120.324 457.597 122.311 457.597C124.298 457.597 125.911 456.012 125.911 454.06V341.143C125.911 339.58 124.867 338.207 123.348 337.755C121.807 337.316 120.18 337.896 119.309 339.19L42.7407 453.006C41.6463 454.633 42.1001 456.833 43.7561 457.908C44.3682 458.304 45.0521 458.495 45.7362 458.495Z" fill="#5B3C3E"/>
<rect x="1433.33" y="48.8888" width="518.889" height="1210" fill="#5B3C3E" fill-opacity="0.3"/>
<rect x="951.111" y="715.555" width="482.222" height="543.333" fill="#5B3C3E" fill-opacity="0.3"/>
<rect x="1463.33" y="137.778" width="63.3333" height="65.5556" fill="#5B3C3E" fill-opacity="0.3"/>
<rect x="1548.89" y="137.778" width="62.2222" height="65.5556" fill="#5B3C3E" fill-opacity="0.3"/>
<rect x="1633.33" y="137.778" width="63.3333" height="65.5556" fill="#5B3C3E" fill-opacity="0.3"/>
<rect x="1718.89" y="137.778" width="63.3333" height="65.5556" fill="#5B3C3E" fill-opacity="0.3"/>
<rect x="1804.45" y="137.778" width="62.2222" height="65.5556" fill="#5B3C3E" fill-opacity="0.3"/>
<rect x="1888.89" y="137.778" width="63.3333" height="65.5556" fill="#5B3C3E" fill-opacity="0.3"/>
<rect x="1463.33" y="247.778" width="63.3333" height="65.5556" fill="#5B3C3E" fill-opacity="0.3"/>
<rect x="1548.89" y="247.778" width="62.2222" height="65.5556" fill="#7F5556"/>
<rect x="1633.33" y="247.778" width="63.3333" height="65.5556" fill="#5B3C3E" fill-opacity="0.3"/>
<rect x="1718.89" y="247.778" width="63.3333" height="65.5556" fill="#5B3C3E" fill-opacity="0.3"/>
<rect x="1804.45" y="247.778" width="62.2222" height="65.5556" fill="#5B3C3E" fill-opacity="0.3"/>
<rect x="1888.89" y="247.778" width="63.3333" height="65.5556" fill="#5B3C3E" fill-opacity="0.3"/>
<rect x="1463.33" y="357.778" width="63.3333" height="65.5556" fill="#5B3C3E" fill-opacity="0.3"/>
<rect x="1548.89" y="357.778" width="62.2222" height="65.5556" fill="#5B3C3E" fill-opacity="0.3"/>
<rect x="1633.33" y="357.778" width="63.3333" height="65.5556" fill="#5B3C3E" fill-opacity="0.3"/>
<rect x="1718.89" y="357.778" width="63.3333" height="65.5556" fill="#5B3C3E" fill-opacity="0.3"/>
<rect x="1804.45" y="357.778" width="62.2222" height="65.5556" fill="#5B3C3E" fill-opacity="0.3"/>
<rect x="1888.89" y="357.778" width="63.3333" height="65.5556" fill="#5B3C3E" fill-opacity="0.3"/>
<rect x="1463.33" y="467.778" width="63.3333" height="65.5556" fill="#5B3C3E" fill-opacity="0.3"/>
<rect x="1548.89" y="467.778" width="62.2222" height="65.5556" fill="#5B3C3E" fill-opacity="0.3"/>
<rect x="1633.33" y="467.778" width="63.3333" height="65.5556" fill="#5B3C3E" fill-opacity="0.3"/>
<rect x="1718.89" y="467.778" width="63.3333" height="65.5556" fill="#5B3C3E" fill-opacity="0.3"/>
<rect x="1804.45" y="467.778" width="62.2222" height="65.5556" fill="#5B3C3E" fill-opacity="0.3"/>
<rect x="1888.89" y="467.778" width="63.3333" height="65.5556" fill="#5B3C3E" fill-opacity="0.3"/>
<rect x="1463.33" y="577.778" width="63.3333" height="65.5556" fill="#5B3C3E" fill-opacity="0.3"/>
<rect x="1548.89" y="577.778" width="62.2222" height="65.5556" fill="#5B3C3E" fill-opacity="0.3"/>
<rect x="1633.33" y="577.778" width="63.3333" height="65.5556" fill="#5B3C3E" fill-opacity="0.3"/>
<rect x="1718.89" y="577.778" width="63.3333" height="65.5556" fill="#5B3C3E" fill-opacity="0.3"/>
<rect x="1804.45" y="577.778" width="62.2222" height="65.5556" fill="#7F5556"/>
<rect x="1888.89" y="577.778" width="63.3333" height="65.5556" fill="#5B3C3E" fill-opacity="0.3"/>
<rect x="1463.33" y="687.778" width="63.3333" height="65.5556" fill="#7F5556"/>
<rect x="1548.89" y="687.778" width="62.2222" height="65.5556" fill="#5B3C3E" fill-opacity="0.3"/>
<rect x="1633.33" y="687.778" width="63.3333" height="65.5556" fill="#5B3C3E" fill-opacity="0.3"/>
<rect x="1718.89" y="687.778" width="63.3333" height="65.5556" fill="#5B3C3E" fill-opacity="0.3"/>
<rect x="1804.45" y="687.778" width="62.2222" height="65.5556" fill="#5B3C3E" fill-opacity="0.3"/>
<rect x="1888.89" y="687.778" width="63.3333" height="65.5556" fill="#5B3C3E" fill-opacity="0.3"/>
<rect x="1463.33" y="797.778" width="63.3333" height="65.5556" fill="#5B3C3E" fill-opacity="0.3"/>
<rect x="1548.89" y="797.778" width="62.2222" height="65.5556" fill="#5B3C3E" fill-opacity="0.3"/>
<rect x="1633.33" y="797.778" width="63.3333" height="65.5556" fill="#5B3C3E" fill-opacity="0.3"/>
<rect x="1718.89" y="797.778" width="63.3333" height="65.5556" fill="#5B3C3E" fill-opacity="0.3"/>
<rect x="1804.45" y="797.778" width="62.2222" height="65.5556" fill="#5B3C3E" fill-opacity="0.3"/>
<rect x="1888.89" y="797.778" width="63.3333" height="65.5556" fill="#5B3C3E" fill-opacity="0.3"/>
<rect x="1463.33" y="907.778" width="63.3333" height="65.5556" fill="#5B3C3E" fill-opacity="0.3"/>
<rect x="1548.89" y="907.778" width="62.2222" height="65.5556" fill="#5B3C3E" fill-opacity="0.3"/>
<rect x="1633.33" y="907.778" width="63.3333" height="65.5556" fill="#5B3C3E" fill-opacity="0.3"/>
<rect x="1718.89" y="907.778" width="63.3333" height="65.5556" fill="#5B3C3E" fill-opacity="0.3"/>
<rect x="1804.45" y="907.778" width="62.2222" height="65.5556" fill="#5B3C3E" fill-opacity="0.3"/>
<rect x="1888.89" y="907.778" width="63.3333" height="65.5556" fill="#5B3C3E" fill-opacity="0.3"/>
<rect x="1463.33" y="1017.78" width="63.3333" height="65.5556" fill="#5B3C3E" fill-opacity="0.3"/>
<rect x="1548.89" y="1017.78" width="62.2222" height="65.5556" fill="#5B3C3E" fill-opacity="0.3"/>
<rect x="1633.33" y="1017.78" width="63.3333" height="65.5556" fill="#5B3C3E" fill-opacity="0.3"/>
<rect x="1718.89" y="1017.78" width="63.3333" height="65.5556" fill="#5B3C3E" fill-opacity="0.3"/>
<rect x="1804.45" y="1017.78" width="62.2222" height="65.5556" fill="#5B3C3E" fill-opacity="0.3"/>
<rect x="1888.89" y="1017.78" width="63.3333" height="65.5556" fill="#7F5556"/>
<rect x="1003.33" y="745.555" width="63.3333" height="65.5556" fill="#5B3C3E" fill-opacity="0.3"/>
<rect x="1088.89" y="745.555" width="62.2222" height="65.5556" fill="#5B3C3E" fill-opacity="0.3"/>
<rect x="1173.33" y="745.555" width="63.3333" height="65.5556" fill="#5B3C3E" fill-opacity="0.3"/>
<rect x="1258.89" y="745.555" width="63.3333" height="65.5556" fill="#5B3C3E" fill-opacity="0.3"/>
<rect x="1344.45" y="745.555" width="62.2222" height="65.5556" fill="#5B3C3E" fill-opacity="0.3"/>
<rect x="1003.33" y="855.555" width="63.3333" height="65.5556" fill="#7F5556"/>
<rect x="1088.89" y="855.555" width="62.2222" height="65.5556" fill="#5B3C3E" fill-opacity="0.3"/>
<rect x="1173.33" y="855.555" width="63.3333" height="65.5556" fill="#5B3C3E" fill-opacity="0.3"/>
<rect x="1258.89" y="855.555" width="63.3333" height="65.5556" fill="#5B3C3E" fill-opacity="0.3"/>
<rect x="1344.45" y="855.555" width="62.2222" height="65.5556" fill="#5B3C3E" fill-opacity="0.3"/>
<rect x="1003.33" y="965.555" width="63.3333" height="65.5556" fill="#5B3C3E" fill-opacity="0.3"/>
<rect x="1088.89" y="965.555" width="62.2222" height="65.5556" fill="#5B3C3E" fill-opacity="0.3"/>
<rect x="1173.33" y="965.555" width="63.3333" height="65.5556" fill="#5B3C3E" fill-opacity="0.3"/>
<rect x="1258.89" y="965.555" width="63.3333" height="65.5556" fill="#5B3C3E" fill-opacity="0.3"/>
<rect x="1344.45" y="965.555" width="62.2222" height="65.5556" fill="#5B3C3E" fill-opacity="0.3"/>
<rect x="1003.33" y="1075.56" width="63.3333" height="65.5556" fill="#5B3C3E" fill-opacity="0.3"/>
<rect x="1088.89" y="1075.56" width="62.2222" height="65.5556" fill="#5B3C3E" fill-opacity="0.3"/>
<rect x="1173.33" y="1075.56" width="63.3333" height="65.5556" fill="#5B3C3E" fill-opacity="0.3"/>
<rect x="1258.89" y="1075.56" width="63.3333" height="65.5556" fill="#5B3C3E" fill-opacity="0.3"/>
<rect x="1344.45" y="1075.56" width="62.2222" height="65.5556" fill="#5B3C3E" fill-opacity="0.3"/>
<rect x="1003.33" y="1185.56" width="63.3333" height="65.5556" fill="#5B3C3E" fill-opacity="0.3"/>
<rect x="1088.89" y="1185.56" width="62.2222" height="65.5556" fill="#5B3C3E" fill-opacity="0.3"/>
<rect x="1173.33" y="1185.56" width="63.3333" height="65.5556" fill="#5B3C3E" fill-opacity="0.3"/>
<rect x="1258.89" y="1185.56" width="63.3333" height="65.5556" fill="#5B3C3E" fill-opacity="0.3"/>
<rect x="1344.45" y="1185.56" width="62.2222" height="65.5556" fill="#5B3C3E" fill-opacity="0.3"/>
<rect x="1463.33" y="1127.78" width="63.3333" height="65.5556" fill="#5B3C3E" fill-opacity="0.3"/>
<rect x="1548.89" y="1127.78" width="62.2222" height="65.5556" fill="#5B3C3E" fill-opacity="0.3"/>
<rect x="1633.33" y="1127.78" width="63.3333" height="65.5556" fill="#5B3C3E" fill-opacity="0.3"/>
<rect x="1718.89" y="1127.78" width="63.3333" height="65.5556" fill="#5B3C3E" fill-opacity="0.3"/>
<rect x="1804.45" y="1127.78" width="62.2222" height="65.5556" fill="#5B3C3E" fill-opacity="0.3"/>
<rect x="1888.89" y="1127.78" width="63.3333" height="65.5556" fill="#5B3C3E" fill-opacity="0.3"/>
<g filter="url(#filter0_d_47_5688)">
<rect width="435.555" height="927.269" transform="matrix(-1 0 0 1 404.444 680)" fill="#4E2F31"/>
<rect width="49.2592" height="52.253" transform="matrix(-1 0 0 1 381.108 750.852)" fill="#5B3C3E"/>
<rect width="48.395" height="52.253" transform="matrix(-1 0 0 1 314.564 750.852)" fill="#5B3C3E"/>
<rect width="49.2592" height="52.253" transform="matrix(-1 0 0 1 248.887 750.852)" fill="#5B3C3E"/>
<rect width="49.2592" height="52.253" transform="matrix(-1 0 0 1 182.343 750.852)" fill="#5B3C3E"/>
<rect width="48.395" height="52.253" transform="matrix(-1 0 0 1 115.799 750.852)" fill="#5B3C3E"/>
<rect width="49.2592" height="52.253" transform="matrix(-1 0 0 1 50.1211 750.852)" fill="#5B3C3E"/>
<rect width="49.2592" height="52.253" transform="matrix(-1 0 0 1 381.108 838.53)" fill="#5B3C3E"/>
<rect width="48.395" height="52.253" transform="matrix(-1 0 0 1 314.564 838.53)" fill="#5B3C3E"/>
<rect width="49.2592" height="52.253" transform="matrix(-1 0 0 1 248.887 838.53)" fill="#5B3C3E"/>
<rect width="49.2592" height="52.253" transform="matrix(-1 0 0 1 182.343 838.53)" fill="#5B3C3E"/>
<rect width="48.395" height="52.253" transform="matrix(-1 0 0 1 115.799 838.53)" fill="#5B3C3E"/>
<rect width="49.2592" height="52.253" transform="matrix(-1 0 0 1 50.1211 838.53)" fill="#5B3C3E"/>
<rect width="49.2592" height="52.253" transform="matrix(-1 0 0 1 381.108 926.208)" fill="#5B3C3E"/>
<rect width="48.395" height="52.253" transform="matrix(-1 0 0 1 314.564 926.208)" fill="#5B3C3E"/>
<rect width="49.2592" height="52.253" transform="matrix(-1 0 0 1 248.887 926.208)" fill="#5B3C3E"/>
<rect width="49.2592" height="52.253" transform="matrix(-1 0 0 1 182.343 926.208)" fill="#5B3C3E"/>
<rect width="48.395" height="52.253" transform="matrix(-1 0 0 1 115.799 926.208)" fill="#5B3C3E"/>
<rect width="49.2592" height="52.253" transform="matrix(-1 0 0 1 50.1211 926.208)" fill="#5B3C3E"/>
<rect width="49.2592" height="52.253" transform="matrix(-1 0 0 1 381.108 1013.89)" fill="#5B3C3E"/>
<rect width="48.395" height="52.253" transform="matrix(-1 0 0 1 314.564 1013.89)" fill="#5B3C3E"/>
<rect width="49.2592" height="52.253" transform="matrix(-1 0 0 1 248.887 1013.89)" fill="#5B3C3E"/>
<rect width="49.2592" height="52.253" transform="matrix(-1 0 0 1 182.343 1013.89)" fill="#5B3C3E"/>
<rect width="48.395" height="52.253" transform="matrix(-1 0 0 1 115.799 1013.89)" fill="#5B3C3E"/>
<rect width="49.2592" height="52.253" transform="matrix(-1 0 0 1 50.1211 1013.89)" fill="#5B3C3E"/>
<rect width="49.2592" height="52.253" transform="matrix(-1 0 0 1 381.108 1101.57)" fill="#5B3C3E"/>
<rect width="48.395" height="52.253" transform="matrix(-1 0 0 1 314.564 1101.57)" fill="#5B3C3E"/>
<rect width="49.2592" height="52.253" transform="matrix(-1 0 0 1 248.887 1101.57)" fill="#5B3C3E"/>
<rect width="49.2592" height="52.253" transform="matrix(-1 0 0 1 182.343 1101.57)" fill="#5B3C3E"/>
<rect width="48.395" height="52.253" transform="matrix(-1 0 0 1 115.799 1101.57)" fill="#5B3C3E"/>
<rect width="49.2592" height="52.253" transform="matrix(-1 0 0 1 50.1211 1101.57)" fill="#5B3C3E"/>
<rect width="49.2592" height="52.253" transform="matrix(-1 0 0 1 381.108 1189.24)" fill="#5B3C3E"/>
<rect width="48.395" height="52.253" transform="matrix(-1 0 0 1 314.564 1189.24)" fill="#5B3C3E"/>
<rect width="49.2592" height="52.253" transform="matrix(-1 0 0 1 248.887 1189.24)" fill="#5B3C3E"/>
<rect width="49.2592" height="52.253" transform="matrix(-1 0 0 1 182.343 1189.24)" fill="#5B3C3E"/>
<rect width="48.395" height="52.253" transform="matrix(-1 0 0 1 115.799 1189.24)" fill="#5B3C3E"/>
<rect width="49.2592" height="52.253" transform="matrix(-1 0 0 1 50.1211 1189.24)" fill="#5B3C3E"/>
</g>
<g filter="url(#filter1_d_47_5688)">
<rect width="354.444" height="927.778" transform="matrix(-1 0 0 1 1797.78 811.111)" fill="#4E2F31"/>
<rect width="49.2592" height="52.253" transform="matrix(-1 0 0 1 1774.44 881.963)" fill="#5B3C3E"/>
<rect width="48.395" height="52.253" transform="matrix(-1 0 0 1 1707.9 881.963)" fill="#5B3C3E"/>
<rect width="49.2592" height="52.253" transform="matrix(-1 0 0 1 1642.22 881.963)" fill="#5B3C3E"/>
<rect width="49.2592" height="52.253" transform="matrix(-1 0 0 1 1575.68 881.963)" fill="#5B3C3E"/>
<rect width="48.395" height="52.253" transform="matrix(-1 0 0 1 1509.13 881.963)" fill="#5B3C3E"/>
<rect width="49.2592" height="52.253" transform="matrix(-1 0 0 1 1774.44 969.641)" fill="#5B3C3E"/>
<rect width="48.395" height="52.253" transform="matrix(-1 0 0 1 1707.9 969.641)" fill="#5B3C3E"/>
<rect width="49.2592" height="52.253" transform="matrix(-1 0 0 1 1642.22 969.641)" fill="#5B3C3E"/>
<rect width="49.2592" height="52.253" transform="matrix(-1 0 0 1 1575.68 969.641)" fill="#5B3C3E"/>
<rect width="48.395" height="52.253" transform="matrix(-1 0 0 1 1509.13 969.641)" fill="#5B3C3E"/>
<rect width="49.2592" height="52.253" transform="matrix(-1 0 0 1 1774.44 1057.32)" fill="#5B3C3E"/>
<rect width="48.395" height="52.253" transform="matrix(-1 0 0 1 1707.9 1057.32)" fill="#5B3C3E"/>
<rect width="49.2592" height="52.253" transform="matrix(-1 0 0 1 1642.22 1057.32)" fill="#5B3C3E"/>
<rect width="49.2592" height="52.253" transform="matrix(-1 0 0 1 1575.68 1057.32)" fill="#5B3C3E"/>
<rect width="48.395" height="52.253" transform="matrix(-1 0 0 1 1509.13 1057.32)" fill="#5B3C3E"/>
<rect width="49.2592" height="52.253" transform="matrix(-1 0 0 1 1774.44 1145)" fill="#5B3C3E"/>
<rect width="48.395" height="52.253" transform="matrix(-1 0 0 1 1707.9 1145)" fill="#5B3C3E"/>
<rect width="49.2592" height="52.253" transform="matrix(-1 0 0 1 1642.22 1145)" fill="#5B3C3E"/>
<rect width="49.2592" height="52.253" transform="matrix(-1 0 0 1 1575.68 1145)" fill="#5B3C3E"/>
<rect width="48.395" height="52.253" transform="matrix(-1 0 0 1 1509.13 1145)" fill="#5B3C3E"/>
<rect width="49.2592" height="52.253" transform="matrix(-1 0 0 1 1774.44 1232.68)" fill="#5B3C3E"/>
<rect width="48.395" height="52.253" transform="matrix(-1 0 0 1 1707.9 1232.68)" fill="#5B3C3E"/>
<rect width="49.2592" height="52.253" transform="matrix(-1 0 0 1 1642.22 1232.68)" fill="#5B3C3E"/>
<rect width="49.2592" height="52.253" transform="matrix(-1 0 0 1 1575.68 1232.68)" fill="#5B3C3E"/>
<rect width="48.395" height="52.253" transform="matrix(-1 0 0 1 1509.13 1232.68)" fill="#5B3C3E"/>
</g>
<path d="M433.391 565.6C434.282 582.145 446.117 593.983 462.665 594.874C479.175 595.762 491.118 580.808 491.939 565.6C492.463 555.837 477.32 555.89 476.798 565.6C475.816 583.824 449.514 583.824 448.535 565.6C448.011 555.89 432.867 555.84 433.391 565.6Z" fill="#960626"/>
<path d="M429.041 565.447C429.932 581.992 441.767 593.83 458.315 594.721C474.824 595.609 486.768 580.656 487.588 565.447C488.113 555.688 472.969 555.737 472.447 565.447C471.466 583.672 445.164 583.672 444.185 565.447C443.657 555.737 428.513 555.685 429.041 565.447Z" fill="#E04141"/>
<path d="M395.408 516.19C395.408 525.131 402.657 532.38 411.598 532.38C420.54 532.38 427.788 525.131 427.788 516.19C427.788 507.248 420.54 500 411.598 500C402.657 499.997 395.408 507.248 395.408 516.19Z" fill="#EFE1B4"/>
<path d="M392.223 516.19C392.223 525.131 399.471 532.38 408.413 532.38C417.354 532.38 424.603 525.131 424.603 516.19C424.603 507.248 417.354 500 408.413 500C399.471 499.997 392.223 507.248 392.223 516.19Z" fill="white"/>
<path d="M489.843 516.19C489.843 525.131 497.091 532.38 506.033 532.38C514.974 532.38 522.223 525.131 522.223 516.19C522.223 507.248 514.974 500 506.033 500C497.091 499.997 489.843 507.248 489.843 516.19Z" fill="#EFE1B4"/>
<path d="M487.778 516.19C487.778 525.131 495.027 532.38 503.968 532.38C512.91 532.38 520.158 525.131 520.158 516.19C520.158 507.248 512.91 500 503.968 500C495.03 499.997 487.778 507.248 487.778 516.19Z" fill="white"/>
<circle cx="6.66667" cy="6.66667" r="6.66667" transform="matrix(-1 0 0 1 163.333 27.7777)" fill="#FFE6E6"/>
<circle cx="4.44444" cy="4.44444" r="4.44444" transform="matrix(-1 0 0 1 137.778 108.889)" fill="#FFE6E6"/>
<circle cx="2.22222" cy="2.22222" r="2.22222" transform="matrix(-1 0 0 1 157.778 194.444)" fill="#FFE6E6"/>
<circle cx="2.22222" cy="2.22222" r="2.22222" transform="matrix(-1 0 0 1 172.223 151.111)" fill="#FFE6E6"/>
<circle cx="2.22222" cy="2.22222" r="2.22222" transform="matrix(-1 0 0 1 118.889 144.444)" fill="#FFE6E6"/>
<circle cx="2.22222" cy="2.22222" r="2.22222" transform="matrix(-1 0 0 1 125.556 76.6666)" fill="#FFE6E6"/>
<circle cx="2.22222" cy="2.22222" r="2.22222" transform="matrix(-1 0 0 1 73.333 88.8888)" fill="#FFE6E6"/>
<circle cx="11.1111" cy="11.1111" r="11.1111" transform="matrix(-1 0 0 1 100 36.6666)" fill="#FFE6E6"/>
<circle cx="17.2222" cy="17.2222" r="17.2222" transform="matrix(-1 0 0 1 88.8887 -14.4445)" fill="#FFE6E6"/>
<circle cx="6.11111" cy="6.11111" r="6.11111" transform="matrix(-1 0 0 1 144.444 53.3333)" fill="#FFE6E6"/>
<circle cx="25" cy="25" r="25" transform="matrix(-1 0 0 1 73.333 -18.8889)" fill="#FFE6E6"/>
<circle cx="8.33333" cy="8.33333" r="8.33333" transform="matrix(-1 0 0 1 172.223 76.6666)" fill="#FFE6E6"/>
<circle cx="12.2222" cy="12.2222" r="12.2222" transform="matrix(-1 0 0 1 128.889 5.5555)" fill="#FFE6E6"/>
<circle cx="18.8889" cy="18.8889" r="18.8889" transform="matrix(-1 0 0 1 185.556 -13.3334)" fill="#FFE6E6"/>
<circle cx="18.8889" cy="18.8889" r="18.8889" transform="matrix(-1 0 0 1 156.667 -20.0001)" fill="#FFE6E6"/>
<circle cx="13.3333" cy="13.3333" r="13.3333" transform="matrix(-1 0 0 1 43.333 11.1111)" fill="#FFE6E6"/>
<circle cx="3.88889" cy="3.88889" r="3.88889" transform="matrix(-1 0 0 1 150 145.555)" fill="#FFE6E6"/>
<circle cx="3.88889" cy="3.88889" r="3.88889" transform="matrix(-1 0 0 1 172.223 114.444)" fill="#FFE6E6"/>
<circle cx="3.88889" cy="3.88889" r="3.88889" transform="matrix(-1 0 0 1 100 101.111)" fill="#FFE6E6"/>
<circle cx="2.22222" cy="2.22222" r="2.22222" transform="matrix(-1 0 0 1 121.111 215.555)" fill="#FFE6E6"/>
<circle cx="3.33333" cy="3.33333" r="3.33333" transform="matrix(-1 0 0 1 84.4443 173.333)" fill="#FFE6E6"/>
<circle cx="6.66667" cy="6.66667" r="6.66667" transform="matrix(-1 0 0 1 591.11 51.1111)" fill="#FFE6E6"/>
<circle cx="4.44444" cy="4.44444" r="4.44444" transform="matrix(-1 0 0 1 565.556 132.222)" fill="#FFE6E6"/>
<circle cx="2.22222" cy="2.22222" r="2.22222" transform="matrix(-1 0 0 1 585.556 217.778)" fill="#FFE6E6"/>
<circle cx="2.22222" cy="2.22222" r="2.22222" transform="matrix(-1 0 0 1 600 174.444)" fill="#FFE6E6"/>
<circle cx="2.22222" cy="2.22222" r="2.22222" transform="matrix(-1 0 0 1 546.666 167.778)" fill="#FFE6E6"/>
<circle cx="2.22222" cy="2.22222" r="2.22222" transform="matrix(-1 0 0 1 553.333 100)" fill="#FFE6E6"/>
<circle cx="2.22222" cy="2.22222" r="2.22222" transform="matrix(-1 0 0 1 501.11 112.222)" fill="#FFE6E6"/>
<circle cx="11.1111" cy="11.1111" r="11.1111" transform="matrix(-1 0 0 1 527.777 60)" fill="#FFE6E6"/>
<circle cx="17.2222" cy="17.2222" r="17.2222" transform="matrix(-1 0 0 1 516.666 8.88885)" fill="#FFE6E6"/>
<circle cx="6.11111" cy="6.11111" r="6.11111" transform="matrix(-1 0 0 1 572.222 76.6666)" fill="#FFE6E6"/>
<circle cx="25" cy="25" r="25" transform="matrix(-1 0 0 1 501.11 4.44441)" fill="#FFE6E6"/>
<circle cx="8.33333" cy="8.33333" r="8.33333" transform="matrix(-1 0 0 1 600 100)" fill="#FFE6E6"/>
<circle cx="12.2222" cy="12.2222" r="12.2222" transform="matrix(-1 0 0 1 556.666 28.8889)" fill="#FFE6E6"/>
<circle cx="18.8889" cy="18.8889" r="18.8889" transform="matrix(-1 0 0 1 613.333 9.99997)" fill="#FFE6E6"/>
<circle cx="18.8889" cy="18.8889" r="18.8889" transform="matrix(-1 0 0 1 584.444 3.33331)" fill="#FFE6E6"/>
<circle cx="13.3333" cy="13.3333" r="13.3333" transform="matrix(-1 0 0 1 461.11 27.7777)" fill="#FFE6E6"/>
<circle cx="28.8889" cy="28.8889" r="28.8889" transform="matrix(-1 0 0 1 540 3.33331)" fill="#FFE6E6"/>
<circle cx="28.8889" cy="28.8889" r="28.8889" transform="matrix(-1 0 0 1 333.333 -3.05176e-05)" fill="#FFE6E6"/>
<circle cx="28.8889" cy="28.8889" r="28.8889" transform="matrix(-1 0 0 1 245.556 -3.05176e-05)" fill="#FFE6E6"/>
<circle cx="28.8889" cy="28.8889" r="28.8889" transform="matrix(-1 0 0 1 287.777 26.6666)" fill="#FFE6E6"/>
<circle cx="3.88889" cy="3.88889" r="3.88889" transform="matrix(-1 0 0 1 577.777 168.889)" fill="#FFE6E6"/>
<circle cx="3.88889" cy="3.88889" r="3.88889" transform="matrix(-1 0 0 1 600 137.778)" fill="#FFE6E6"/>
<circle cx="3.88889" cy="3.88889" r="3.88889" transform="matrix(-1 0 0 1 527.777 124.444)" fill="#FFE6E6"/>
<circle cx="2.22222" cy="2.22222" r="2.22222" transform="matrix(-1 0 0 1 548.889 238.889)" fill="#FFE6E6"/>
<circle cx="3.33333" cy="3.33333" r="3.33333" transform="matrix(-1 0 0 1 512.222 196.667)" fill="#FFE6E6"/>
<circle cx="6.66667" cy="6.66667" r="6.66667" transform="matrix(-1 0 0 1 487.333 60.3333)" fill="#FFE6E6"/>
<circle cx="4.44444" cy="4.44444" r="4.44444" transform="matrix(-1 0 0 1 461.778 141.444)" fill="#FFE6E6"/>
<circle cx="2.22222" cy="2.22222" r="2.22222" transform="matrix(-1 0 0 1 481.778 227)" fill="#FFE6E6"/>
<circle cx="2.22222" cy="2.22222" r="2.22222" transform="matrix(-1 0 0 1 496.223 183.667)" fill="#FFE6E6"/>
<circle cx="2.22222" cy="2.22222" r="2.22222" transform="matrix(-1 0 0 1 442.889 177)" fill="#FFE6E6"/>
<circle cx="2.22222" cy="2.22222" r="2.22222" transform="matrix(-1 0 0 1 449.556 109.222)" fill="#FFE6E6"/>
<circle cx="2.22222" cy="2.22222" r="2.22222" transform="matrix(-1 0 0 1 397.333 121.444)" fill="#FFE6E6"/>
<circle cx="11.1111" cy="11.1111" r="11.1111" transform="matrix(-1 0 0 1 424 69.2221)" fill="#FFE6E6"/>
<circle cx="17.2222" cy="17.2222" r="17.2222" transform="matrix(-1 0 0 1 412.889 18.111)" fill="#FFE6E6"/>
<circle cx="6.11111" cy="6.11111" r="6.11111" transform="matrix(-1 0 0 1 468.444 85.8888)" fill="#FFE6E6"/>
<circle cx="25" cy="25" r="25" transform="matrix(-1 0 0 1 397.333 13.6666)" fill="#FFE6E6"/>
<circle cx="8.33333" cy="8.33333" r="8.33333" transform="matrix(-1 0 0 1 496.223 109.222)" fill="#FFE6E6"/>
<circle cx="12.2222" cy="12.2222" r="12.2222" transform="matrix(-1 0 0 1 452.889 38.111)" fill="#FFE6E6"/>
<circle cx="18.8889" cy="18.8889" r="18.8889" transform="matrix(-1 0 0 1 509.556 19.2221)" fill="#FFE6E6"/>
<circle cx="18.8889" cy="18.8889" r="18.8889" transform="matrix(-1 0 0 1 480.667 12.5555)" fill="#FFE6E6"/>
<circle cx="13.3333" cy="13.3333" r="13.3333" transform="matrix(-1 0 0 1 357.333 36.9999)" fill="#FFE6E6"/>
<circle cx="28.8889" cy="28.8889" r="28.8889" transform="matrix(-1 0 0 1 436.223 12.5555)" fill="#FFE6E6"/>
<circle cx="28.8889" cy="28.8889" r="28.8889" transform="matrix(-1 0 0 1 229.556 9.22214)" fill="#FFE6E6"/>
<circle cx="28.8889" cy="28.8889" r="28.8889" transform="matrix(-1 0 0 1 141.778 9.22214)" fill="#FFE6E6"/>
<circle cx="28.8889" cy="28.8889" r="28.8889" transform="matrix(-1 0 0 1 184 35.8888)" fill="#FFE6E6"/>
<circle cx="3.88889" cy="3.88889" r="3.88889" transform="matrix(-1 0 0 1 474 178.111)" fill="#FFE6E6"/>
<circle cx="3.88889" cy="3.88889" r="3.88889" transform="matrix(-1 0 0 1 496.223 147)" fill="#FFE6E6"/>
<circle cx="3.88889" cy="3.88889" r="3.88889" transform="matrix(-1 0 0 1 424 133.667)" fill="#FFE6E6"/>
<circle cx="2.22222" cy="2.22222" r="2.22222" transform="matrix(-1 0 0 1 445.111 248.111)" fill="#FFE6E6"/>
<circle cx="3.33333" cy="3.33333" r="3.33333" transform="matrix(-1 0 0 1 408.444 205.889)" fill="#FFE6E6"/>
<circle cx="6.66667" cy="6.66667" r="6.66667" transform="matrix(-1 0 0 1 96.333 55.3333)" fill="#FFE6E6"/>
<circle cx="4.44444" cy="4.44444" r="4.44444" transform="matrix(-1 0 0 1 70.7783 136.444)" fill="#FFE6E6"/>
<circle cx="2.22222" cy="2.22222" r="2.22222" transform="matrix(-1 0 0 1 90.7783 222)" fill="#FFE6E6"/>
<circle cx="2.22222" cy="2.22222" r="2.22222" transform="matrix(-1 0 0 1 105.223 178.667)" fill="#FFE6E6"/>
<circle cx="2.22222" cy="2.22222" r="2.22222" transform="matrix(-1 0 0 1 51.8887 172)" fill="#FFE6E6"/>
<circle cx="2.22222" cy="2.22222" r="2.22222" transform="matrix(-1 0 0 1 58.5557 104.222)" fill="#FFE6E6"/>
<circle cx="2.22222" cy="2.22222" r="2.22222" transform="matrix(-1 0 0 1 6.33301 116.444)" fill="#FFE6E6"/>
<circle cx="11.1111" cy="11.1111" r="11.1111" transform="matrix(-1 0 0 1 33 64.2221)" fill="#FFE6E6"/>
<circle cx="17.2222" cy="17.2222" r="17.2222" transform="matrix(-1 0 0 1 21.8887 13.111)" fill="#FFE6E6"/>
<circle cx="6.11111" cy="6.11111" r="6.11111" transform="matrix(-1 0 0 1 77.4443 80.8888)" fill="#FFE6E6"/>
<circle cx="25" cy="25" r="25" transform="matrix(-1 0 0 1 6.33301 8.6666)" fill="#FFE6E6"/>
<circle cx="8.33333" cy="8.33333" r="8.33333" transform="matrix(-1 0 0 1 105.223 104.222)" fill="#FFE6E6"/>
<circle cx="12.2222" cy="12.2222" r="12.2222" transform="matrix(-1 0 0 1 61.8887 33.111)" fill="#FFE6E6"/>
<circle cx="18.8889" cy="18.8889" r="18.8889" transform="matrix(-1 0 0 1 118.556 14.2221)" fill="#FFE6E6"/>
<circle cx="18.8889" cy="18.8889" r="18.8889" transform="matrix(-1 0 0 1 89.667 7.55548)" fill="#FFE6E6"/>
<circle cx="28.8889" cy="28.8889" r="28.8889" transform="matrix(-1 0 0 1 45.2227 7.55548)" fill="#FFE6E6"/>
<circle cx="3.88889" cy="3.88889" r="3.88889" transform="matrix(-1 0 0 1 83 173.111)" fill="#FFE6E6"/>
<circle cx="3.88889" cy="3.88889" r="3.88889" transform="matrix(-1 0 0 1 105.223 142)" fill="#FFE6E6"/>
<circle cx="3.88889" cy="3.88889" r="3.88889" transform="matrix(-1 0 0 1 33 128.667)" fill="#FFE6E6"/>
<circle cx="2.22222" cy="2.22222" r="2.22222" transform="matrix(-1 0 0 1 54.1113 243.111)" fill="#FFE6E6"/>
<circle cx="3.33333" cy="3.33333" r="3.33333" transform="matrix(-1 0 0 1 17.4443 200.889)" fill="#FFE6E6"/>
<circle cx="6.66667" cy="6.66667" r="6.66667" transform="matrix(-1 0 0 1 225.333 60.3333)" fill="#FFE6E6"/>
<circle cx="4.44444" cy="4.44444" r="4.44444" transform="matrix(-1 0 0 1 199.778 141.444)" fill="#FFE6E6"/>
<circle cx="2.22222" cy="2.22222" r="2.22222" transform="matrix(-1 0 0 1 219.778 227)" fill="#FFE6E6"/>
<circle cx="2.22222" cy="2.22222" r="2.22222" transform="matrix(-1 0 0 1 234.223 183.667)" fill="#FFE6E6"/>
<circle cx="2.22222" cy="2.22222" r="2.22222" transform="matrix(-1 0 0 1 180.889 177)" fill="#FFE6E6"/>
<circle cx="2.22222" cy="2.22222" r="2.22222" transform="matrix(-1 0 0 1 187.556 109.222)" fill="#FFE6E6"/>
<circle cx="2.22222" cy="2.22222" r="2.22222" transform="matrix(-1 0 0 1 135.333 121.444)" fill="#FFE6E6"/>
<circle cx="11.1111" cy="11.1111" r="11.1111" transform="matrix(-1 0 0 1 162 69.2221)" fill="#FFE6E6"/>
<circle cx="17.2222" cy="17.2222" r="17.2222" transform="matrix(-1 0 0 1 150.889 18.111)" fill="#FFE6E6"/>
<circle cx="6.11111" cy="6.11111" r="6.11111" transform="matrix(-1 0 0 1 206.444 85.8888)" fill="#FFE6E6"/>
<circle cx="25" cy="25" r="25" transform="matrix(-1 0 0 1 135.333 13.6666)" fill="#FFE6E6"/>
<circle cx="8.33333" cy="8.33333" r="8.33333" transform="matrix(-1 0 0 1 234.223 109.222)" fill="#FFE6E6"/>
<circle cx="12.2222" cy="12.2222" r="12.2222" transform="matrix(-1 0 0 1 190.889 38.111)" fill="#FFE6E6"/>
<circle cx="18.8889" cy="18.8889" r="18.8889" transform="matrix(-1 0 0 1 247.556 19.2221)" fill="#FFE6E6"/>
<circle cx="18.8889" cy="18.8889" r="18.8889" transform="matrix(-1 0 0 1 218.667 12.5555)" fill="#FFE6E6"/>
<circle cx="13.3333" cy="13.3333" r="13.3333" transform="matrix(-1 0 0 1 95.333 36.9999)" fill="#FFE6E6"/>
<circle cx="28.8889" cy="28.8889" r="28.8889" transform="matrix(-1 0 0 1 174.223 12.5555)" fill="#FFE6E6"/>
<circle cx="3.88889" cy="3.88889" r="3.88889" transform="matrix(-1 0 0 1 212 178.111)" fill="#FFE6E6"/>
<circle cx="3.88889" cy="3.88889" r="3.88889" transform="matrix(-1 0 0 1 234.223 147)" fill="#FFE6E6"/>
<circle cx="3.88889" cy="3.88889" r="3.88889" transform="matrix(-1 0 0 1 162 133.667)" fill="#FFE6E6"/>
<circle cx="2.22222" cy="2.22222" r="2.22222" transform="matrix(-1 0 0 1 183.111 248.111)" fill="#FFE6E6"/>
<circle cx="3.33333" cy="3.33333" r="3.33333" transform="matrix(-1 0 0 1 146.444 205.889)" fill="#FFE6E6"/>
<circle cx="6.66667" cy="6.66667" r="6.66667" transform="matrix(-1 0 0 1 849.333 57.3333)" fill="#FFE6E6"/>
<circle cx="4.44444" cy="4.44444" r="4.44444" transform="matrix(-1 0 0 1 823.778 138.444)" fill="#FFE6E6"/>
<circle cx="2.22222" cy="2.22222" r="2.22222" transform="matrix(-1 0 0 1 843.778 224)" fill="#FFE6E6"/>
<circle cx="2.22222" cy="2.22222" r="2.22222" transform="matrix(-1 0 0 1 858.223 180.667)" fill="#FFE6E6"/>
<circle cx="2.22222" cy="2.22222" r="2.22222" transform="matrix(-1 0 0 1 804.889 174)" fill="#FFE6E6"/>
<circle cx="2.22222" cy="2.22222" r="2.22222" transform="matrix(-1 0 0 1 811.556 106.222)" fill="#FFE6E6"/>
<circle cx="2.22222" cy="2.22222" r="2.22222" transform="matrix(-1 0 0 1 759.333 118.444)" fill="#FFE6E6"/>
<circle cx="11.1111" cy="11.1111" r="11.1111" transform="matrix(-1 0 0 1 786 66.2221)" fill="#FFE6E6"/>
<circle cx="17.2222" cy="17.2222" r="17.2222" transform="matrix(-1 0 0 1 774.889 15.111)" fill="#FFE6E6"/>
<circle cx="6.11111" cy="6.11111" r="6.11111" transform="matrix(-1 0 0 1 830.444 82.8888)" fill="#FFE6E6"/>
<circle cx="25" cy="25" r="25" transform="matrix(-1 0 0 1 759.333 10.6666)" fill="#FFE6E6"/>
<circle cx="8.33333" cy="8.33333" r="8.33333" transform="matrix(-1 0 0 1 858.223 106.222)" fill="#FFE6E6"/>
<circle cx="12.2222" cy="12.2222" r="12.2222" transform="matrix(-1 0 0 1 814.889 35.111)" fill="#FFE6E6"/>
<circle cx="18.8889" cy="18.8889" r="18.8889" transform="matrix(-1 0 0 1 871.556 16.2221)" fill="#FFE6E6"/>
<circle cx="18.8889" cy="18.8889" r="18.8889" transform="matrix(-1 0 0 1 842.667 9.55548)" fill="#FFE6E6"/>
<circle cx="13.3333" cy="13.3333" r="13.3333" transform="matrix(-1 0 0 1 719.333 33.9999)" fill="#FFE6E6"/>
<circle cx="28.8889" cy="28.8889" r="28.8889" transform="matrix(-1 0 0 1 798.223 9.55548)" fill="#FFE6E6"/>
<circle cx="28.8889" cy="28.8889" r="28.8889" transform="matrix(-1 0 0 1 591.556 6.22214)" fill="#FFE6E6"/>
<circle cx="28.8889" cy="28.8889" r="28.8889" transform="matrix(-1 0 0 1 503.778 6.22214)" fill="#FFE6E6"/>
<circle cx="28.8889" cy="28.8889" r="28.8889" transform="matrix(-1 0 0 1 546 32.8888)" fill="#FFE6E6"/>
<circle cx="3.88889" cy="3.88889" r="3.88889" transform="matrix(-1 0 0 1 836 175.111)" fill="#FFE6E6"/>
<circle cx="3.88889" cy="3.88889" r="3.88889" transform="matrix(-1 0 0 1 858.223 144)" fill="#FFE6E6"/>
<circle cx="3.88889" cy="3.88889" r="3.88889" transform="matrix(-1 0 0 1 786 130.667)" fill="#FFE6E6"/>
<circle cx="2.22222" cy="2.22222" r="2.22222" transform="matrix(-1 0 0 1 807.111 245.111)" fill="#FFE6E6"/>
<circle cx="3.33333" cy="3.33333" r="3.33333" transform="matrix(-1 0 0 1 770.444 202.889)" fill="#FFE6E6"/>
<circle cx="6.66667" cy="6.66667" r="6.66667" transform="matrix(-1 0 0 1 994.333 66.3333)" fill="#FFE6E6"/>
<circle cx="4.44444" cy="4.44444" r="4.44444" transform="matrix(-1 0 0 1 968.778 147.444)" fill="#FFE6E6"/>
<circle cx="2.22222" cy="2.22222" r="2.22222" transform="matrix(-1 0 0 1 988.778 233)" fill="#FFE6E6"/>
<circle cx="2.22222" cy="2.22222" r="2.22222" transform="matrix(-1 0 0 1 1003.22 189.667)" fill="#FFE6E6"/>
<circle cx="2.22222" cy="2.22222" r="2.22222" transform="matrix(-1 0 0 1 949.889 183)" fill="#FFE6E6"/>
<circle cx="2.22222" cy="2.22222" r="2.22222" transform="matrix(-1 0 0 1 956.556 115.222)" fill="#FFE6E6"/>
<circle cx="2.22222" cy="2.22222" r="2.22222" transform="matrix(-1 0 0 1 904.333 127.444)" fill="#FFE6E6"/>
<circle cx="11.1111" cy="11.1111" r="11.1111" transform="matrix(-1 0 0 1 931 75.2221)" fill="#FFE6E6"/>
<circle cx="17.2222" cy="17.2222" r="17.2222" transform="matrix(-1 0 0 1 919.889 24.111)" fill="#FFE6E6"/>
<circle cx="6.11111" cy="6.11111" r="6.11111" transform="matrix(-1 0 0 1 975.444 91.8888)" fill="#FFE6E6"/>
<circle cx="25" cy="25" r="25" transform="matrix(-1 0 0 1 904.333 19.6666)" fill="#FFE6E6"/>
<circle cx="8.33333" cy="8.33333" r="8.33333" transform="matrix(-1 0 0 1 1003.22 115.222)" fill="#FFE6E6"/>
<circle cx="12.2222" cy="12.2222" r="12.2222" transform="matrix(-1 0 0 1 959.889 44.111)" fill="#FFE6E6"/>
<circle cx="18.8889" cy="18.8889" r="18.8889" transform="matrix(-1 0 0 1 1016.56 25.2221)" fill="#FFE6E6"/>
<circle cx="18.8889" cy="18.8889" r="18.8889" transform="matrix(-1 0 0 1 987.667 18.5555)" fill="#FFE6E6"/>
<circle cx="13.3333" cy="13.3333" r="13.3333" transform="matrix(-1 0 0 1 864.333 42.9999)" fill="#FFE6E6"/>
<circle cx="28.8889" cy="28.8889" r="28.8889" transform="matrix(-1 0 0 1 943.223 18.5555)" fill="#FFE6E6"/>
<circle cx="28.8889" cy="28.8889" r="28.8889" transform="matrix(-1 0 0 1 736.556 15.2221)" fill="#FFE6E6"/>
<circle cx="28.8889" cy="28.8889" r="28.8889" transform="matrix(-1 0 0 1 648.778 15.2221)" fill="#FFE6E6"/>
<circle cx="28.8889" cy="28.8889" r="28.8889" transform="matrix(-1 0 0 1 691 41.8888)" fill="#FFE6E6"/>
<circle cx="3.88889" cy="3.88889" r="3.88889" transform="matrix(-1 0 0 1 981 184.111)" fill="#FFE6E6"/>
<circle cx="3.88889" cy="3.88889" r="3.88889" transform="matrix(-1 0 0 1 1003.22 153)" fill="#FFE6E6"/>
<circle cx="3.88889" cy="3.88889" r="3.88889" transform="matrix(-1 0 0 1 931 139.667)" fill="#FFE6E6"/>
<circle cx="2.22222" cy="2.22222" r="2.22222" transform="matrix(-1 0 0 1 952.111 254.111)" fill="#FFE6E6"/>
<circle cx="3.33333" cy="3.33333" r="3.33333" transform="matrix(-1 0 0 1 915.444 211.889)" fill="#FFE6E6"/>
<circle cx="6.66667" cy="6.66667" r="6.66667" transform="matrix(-1 0 0 1 1397.33 68.3333)" fill="#FFE6E6"/>
<circle cx="4.44444" cy="4.44444" r="4.44444" transform="matrix(-1 0 0 1 1371.78 149.444)" fill="#FFE6E6"/>
<circle cx="2.22222" cy="2.22222" r="2.22222" transform="matrix(-1 0 0 1 1391.78 235)" fill="#FFE6E6"/>
<circle cx="2.22222" cy="2.22222" r="2.22222" transform="matrix(-1 0 0 1 1406.22 191.667)" fill="#FFE6E6"/>
<circle cx="2.22222" cy="2.22222" r="2.22222" transform="matrix(-1 0 0 1 1352.89 185)" fill="#FFE6E6"/>
<circle cx="2.22222" cy="2.22222" r="2.22222" transform="matrix(-1 0 0 1 1359.56 117.222)" fill="#FFE6E6"/>
<circle cx="2.22222" cy="2.22222" r="2.22222" transform="matrix(-1 0 0 1 1307.33 129.444)" fill="#FFE6E6"/>
<circle cx="11.1111" cy="11.1111" r="11.1111" transform="matrix(-1 0 0 1 1334 77.2221)" fill="#FFE6E6"/>
<circle cx="17.2222" cy="17.2222" r="17.2222" transform="matrix(-1 0 0 1 1322.89 26.111)" fill="#FFE6E6"/>
<circle cx="6.11111" cy="6.11111" r="6.11111" transform="matrix(-1 0 0 1 1378.44 93.8888)" fill="#FFE6E6"/>
<circle cx="25" cy="25" r="25" transform="matrix(-1 0 0 1 1307.33 21.6666)" fill="#FFE6E6"/>
<circle cx="8.33333" cy="8.33333" r="8.33333" transform="matrix(-1 0 0 1 1406.22 117.222)" fill="#FFE6E6"/>
<circle cx="12.2222" cy="12.2222" r="12.2222" transform="matrix(-1 0 0 1 1362.89 46.111)" fill="#FFE6E6"/>
<circle cx="18.8889" cy="18.8889" r="18.8889" transform="matrix(-1 0 0 1 1419.56 27.2221)" fill="#FFE6E6"/>
<circle cx="18.8889" cy="18.8889" r="18.8889" transform="matrix(-1 0 0 1 1390.67 20.5555)" fill="#FFE6E6"/>
<circle cx="13.3333" cy="13.3333" r="13.3333" transform="matrix(-1 0 0 1 1267.33 44.9999)" fill="#FFE6E6"/>
<circle cx="28.8889" cy="28.8889" r="28.8889" transform="matrix(-1 0 0 1 1346.22 20.5555)" fill="#FFE6E6"/>
<circle cx="28.8889" cy="28.8889" r="28.8889" transform="matrix(-1 0 0 1 1139.56 17.2221)" fill="#FFE6E6"/>
<circle cx="28.8889" cy="28.8889" r="28.8889" transform="matrix(-1 0 0 1 1051.78 17.2221)" fill="#FFE6E6"/>
<circle cx="28.8889" cy="28.8889" r="28.8889" transform="matrix(-1 0 0 1 1094 43.8888)" fill="#FFE6E6"/>
<circle cx="3.88889" cy="3.88889" r="3.88889" transform="matrix(-1 0 0 1 1384 186.111)" fill="#FFE6E6"/>
<circle cx="3.88889" cy="3.88889" r="3.88889" transform="matrix(-1 0 0 1 1406.22 155)" fill="#FFE6E6"/>
<circle cx="3.88889" cy="3.88889" r="3.88889" transform="matrix(-1 0 0 1 1334 141.667)" fill="#FFE6E6"/>
<circle cx="2.22222" cy="2.22222" r="2.22222" transform="matrix(-1 0 0 1 1355.11 256.111)" fill="#FFE6E6"/>
<circle cx="3.33333" cy="3.33333" r="3.33333" transform="matrix(-1 0 0 1 1318.44 213.889)" fill="#FFE6E6"/>
<circle cx="6.66667" cy="6.66667" r="6.66667" transform="matrix(-1 0 0 1 1722.33 65.3333)" fill="#FFE6E6"/>
<circle cx="4.44444" cy="4.44444" r="4.44444" transform="matrix(-1 0 0 1 1696.78 146.444)" fill="#FFE6E6"/>
<circle cx="2.22222" cy="2.22222" r="2.22222" transform="matrix(-1 0 0 1 1716.78 232)" fill="#FFE6E6"/>
<circle cx="2.22222" cy="2.22222" r="2.22222" transform="matrix(-1 0 0 1 1731.22 188.667)" fill="#FFE6E6"/>
<circle cx="2.22222" cy="2.22222" r="2.22222" transform="matrix(-1 0 0 1 1677.89 182)" fill="#FFE6E6"/>
<circle cx="2.22222" cy="2.22222" r="2.22222" transform="matrix(-1 0 0 1 1684.56 114.222)" fill="#FFE6E6"/>
<circle cx="2.22222" cy="2.22222" r="2.22222" transform="matrix(-1 0 0 1 1632.33 126.444)" fill="#FFE6E6"/>
<circle cx="11.1111" cy="11.1111" r="11.1111" transform="matrix(-1 0 0 1 1659 74.2221)" fill="#FFE6E6"/>
<circle cx="17.2222" cy="17.2222" r="17.2222" transform="matrix(-1 0 0 1 1647.89 23.111)" fill="#FFE6E6"/>
<circle cx="6.11111" cy="6.11111" r="6.11111" transform="matrix(-1 0 0 1 1703.44 90.8888)" fill="#FFE6E6"/>
<circle cx="25" cy="25" r="25" transform="matrix(-1 0 0 1 1632.33 18.6666)" fill="#FFE6E6"/>
<circle cx="8.33333" cy="8.33333" r="8.33333" transform="matrix(-1 0 0 1 1731.22 114.222)" fill="#FFE6E6"/>
<circle cx="12.2222" cy="12.2222" r="12.2222" transform="matrix(-1 0 0 1 1687.89 43.111)" fill="#FFE6E6"/>
<circle cx="18.8889" cy="18.8889" r="18.8889" transform="matrix(-1 0 0 1 1744.56 24.2221)" fill="#FFE6E6"/>
<circle cx="18.8889" cy="18.8889" r="18.8889" transform="matrix(-1 0 0 1 1715.67 17.5555)" fill="#FFE6E6"/>
<circle cx="13.3333" cy="13.3333" r="13.3333" transform="matrix(-1 0 0 1 1592.33 41.9999)" fill="#FFE6E6"/>
<circle cx="28.8889" cy="28.8889" r="28.8889" transform="matrix(-1 0 0 1 1671.22 17.5555)" fill="#FFE6E6"/>
<circle cx="28.8889" cy="28.8889" r="28.8889" transform="matrix(-1 0 0 1 1464.56 14.2221)" fill="#FFE6E6"/>
<circle cx="28.8889" cy="28.8889" r="28.8889" transform="matrix(-1 0 0 1 1376.78 14.2221)" fill="#FFE6E6"/>
<circle cx="28.8889" cy="28.8889" r="28.8889" transform="matrix(-1 0 0 1 1419 40.8888)" fill="#FFE6E6"/>
<circle cx="3.88889" cy="3.88889" r="3.88889" transform="matrix(-1 0 0 1 1709 183.111)" fill="#FFE6E6"/>
<circle cx="3.88889" cy="3.88889" r="3.88889" transform="matrix(-1 0 0 1 1731.22 152)" fill="#FFE6E6"/>
<circle cx="3.88889" cy="3.88889" r="3.88889" transform="matrix(-1 0 0 1 1659 138.667)" fill="#FFE6E6"/>
<circle cx="2.22222" cy="2.22222" r="2.22222" transform="matrix(-1 0 0 1 1680.11 253.111)" fill="#FFE6E6"/>
<circle cx="3.33333" cy="3.33333" r="3.33333" transform="matrix(-1 0 0 1 1643.44 210.889)" fill="#FFE6E6"/>
<circle cx="320.001" cy="40" r="6.66667" fill="#FFE6E6"/>
<circle cx="343.333" cy="118.889" r="4.44444" fill="#FFE6E6"/>
<circle cx="321.111" cy="202.222" r="2.22222" fill="#FFE6E6"/>
<circle cx="306.667" cy="158.889" r="2.22222" fill="#FFE6E6"/>
<circle cx="360.001" cy="152.222" r="2.22222" fill="#FFE6E6"/>
<circle cx="353.334" cy="84.4444" r="2.22222" fill="#FFE6E6"/>
<circle cx="405.556" cy="96.6666" r="2.22222" fill="#FFE6E6"/>
<circle cx="387.778" cy="53.3333" r="11.1111" fill="#FFE6E6"/>
<circle cx="405.001" cy="8.33329" r="17.2222" fill="#FFE6E6"/>
<circle cx="338.334" cy="65" r="6.11111" fill="#FFE6E6"/>
<circle cx="428.334" cy="11.6666" r="25" fill="#FFE6E6"/>
<circle cx="312.778" cy="90.5555" r="8.33333" fill="#FFE6E6"/>
<circle cx="360.001" cy="23.3333" r="12.2222" fill="#FFE6E6"/>
<circle cx="310" cy="11.1111" r="18.8889" fill="#FFE6E6"/>
<circle cx="338.889" cy="4.4444" r="18.8889" fill="#FFE6E6"/>
<circle cx="446.667" cy="30" r="13.3333" fill="#FFE6E6"/>
<circle cx="330.556" cy="155" r="3.88889" fill="#FFE6E6"/>
<circle cx="308.333" cy="123.889" r="3.88889" fill="#FFE6E6"/>
<circle cx="380.556" cy="110.556" r="3.88889" fill="#FFE6E6"/>
<circle cx="357.778" cy="223.333" r="2.22222" fill="#FFE6E6"/>
<circle cx="395.556" cy="182.222" r="3.33333" fill="#FFE6E6"/>
<circle cx="6.66667" cy="6.66667" r="6.66667" transform="matrix(-1 0 0 1 296.666 35.5556)" fill="#FFE6E6"/>
<circle cx="4.44444" cy="4.44444" r="4.44444" transform="matrix(-1 0 0 1 271.111 116.667)" fill="#FFE6E6"/>
<circle cx="2.22222" cy="2.22222" r="2.22222" transform="matrix(-1 0 0 1 291.111 202.222)" fill="#FFE6E6"/>
<circle cx="2.22222" cy="2.22222" r="2.22222" transform="matrix(-1 0 0 1 305.556 158.889)" fill="#FFE6E6"/>
<circle cx="2.22222" cy="2.22222" r="2.22222" transform="matrix(-1 0 0 1 252.222 152.222)" fill="#FFE6E6"/>
<circle cx="2.22222" cy="2.22222" r="2.22222" transform="matrix(-1 0 0 1 258.889 84.4445)" fill="#FFE6E6"/>
<circle cx="2.22222" cy="2.22222" r="2.22222" transform="matrix(-1 0 0 1 206.666 96.6667)" fill="#FFE6E6"/>
<circle cx="11.1111" cy="11.1111" r="11.1111" transform="matrix(-1 0 0 1 233.333 44.4445)" fill="#FFE6E6"/>
<circle cx="17.2222" cy="17.2222" r="17.2222" transform="matrix(-1 0 0 1 222.222 -6.66664)" fill="#FFE6E6"/>
<circle cx="6.11111" cy="6.11111" r="6.11111" transform="matrix(-1 0 0 1 277.777 61.1111)" fill="#FFE6E6"/>
<circle cx="25" cy="25" r="25" transform="matrix(-1 0 0 1 206.666 -11.1111)" fill="#FFE6E6"/>
<circle cx="8.33333" cy="8.33333" r="8.33333" transform="matrix(-1 0 0 1 305.556 84.4445)" fill="#FFE6E6"/>
<circle cx="12.2222" cy="12.2222" r="12.2222" transform="matrix(-1 0 0 1 262.222 13.3333)" fill="#FFE6E6"/>
<circle cx="18.8889" cy="18.8889" r="18.8889" transform="matrix(-1 0 0 1 318.889 -5.55554)" fill="#FFE6E6"/>
<circle cx="18.8889" cy="18.8889" r="18.8889" transform="matrix(-1 0 0 1 290 -12.2222)" fill="#FFE6E6"/>
<circle cx="13.3333" cy="13.3333" r="13.3333" transform="matrix(-1 0 0 1 176.666 18.8889)" fill="#FFE6E6"/>
<circle cx="3.88889" cy="3.88889" r="3.88889" transform="matrix(-1 0 0 1 283.333 153.333)" fill="#FFE6E6"/>
<circle cx="3.88889" cy="3.88889" r="3.88889" transform="matrix(-1 0 0 1 305.556 122.222)" fill="#FFE6E6"/>
<circle cx="3.88889" cy="3.88889" r="3.88889" transform="matrix(-1 0 0 1 233.333 108.889)" fill="#FFE6E6"/>
<circle cx="2.22222" cy="2.22222" r="2.22222" transform="matrix(-1 0 0 1 254.444 223.333)" fill="#FFE6E6"/>
<circle cx="3.33333" cy="3.33333" r="3.33333" transform="matrix(-1 0 0 1 217.777 181.111)" fill="#FFE6E6"/>
<circle cx="6.66667" cy="6.66667" r="6.66667" transform="matrix(-1 0 0 1 757.777 41.1111)" fill="#FFE6E6"/>
<circle cx="4.44444" cy="4.44444" r="4.44444" transform="matrix(-1 0 0 1 732.223 122.222)" fill="#FFE6E6"/>
<circle cx="2.22222" cy="2.22222" r="2.22222" transform="matrix(-1 0 0 1 752.223 207.778)" fill="#FFE6E6"/>
<circle cx="2.22222" cy="2.22222" r="2.22222" transform="matrix(-1 0 0 1 766.667 164.444)" fill="#FFE6E6"/>
<circle cx="2.22222" cy="2.22222" r="2.22222" transform="matrix(-1 0 0 1 713.333 157.778)" fill="#FFE6E6"/>
<circle cx="2.22222" cy="2.22222" r="2.22222" transform="matrix(-1 0 0 1 720 90)" fill="#FFE6E6"/>
<circle cx="2.22222" cy="2.22222" r="2.22222" transform="matrix(-1 0 0 1 667.777 102.222)" fill="#FFE6E6"/>
<circle cx="11.1111" cy="11.1111" r="11.1111" transform="matrix(-1 0 0 1 694.444 50)" fill="#FFE6E6"/>
<circle cx="17.2222" cy="17.2222" r="17.2222" transform="matrix(-1 0 0 1 683.333 -1.11108)" fill="#FFE6E6"/>
<circle cx="6.11111" cy="6.11111" r="6.11111" transform="matrix(-1 0 0 1 738.889 66.6667)" fill="#FFE6E6"/>
<circle cx="25" cy="25" r="25" transform="matrix(-1 0 0 1 667.777 -5.55553)" fill="#FFE6E6"/>
<circle cx="8.33333" cy="8.33333" r="8.33333" transform="matrix(-1 0 0 1 766.667 90)" fill="#FFE6E6"/>
<circle cx="12.2222" cy="12.2222" r="12.2222" transform="matrix(-1 0 0 1 723.333 18.8889)" fill="#FFE6E6"/>
<circle cx="18.8889" cy="18.8889" r="18.8889" transform="matrix(-1 0 0 1 780 3.05176e-05)" fill="#FFE6E6"/>
<circle cx="18.8889" cy="18.8889" r="18.8889" transform="matrix(-1 0 0 1 751.111 -6.66663)" fill="#FFE6E6"/>
<circle cx="13.3333" cy="13.3333" r="13.3333" transform="matrix(-1 0 0 1 637.777 24.4445)" fill="#FFE6E6"/>
<circle cx="3.88889" cy="3.88889" r="3.88889" transform="matrix(-1 0 0 1 744.444 158.889)" fill="#FFE6E6"/>
<circle cx="3.88889" cy="3.88889" r="3.88889" transform="matrix(-1 0 0 1 766.667 127.778)" fill="#FFE6E6"/>
<circle cx="3.88889" cy="3.88889" r="3.88889" transform="matrix(-1 0 0 1 694.444 114.444)" fill="#FFE6E6"/>
<circle cx="2.22222" cy="2.22222" r="2.22222" transform="matrix(-1 0 0 1 715.556 228.889)" fill="#FFE6E6"/>
<circle cx="3.33333" cy="3.33333" r="3.33333" transform="matrix(-1 0 0 1 678.889 186.667)" fill="#FFE6E6"/>
<circle cx="6.66667" cy="6.66667" r="6.66667" transform="matrix(-1 0 0 1 1780 18.8889)" fill="#FFE6E6"/>
<circle cx="4.44444" cy="4.44444" r="4.44444" transform="matrix(-1 0 0 1 1754.44 100)" fill="#FFE6E6"/>
<circle cx="2.22222" cy="2.22222" r="2.22222" transform="matrix(-1 0 0 1 1774.44 185.556)" fill="#FFE6E6"/>
<circle cx="2.22222" cy="2.22222" r="2.22222" transform="matrix(-1 0 0 1 1788.89 142.222)" fill="#FFE6E6"/>
<circle cx="2.22222" cy="2.22222" r="2.22222" transform="matrix(-1 0 0 1 1735.55 135.556)" fill="#FFE6E6"/>
<circle cx="2.22222" cy="2.22222" r="2.22222" transform="matrix(-1 0 0 1 1742.22 67.7777)" fill="#FFE6E6"/>
<circle cx="2.22222" cy="2.22222" r="2.22222" transform="matrix(-1 0 0 1 1690 80)" fill="#FFE6E6"/>
<circle cx="11.1111" cy="11.1111" r="11.1111" transform="matrix(-1 0 0 1 1716.67 27.7777)" fill="#FFE6E6"/>
<circle cx="17.2222" cy="17.2222" r="17.2222" transform="matrix(-1 0 0 1 1705.55 -23.3334)" fill="#FFE6E6"/>
<circle cx="6.11111" cy="6.11111" r="6.11111" transform="matrix(-1 0 0 1 1761.11 44.4444)" fill="#FFE6E6"/>
<circle cx="25" cy="25" r="25" transform="matrix(-1 0 0 1 1690 -27.7778)" fill="#FFE6E6"/>
<circle cx="8.33333" cy="8.33333" r="8.33333" transform="matrix(-1 0 0 1 1788.89 67.7777)" fill="#FFE6E6"/>
<circle cx="12.2222" cy="12.2222" r="12.2222" transform="matrix(-1 0 0 1 1745.55 -3.33336)" fill="#FFE6E6"/>
<circle cx="18.8889" cy="18.8889" r="18.8889" transform="matrix(-1 0 0 1 1802.22 -22.2222)" fill="#FFE6E6"/>
<circle cx="18.8889" cy="18.8889" r="18.8889" transform="matrix(-1 0 0 1 1773.33 -28.8889)" fill="#FFE6E6"/>
<circle cx="13.3333" cy="13.3333" r="13.3333" transform="matrix(-1 0 0 1 1660 2.2222)" fill="#FFE6E6"/>
<circle cx="3.88889" cy="3.88889" r="3.88889" transform="matrix(-1 0 0 1 1766.67 136.667)" fill="#FFE6E6"/>
<circle cx="3.88889" cy="3.88889" r="3.88889" transform="matrix(-1 0 0 1 1788.89 105.556)" fill="#FFE6E6"/>
<circle cx="3.88889" cy="3.88889" r="3.88889" transform="matrix(-1 0 0 1 1716.67 92.2222)" fill="#FFE6E6"/>
<circle cx="2.22222" cy="2.22222" r="2.22222" transform="matrix(-1 0 0 1 1737.78 206.667)" fill="#FFE6E6"/>
<circle cx="3.33333" cy="3.33333" r="3.33333" transform="matrix(-1 0 0 1 1701.11 164.444)" fill="#FFE6E6"/>
<circle cx="6.66667" cy="6.66667" r="6.66667" transform="matrix(-1 0 0 1 1946.67 8.88885)" fill="#FFE6E6"/>
<circle cx="4.44444" cy="4.44444" r="4.44444" transform="matrix(-1 0 0 1 1921.11 90)" fill="#FFE6E6"/>
<circle cx="2.22222" cy="2.22222" r="2.22222" transform="matrix(-1 0 0 1 1941.11 175.556)" fill="#FFE6E6"/>
<circle cx="2.22222" cy="2.22222" r="2.22222" transform="matrix(-1 0 0 1 1955.56 132.222)" fill="#FFE6E6"/>
<circle cx="2.22222" cy="2.22222" r="2.22222" transform="matrix(-1 0 0 1 1902.22 125.556)" fill="#FFE6E6"/>
<circle cx="2.22222" cy="2.22222" r="2.22222" transform="matrix(-1 0 0 1 1908.89 57.7777)" fill="#FFE6E6"/>
<circle cx="2.22222" cy="2.22222" r="2.22222" transform="matrix(-1 0 0 1 1856.67 70)" fill="#FFE6E6"/>
<circle cx="11.1111" cy="11.1111" r="11.1111" transform="matrix(-1 0 0 1 1883.33 17.7777)" fill="#FFE6E6"/>
<circle cx="17.2222" cy="17.2222" r="17.2222" transform="matrix(-1 0 0 1 1872.22 -33.3334)" fill="#FFE6E6"/>
<circle cx="6.11111" cy="6.11111" r="6.11111" transform="matrix(-1 0 0 1 1927.78 34.4444)" fill="#FFE6E6"/>
<circle cx="25" cy="25" r="25" transform="matrix(-1 0 0 1 1856.67 -37.7778)" fill="#FFE6E6"/>
<circle cx="8.33333" cy="8.33333" r="8.33333" transform="matrix(-1 0 0 1 1955.56 57.7777)" fill="#FFE6E6"/>
<circle cx="12.2222" cy="12.2222" r="12.2222" transform="matrix(-1 0 0 1 1912.22 -13.3334)" fill="#FFE6E6"/>
<circle cx="18.8889" cy="18.8889" r="18.8889" transform="matrix(-1 0 0 1 1968.89 -32.2222)" fill="#FFE6E6"/>
<circle cx="13.3333" cy="13.3333" r="13.3333" transform="matrix(-1 0 0 1 1826.67 -7.7778)" fill="#FFE6E6"/>
<circle cx="3.88889" cy="3.88889" r="3.88889" transform="matrix(-1 0 0 1 1933.33 126.667)" fill="#FFE6E6"/>
<circle cx="3.88889" cy="3.88889" r="3.88889" transform="matrix(-1 0 0 1 1955.56 95.5555)" fill="#FFE6E6"/>
<circle cx="3.88889" cy="3.88889" r="3.88889" transform="matrix(-1 0 0 1 1883.33 82.2222)" fill="#FFE6E6"/>
<circle cx="2.22222" cy="2.22222" r="2.22222" transform="matrix(-1 0 0 1 1904.44 196.667)" fill="#FFE6E6"/>
<circle cx="3.33333" cy="3.33333" r="3.33333" transform="matrix(-1 0 0 1 1867.78 154.444)" fill="#FFE6E6"/>
<circle cx="6.66667" cy="6.66667" r="6.66667" transform="matrix(-1 0 0 1 1852.22 22.2221)" fill="#FFE6E6"/>
<circle cx="4.44444" cy="4.44444" r="4.44444" transform="matrix(-1 0 0 1 1826.67 103.333)" fill="#FFE6E6"/>
<circle cx="2.22222" cy="2.22222" r="2.22222" transform="matrix(-1 0 0 1 1846.67 188.889)" fill="#FFE6E6"/>
<circle cx="2.22222" cy="2.22222" r="2.22222" transform="matrix(-1 0 0 1 1861.11 145.555)" fill="#FFE6E6"/>
<circle cx="2.22222" cy="2.22222" r="2.22222" transform="matrix(-1 0 0 1 1807.78 138.889)" fill="#FFE6E6"/>
<circle cx="2.22222" cy="2.22222" r="2.22222" transform="matrix(-1 0 0 1 1814.44 71.111)" fill="#FFE6E6"/>
<circle cx="2.22222" cy="2.22222" r="2.22222" transform="matrix(-1 0 0 1 1762.22 83.3332)" fill="#FFE6E6"/>
<circle cx="11.1111" cy="11.1111" r="11.1111" transform="matrix(-1 0 0 1 1788.89 31.111)" fill="#FFE6E6"/>
<circle cx="17.2222" cy="17.2222" r="17.2222" transform="matrix(-1 0 0 1 1777.78 -20.0001)" fill="#FFE6E6"/>
<circle cx="6.11111" cy="6.11111" r="6.11111" transform="matrix(-1 0 0 1 1833.33 47.7776)" fill="#FFE6E6"/>
<circle cx="25" cy="25" r="25" transform="matrix(-1 0 0 1 1762.22 -24.4446)" fill="#FFE6E6"/>
<circle cx="8.33333" cy="8.33333" r="8.33333" transform="matrix(-1 0 0 1 1861.11 71.111)" fill="#FFE6E6"/>
<circle cx="12.2222" cy="12.2222" r="12.2222" transform="matrix(-1 0 0 1 1817.78 -0.00012207)" fill="#FFE6E6"/>
<circle cx="18.8889" cy="18.8889" r="18.8889" transform="matrix(-1 0 0 1 1874.44 -18.889)" fill="#FFE6E6"/>
<circle cx="18.8889" cy="18.8889" r="18.8889" transform="matrix(-1 0 0 1 1845.56 -25.5557)" fill="#FFE6E6"/>
<circle cx="13.3333" cy="13.3333" r="13.3333" transform="matrix(-1 0 0 1 1732.22 5.55544)" fill="#FFE6E6"/>
<circle cx="3.88889" cy="3.88889" r="3.88889" transform="matrix(-1 0 0 1 1838.89 140)" fill="#FFE6E6"/>
<circle cx="3.88889" cy="3.88889" r="3.88889" transform="matrix(-1 0 0 1 1861.11 108.889)" fill="#FFE6E6"/>
<circle cx="3.88889" cy="3.88889" r="3.88889" transform="matrix(-1 0 0 1 1788.89 95.5554)" fill="#FFE6E6"/>
<circle cx="2.22222" cy="2.22222" r="2.22222" transform="matrix(-1 0 0 1 1810 210)" fill="#FFE6E6"/>
<circle cx="3.33333" cy="3.33333" r="3.33333" transform="matrix(-1 0 0 1 1773.33 167.778)" fill="#FFE6E6"/>
<circle cx="2.22222" cy="2.22222" r="2.22222" transform="matrix(-1 0 0 1 1928.89 73.3332)" fill="#FFE6E6"/>
<circle cx="11.1111" cy="11.1111" r="11.1111" transform="matrix(-1 0 0 1 1955.56 21.111)" fill="#FFE6E6"/>
<circle cx="17.2222" cy="17.2222" r="17.2222" transform="matrix(-1 0 0 1 1944.45 -30.0001)" fill="#FFE6E6"/>
<circle cx="25" cy="25" r="25" transform="matrix(-1 0 0 1 1928.89 -34.4446)" fill="#FFE6E6"/>
<circle cx="13.3333" cy="13.3333" r="13.3333" transform="matrix(-1 0 0 1 1898.89 -4.44456)" fill="#FFE6E6"/>
<circle cx="3.88889" cy="3.88889" r="3.88889" transform="matrix(-1 0 0 1 1955.56 85.5555)" fill="#FFE6E6"/>
<circle cx="3.33333" cy="3.33333" r="3.33333" transform="matrix(-1 0 0 1 1940 157.778)" fill="#FFE6E6"/>
<circle cx="6.66667" cy="6.66667" r="6.66667" transform="matrix(-1 0 0 1 1453.33 33.3333)" fill="#FFE6E6"/>
<circle cx="4.44444" cy="4.44444" r="4.44444" transform="matrix(-1 0 0 1 1427.78 114.444)" fill="#FFE6E6"/>
<circle cx="2.22222" cy="2.22222" r="2.22222" transform="matrix(-1 0 0 1 1447.78 200)" fill="#FFE6E6"/>
<circle cx="2.22222" cy="2.22222" r="2.22222" transform="matrix(-1 0 0 1 1462.22 156.667)" fill="#FFE6E6"/>
<circle cx="2.22222" cy="2.22222" r="2.22222" transform="matrix(-1 0 0 1 1408.89 150)" fill="#FFE6E6"/>
<circle cx="2.22222" cy="2.22222" r="2.22222" transform="matrix(-1 0 0 1 1415.56 82.2222)" fill="#FFE6E6"/>
<circle cx="2.22222" cy="2.22222" r="2.22222" transform="matrix(-1 0 0 1 1363.33 94.4444)" fill="#FFE6E6"/>
<circle cx="11.1111" cy="11.1111" r="11.1111" transform="matrix(-1 0 0 1 1390 42.2222)" fill="#FFE6E6"/>
<circle cx="17.2222" cy="17.2222" r="17.2222" transform="matrix(-1 0 0 1 1378.89 -8.88895)" fill="#FFE6E6"/>
<circle cx="6.11111" cy="6.11111" r="6.11111" transform="matrix(-1 0 0 1 1434.44 58.8888)" fill="#FFE6E6"/>
<circle cx="25" cy="25" r="25" transform="matrix(-1 0 0 1 1363.33 -13.3334)" fill="#FFE6E6"/>
<circle cx="8.33333" cy="8.33333" r="8.33333" transform="matrix(-1 0 0 1 1462.22 82.2222)" fill="#FFE6E6"/>
<circle cx="12.2222" cy="12.2222" r="12.2222" transform="matrix(-1 0 0 1 1418.89 11.1111)" fill="#FFE6E6"/>
<circle cx="18.8889" cy="18.8889" r="18.8889" transform="matrix(-1 0 0 1 1475.56 -7.77783)" fill="#FFE6E6"/>
<circle cx="18.8889" cy="18.8889" r="18.8889" transform="matrix(-1 0 0 1 1446.67 -14.4445)" fill="#FFE6E6"/>
<circle cx="13.3333" cy="13.3333" r="13.3333" transform="matrix(-1 0 0 1 1333.33 16.6666)" fill="#FFE6E6"/>
<circle cx="3.88889" cy="3.88889" r="3.88889" transform="matrix(-1 0 0 1 1440 151.111)" fill="#FFE6E6"/>
<circle cx="3.88889" cy="3.88889" r="3.88889" transform="matrix(-1 0 0 1 1462.22 120)" fill="#FFE6E6"/>
<circle cx="3.88889" cy="3.88889" r="3.88889" transform="matrix(-1 0 0 1 1390 106.667)" fill="#FFE6E6"/>
<circle cx="2.22222" cy="2.22222" r="2.22222" transform="matrix(-1 0 0 1 1411.11 221.111)" fill="#FFE6E6"/>
<circle cx="3.33333" cy="3.33333" r="3.33333" transform="matrix(-1 0 0 1 1374.44 178.889)" fill="#FFE6E6"/>
<circle cx="6.66667" cy="6.66667" r="6.66667" transform="matrix(-1 0 0 1 1620 23.3333)" fill="#FFE6E6"/>
<circle cx="4.44444" cy="4.44444" r="4.44444" transform="matrix(-1 0 0 1 1594.45 104.444)" fill="#FFE6E6"/>
<circle cx="2.22222" cy="2.22222" r="2.22222" transform="matrix(-1 0 0 1 1614.45 190)" fill="#FFE6E6"/>
<circle cx="2.22222" cy="2.22222" r="2.22222" transform="matrix(-1 0 0 1 1628.89 146.667)" fill="#FFE6E6"/>
<circle cx="2.22222" cy="2.22222" r="2.22222" transform="matrix(-1 0 0 1 1575.56 140)" fill="#FFE6E6"/>
<circle cx="2.22222" cy="2.22222" r="2.22222" transform="matrix(-1 0 0 1 1582.22 72.2222)" fill="#FFE6E6"/>
<circle cx="2.22222" cy="2.22222" r="2.22222" transform="matrix(-1 0 0 1 1530 84.4444)" fill="#FFE6E6"/>
<circle cx="11.1111" cy="11.1111" r="11.1111" transform="matrix(-1 0 0 1 1556.67 32.2222)" fill="#FFE6E6"/>
<circle cx="17.2222" cy="17.2222" r="17.2222" transform="matrix(-1 0 0 1 1545.56 -18.8889)" fill="#FFE6E6"/>
<circle cx="6.11111" cy="6.11111" r="6.11111" transform="matrix(-1 0 0 1 1601.11 48.8888)" fill="#FFE6E6"/>
<circle cx="25" cy="25" r="25" transform="matrix(-1 0 0 1 1530 -23.3334)" fill="#FFE6E6"/>
<circle cx="8.33333" cy="8.33333" r="8.33333" transform="matrix(-1 0 0 1 1628.89 72.2222)" fill="#FFE6E6"/>
<circle cx="12.2222" cy="12.2222" r="12.2222" transform="matrix(-1 0 0 1 1585.56 1.11105)" fill="#FFE6E6"/>
<circle cx="18.8889" cy="18.8889" r="18.8889" transform="matrix(-1 0 0 1 1642.22 -17.7778)" fill="#FFE6E6"/>
<circle cx="18.8889" cy="18.8889" r="18.8889" transform="matrix(-1 0 0 1 1613.33 -24.4445)" fill="#FFE6E6"/>
<circle cx="13.3333" cy="13.3333" r="13.3333" transform="matrix(-1 0 0 1 1500 6.6666)" fill="#FFE6E6"/>
<circle cx="3.88889" cy="3.88889" r="3.88889" transform="matrix(-1 0 0 1 1606.67 141.111)" fill="#FFE6E6"/>
<circle cx="3.88889" cy="3.88889" r="3.88889" transform="matrix(-1 0 0 1 1628.89 110)" fill="#FFE6E6"/>
<circle cx="3.88889" cy="3.88889" r="3.88889" transform="matrix(-1 0 0 1 1556.67 96.6666)" fill="#FFE6E6"/>
<circle cx="2.22222" cy="2.22222" r="2.22222" transform="matrix(-1 0 0 1 1577.78 211.111)" fill="#FFE6E6"/>
<circle cx="3.33333" cy="3.33333" r="3.33333" transform="matrix(-1 0 0 1 1541.11 168.889)" fill="#FFE6E6"/>
<circle cx="6.66667" cy="6.66667" r="6.66667" transform="matrix(-1 0 0 1 1143.33 44.4445)" fill="#FFE6E6"/>
<circle cx="4.44444" cy="4.44444" r="4.44444" transform="matrix(-1 0 0 1 1117.78 125.556)" fill="#FFE6E6"/>
<circle cx="2.22222" cy="2.22222" r="2.22222" transform="matrix(-1 0 0 1 1137.78 211.111)" fill="#FFE6E6"/>
<circle cx="2.22222" cy="2.22222" r="2.22222" transform="matrix(-1 0 0 1 1152.22 167.778)" fill="#FFE6E6"/>
<circle cx="2.22222" cy="2.22222" r="2.22222" transform="matrix(-1 0 0 1 1098.89 161.111)" fill="#FFE6E6"/>
<circle cx="2.22222" cy="2.22222" r="2.22222" transform="matrix(-1 0 0 1 1105.56 93.3333)" fill="#FFE6E6"/>
<circle cx="2.22222" cy="2.22222" r="2.22222" transform="matrix(-1 0 0 1 1053.33 105.556)" fill="#FFE6E6"/>
<circle cx="11.1111" cy="11.1111" r="11.1111" transform="matrix(-1 0 0 1 1080 53.3333)" fill="#FFE6E6"/>
<circle cx="17.2222" cy="17.2222" r="17.2222" transform="matrix(-1 0 0 1 1068.89 2.22223)" fill="#FFE6E6"/>
<circle cx="6.11111" cy="6.11111" r="6.11111" transform="matrix(-1 0 0 1 1124.44 70)" fill="#FFE6E6"/>
<circle cx="25" cy="25" r="25" transform="matrix(-1 0 0 1 1053.33 -2.22221)" fill="#FFE6E6"/>
<circle cx="8.33333" cy="8.33333" r="8.33333" transform="matrix(-1 0 0 1 1152.22 93.3333)" fill="#FFE6E6"/>
<circle cx="12.2222" cy="12.2222" r="12.2222" transform="matrix(-1 0 0 1 1108.89 22.2222)" fill="#FFE6E6"/>
<circle cx="18.8889" cy="18.8889" r="18.8889" transform="matrix(-1 0 0 1 1165.56 3.33334)" fill="#FFE6E6"/>
<circle cx="18.8889" cy="18.8889" r="18.8889" transform="matrix(-1 0 0 1 1136.67 -3.33333)" fill="#FFE6E6"/>
<circle cx="13.3333" cy="13.3333" r="13.3333" transform="matrix(-1 0 0 1 1023.33 27.7778)" fill="#FFE6E6"/>
<circle cx="3.88889" cy="3.88889" r="3.88889" transform="matrix(-1 0 0 1 1130 162.222)" fill="#FFE6E6"/>
<circle cx="3.88889" cy="3.88889" r="3.88889" transform="matrix(-1 0 0 1 1152.22 131.111)" fill="#FFE6E6"/>
<circle cx="3.88889" cy="3.88889" r="3.88889" transform="matrix(-1 0 0 1 1080 117.778)" fill="#FFE6E6"/>
<circle cx="2.22222" cy="2.22222" r="2.22222" transform="matrix(-1 0 0 1 1101.11 232.222)" fill="#FFE6E6"/>
<circle cx="3.33333" cy="3.33333" r="3.33333" transform="matrix(-1 0 0 1 1064.44 190)" fill="#FFE6E6"/>
<circle cx="6.66667" cy="6.66667" r="6.66667" transform="matrix(-1 0 0 1 1310 34.4445)" fill="#FFE6E6"/>
<circle cx="4.44444" cy="4.44444" r="4.44444" transform="matrix(-1 0 0 1 1284.45 115.556)" fill="#FFE6E6"/>
<circle cx="2.22222" cy="2.22222" r="2.22222" transform="matrix(-1 0 0 1 1304.45 201.111)" fill="#FFE6E6"/>
<circle cx="2.22222" cy="2.22222" r="2.22222" transform="matrix(-1 0 0 1 1318.89 157.778)" fill="#FFE6E6"/>
<circle cx="2.22222" cy="2.22222" r="2.22222" transform="matrix(-1 0 0 1 1265.56 151.111)" fill="#FFE6E6"/>
<circle cx="2.22222" cy="2.22222" r="2.22222" transform="matrix(-1 0 0 1 1272.22 83.3333)" fill="#FFE6E6"/>
<circle cx="2.22222" cy="2.22222" r="2.22222" transform="matrix(-1 0 0 1 1220 95.5555)" fill="#FFE6E6"/>
<circle cx="11.1111" cy="11.1111" r="11.1111" transform="matrix(-1 0 0 1 1246.67 43.3333)" fill="#FFE6E6"/>
<circle cx="17.2222" cy="17.2222" r="17.2222" transform="matrix(-1 0 0 1 1235.56 -7.77777)" fill="#FFE6E6"/>
<circle cx="6.11111" cy="6.11111" r="6.11111" transform="matrix(-1 0 0 1 1291.11 60)" fill="#FFE6E6"/>
<circle cx="25" cy="25" r="25" transform="matrix(-1 0 0 1 1220 -12.2222)" fill="#FFE6E6"/>
<circle cx="8.33333" cy="8.33333" r="8.33333" transform="matrix(-1 0 0 1 1318.89 83.3333)" fill="#FFE6E6"/>
<circle cx="12.2222" cy="12.2222" r="12.2222" transform="matrix(-1 0 0 1 1275.56 12.2222)" fill="#FFE6E6"/>
<circle cx="18.8889" cy="18.8889" r="18.8889" transform="matrix(-1 0 0 1 1332.22 -6.66666)" fill="#FFE6E6"/>
<circle cx="18.8889" cy="18.8889" r="18.8889" transform="matrix(-1 0 0 1 1303.33 -13.3333)" fill="#FFE6E6"/>
<circle cx="13.3333" cy="13.3333" r="13.3333" transform="matrix(-1 0 0 1 1190 17.7778)" fill="#FFE6E6"/>
<circle cx="3.88889" cy="3.88889" r="3.88889" transform="matrix(-1 0 0 1 1296.67 152.222)" fill="#FFE6E6"/>
<circle cx="3.88889" cy="3.88889" r="3.88889" transform="matrix(-1 0 0 1 1318.89 121.111)" fill="#FFE6E6"/>
<circle cx="3.88889" cy="3.88889" r="3.88889" transform="matrix(-1 0 0 1 1246.67 107.778)" fill="#FFE6E6"/>
<circle cx="2.22222" cy="2.22222" r="2.22222" transform="matrix(-1 0 0 1 1267.78 222.222)" fill="#FFE6E6"/>
<circle cx="3.33333" cy="3.33333" r="3.33333" transform="matrix(-1 0 0 1 1231.11 180)" fill="#FFE6E6"/>
<circle cx="6.66667" cy="6.66667" r="6.66667" transform="matrix(-1 0 0 1 916.666 33.3333)" fill="#FFE6E6"/>
<circle cx="4.44444" cy="4.44444" r="4.44444" transform="matrix(-1 0 0 1 891.111 114.444)" fill="#FFE6E6"/>
<circle cx="2.22222" cy="2.22222" r="2.22222" transform="matrix(-1 0 0 1 911.111 200)" fill="#FFE6E6"/>
<circle cx="2.22222" cy="2.22222" r="2.22222" transform="matrix(-1 0 0 1 925.556 156.667)" fill="#FFE6E6"/>
<circle cx="2.22222" cy="2.22222" r="2.22222" transform="matrix(-1 0 0 1 872.222 150)" fill="#FFE6E6"/>
<circle cx="2.22222" cy="2.22222" r="2.22222" transform="matrix(-1 0 0 1 878.889 82.2222)" fill="#FFE6E6"/>
<circle cx="2.22222" cy="2.22222" r="2.22222" transform="matrix(-1 0 0 1 826.666 94.4444)" fill="#FFE6E6"/>
<circle cx="11.1111" cy="11.1111" r="11.1111" transform="matrix(-1 0 0 1 853.333 42.2222)" fill="#FFE6E6"/>
<circle cx="17.2222" cy="17.2222" r="17.2222" transform="matrix(-1 0 0 1 842.222 -8.88895)" fill="#FFE6E6"/>
<circle cx="6.11111" cy="6.11111" r="6.11111" transform="matrix(-1 0 0 1 897.777 58.8888)" fill="#FFE6E6"/>
<circle cx="25" cy="25" r="25" transform="matrix(-1 0 0 1 826.666 -13.3334)" fill="#FFE6E6"/>
<circle cx="8.33333" cy="8.33333" r="8.33333" transform="matrix(-1 0 0 1 925.556 82.2222)" fill="#FFE6E6"/>
<circle cx="12.2222" cy="12.2222" r="12.2222" transform="matrix(-1 0 0 1 882.222 11.1111)" fill="#FFE6E6"/>
<circle cx="18.8889" cy="18.8889" r="18.8889" transform="matrix(-1 0 0 1 938.889 -7.77783)" fill="#FFE6E6"/>
<circle cx="18.8889" cy="18.8889" r="18.8889" transform="matrix(-1 0 0 1 910 -14.4445)" fill="#FFE6E6"/>
<circle cx="13.3333" cy="13.3333" r="13.3333" transform="matrix(-1 0 0 1 796.666 16.6666)" fill="#FFE6E6"/>
<circle cx="3.88889" cy="3.88889" r="3.88889" transform="matrix(-1 0 0 1 903.333 151.111)" fill="#FFE6E6"/>
<circle cx="3.88889" cy="3.88889" r="3.88889" transform="matrix(-1 0 0 1 925.556 120)" fill="#FFE6E6"/>
<circle cx="3.88889" cy="3.88889" r="3.88889" transform="matrix(-1 0 0 1 853.333 106.667)" fill="#FFE6E6"/>
<circle cx="2.22222" cy="2.22222" r="2.22222" transform="matrix(-1 0 0 1 874.444 221.111)" fill="#FFE6E6"/>
<circle cx="3.33333" cy="3.33333" r="3.33333" transform="matrix(-1 0 0 1 837.777 178.889)" fill="#FFE6E6"/>
<circle cx="6.66667" cy="6.66667" r="6.66667" transform="matrix(-1 0 0 1 1083.33 23.3333)" fill="#FFE6E6"/>
<circle cx="4.44444" cy="4.44444" r="4.44444" transform="matrix(-1 0 0 1 1057.78 104.444)" fill="#FFE6E6"/>
<circle cx="2.22222" cy="2.22222" r="2.22222" transform="matrix(-1 0 0 1 1077.78 190)" fill="#FFE6E6"/>
<circle cx="2.22222" cy="2.22222" r="2.22222" transform="matrix(-1 0 0 1 1092.22 146.667)" fill="#FFE6E6"/>
<circle cx="2.22222" cy="2.22222" r="2.22222" transform="matrix(-1 0 0 1 1038.89 140)" fill="#FFE6E6"/>
<circle cx="2.22222" cy="2.22222" r="2.22222" transform="matrix(-1 0 0 1 1045.56 72.2222)" fill="#FFE6E6"/>
<circle cx="2.22222" cy="2.22222" r="2.22222" transform="matrix(-1 0 0 1 993.333 84.4444)" fill="#FFE6E6"/>
<circle cx="11.1111" cy="11.1111" r="11.1111" transform="matrix(-1 0 0 1 1020 32.2222)" fill="#FFE6E6"/>
<circle cx="17.2222" cy="17.2222" r="17.2222" transform="matrix(-1 0 0 1 1008.89 -18.8889)" fill="#FFE6E6"/>
<circle cx="6.11111" cy="6.11111" r="6.11111" transform="matrix(-1 0 0 1 1064.44 48.8888)" fill="#FFE6E6"/>
<circle cx="25" cy="25" r="25" transform="matrix(-1 0 0 1 993.333 -23.3334)" fill="#FFE6E6"/>
<circle cx="8.33333" cy="8.33333" r="8.33333" transform="matrix(-1 0 0 1 1092.22 72.2222)" fill="#FFE6E6"/>
<circle cx="12.2222" cy="12.2222" r="12.2222" transform="matrix(-1 0 0 1 1048.89 1.11105)" fill="#FFE6E6"/>
<circle cx="18.8889" cy="18.8889" r="18.8889" transform="matrix(-1 0 0 1 1105.56 -17.7778)" fill="#FFE6E6"/>
<circle cx="18.8889" cy="18.8889" r="18.8889" transform="matrix(-1 0 0 1 1076.67 -24.4445)" fill="#FFE6E6"/>
<circle cx="13.3333" cy="13.3333" r="13.3333" transform="matrix(-1 0 0 1 963.333 6.6666)" fill="#FFE6E6"/>
<circle cx="3.88889" cy="3.88889" r="3.88889" transform="matrix(-1 0 0 1 1070 141.111)" fill="#FFE6E6"/>
<circle cx="3.88889" cy="3.88889" r="3.88889" transform="matrix(-1 0 0 1 1092.22 110)" fill="#FFE6E6"/>
<circle cx="3.88889" cy="3.88889" r="3.88889" transform="matrix(-1 0 0 1 1020 96.6666)" fill="#FFE6E6"/>
<circle cx="2.22222" cy="2.22222" r="2.22222" transform="matrix(-1 0 0 1 1041.11 211.111)" fill="#FFE6E6"/>
<circle cx="3.33333" cy="3.33333" r="3.33333" transform="matrix(-1 0 0 1 1004.44 168.889)" fill="#FFE6E6"/>
<circle cx="1171.11" cy="68.8888" r="6.66667" fill="#FFE6E6"/>
<circle cx="1194.44" cy="147.778" r="4.44444" fill="#FFE6E6"/>
<circle cx="1172.22" cy="231.111" r="2.22222" fill="#FFE6E6"/>
<circle cx="1157.78" cy="187.778" r="2.22222" fill="#FFE6E6"/>
<circle cx="1211.11" cy="181.111" r="2.22222" fill="#FFE6E6"/>
<circle cx="1204.44" cy="113.333" r="2.22222" fill="#FFE6E6"/>
<circle cx="1256.67" cy="125.556" r="2.22222" fill="#FFE6E6"/>
<circle cx="1238.89" cy="82.2222" r="11.1111" fill="#FFE6E6"/>
<circle cx="1256.11" cy="37.2222" r="17.2222" fill="#FFE6E6"/>
<circle cx="1189.45" cy="93.8888" r="6.11111" fill="#FFE6E6"/>
<circle cx="1279.45" cy="40.5555" r="25" fill="#FFE6E6"/>
<circle cx="1163.89" cy="119.444" r="8.33333" fill="#FFE6E6"/>
<circle cx="1211.11" cy="52.2222" r="12.2222" fill="#FFE6E6"/>
<circle cx="1161.11" cy="39.9999" r="18.8889" fill="#FFE6E6"/>
<circle cx="1190" cy="33.3333" r="18.8889" fill="#FFE6E6"/>
<circle cx="1297.78" cy="58.8888" r="13.3333" fill="#FFE6E6"/>
<circle cx="1181.67" cy="183.889" r="3.88889" fill="#FFE6E6"/>
<circle cx="1159.44" cy="152.778" r="3.88889" fill="#FFE6E6"/>
<circle cx="1231.67" cy="139.444" r="3.88889" fill="#FFE6E6"/>
<circle cx="1208.89" cy="252.222" r="2.22222" fill="#FFE6E6"/>
<circle cx="1246.67" cy="211.111" r="3.33333" fill="#FFE6E6"/>
<circle cx="623.334" cy="71.1111" r="6.66667" fill="#FFE6E6"/>
<circle cx="646.666" cy="150" r="4.44444" fill="#FFE6E6"/>
<circle cx="624.444" cy="233.333" r="2.22222" fill="#FFE6E6"/>
<circle cx="610" cy="190" r="2.22222" fill="#FFE6E6"/>
<circle cx="663.334" cy="183.333" r="2.22222" fill="#FFE6E6"/>
<circle cx="656.667" cy="115.556" r="2.22222" fill="#FFE6E6"/>
<circle cx="708.889" cy="127.778" r="2.22222" fill="#FFE6E6"/>
<circle cx="691.111" cy="84.4444" r="11.1111" fill="#FFE6E6"/>
<circle cx="708.334" cy="39.4444" r="17.2222" fill="#FFE6E6"/>
<circle cx="641.667" cy="96.1111" r="6.11111" fill="#FFE6E6"/>
<circle cx="731.667" cy="42.7777" r="25" fill="#FFE6E6"/>
<circle cx="616.111" cy="121.667" r="8.33333" fill="#FFE6E6"/>
<circle cx="663.334" cy="54.4444" r="12.2222" fill="#FFE6E6"/>
<circle cx="613.333" cy="42.2222" r="18.8889" fill="#FFE6E6"/>
<circle cx="642.222" cy="35.5555" r="18.8889" fill="#FFE6E6"/>
<circle cx="750" cy="61.1111" r="13.3333" fill="#FFE6E6"/>
<circle cx="633.889" cy="186.111" r="3.88889" fill="#FFE6E6"/>
<circle cx="611.666" cy="155" r="3.88889" fill="#FFE6E6"/>
<circle cx="683.889" cy="141.667" r="3.88889" fill="#FFE6E6"/>
<circle cx="661.111" cy="254.444" r="2.22222" fill="#FFE6E6"/>
<circle cx="698.889" cy="213.333" r="3.33333" fill="#FFE6E6"/>
<circle cx="1456.67" cy="35.5555" r="6.66667" fill="#FFE6E6"/>
<circle cx="1492.22" cy="117.778" r="4.44444" fill="#FFE6E6"/>
<circle cx="1470" cy="201.111" r="2.22222" fill="#FFE6E6"/>
<circle cx="1455.56" cy="157.778" r="2.22222" fill="#FFE6E6"/>
<circle cx="1508.89" cy="151.111" r="2.22222" fill="#FFE6E6"/>
<circle cx="1502.22" cy="83.3332" r="2.22222" fill="#FFE6E6"/>
<circle cx="1554.44" cy="95.5555" r="2.22222" fill="#FFE6E6"/>
<circle cx="1536.67" cy="52.2221" r="11.1111" fill="#FFE6E6"/>
<circle cx="1553.89" cy="7.22215" r="17.2222" fill="#FFE6E6"/>
<circle cx="1487.22" cy="63.8888" r="6.11111" fill="#FFE6E6"/>
<circle cx="1577.22" cy="10.5555" r="25" fill="#FFE6E6"/>
<circle cx="1461.67" cy="89.4444" r="8.33333" fill="#FFE6E6"/>
<circle cx="1508.89" cy="22.2222" r="12.2222" fill="#FFE6E6"/>
<circle cx="1537.22" cy="17.2222" r="25" fill="#FFE6E6"/>
<circle cx="1458.89" cy="9.99993" r="18.8889" fill="#FFE6E6"/>
<circle cx="1487.78" cy="3.33326" r="18.8889" fill="#FFE6E6"/>
<circle cx="1595.56" cy="28.8888" r="13.3333" fill="#FFE6E6"/>
<circle cx="1479.44" cy="153.889" r="3.88889" fill="#FFE6E6"/>
<circle cx="1457.22" cy="122.778" r="3.88889" fill="#FFE6E6"/>
<circle cx="1529.44" cy="109.444" r="3.88889" fill="#FFE6E6"/>
<circle cx="1506.67" cy="222.222" r="2.22222" fill="#FFE6E6"/>
<circle cx="1544.44" cy="181.111" r="3.33333" fill="#FFE6E6"/>
<path d="M1796.67 814.444H1444.44C1444.44 826.43 1456.51 834.159 1468.34 832.243C1481.61 830.093 1493.13 832.326 1508.89 839.444C1546.12 859.175 1567.67 858.695 1606.67 839.444C1632.96 830.806 1651.79 830.015 1682.78 836.002C1693.21 838.019 1703.15 841.992 1713.02 845.94L1713.88 846.281C1735.81 855.045 1752.73 855.568 1773.52 848.863C1788.05 844.18 1796.67 829.706 1796.67 814.444Z" fill="#FFE6E6" stroke="#FFE6E6" stroke-width="5.55556" stroke-linecap="round"/>
<path d="M1433.33 715.556H951.111C951.111 728.168 963.205 737.025 975.614 734.77C997.483 730.797 1014.59 732.552 1039.34 740.796C1090.32 760.717 1119.82 760.233 1173.21 740.796C1210.91 731.662 1237.4 731.218 1283.55 738.226C1294.15 739.835 1304.49 742.83 1314.7 746.079C1350.05 757.32 1375.48 757.568 1409.25 748.363C1423.83 744.39 1433.33 730.667 1433.33 715.556Z" fill="#B18788"/>
<path d="M8.88889 680H400C400 692.279 387.845 700.459 375.751 698.338C360.025 695.581 346.833 697.686 328.44 705.241C287.095 725.161 263.164 724.677 219.867 705.241C190.186 696.374 169.067 695.696 133.624 702.073C122.852 704.011 112.528 707.777 102.275 711.607C76.4815 721.241 57.0252 721.686 32.5136 714.127C17.8811 709.614 8.88889 695.313 8.88889 680Z" fill="#FFE6E6" stroke="#FFE6E6" stroke-width="5.55556" stroke-linecap="round"/>
<ellipse cx="405.556" cy="12.2222" rx="420" ry="31.1111" fill="#FFE6E6"/>
<ellipse cx="1425.56" cy="20" rx="783.333" ry="31.1111" fill="#FFE6E6"/>
<ellipse cx="678.333" cy="41.6666" rx="23.8889" ry="20.5556" fill="#FFE6E6"/>
<ellipse cx="413.889" cy="42.7778" rx="23.8889" ry="20.5556" fill="#FFE6E6"/>
<ellipse cx="45.5554" cy="39.4444" rx="51.1111" ry="43.8889" fill="#FFE6E6"/>
<ellipse cx="354.444" cy="35.5555" rx="31.1111" ry="26.6667" fill="#FFE6E6"/>
<ellipse cx="112.222" cy="40" rx="31.1111" ry="26.6667" fill="#FFE6E6"/>
<ellipse cx="164.444" cy="37.7777" rx="31.1111" ry="26.6667" fill="#FFE6E6"/>
<circle cx="1897.22" cy="70.5555" r="59.4444" fill="#FFE6E6"/>
<circle cx="1812.78" cy="37.2222" r="59.4444" fill="#FFE6E6"/>
<circle cx="1723.89" cy="45" r="45" fill="#FFE6E6"/>
<circle cx="1655" cy="28.3333" r="45" fill="#FFE6E6"/>
<circle cx="1580.56" cy="59.4444" r="45" fill="#FFE6E6"/>
<circle cx="1502.78" cy="47.2222" r="45" fill="#FFE6E6"/>
<circle cx="1438.89" cy="44.4444" r="30" fill="#FFE6E6"/>
<circle cx="1350" cy="54.4444" r="30" fill="#FFE6E6"/>
<ellipse cx="1413.33" cy="38.9999" rx="93.3333" ry="57.7778" fill="#FFE6E6"/>
<circle cx="23.561" cy="23.561" r="23.561" transform="matrix(-1 0 0 1 1421.68 641.222)" fill="#B18788"/>
<circle cx="36.878" cy="36.878" r="36.878" transform="matrix(-1 0 0 1 1435 671.442)" fill="#B18788"/>
<circle cx="3.84146" cy="3.84146" r="3.84146" transform="matrix(-1 0 0 1 1392.49 657.1)" fill="#A56E6E"/>
<path d="M1378.93 667.034C1376.45 666.857 1376.45 663.221 1378.93 663.044L1397.61 661.71V668.369L1378.93 667.034Z" fill="#A75657"/>
<circle cx="3.84146" cy="3.84146" r="3.84146" transform="matrix(-1 0 0 1 1404.68 657)" fill="#A56E6E"/>
<circle cx="28.1525" cy="617.864" r="17.8644" fill="#FFE6E6"/>
<circle cx="27.5761" cy="650.712" r="27.661" fill="#FFE6E6"/>
<circle cx="27" cy="666.271" r="34" fill="#FFE6E6"/>
<circle cx="35.644" cy="612.678" r="2.30508" fill="#A56E6E"/>
<path d="M39.1519 616.556C40.3803 616.459 40.3803 614.659 39.1519 614.562L29.881 613.831V617.288L39.1519 616.556Z" fill="#E04141"/>
<circle cx="26.9995" cy="612.102" r="2.88136" fill="#A56E6E"/>
<circle cx="1728.5" cy="786.5" r="44.5" fill="#FFE6E6"/>
<ellipse cx="1708.5" cy="779" rx="8.5" ry="9" fill="#7F5556"/>
<circle cx="1750" cy="779" r="9" fill="#7F5556"/>
<path d="M1782.86 791.987C1785.22 791.713 1785.22 788.287 1782.86 788.013L1731 782V798L1782.86 791.987Z" fill="#E04141"/>
</g>
<defs>
<filter id="filter0_d_47_5688" x="-65.8891" y="649.667" width="505.111" height="996.824" filterUnits="userSpaceOnUse" color-interpolation-filters="sRGB">
<feFlood flood-opacity="0" result="BackgroundImageFix"/>
<feColorMatrix in="SourceAlpha" type="matrix" values="0 0 0 0 0 0 0 0 0 0 0 0 0 0 0 0 0 0 127 0" result="hardAlpha"/>
<feOffset dy="4.44444"/>
<feGaussianBlur stdDeviation="17.3889"/>
<feComposite in2="hardAlpha" operator="out"/>
<feColorMatrix type="matrix" values="0 0 0 0 0.356863 0 0 0 0 0.235294 0 0 0 0 0.243137 0 0 0 1 0"/>
<feBlend mode="normal" in2="BackgroundImageFix" result="effect1_dropShadow_47_5688"/>
<feBlend mode="normal" in="SourceGraphic" in2="effect1_dropShadow_47_5688" result="shape"/>
</filter>
<filter id="filter1_d_47_5688" x="1359.42" y="780.778" width="473.137" height="997.333" filterUnits="userSpaceOnUse" color-interpolation-filters="sRGB">
<feFlood flood-opacity="0" result="BackgroundImageFix"/>
<feColorMatrix in="SourceAlpha" type="matrix" values="0 0 0 0 0 0 0 0 0 0 0 0 0 0 0 0 0 0 127 0" result="hardAlpha"/>
<feOffset dy="4.44444"/>
<feGaussianBlur stdDeviation="17.3889"/>
<feComposite in2="hardAlpha" operator="out"/>
<feColorMatrix type="matrix" values="0 0 0 0 0.356863 0 0 0 0 0.235294 0 0 0 0 0.243137 0 0 0 1 0"/>
<feBlend mode="normal" in2="BackgroundImageFix" result="effect1_dropShadow_47_5688"/>
<feBlend mode="normal" in="SourceGraphic" in2="effect1_dropShadow_47_5688" result="shape"/>
</filter>
<clipPath id="clip0_47_5688">
<rect width="1952.22" height="1258.89" fill="white"/>
</clipPath>
</defs>
</svg>
