<svg width="1829" height="692" viewBox="0 0 1829 692" fill="none" xmlns="http://www.w3.org/2000/svg">
<path d="M696.557 271.549C673.078 257.553 666.558 243.088 666.558 243.088C666.558 243.088 653.616 243.378 648.212 243.599C648.3 243.152 648.349 242.692 648.349 242.222C648.349 241.751 648.3 241.291 648.212 240.845C653.616 241.066 666.558 241.356 666.558 241.356C666.558 241.356 673.078 226.891 696.557 212.895C696.924 212.676 696.29 211.668 695.901 211.85C670.979 223.548 654.095 221.508 654.095 221.508C654.095 221.508 647.897 231.959 645.403 236.372C644.643 235.779 643.768 235.307 642.81 234.993C645.721 230.8 652.464 220.642 652.464 220.642C652.464 220.642 642.1 208.217 640.657 182.523C640.634 182.122 639.367 182.122 639.345 182.523C637.901 208.217 627.537 220.642 627.537 220.642C627.537 220.642 634.279 230.8 637.191 234.993C636.233 235.308 635.357 235.779 634.598 236.372C632.105 231.959 625.907 221.508 625.907 221.508C625.907 221.508 609.022 223.549 584.1 211.85C583.711 211.668 583.077 212.676 583.444 212.895C606.923 226.891 613.444 241.356 613.444 241.356C613.444 241.356 626.385 241.066 631.789 240.845C631.701 241.292 631.653 241.752 631.653 242.222C631.653 242.692 631.701 243.152 631.789 243.599C626.385 243.378 613.444 243.088 613.444 243.088C613.444 243.088 606.923 257.553 583.444 271.549C583.078 271.768 583.711 272.776 584.1 272.593C609.022 260.896 625.907 262.936 625.907 262.936C625.907 262.936 632.105 252.485 634.598 248.071C635.358 248.665 636.233 249.136 637.191 249.451C634.279 253.645 627.537 263.802 627.537 263.802C627.537 263.802 637.901 276.227 639.345 301.921C639.367 302.323 640.634 302.323 640.657 301.921C642.1 276.227 652.464 263.802 652.464 263.802C652.464 263.802 645.722 253.645 642.81 249.451C643.768 249.136 644.643 248.665 645.403 248.071C647.896 252.485 654.095 262.936 654.095 262.936C654.095 262.936 670.979 260.895 695.901 272.593C696.29 272.776 696.924 271.768 696.557 271.549ZM664.664 236.651C663.374 236.553 657.85 236.754 653.875 236.919L662.762 233.84L671.475 227.269C668.201 230.823 665.611 234.785 664.664 236.651ZM676.006 223.108C675.949 223.151 675.892 223.195 675.835 223.238L662.308 231.473C662.432 231.14 662.411 230.764 662.205 230.435C661.998 230.107 661.654 229.901 661.279 229.834L675.798 223.179C675.866 223.155 675.937 223.133 676.006 223.108ZM657.58 225.368C659.81 225.547 664.838 225.465 669.82 224.635L659.275 228.288L651.932 233.826C654.076 230.742 657.027 226.443 657.58 225.368ZM650.017 236.568L659.729 230.656C659.605 230.989 659.627 231.365 659.833 231.694C660.039 232.022 660.383 232.228 660.759 232.295L650.335 237.073C649.894 237.092 649.641 237.105 649.641 237.105C649.641 237.105 649.78 236.906 650.017 236.568ZM622.422 225.368C622.975 226.443 625.926 230.742 628.069 233.826L620.726 228.288L610.181 224.635C615.164 225.465 620.192 225.547 622.422 225.368ZM603.996 223.108C604.064 223.133 604.134 223.155 604.203 223.179L618.723 229.833C618.347 229.9 618.003 230.106 617.797 230.434C617.59 230.763 617.569 231.14 617.693 231.472L604.166 223.238C604.109 223.195 604.053 223.151 603.996 223.108ZM615.337 236.651C614.391 234.785 611.8 230.823 608.527 227.27L617.24 233.84L626.126 236.919C622.151 236.754 616.627 236.553 615.337 236.651ZM629.667 237.073L619.243 232.295C619.619 232.228 619.962 232.022 620.168 231.694C620.375 231.366 620.396 230.989 620.272 230.656L629.984 236.568C630.221 236.906 630.361 237.105 630.361 237.105C630.361 237.105 630.108 237.092 629.667 237.073ZM615.337 247.793C616.627 247.89 622.151 247.69 626.126 247.525L617.239 250.603L608.526 257.174C611.8 253.621 614.391 249.658 615.337 247.793ZM603.996 261.335C604.053 261.293 604.109 261.248 604.166 261.205L617.693 252.971C617.569 253.303 617.591 253.68 617.797 254.009C618.003 254.337 618.347 254.543 618.722 254.61L604.203 261.264C604.135 261.288 604.064 261.311 603.996 261.335ZM622.422 259.075C620.192 258.896 615.163 258.978 610.181 259.808L620.726 256.155L628.069 250.618C625.926 253.701 622.975 258 622.422 259.075ZM629.984 247.876L620.272 253.787C620.396 253.455 620.375 253.078 620.168 252.75C619.962 252.421 619.618 252.215 619.242 252.148L629.667 247.371C630.107 247.351 630.361 247.339 630.361 247.339C630.361 247.339 630.221 247.538 629.984 247.876ZM647.085 219.797C646.349 220.775 643.776 225.274 641.943 228.522L643.487 219.907L641.655 209.683C643.364 214.066 645.801 218.11 647.085 219.797ZM639.963 204.196C639.975 204.129 639.989 204.061 640 203.995C640.012 204.061 640.025 204.128 640.038 204.195L641.03 219.084C640.779 218.819 640.413 218.647 640 218.647C639.588 218.647 639.222 218.818 638.971 219.084L639.963 204.196ZM640 221.166C640.413 221.166 640.779 220.995 641.03 220.729L640.318 231.418C640.116 231.779 640.001 231.987 640.001 231.987C640.001 231.987 639.885 231.779 639.684 231.418L638.972 220.729C639.223 220.995 639.588 221.166 640 221.166ZM632.916 219.797C634.2 218.11 636.636 214.066 638.346 209.683L636.514 219.906L638.058 228.522C636.226 225.274 633.653 220.775 632.916 219.797ZM632.916 264.647C633.653 263.669 636.226 259.169 638.058 255.921L636.515 264.537L638.347 274.761C636.637 270.378 634.2 266.333 632.916 264.647ZM640.038 280.248C640.026 280.315 640.012 280.382 640.001 280.449C639.99 280.382 639.976 280.315 639.964 280.248L638.971 265.359C639.223 265.624 639.588 265.796 640 265.796C640.413 265.796 640.779 265.625 641.03 265.359L640.038 280.248ZM640 263.278C639.588 263.278 639.222 263.449 638.971 263.715L639.684 253.025C639.885 252.664 640 252.456 640 252.456C640 252.456 640.116 252.664 640.317 253.025L641.029 263.715C640.779 263.449 640.413 263.278 640 263.278ZM647.085 264.647C645.801 266.333 643.365 270.378 641.655 274.76L643.487 264.537L641.943 255.921C643.776 259.169 646.349 263.669 647.085 264.647ZM640 246.065C637.692 246.065 635.821 244.344 635.821 242.222C635.821 240.099 637.692 238.378 640 238.378C642.309 238.378 644.18 240.099 644.18 242.222C644.181 244.344 642.309 246.065 640 246.065ZM664.664 247.793C665.611 249.658 668.201 253.621 671.475 257.174L662.761 250.603L653.875 247.525C657.85 247.69 663.374 247.89 664.664 247.793ZM649.64 247.339C649.64 247.339 649.893 247.351 650.335 247.371L660.759 252.148C660.383 252.215 660.039 252.421 659.833 252.75C659.627 253.078 659.605 253.455 659.729 253.787L650.017 247.876C649.78 247.538 649.64 247.339 649.64 247.339ZM657.58 259.075C657.027 258 654.076 253.701 651.933 250.618L659.276 256.155L669.821 259.808C664.838 258.978 659.81 258.896 657.58 259.075ZM675.798 261.265L661.278 254.61C661.654 254.543 661.998 254.338 662.205 254.009C662.411 253.681 662.432 253.304 662.308 252.971L675.835 261.205C675.892 261.248 675.949 261.293 676.006 261.335C675.937 261.311 675.867 261.288 675.798 261.265Z" fill="#FFE6E6"/>
<line x1="641.667" y1="110" x2="641.667" y2="217.778" stroke="#FFE6E6" stroke-width="3.33333"/>
<line x1="990.556" y1="87.7778" x2="990.556" y2="195.556" stroke="#FFE6E6" stroke-width="3.33333"/>
<line x1="1761.67" y1="46.667" x2="1761.67" y2="420" stroke="#FFE6E6" stroke-width="3.33333"/>
<line x1="236.112" y1="46.667" x2="236.112" y2="227.778" stroke="#FFE6E6" stroke-width="3.33333"/>
<line x1="1507.22" y1="7.28523e-08" x2="1507.22" y2="181.111" stroke="#FFE6E6" stroke-width="3.33333"/>
<line x1="1230.11" y1="91" x2="1230.11" y2="209.889" stroke="#FFE6E6" stroke-width="3.33333"/>
<line x1="53.8893" y1="102.222" x2="53.8893" y2="333.333" stroke="#FFE6E6" stroke-width="3.33333"/>
<path d="M1282.68 277.73C1279.2 274.52 1276.23 270.495 1272.86 268.547C1269 266.322 1266.03 268.138 1262.29 265.982C1261.64 265.603 1262.08 264.995 1263.28 264.732C1265.98 264.146 1267.32 264.857 1270.52 263.879C1272.03 263.417 1273.87 261.883 1276.12 260.07C1276.65 259.643 1276.41 258.784 1275.73 258.706C1272.8 258.368 1270.17 258.327 1267.96 259.405C1263.94 261.365 1263.59 263.087 1261.06 263.768C1260.57 263.899 1256.89 261.99 1252.8 259.743C1252.95 259.364 1253.55 258.987 1254.52 258.775C1258.19 257.978 1260.01 258.945 1264.36 257.615C1266.59 256.934 1269.34 254.542 1272.76 251.811C1273.2 251.468 1273 250.774 1272.46 250.703C1268.06 250.14 1264.15 249.943 1260.89 251.53C1255.44 254.184 1254.26 257.713 1250.84 258.658C1248.3 257.24 1245.77 255.796 1243.9 254.721C1244.1 254.513 1244.49 254.323 1245.04 254.204C1247.72 253.62 1249.06 254.328 1252.25 253.354C1253.82 252.875 1255.73 251.243 1258.1 249.345C1258.53 249.001 1258.34 248.306 1257.79 248.239C1254.73 247.866 1251.99 247.778 1249.7 248.894C1245.89 250.751 1244.93 253.191 1242.67 254.012C1241.71 253.455 1241.07 253.086 1240.94 253.008C1239.19 252 1238.77 248.323 1238.77 248.323C1238.77 248.323 1235.62 249.939 1233.86 248.922C1232.95 248.393 1232.53 247.681 1232.41 247.057C1232.54 246.341 1233.13 245.723 1233.86 245.301C1235.62 244.285 1238.77 245.901 1238.77 245.901C1238.77 245.901 1239.19 242.223 1240.94 241.216C1241.07 241.138 1241.71 240.769 1242.67 240.213C1244.93 241.035 1245.89 243.474 1249.7 245.33C1251.99 246.446 1254.73 246.358 1257.79 245.985C1258.33 245.918 1258.53 245.223 1258.1 244.879C1255.73 242.981 1253.82 241.349 1252.25 240.87C1249.06 239.896 1247.72 240.604 1245.04 240.02C1244.49 239.901 1244.1 239.712 1243.9 239.505C1245.78 238.43 1248.31 236.987 1250.85 235.569C1254.26 236.519 1255.45 240.043 1260.89 242.694C1264.15 244.281 1268.06 244.084 1272.46 243.521C1273 243.45 1273.2 242.756 1272.76 242.413C1269.34 239.682 1266.59 237.289 1264.36 236.609C1260.01 235.279 1258.19 236.245 1254.52 235.448C1253.56 235.238 1252.96 234.865 1252.8 234.489C1256.89 232.241 1260.58 230.328 1261.06 230.456C1263.59 231.136 1263.94 232.858 1267.96 234.819C1270.17 235.897 1272.8 235.856 1275.73 235.518C1276.41 235.44 1276.65 234.581 1276.12 234.154C1273.87 232.341 1272.03 230.807 1270.52 230.345C1267.32 229.367 1265.98 230.077 1263.28 229.491C1262.07 229.229 1261.64 228.621 1262.29 228.242C1266.03 226.086 1269 227.902 1272.86 225.676C1276.23 223.729 1279.2 219.703 1282.68 216.493C1283.17 216.04 1282.71 215.242 1282.08 215.441C1277.56 216.849 1272.58 217.414 1269.21 219.362C1265.36 221.587 1265.44 225.072 1261.71 227.228C1261.05 227.606 1260.74 226.923 1261.12 225.746C1261.96 223.12 1263.25 222.315 1264 219.051C1264.36 217.509 1263.95 215.152 1263.5 212.293C1263.4 211.618 1262.53 211.405 1262.13 211.953C1260.37 214.321 1259.02 216.574 1258.85 219.027C1258.53 223.491 1259.85 224.653 1259.17 227.192C1259.04 227.682 1255.55 229.915 1251.56 232.329C1251.3 232.014 1251.28 231.304 1251.58 230.355C1252.72 226.783 1254.47 225.688 1255.5 221.25C1256.02 218.978 1255.33 215.405 1254.67 211.072C1254.59 210.527 1253.89 210.347 1253.56 210.785C1250.88 214.307 1248.75 217.603 1248.49 221.218C1248.07 227.261 1250.53 230.051 1249.64 233.483C1247.14 234.976 1244.63 236.444 1242.76 237.526C1242.68 237.249 1242.71 236.82 1242.88 236.286C1243.72 233.668 1245 232.866 1245.75 229.613C1246.12 228.017 1245.66 225.543 1245.2 222.542C1245.12 221.997 1244.42 221.818 1244.09 222.258C1242.24 224.722 1240.79 227.048 1240.62 229.59C1240.32 233.817 1241.95 235.874 1241.53 238.239C1240.57 238.794 1239.93 239.158 1239.8 239.237C1238.05 240.243 1234.66 238.772 1234.66 238.772C1234.66 238.772 1234.48 242.306 1232.72 243.322C1231.8 243.851 1230.98 243.854 1230.38 243.649C1229.82 243.177 1229.59 242.354 1229.59 241.512C1229.59 239.478 1232.56 237.56 1232.56 237.56C1232.56 237.56 1229.59 235.354 1229.59 233.34C1229.59 233.184 1229.58 232.449 1229.58 231.336C1231.42 229.794 1234.02 230.177 1237.53 227.807C1239.64 226.381 1240.93 223.967 1242.14 221.13C1242.36 220.623 1241.85 220.108 1241.34 220.308C1238.51 221.41 1236.14 222.252 1234.94 223.37C1232.5 225.648 1232.45 227.16 1230.6 229.193C1230.22 229.606 1229.87 229.845 1229.59 229.915C1229.59 227.757 1229.61 224.841 1229.65 221.927C1232.18 219.452 1235.83 220.185 1240.84 216.8C1243.84 214.772 1245.63 211.279 1247.34 207.194C1247.55 206.686 1247.05 206.172 1246.54 206.373C1242.46 207.975 1239.01 209.156 1237.31 210.747C1233.98 213.855 1233.91 215.917 1231.38 218.692C1230.72 219.423 1230.1 219.756 1229.69 219.699C1229.79 215.033 1229.98 210.885 1230.33 210.536C1232.19 208.677 1233.85 209.238 1237.56 206.734C1239.6 205.359 1240.88 203.065 1242.05 200.358C1242.32 199.732 1241.7 199.087 1241.06 199.334C1238.37 200.381 1236.12 201.204 1234.96 202.283C1232.52 204.569 1232.46 206.085 1230.61 208.125C1229.78 209.039 1229.03 209.114 1229.03 208.357C1229.03 204.045 1232.09 202.376 1232.09 197.925C1232.09 194.031 1230.09 189.44 1229.05 184.823C1228.9 184.17 1227.98 184.17 1227.84 184.823C1226.8 189.44 1224.8 194.032 1224.8 197.925C1224.8 202.375 1227.86 204.045 1227.86 208.357C1227.86 209.114 1227.11 209.039 1226.28 208.125C1224.43 206.085 1224.37 204.569 1221.92 202.283C1220.77 201.204 1218.52 200.381 1215.83 199.334C1215.19 199.087 1214.57 199.732 1214.84 200.358C1216.01 203.065 1217.29 205.359 1219.33 206.734C1223.04 209.238 1224.7 208.677 1226.56 210.536C1226.92 210.895 1227.11 215.037 1227.2 219.698C1226.8 219.762 1226.17 219.429 1225.5 218.692C1222.98 215.917 1222.91 213.855 1219.58 210.747C1217.87 209.156 1214.43 207.975 1210.35 206.373C1209.84 206.172 1209.34 206.686 1209.55 207.194C1211.26 211.279 1213.04 214.772 1216.05 216.8C1221.07 220.189 1224.72 219.451 1227.24 221.936C1227.29 224.848 1227.3 227.76 1227.3 229.917C1227.02 229.848 1226.67 229.608 1226.29 229.194C1224.44 227.161 1224.39 225.649 1221.95 223.371C1220.75 222.253 1218.38 221.411 1215.55 220.309C1215.04 220.109 1214.53 220.624 1214.75 221.131C1215.96 223.968 1217.25 226.382 1219.36 227.808C1222.87 230.179 1225.47 229.794 1227.31 231.338C1227.31 232.451 1227.3 233.184 1227.3 233.341C1227.3 235.355 1224.33 237.561 1224.33 237.561C1224.33 237.561 1227.3 239.48 1227.3 241.513C1227.3 242.571 1226.89 243.286 1226.42 243.705C1225.73 243.949 1224.9 243.744 1224.17 243.323C1222.41 242.306 1222.23 238.773 1222.23 238.773C1222.23 238.773 1218.84 240.244 1217.09 239.238C1216.96 239.159 1216.32 238.794 1215.36 238.238C1214.94 235.873 1216.57 233.817 1216.27 229.591C1216.09 227.049 1214.65 224.723 1212.8 222.259C1212.47 221.818 1211.77 221.998 1211.68 222.543C1211.22 225.544 1210.77 228.018 1211.14 229.614C1211.89 232.866 1213.17 233.67 1214.01 236.287C1214.18 236.819 1214.21 237.247 1214.13 237.524C1212.26 236.44 1209.75 234.969 1207.24 233.472C1206.36 230.046 1208.82 227.255 1208.4 221.219C1208.14 217.604 1206.01 214.308 1203.33 210.786C1203 210.348 1202.3 210.528 1202.22 211.073C1201.56 215.405 1200.86 218.979 1201.39 221.251C1202.42 225.689 1204.17 226.785 1205.31 230.356C1205.61 231.298 1205.58 232.004 1205.33 232.323C1201.34 229.904 1197.84 227.67 1197.72 227.194C1197.04 224.654 1198.35 223.493 1198.04 219.029C1197.87 216.576 1196.52 214.322 1194.76 211.954C1194.36 211.406 1193.49 211.62 1193.39 212.295C1192.94 215.153 1192.53 217.51 1192.89 219.052C1193.64 222.315 1194.93 223.121 1195.77 225.748C1196.14 226.925 1195.84 227.607 1195.18 227.229C1191.45 225.073 1191.53 221.588 1187.68 219.363C1184.31 217.416 1179.33 216.851 1174.81 215.443C1174.18 215.244 1173.72 216.041 1174.21 216.495C1177.68 219.705 1180.66 223.73 1184.03 225.677C1187.89 227.903 1190.86 226.087 1194.6 228.243C1195.25 228.622 1194.81 229.23 1193.61 229.493C1190.91 230.079 1189.57 229.368 1186.37 230.346C1184.86 230.808 1183.02 232.342 1180.77 234.155C1180.23 234.582 1180.48 235.441 1181.16 235.519C1184.09 235.857 1186.72 235.898 1188.93 234.82C1192.95 232.86 1193.29 231.138 1195.83 230.457C1196.32 230.326 1200 232.235 1204.09 234.481C1203.94 234.861 1203.34 235.238 1202.37 235.45C1198.7 236.247 1196.88 235.28 1192.52 236.61C1190.3 237.291 1187.55 239.684 1184.12 242.414C1183.69 242.757 1183.89 243.452 1184.43 243.522C1188.82 244.085 1192.74 244.283 1196 242.695C1201.45 240.042 1202.63 236.512 1206.05 235.567C1208.59 236.985 1211.12 238.429 1212.99 239.504C1212.79 239.711 1212.4 239.902 1211.85 240.021C1209.17 240.605 1207.83 239.897 1204.64 240.871C1203.07 241.349 1201.16 242.981 1198.79 244.879C1198.36 245.224 1198.55 245.919 1199.1 245.985C1202.16 246.358 1204.9 246.446 1207.19 245.33C1211 243.474 1211.96 241.034 1214.22 240.213C1215.18 240.769 1215.82 241.138 1215.95 241.216C1217.69 242.224 1218.12 245.901 1218.12 245.901C1218.12 245.901 1221.27 244.285 1223.03 245.302C1223.94 245.831 1224.36 246.543 1224.48 247.167C1224.35 247.883 1223.76 248.501 1223.03 248.923C1221.27 249.939 1218.12 248.323 1218.12 248.323C1218.12 248.323 1217.69 252.001 1215.95 253.008C1215.82 253.086 1215.18 253.455 1214.22 254.011C1211.96 253.189 1210.99 250.75 1207.19 248.894C1204.9 247.778 1202.16 247.866 1199.1 248.239C1198.55 248.306 1198.36 249.001 1198.79 249.345C1201.16 251.243 1203.07 252.875 1204.64 253.354C1207.83 254.328 1209.17 253.62 1211.85 254.204C1212.4 254.323 1212.78 254.512 1212.98 254.719C1211.11 255.794 1208.58 257.237 1206.03 258.656C1202.63 257.705 1201.44 254.181 1196 251.531C1192.74 249.943 1188.82 250.141 1184.43 250.704C1183.89 250.774 1183.69 251.468 1184.12 251.811C1187.55 254.542 1190.29 256.935 1192.52 257.615C1196.88 258.945 1198.7 257.979 1202.37 258.776C1203.33 258.986 1203.93 259.359 1204.08 259.735C1199.99 261.983 1196.31 263.896 1195.83 263.768C1193.29 263.088 1192.95 261.366 1188.93 259.405C1186.72 258.328 1184.09 258.369 1181.16 258.706C1180.48 258.785 1180.23 259.643 1180.77 260.071C1183.02 261.883 1184.86 263.417 1186.37 263.879C1189.57 264.858 1190.91 264.147 1193.61 264.733C1194.81 264.996 1195.25 265.603 1194.6 265.982C1190.86 268.138 1187.89 266.323 1184.03 268.548C1180.66 270.495 1177.68 274.521 1174.21 277.731C1173.72 278.184 1174.18 278.982 1174.81 278.783C1179.33 277.375 1184.31 276.81 1187.68 274.862C1191.53 272.637 1191.45 269.152 1195.18 266.996C1195.84 266.618 1196.14 267.301 1195.77 268.478C1194.93 271.104 1193.64 271.909 1192.89 275.173C1192.53 276.714 1192.94 279.072 1193.38 281.93C1193.49 282.605 1194.36 282.819 1194.76 282.271C1196.52 279.902 1197.87 277.649 1198.04 275.196C1198.35 270.732 1197.04 269.571 1197.72 267.031C1197.85 266.541 1201.34 264.308 1205.33 261.894C1205.58 262.209 1205.61 262.919 1205.31 263.868C1204.16 267.44 1202.42 268.535 1201.39 272.974C1200.86 275.245 1201.56 278.819 1202.22 283.152C1202.3 283.696 1202.99 283.876 1203.33 283.438C1206.01 279.916 1208.14 276.621 1208.4 273.005C1208.82 266.963 1206.36 264.172 1207.25 260.741C1209.75 259.247 1212.26 257.779 1214.13 256.698C1214.21 256.974 1214.18 257.404 1214.01 257.938C1213.17 260.555 1211.89 261.358 1211.14 264.611C1210.77 266.207 1211.22 268.681 1211.68 271.682C1211.77 272.227 1212.47 272.406 1212.8 271.966C1214.65 269.502 1216.09 267.176 1216.27 264.634C1216.57 260.407 1214.94 258.35 1215.36 255.985C1216.32 255.429 1216.96 255.066 1217.09 254.987C1218.84 253.98 1222.23 255.452 1222.23 255.452C1222.23 255.452 1222.41 251.918 1224.17 250.902C1225.08 250.373 1225.91 250.37 1226.51 250.574C1227.06 251.047 1227.3 251.87 1227.3 252.712C1227.3 254.745 1224.33 256.663 1224.33 256.663C1224.33 256.663 1227.3 258.869 1227.3 260.883C1227.3 261.04 1227.3 261.774 1227.3 262.887C1225.46 264.429 1222.87 264.046 1219.36 266.416C1217.25 267.842 1215.96 270.256 1214.75 273.093C1214.53 273.6 1215.04 274.115 1215.55 273.915C1218.38 272.813 1220.75 271.971 1221.95 270.853C1224.39 268.575 1224.44 267.063 1226.29 265.03C1226.67 264.617 1227.02 264.377 1227.3 264.308C1227.3 266.467 1227.28 269.382 1227.23 272.296C1224.71 274.772 1221.06 274.038 1216.05 277.424C1213.05 279.451 1211.26 282.944 1209.55 287.029C1209.34 287.538 1209.84 288.052 1210.35 287.85C1214.43 286.248 1217.87 285.067 1219.58 283.476C1222.91 280.368 1222.98 278.306 1225.51 275.531C1226.17 274.8 1226.79 274.467 1227.19 274.524C1227.1 279.19 1226.91 283.338 1226.56 283.687C1224.7 285.546 1223.04 284.985 1219.33 287.489C1217.29 288.864 1216.01 291.158 1214.84 293.865C1214.57 294.491 1215.19 295.136 1215.83 294.889C1218.52 293.842 1220.77 293.019 1221.93 291.939C1224.37 289.654 1224.43 288.137 1226.28 286.097C1227.11 285.183 1227.86 285.109 1227.86 285.866C1227.86 290.177 1224.8 291.847 1224.8 296.297C1224.8 300.191 1226.8 304.782 1227.84 309.4C1227.99 310.052 1228.91 310.052 1229.05 309.4C1230.09 304.782 1232.09 300.191 1232.09 296.297C1232.09 291.847 1229.03 290.178 1229.03 285.866C1229.03 285.109 1229.78 285.183 1230.61 286.097C1232.46 288.137 1232.52 289.654 1234.96 291.939C1236.12 293.019 1238.37 293.842 1241.06 294.889C1241.7 295.136 1242.32 294.491 1242.05 293.865C1240.88 291.158 1239.6 288.864 1237.56 287.489C1233.85 284.985 1232.19 285.546 1230.33 283.687C1229.97 283.328 1229.78 279.186 1229.69 274.525C1230.09 274.462 1230.71 274.794 1231.39 275.531C1233.91 278.306 1233.98 280.368 1237.31 283.476C1239.02 285.067 1242.46 286.248 1246.54 287.85C1247.05 288.051 1247.55 287.537 1247.34 287.029C1245.63 282.944 1243.85 279.451 1240.84 277.424C1235.82 274.035 1232.17 274.773 1229.65 272.287C1229.6 269.375 1229.59 266.464 1229.59 264.307C1229.87 264.376 1230.22 264.615 1230.6 265.03C1232.45 267.063 1232.5 268.574 1234.94 270.852C1236.14 271.97 1238.51 272.812 1241.34 273.915C1241.85 274.115 1242.36 273.6 1242.14 273.093C1240.94 270.255 1239.64 267.841 1237.53 266.416C1234.02 264.045 1231.42 264.429 1229.58 262.885C1229.58 261.773 1229.59 261.039 1229.59 260.883C1229.59 258.869 1232.56 256.663 1232.56 256.663C1232.56 256.663 1229.59 254.744 1229.59 252.711C1229.59 251.653 1230 250.938 1230.47 250.519C1231.16 250.275 1231.99 250.48 1232.72 250.901C1234.48 251.918 1234.66 255.451 1234.66 255.451C1234.66 255.451 1238.05 253.98 1239.8 254.986C1239.93 255.065 1240.57 255.429 1241.53 255.986C1241.95 258.351 1240.32 260.407 1240.62 264.633C1240.8 267.175 1242.24 269.501 1244.09 271.965C1244.42 272.406 1245.12 272.226 1245.21 271.681C1245.67 268.68 1246.12 266.206 1245.75 264.61C1245 261.358 1243.72 260.554 1242.88 257.937C1242.71 257.405 1242.68 256.976 1242.76 256.699C1244.63 257.784 1247.14 259.255 1249.65 260.751C1250.53 264.177 1248.07 266.969 1248.49 273.004C1248.75 276.619 1250.88 279.915 1253.56 283.437C1253.89 283.876 1254.59 283.695 1254.67 283.151C1255.33 278.818 1256.03 275.244 1255.5 272.973C1254.47 268.534 1252.73 267.439 1251.58 263.867C1251.28 262.925 1251.31 262.219 1251.56 261.9C1255.55 264.319 1259.05 266.554 1259.17 267.03C1259.85 269.569 1258.54 270.731 1258.85 275.195C1259.02 277.648 1260.37 279.901 1262.13 282.27C1262.53 282.817 1263.4 282.604 1263.51 281.929C1263.95 279.07 1264.36 276.713 1264 275.172C1263.25 271.908 1261.96 271.102 1261.12 268.476C1260.75 267.299 1261.05 266.616 1261.71 266.995C1265.44 269.151 1265.36 272.636 1269.21 274.861C1272.58 276.808 1277.56 277.373 1282.08 278.781C1282.71 278.981 1283.17 278.183 1282.68 277.73Z" fill="#FFE6E6"/>
<path d="M108.683 407.841C105.205 404.631 102.228 400.605 98.856 398.658C95.0022 396.433 92.027 398.248 88.2933 396.093C87.6376 395.714 88.0752 395.106 89.2821 394.843C91.9756 394.257 93.3163 394.967 96.5195 393.99C98.0326 393.528 99.8683 391.994 102.123 390.181C102.655 389.754 102.406 388.895 101.729 388.817C98.7986 388.479 96.1738 388.438 93.9635 389.516C89.9411 391.476 89.5949 393.198 87.0553 393.879C86.5659 394.01 82.885 392.101 78.8013 389.854C78.9469 389.475 79.5484 389.098 80.5221 388.886C84.1851 388.089 86.0082 389.056 90.3646 387.726C92.5941 387.045 95.339 384.653 98.7646 381.922C99.1952 381.578 99.0025 380.884 98.4565 380.814C94.0648 380.251 90.1455 380.053 86.8886 381.641C81.444 384.294 80.2593 387.824 76.8436 388.769C74.3008 387.351 71.7721 385.907 69.9024 384.832C70.1017 384.624 70.4885 384.434 71.0354 384.315C73.72 383.731 75.0559 384.439 78.2488 383.464C79.8155 382.986 81.73 381.354 84.0985 379.456C84.5281 379.112 84.3354 378.417 83.7885 378.35C80.728 377.977 77.9916 377.889 75.7013 379.005C71.8927 380.861 70.928 383.301 68.6716 384.123C67.7082 383.566 67.0742 383.197 66.9385 383.119C65.1946 382.111 64.7707 378.434 64.7707 378.434C64.7707 378.434 61.6235 380.05 59.8626 379.033C58.9464 378.504 58.5319 377.792 58.4084 377.168C58.5403 376.452 59.1334 375.833 59.8626 375.412C61.6235 374.396 64.7707 376.012 64.7707 376.012C64.7707 376.012 65.1941 372.334 66.9385 371.327C67.0742 371.248 67.7087 370.88 68.6734 370.324C70.9284 371.146 71.8941 373.585 75.7013 375.441C77.9916 376.557 80.728 376.469 83.7885 376.095C84.335 376.029 84.5281 375.334 84.0985 374.99C81.73 373.092 79.8155 371.46 78.2488 370.981C75.0559 370.007 73.72 370.715 71.0354 370.131C70.4903 370.012 70.1045 369.823 69.9043 369.616C71.7763 368.541 74.3088 367.098 76.8549 365.68C80.2616 366.63 81.4501 370.154 86.8886 372.805C90.146 374.392 94.0648 374.194 98.4565 373.631C99.0025 373.561 99.1952 372.867 98.7646 372.524C95.3386 369.793 92.5941 367.4 90.3646 366.72C86.0082 365.39 84.1856 366.356 80.5221 365.559C79.556 365.349 78.9563 364.976 78.8046 364.6C82.8944 362.352 86.5791 360.439 87.0553 360.567C89.5949 361.247 89.9411 362.969 93.9635 364.93C96.1738 366.008 98.799 365.967 101.729 365.629C102.406 365.551 102.655 364.692 102.123 364.264C99.8683 362.452 98.0326 360.918 96.5195 360.456C93.3163 359.478 91.9756 360.188 89.2821 359.602C88.0747 359.34 87.6376 358.731 88.2933 358.353C92.027 356.197 95.0022 358.013 98.856 355.787C102.228 353.84 105.205 349.814 108.683 346.604C109.174 346.151 108.714 345.353 108.076 345.552C103.557 346.96 98.5828 347.525 95.2109 349.472C91.3571 351.697 91.4419 355.182 87.7078 357.338C87.052 357.717 86.7444 357.034 87.1203 355.857C87.9598 353.231 89.2453 352.425 90 349.161C90.3566 347.62 89.9458 345.263 89.5039 342.404C89.3998 341.729 88.5321 341.515 88.1256 342.063C86.3681 344.432 85.0203 346.685 84.8479 349.138C84.5342 353.602 85.8522 354.764 85.172 357.303C85.0406 357.793 81.5472 360.026 77.5606 362.44C77.3048 362.125 77.2793 361.415 77.5827 360.466C78.7241 356.894 80.4722 355.799 81.4991 351.361C82.0244 349.089 81.3253 345.516 80.6734 341.183C80.5914 340.638 79.8937 340.458 79.5602 340.896C76.877 344.418 74.7464 347.714 74.492 351.329C74.0676 357.372 76.5313 360.162 75.6419 363.594C73.142 365.087 70.6279 366.555 68.762 367.637C68.6819 367.36 68.7102 366.931 68.8807 366.397C69.7173 363.779 70.9986 362.976 71.7509 359.724C72.1202 358.127 71.6642 355.654 71.2049 352.653C71.1216 352.108 70.4234 351.928 70.0923 352.368C68.2386 354.832 66.7944 357.159 66.6158 359.701C66.3186 363.928 67.947 365.985 67.5292 368.35C66.5673 368.905 65.9318 369.269 65.7966 369.347C64.0528 370.354 60.6559 368.882 60.6559 368.882C60.6559 368.882 60.4811 372.416 58.7208 373.433C57.8045 373.962 56.9807 373.965 56.3791 373.76C55.8247 373.287 55.5858 372.465 55.5858 371.623C55.5858 369.589 58.5587 367.671 58.5587 367.671C58.5587 367.671 55.5858 365.465 55.5858 363.451C55.5858 363.294 55.5839 362.56 55.5849 361.447C57.4239 359.905 60.019 360.288 63.5294 357.918C65.6412 356.492 66.9333 354.078 68.1402 351.241C68.3559 350.734 67.8505 350.219 67.3375 350.419C64.5097 351.521 62.1393 352.363 60.9418 353.481C58.5013 355.759 58.4466 357.27 56.5986 359.304C56.2232 359.717 55.8666 359.956 55.5872 360.026C55.5929 357.867 55.6094 354.952 55.6541 352.038C58.1805 349.562 61.8265 350.295 66.8405 346.91C69.8436 344.883 71.6322 341.39 73.3407 337.304C73.5532 336.797 73.0482 336.283 72.5357 336.484C68.4582 338.086 65.0142 339.267 63.3099 340.858C59.9799 343.966 59.9055 346.028 57.3839 348.802C56.7187 349.534 56.096 349.867 55.6946 349.81C55.7931 345.144 55.9787 340.996 56.3278 340.647C58.1866 338.788 59.8508 339.349 63.56 336.845C65.5978 335.469 66.8754 333.175 68.0474 330.469C68.3187 329.843 67.6993 329.198 67.0633 329.445C64.367 330.491 62.1204 331.315 60.964 332.394C58.5154 334.68 58.4607 336.196 56.6062 338.236C55.7752 339.15 55.03 339.225 55.03 338.468C55.03 334.156 58.0895 332.487 58.0895 328.036C58.0895 324.142 56.0918 319.551 55.0516 314.933C54.9047 314.281 53.9837 314.281 53.8372 314.933C52.7971 319.551 50.7993 324.143 50.7993 328.036C50.7993 332.486 53.8589 334.155 53.8589 338.468C53.8589 339.225 53.1137 339.15 52.2827 338.236C50.4281 336.196 50.3735 334.679 47.9249 332.394C46.7684 331.315 44.5219 330.491 41.8255 329.445C41.1891 329.198 40.5701 329.843 40.8415 330.469C42.0135 333.175 43.291 335.469 45.3288 336.845C49.0375 339.349 50.7018 338.788 52.5606 340.647C52.9191 341.006 53.1061 345.148 53.2032 349.809C52.8023 349.872 52.1748 349.54 51.5045 348.802C48.9829 346.028 48.9085 343.966 45.5785 340.858C43.8747 339.267 40.4302 338.086 36.3527 336.484C35.8402 336.283 35.3352 336.797 35.5481 337.304C37.2562 341.39 39.0448 344.883 42.0479 346.911C47.068 350.3 50.7164 349.561 53.2427 352.047C53.2861 354.959 53.3002 357.871 53.304 360.028C53.0246 359.959 52.6666 359.719 52.2898 359.305C50.4413 357.271 50.3872 355.76 47.9466 353.482C46.7491 352.364 44.3787 351.522 41.5509 350.42C41.0379 350.22 40.5329 350.734 40.7482 351.241C41.9551 354.079 43.2472 356.493 45.359 357.919C48.8703 360.289 51.4659 359.905 53.3054 361.449C53.3054 362.562 53.303 363.295 53.303 363.452C53.303 365.466 50.3302 367.672 50.3302 367.672C50.3302 367.672 53.303 369.591 53.303 371.623C53.303 372.682 52.8937 373.397 52.4156 373.816C51.7287 374.06 50.8973 373.855 50.1681 373.434C48.4073 372.417 48.233 368.883 48.233 368.883C48.233 368.883 44.8366 370.355 43.0922 369.348C42.9566 369.27 42.3211 368.905 41.3592 368.349C40.9428 365.984 42.5698 363.928 42.273 359.702C42.0945 357.16 40.6502 354.833 38.7966 352.369C38.4654 351.929 37.7673 352.109 37.6839 352.654C37.2246 355.655 36.7686 358.128 37.138 359.725C37.8903 362.977 39.1715 363.781 40.0082 366.398C40.1782 366.93 40.207 367.358 40.1278 367.635C38.261 366.551 35.7455 365.079 33.2441 363.583C32.3637 360.157 34.8208 357.366 34.3968 351.33C34.1429 347.715 32.0123 344.419 29.3291 340.897C28.9956 340.459 28.2979 340.639 28.216 341.184C27.564 345.516 26.865 349.09 27.3902 351.362C28.4167 355.8 30.1653 356.895 31.3066 360.467C31.6077 361.409 31.5846 362.115 31.3349 362.434C27.3436 360.015 23.845 357.781 23.7173 357.304C23.0366 354.765 24.3547 353.604 24.0414 349.14C23.869 346.687 22.5213 344.433 20.7637 342.065C20.3572 341.517 19.4895 341.731 19.3854 342.405C18.9431 345.264 18.5328 347.621 18.8894 349.163C19.644 352.426 20.93 353.232 21.769 355.859C22.1449 357.035 21.8373 357.718 21.1816 357.34C17.4479 355.184 17.5322 351.699 13.6784 349.474C10.3066 347.527 5.3321 346.962 0.813644 345.553C0.175821 345.355 -0.284882 346.152 0.20644 346.606C3.68479 349.815 6.66145 353.841 10.0333 355.788C13.8871 358.013 16.8624 356.198 20.596 358.354C21.2518 358.732 20.8141 359.341 19.6073 359.604C16.9137 360.19 15.5731 359.479 12.3698 360.457C10.8567 360.918 9.02101 362.453 6.76649 364.265C6.23466 364.693 6.48292 365.552 7.16078 365.63C10.0908 365.968 12.7156 366.009 14.9258 364.931C18.9483 362.971 19.2949 361.249 21.834 360.568C22.3234 360.436 26.0043 362.346 30.088 364.592C29.9424 364.972 29.3409 365.348 28.3672 365.56C24.7042 366.358 22.8812 365.391 18.5248 366.721C16.2952 367.402 13.5503 369.795 10.1247 372.525C9.69416 372.868 9.88683 373.563 10.4328 373.633C14.8241 374.196 18.7433 374.394 22.0007 372.806C27.4453 370.153 28.6301 366.623 32.0457 365.677C34.5886 367.096 37.1172 368.539 38.9869 369.615C38.7872 369.822 38.4009 370.013 37.854 370.131C35.1694 370.716 33.8334 370.007 30.6406 370.982C29.0738 371.46 27.1594 373.092 24.7909 374.99C24.3613 375.335 24.5544 376.029 25.1008 376.096C28.1613 376.469 30.8978 376.557 33.1881 375.441C36.9966 373.585 37.9614 371.145 40.2178 370.324C41.1811 370.88 41.8152 371.249 41.9508 371.327C43.6947 372.334 44.1187 376.012 44.1187 376.012C44.1187 376.012 47.2663 374.396 49.0267 375.413C49.9429 375.942 50.3575 376.654 50.4809 377.277C50.349 377.994 49.7559 378.612 49.0267 379.033C47.2663 380.05 44.1187 378.434 44.1187 378.434C44.1187 378.434 43.6947 382.112 41.9508 383.119C41.8152 383.197 41.1802 383.566 40.2154 384.122C37.9604 383.3 36.9948 380.861 33.1876 379.005C30.8973 377.889 28.1609 377.977 25.1004 378.35C24.5539 378.417 24.3608 379.112 24.7904 379.456C27.1589 381.354 29.0733 382.986 30.6401 383.464C33.833 384.439 35.1689 383.731 37.8535 384.315C38.399 384.434 38.7843 384.623 38.9845 384.83C37.1125 385.905 34.5801 387.348 32.034 388.766C28.6272 387.816 27.4387 384.292 22.0003 381.642C18.7433 380.054 14.8236 380.252 10.4323 380.815C9.8859 380.885 9.69322 381.579 10.1242 381.922C13.5498 384.653 16.2947 387.046 18.5243 387.726C22.8807 389.056 24.7037 388.09 28.3667 388.887C29.3329 389.097 29.9325 389.47 30.0842 389.846C25.994 392.094 22.3098 394.007 21.8335 393.879C19.294 393.199 18.9478 391.477 14.9254 389.516C12.7151 388.439 10.0899 388.48 7.1603 388.817C6.48244 388.896 6.23419 389.754 6.76602 390.182C9.02054 391.994 10.8563 393.528 12.3694 393.99C15.5731 394.968 16.9132 394.257 19.6068 394.844C20.8141 395.106 21.2513 395.714 20.5956 396.093C16.8619 398.249 13.8866 396.434 10.0329 398.659C6.66097 400.606 3.68431 404.632 0.205965 407.842C-0.284885 408.295 0.175347 409.092 0.813169 408.894C5.33163 407.485 10.3061 406.92 13.678 404.973C17.5318 402.748 17.447 399.263 21.1811 397.107C21.8368 396.729 22.1444 397.412 21.7685 398.589C20.9291 401.215 19.6435 402.02 18.8889 405.284C18.5323 406.825 18.9431 409.182 19.3849 412.041C19.489 412.715 20.3567 412.93 20.7633 412.382C22.5208 410.013 23.8685 407.76 24.0409 405.307C24.3547 400.843 23.0366 399.682 23.7168 397.142C23.8478 396.652 27.3417 394.419 31.3283 392.005C31.5841 392.32 31.6095 393.03 31.3062 393.979C30.1648 397.551 28.4167 398.646 27.3897 403.085C26.8645 405.356 27.5636 408.929 28.2155 413.262C28.2975 413.807 28.9947 413.987 29.3286 413.549C32.0118 410.027 34.1425 406.732 34.3968 403.116C34.8213 397.073 32.3576 394.283 33.247 390.852C35.7469 389.358 38.261 387.89 40.1269 386.808C40.207 387.085 40.1787 387.515 40.0082 388.048C39.1715 390.666 37.8903 391.469 37.138 394.722C36.7686 396.318 37.2246 398.792 37.6839 401.793C37.7673 402.337 38.4654 402.517 38.7966 402.077C40.6502 399.613 42.0945 397.287 42.273 394.745C42.5698 390.518 40.9418 388.461 41.3597 386.096C42.3216 385.54 42.957 385.176 43.0922 385.098C44.8361 384.091 48.233 385.563 48.233 385.563C48.233 385.563 48.4077 382.029 50.1681 381.013C51.0843 380.484 51.9082 380.481 52.5098 380.685C53.0642 381.158 53.303 381.981 53.303 382.823C53.303 384.856 50.3302 386.774 50.3302 386.774C50.3302 386.774 53.303 388.98 53.303 390.994C53.303 391.151 53.3049 391.885 53.304 392.998C51.4649 394.54 48.8698 394.157 45.3595 396.527C43.2477 397.953 41.9556 400.367 40.7487 403.204C40.5329 403.711 41.0384 404.226 41.5514 404.026C44.3792 402.923 46.7496 402.082 47.947 400.964C50.3876 398.686 50.4423 397.174 52.2903 395.141C52.6657 394.728 53.0223 394.488 53.3016 394.419C53.296 396.578 53.2795 399.493 53.2347 402.407C50.7084 404.882 47.0624 404.149 42.0484 407.534C39.0453 409.562 37.2567 413.055 35.5486 417.14C35.3361 417.649 35.8407 418.163 36.3532 417.961C40.4307 416.359 43.8747 415.178 45.579 413.587C48.9089 410.478 48.9834 408.417 51.5055 405.642C52.1706 404.911 52.7934 404.578 53.1947 404.635C53.0962 409.301 52.9102 413.448 52.5616 413.798C50.7028 415.657 49.0385 415.096 45.3298 417.6C43.292 418.975 42.0144 421.269 40.8424 423.976C40.5711 424.602 41.1905 425.246 41.8265 425C44.5229 423.953 46.7694 423.13 47.9258 422.05C50.3744 419.764 50.4291 418.248 52.2837 416.208C53.1146 415.294 53.8598 415.219 53.8598 415.977C53.8598 420.288 50.8003 421.958 50.8003 426.408C50.8003 430.302 52.7981 434.893 53.8382 439.511C53.9851 440.163 54.9061 440.163 55.0526 439.511C56.0927 434.893 58.0905 430.302 58.0905 426.408C58.0905 421.958 55.0309 420.289 55.0309 415.977C55.0309 415.219 55.7761 415.294 56.6071 416.208C58.4612 418.248 58.5163 419.765 60.9649 422.05C62.1214 423.13 64.3679 423.953 67.0643 425C67.7002 425.246 68.3197 424.602 68.0483 423.976C66.8763 421.269 65.5988 418.975 63.561 417.6C59.8523 415.096 58.188 415.657 56.3292 413.798C55.9707 413.439 55.7837 409.296 55.6866 404.636C56.0875 404.572 56.715 404.905 57.3853 405.642C59.9069 408.417 59.9818 410.478 63.3113 413.587C65.0156 415.178 68.4596 416.359 72.5371 417.961C73.0496 418.162 73.5546 417.648 73.3422 417.14C71.6341 413.055 69.8455 409.562 66.8424 407.534C61.8223 404.146 58.1739 404.884 55.6475 402.398C55.6042 399.486 55.5901 396.574 55.5863 394.418C55.8656 394.486 56.2237 394.726 56.6005 395.14C58.449 397.174 58.5031 398.685 60.9437 400.963C62.1412 402.081 64.5116 402.923 67.3394 404.025C67.8524 404.226 68.3578 403.711 68.1421 403.204C66.9352 400.366 65.6431 397.952 63.5313 396.526C60.02 394.156 57.4244 394.54 55.5849 392.996C55.5849 391.883 55.5872 391.15 55.5872 390.993C55.5872 388.979 58.5601 386.774 58.5601 386.774C58.5601 386.774 55.5872 384.855 55.5872 382.822C55.5872 381.764 55.9966 381.049 56.4747 380.63C57.1615 380.386 57.993 380.59 58.7222 381.012C60.483 382.028 60.6573 385.562 60.6573 385.562C60.6573 385.562 64.0537 384.09 65.7981 385.097C65.9337 385.175 66.5692 385.54 67.5311 386.097C67.9475 388.462 66.3205 390.518 66.6172 394.744C66.7958 397.286 68.24 399.612 70.0937 402.076C70.4249 402.516 71.123 402.336 71.2063 401.792C71.6656 398.791 72.1216 396.317 71.7523 394.721C71 391.468 69.7187 390.665 68.8821 388.048C68.7121 387.516 68.6833 387.087 68.7625 386.81C70.6293 387.894 73.1448 389.366 75.6461 390.862C76.5266 394.288 74.069 397.08 74.4934 403.115C74.7473 406.73 76.878 410.026 79.5612 413.548C79.8947 413.986 80.5923 413.806 80.6743 413.261C81.3262 408.929 82.0253 405.355 81.5001 403.084C80.4736 398.645 78.725 397.55 77.5836 393.978C77.2826 393.036 77.3057 392.33 77.5554 392.011C81.5467 394.43 85.0453 396.664 85.173 397.141C85.8532 399.68 84.5356 400.842 84.8493 405.305C85.0218 407.759 86.3695 410.012 88.127 412.38C88.5336 412.928 89.4013 412.714 89.5054 412.04C89.9477 409.181 90.358 406.824 90.0014 405.282C89.2467 402.019 87.9612 401.213 87.1218 398.587C86.7458 397.41 87.0535 396.727 87.7092 397.106C91.4428 399.262 91.3585 402.747 95.2123 404.972C98.5842 406.919 103.559 407.484 108.077 408.892C108.713 409.092 109.174 408.294 108.683 407.841Z" fill="#FFE6E6"/>
<path d="M268.908 269.442C268.866 269.113 268.423 268.899 268.157 269.081C264.881 271.316 255.524 275.523 249.39 272.019C245.772 269.953 244.954 268.027 244.821 266.653L244.829 266.653C244.815 266.49 244.802 266.309 244.799 266.111C244.802 265.914 244.815 265.733 244.829 265.569L244.821 265.57C244.954 264.195 245.773 262.27 249.39 260.203C255.524 256.7 264.881 260.906 268.157 263.141C268.423 263.323 268.866 263.11 268.908 262.781C269.494 258.186 269.92 250.936 278.735 241.912C278.906 241.737 278.925 241.534 278.84 241.389C278.756 241.244 278.569 241.158 278.33 241.217C266.023 244.258 259.463 240.997 255.148 239.202C254.839 239.073 254.43 239.346 254.456 239.665C254.775 243.589 253.779 253.709 247.645 257.212C244.027 259.278 241.932 259.017 240.662 258.443L240.667 258.436C240.517 258.367 240.352 258.288 240.178 258.192C240.006 258.091 239.854 257.989 239.719 257.895L239.715 257.902C238.578 257.101 237.302 255.437 237.302 251.305C237.302 244.298 245.662 238.384 249.257 236.696C249.549 236.558 249.583 236.072 249.317 235.872C245.587 233.072 239.453 229.082 235.961 217.018C235.893 216.784 235.725 216.667 235.556 216.667C235.387 216.667 235.218 216.784 235.15 217.018C231.659 229.082 225.525 233.072 221.795 235.872C221.528 236.072 221.563 236.558 221.855 236.696C225.449 238.384 233.81 244.298 233.81 251.305C233.81 255.437 232.534 257.101 231.397 257.902L231.393 257.895C231.257 257.989 231.105 258.091 230.934 258.192C230.76 258.288 230.595 258.367 230.445 258.436L230.45 258.443C229.18 259.017 227.084 259.278 223.467 257.212C217.333 253.709 216.337 243.589 216.656 239.665C216.682 239.347 216.273 239.073 215.964 239.202C211.649 240.997 205.089 244.258 192.782 241.217C192.543 241.158 192.356 241.244 192.272 241.389C192.187 241.534 192.205 241.737 192.377 241.912C201.192 250.936 201.618 258.186 202.204 262.781C202.246 263.11 202.689 263.323 202.955 263.141C206.231 260.906 215.588 256.7 221.722 260.203C225.34 262.27 226.158 264.195 226.291 265.57L226.283 265.569C226.297 265.733 226.31 265.914 226.313 266.111C226.31 266.309 226.297 266.49 226.283 266.653L226.291 266.653C226.158 268.027 225.339 269.953 221.722 272.019C215.588 275.522 206.231 271.316 202.955 269.081C202.689 268.899 202.246 269.113 202.204 269.442C201.618 274.037 201.192 281.287 192.377 290.31C192.206 290.485 192.187 290.689 192.272 290.834C192.356 290.978 192.543 291.064 192.782 291.005C205.089 287.965 211.649 291.225 215.964 293.021C216.273 293.149 216.682 292.876 216.656 292.557C216.337 288.633 217.333 278.514 223.467 275.01C227.085 272.944 229.18 273.205 230.45 273.779L230.445 273.786C230.595 273.855 230.76 273.935 230.934 274.031C231.106 274.132 231.258 274.234 231.393 274.328L231.397 274.32C232.534 275.121 233.81 276.786 233.81 280.918C233.81 287.925 225.449 293.839 221.855 295.527C221.563 295.665 221.528 296.151 221.795 296.351C225.525 299.151 231.659 303.141 235.15 315.204C235.218 315.439 235.387 315.556 235.556 315.556C235.725 315.556 235.893 315.439 235.961 315.204C239.453 303.141 245.587 299.151 249.317 296.351C249.583 296.151 249.549 295.665 249.257 295.527C245.662 293.839 237.302 287.925 237.302 280.918C237.302 276.786 238.578 275.121 239.715 274.32L239.719 274.328C239.854 274.234 240.006 274.132 240.178 274.031C240.352 273.935 240.517 273.855 240.667 273.786L240.662 273.779C241.932 273.205 244.028 272.944 247.645 275.01C253.779 278.514 254.775 288.633 254.456 292.557C254.43 292.876 254.839 293.149 255.148 293.021C259.463 291.225 266.023 287.965 278.33 291.005C278.569 291.064 278.756 290.978 278.84 290.834C278.925 290.689 278.907 290.485 278.735 290.31C269.92 281.287 269.494 274.037 268.908 269.442ZM259.294 246.286C261.674 246.981 264.521 247.535 267.933 247.618C266.301 250.584 265.361 253.299 264.78 255.686C262.477 254.811 259.827 254.077 257.091 253.811C258.226 251.333 258.909 248.696 259.294 246.286ZM206.331 255.686C205.749 253.299 204.81 250.584 203.178 247.618C206.59 247.534 209.437 246.981 211.817 246.286C212.202 248.696 212.884 251.334 214.02 253.811C211.283 254.077 208.633 254.811 206.331 255.686ZM211.817 285.936C209.437 285.241 206.59 284.688 203.178 284.604C204.81 281.638 205.749 278.923 206.331 276.537C208.633 277.412 211.284 278.145 214.02 278.412C212.884 280.889 212.202 283.526 211.817 285.936ZM230.07 235.861C231.868 234.169 233.776 232.007 235.555 229.126C237.335 232.007 239.243 234.169 241.041 235.861C239.124 237.396 237.157 239.299 235.555 241.511C233.954 239.299 231.987 237.396 230.07 235.861ZM241.041 296.361C239.243 298.053 237.335 300.215 235.555 303.096C233.776 300.215 231.868 298.053 230.07 296.361C231.987 294.826 233.955 292.923 235.555 290.711C237.157 292.923 239.124 294.826 241.041 296.361ZM235.555 270.932C232.864 270.932 230.683 268.774 230.683 266.111C230.683 263.449 232.864 261.291 235.555 261.291C238.247 261.291 240.428 263.449 240.428 266.111C240.428 268.774 238.247 270.932 235.555 270.932ZM259.294 285.936C258.909 283.526 258.226 280.889 257.091 278.412C259.827 278.145 262.477 277.412 264.78 276.537C265.361 278.923 266.3 281.639 267.933 284.604C264.521 284.688 261.674 285.241 259.294 285.936Z" fill="#FFE6E6"/>
<path d="M1540.02 222.775C1539.98 222.446 1539.53 222.232 1539.27 222.414C1535.99 224.649 1526.63 228.856 1520.5 225.352C1516.88 223.286 1516.06 221.36 1515.93 219.986L1515.94 219.986C1515.93 219.823 1515.91 219.642 1515.91 219.444C1515.91 219.247 1515.93 219.066 1515.94 218.902L1515.93 218.903C1516.06 217.528 1516.88 215.603 1520.5 213.536C1526.63 210.033 1535.99 214.239 1539.27 216.474C1539.53 216.656 1539.98 216.443 1540.02 216.114C1540.61 211.519 1541.03 204.269 1549.85 195.245C1550.02 195.07 1550.04 194.867 1549.95 194.722C1549.87 194.577 1549.68 194.491 1549.44 194.55C1537.13 197.591 1530.57 194.33 1526.26 192.535C1525.95 192.406 1525.54 192.679 1525.57 192.998C1525.89 196.922 1524.89 207.042 1518.76 210.545C1515.14 212.611 1513.04 212.35 1511.77 211.776L1511.78 211.769C1511.63 211.7 1511.46 211.621 1511.29 211.525C1511.12 211.424 1510.97 211.322 1510.83 211.228L1510.83 211.235C1509.69 210.434 1508.41 208.77 1508.41 204.638C1508.41 197.631 1516.77 191.717 1520.37 190.029C1520.66 189.891 1520.69 189.405 1520.43 189.205C1516.7 186.405 1510.56 182.415 1507.07 170.351C1507 170.117 1506.84 170 1506.67 170C1506.5 170 1506.33 170.117 1506.26 170.351C1502.77 182.415 1496.64 186.405 1492.91 189.205C1492.64 189.405 1492.67 189.891 1492.97 190.029C1496.56 191.717 1504.92 197.631 1504.92 204.638C1504.92 208.77 1503.64 210.434 1502.51 211.235L1502.5 211.228C1502.37 211.322 1502.22 211.424 1502.05 211.525C1501.87 211.621 1501.71 211.7 1501.56 211.769L1501.56 211.776C1500.29 212.35 1498.2 212.611 1494.58 210.545C1488.44 207.042 1487.45 196.922 1487.77 192.998C1487.79 192.68 1487.38 192.406 1487.08 192.535C1482.76 194.33 1476.2 197.591 1463.89 194.55C1463.65 194.491 1463.47 194.577 1463.38 194.722C1463.3 194.867 1463.32 195.07 1463.49 195.245C1472.3 204.269 1472.73 211.519 1473.31 216.114C1473.36 216.443 1473.8 216.656 1474.07 216.474C1477.34 214.239 1486.7 210.033 1492.83 213.536C1496.45 215.603 1497.27 217.528 1497.4 218.903L1497.39 218.902C1497.41 219.066 1497.42 219.247 1497.42 219.444C1497.42 219.642 1497.41 219.823 1497.39 219.986L1497.4 219.986C1497.27 221.36 1496.45 223.286 1492.83 225.352C1486.7 228.855 1477.34 224.649 1474.07 222.414C1473.8 222.232 1473.36 222.446 1473.31 222.775C1472.73 227.37 1472.3 234.62 1463.49 243.643C1463.32 243.819 1463.3 244.022 1463.38 244.167C1463.47 244.311 1463.65 244.397 1463.89 244.338C1476.2 241.298 1482.76 244.558 1487.08 246.354C1487.38 246.482 1487.79 246.209 1487.77 245.89C1487.45 241.966 1488.44 231.847 1494.58 228.343C1498.2 226.277 1500.29 226.538 1501.56 227.112L1501.56 227.119C1501.71 227.188 1501.87 227.268 1502.05 227.364C1502.22 227.465 1502.37 227.567 1502.5 227.661L1502.51 227.653C1503.64 228.454 1504.92 230.119 1504.92 234.251C1504.92 241.258 1496.56 247.172 1492.97 248.86C1492.67 248.998 1492.64 249.484 1492.91 249.684C1496.64 252.484 1502.77 256.474 1506.26 268.537C1506.33 268.772 1506.5 268.889 1506.67 268.889C1506.84 268.889 1507 268.772 1507.07 268.537C1510.56 256.474 1516.7 252.484 1520.43 249.684C1520.69 249.484 1520.66 248.998 1520.37 248.86C1516.77 247.172 1508.41 241.258 1508.41 234.251C1508.41 230.119 1509.69 228.454 1510.83 227.653L1510.83 227.661C1510.97 227.567 1511.12 227.465 1511.29 227.364C1511.46 227.268 1511.63 227.188 1511.78 227.119L1511.77 227.112C1513.04 226.538 1515.14 226.277 1518.76 228.343C1524.89 231.847 1525.89 241.966 1525.57 245.89C1525.54 246.209 1525.95 246.482 1526.26 246.354C1530.57 244.558 1537.13 241.298 1549.44 244.338C1549.68 244.397 1549.87 244.311 1549.95 244.167C1550.04 244.022 1550.02 243.819 1549.85 243.643C1541.03 234.62 1540.61 227.37 1540.02 222.775ZM1530.4 199.619C1532.79 200.314 1535.63 200.868 1539.04 200.952C1537.41 203.917 1536.47 206.632 1535.89 209.019C1533.59 208.144 1530.94 207.41 1528.2 207.144C1529.34 204.666 1530.02 202.029 1530.4 199.619ZM1477.44 209.019C1476.86 206.632 1475.92 203.917 1474.29 200.952C1477.7 200.867 1480.55 200.314 1482.93 199.619C1483.31 202.029 1484 204.667 1485.13 207.144C1482.39 207.41 1479.74 208.144 1477.44 209.019ZM1482.93 239.269C1480.55 238.574 1477.7 238.021 1474.29 237.937C1475.92 234.971 1476.86 232.256 1477.44 229.87C1479.74 230.745 1482.39 231.478 1485.13 231.745C1484 234.222 1483.31 236.859 1482.93 239.269ZM1501.18 189.194C1502.98 187.502 1504.89 185.34 1506.67 182.459C1508.45 185.34 1510.35 187.502 1512.15 189.194C1510.23 190.729 1508.27 192.632 1506.67 194.844C1505.06 192.632 1503.1 190.729 1501.18 189.194ZM1512.15 249.694C1510.35 251.386 1508.45 253.548 1506.67 256.429C1504.89 253.548 1502.98 251.386 1501.18 249.694C1503.1 248.159 1505.07 246.256 1506.67 244.044C1508.27 246.256 1510.23 248.159 1512.15 249.694ZM1506.67 224.265C1503.97 224.265 1501.79 222.107 1501.79 219.444C1501.79 216.782 1503.97 214.624 1506.67 214.624C1509.36 214.624 1511.54 216.782 1511.54 219.444C1511.54 222.107 1509.36 224.265 1506.67 224.265ZM1530.4 239.269C1530.02 236.859 1529.34 234.222 1528.2 231.745C1530.94 231.478 1533.59 230.745 1535.89 229.87C1536.47 232.256 1537.41 234.972 1539.04 237.937C1535.63 238.021 1532.79 238.574 1530.4 239.269Z" fill="#FFE6E6"/>
<path d="M1828.21 477.61C1811.06 477.61 1795.96 470.247 1794.15 469.303C1792.19 470.326 1780.23 476.775 1779.21 476.775C1778.18 476.775 1775.83 474.73 1775.83 474.73C1775.83 474.73 1773.23 476.775 1771.89 476.775C1771.21 476.775 1768.6 476.619 1766.18 476.464C1767.78 474.645 1769.52 472.684 1770 472.205C1770.94 471.259 1774.23 470.87 1774.23 470.87C1774.23 470.87 1774.45 467.755 1775.17 467.032C1775.89 466.309 1788.91 462.416 1791.02 461.749C1791.64 459.802 1797.11 443.917 1809.23 431.791C1809.54 431.485 1809.46 431.056 1809.2 430.801C1808.94 430.545 1808.52 430.463 1808.21 430.769C1796.08 442.895 1780.2 448.366 1778.25 448.977C1777.58 451.091 1773.69 464.106 1772.97 464.829C1772.25 465.552 1769.13 465.774 1769.13 465.774C1769.13 465.774 1768.74 469.056 1767.8 470.001C1767.32 470.48 1765.36 472.219 1763.54 473.819C1763.38 471.402 1763.23 468.785 1763.23 468.108C1763.23 466.77 1765.27 464.175 1765.27 464.175C1765.27 464.175 1763.23 461.815 1763.23 460.793C1763.23 459.77 1769.68 447.814 1770.7 445.848C1769.75 444.039 1762.39 428.938 1762.39 411.79C1762.39 411.357 1762.03 411.111 1761.67 411.111C1761.31 411.111 1760.94 411.357 1760.94 411.79C1760.94 428.939 1753.58 444.039 1752.64 445.848C1753.66 447.815 1760.11 459.771 1760.11 460.793C1760.11 461.815 1758.06 464.175 1758.06 464.175C1758.06 464.175 1760.11 466.77 1760.11 468.108C1760.11 468.785 1759.95 471.402 1759.8 473.819C1757.98 472.219 1756.02 470.48 1755.54 470.001C1754.59 469.056 1754.2 465.774 1754.2 465.774C1754.2 465.774 1751.09 465.552 1750.37 464.829C1749.64 464.106 1745.75 451.091 1745.08 448.977C1743.13 448.366 1727.25 442.894 1715.12 430.769C1714.82 430.463 1714.39 430.545 1714.13 430.801C1713.88 431.056 1713.8 431.485 1714.1 431.791C1726.23 443.917 1731.7 459.802 1732.31 461.749C1734.42 462.416 1747.44 466.309 1748.16 467.032C1748.88 467.755 1749.11 470.87 1749.11 470.87C1749.11 470.87 1752.39 471.259 1753.33 472.205C1753.81 472.684 1755.55 474.645 1757.15 476.464C1754.74 476.619 1752.12 476.775 1751.44 476.775C1750.1 476.775 1747.51 474.73 1747.51 474.73C1747.51 474.73 1745.15 476.775 1744.13 476.775C1743.1 476.775 1731.15 470.326 1729.18 469.303C1727.37 470.247 1712.27 477.61 1695.12 477.61C1694.69 477.61 1694.44 477.972 1694.44 478.334C1694.44 478.696 1694.69 479.057 1695.12 479.057C1712.27 479.057 1727.37 486.42 1729.18 487.364C1731.15 486.342 1743.1 479.892 1744.13 479.892C1745.15 479.892 1747.51 481.937 1747.51 481.937C1747.51 481.937 1750.1 479.892 1751.44 479.892C1752.12 479.892 1754.74 480.049 1757.15 480.203C1755.55 482.022 1753.81 483.983 1753.33 484.462C1752.39 485.408 1749.11 485.797 1749.11 485.797C1749.11 485.797 1748.88 488.912 1748.16 489.635C1747.44 490.358 1734.42 494.251 1732.31 494.918C1731.7 496.865 1726.23 512.75 1714.1 524.876C1713.8 525.182 1713.88 525.611 1714.13 525.867C1714.39 526.122 1714.82 526.205 1715.12 525.898C1727.25 513.772 1743.13 508.301 1745.08 507.69C1745.75 505.576 1749.64 492.561 1750.37 491.839C1751.09 491.116 1754.2 490.893 1754.2 490.893C1754.2 490.893 1754.59 487.611 1755.54 486.666C1756.02 486.187 1757.98 484.448 1759.8 482.848C1759.95 485.265 1760.11 487.881 1760.11 488.559C1760.11 489.896 1758.06 492.492 1758.06 492.492C1758.06 492.492 1760.11 494.851 1760.11 495.874C1760.11 496.897 1753.66 508.853 1752.64 510.819C1753.58 512.628 1760.94 527.729 1760.94 544.877C1760.94 545.311 1761.31 545.556 1761.67 545.556C1762.03 545.556 1762.39 545.311 1762.39 544.877C1762.39 527.729 1769.75 512.628 1770.7 510.819C1769.68 508.853 1763.23 496.897 1763.23 495.874C1763.23 494.851 1765.27 492.492 1765.27 492.492C1765.27 492.492 1763.23 489.896 1763.23 488.559C1763.23 487.881 1763.38 485.265 1763.54 482.848C1765.36 484.447 1767.32 486.187 1767.8 486.665C1768.74 487.611 1769.13 490.893 1769.13 490.893C1769.13 490.893 1772.25 491.115 1772.97 491.838C1773.69 492.561 1777.58 505.576 1778.25 507.689C1780.2 508.301 1796.08 513.772 1808.21 525.898C1808.52 526.204 1808.94 526.122 1809.2 525.866C1809.46 525.61 1809.54 525.181 1809.23 524.875C1797.11 512.749 1791.64 496.865 1791.02 494.918C1788.91 494.251 1775.9 490.357 1775.17 489.634C1774.45 488.911 1774.23 485.797 1774.23 485.797C1774.23 485.797 1770.95 485.407 1770 484.462C1769.52 483.983 1767.78 482.022 1766.18 480.203C1768.6 480.048 1771.22 479.891 1771.89 479.891C1773.23 479.891 1775.83 481.936 1775.83 481.936C1775.83 481.936 1778.19 479.891 1779.21 479.891C1780.23 479.891 1792.19 486.341 1794.15 487.364C1795.96 486.42 1811.06 479.056 1828.21 479.056C1828.64 479.056 1828.89 478.695 1828.89 478.333C1828.89 477.972 1828.64 477.61 1828.21 477.61ZM1781.81 452.396C1784.09 451.542 1787.92 449.973 1792.41 447.589C1790.03 452.076 1788.46 455.907 1787.6 458.193C1783.96 459.312 1781.22 460.17 1779.16 460.844C1779.83 458.776 1780.69 456.041 1781.81 452.396ZM1735.73 458.193C1734.88 455.907 1733.31 452.076 1730.92 447.589C1735.41 449.973 1739.24 451.542 1741.53 452.396C1742.65 456.041 1743.5 458.776 1744.18 460.844C1742.11 460.17 1739.37 459.312 1735.73 458.193ZM1729.09 482.432C1726.86 481.42 1723.05 479.82 1718.19 478.333C1723.05 476.847 1726.86 475.247 1729.09 474.234C1732.45 476.021 1734.99 477.348 1736.93 478.333C1734.99 479.319 1732.45 480.646 1729.09 482.432ZM1741.53 504.271C1739.24 505.125 1735.41 506.694 1730.92 509.079C1733.31 504.591 1734.88 500.76 1735.73 498.474C1739.37 497.355 1742.11 496.497 1744.18 495.824C1743.5 497.891 1742.65 500.626 1741.53 504.271ZM1787.6 498.474C1788.46 500.76 1790.03 504.591 1792.41 509.079C1787.92 506.694 1784.09 505.125 1781.81 504.271C1780.69 500.626 1779.83 497.891 1779.16 495.824C1781.22 496.497 1783.96 497.355 1787.6 498.474ZM1757.57 445.751C1758.58 443.53 1760.18 439.712 1761.67 434.853C1763.15 439.712 1764.75 443.53 1765.77 445.751C1763.98 449.12 1762.65 451.66 1761.67 453.599C1760.68 451.66 1759.35 449.12 1757.57 445.751ZM1765.77 510.915C1764.75 513.137 1763.15 516.954 1761.67 521.813C1760.18 516.954 1758.58 513.137 1757.57 510.915C1759.35 507.547 1760.68 505.006 1761.67 503.068C1762.65 505.006 1763.98 507.547 1765.77 510.915ZM1761.67 480.727C1760.35 480.727 1759.27 479.655 1759.27 478.333C1759.27 477.012 1760.35 475.94 1761.67 475.94C1762.99 475.94 1764.06 477.012 1764.06 478.333C1764.06 479.655 1762.99 480.727 1761.67 480.727ZM1794.25 482.432C1790.88 480.646 1788.34 479.319 1786.4 478.333C1788.34 477.348 1790.88 476.021 1794.25 474.234C1796.47 475.247 1800.29 476.847 1805.15 478.333C1800.29 479.82 1796.47 481.42 1794.25 482.432Z" fill="#FFE6E6"/>
<line x1="430.555" y1="16.667" x2="430.555" y2="197.778" stroke="#FFE6E6" stroke-width="3.33333"/>
<path d="M1655 84.5L1655 298.889" stroke="#FFE6E6" stroke-width="3.33333"/>
<line x1="810.556" y1="12.2222" x2="810.556" y2="193.333" stroke="#FFE6E6" stroke-width="3.33333"/>
<line x1="1377.22" y1="101.111" x2="1377.22" y2="282.222" stroke="#FFE6E6" stroke-width="3.33333"/>
<line x1="1107.22" y1="106.667" x2="1107.22" y2="287.778" stroke="#FFE6E6" stroke-width="3.33333"/>
<path d="M435.003 225.034V223.855L446.692 222.084L463.333 206.111L440.976 212.327L433.575 221.417L432.539 220.828L436.827 209.967L431.111 187.778L425.395 209.967L429.683 220.828L428.646 221.417L421.246 212.327L398.889 206.111L415.53 222.084L427.218 223.855V225.034L415.53 226.806L398.889 242.778L421.246 236.562L428.646 227.472L429.683 228.061L425.395 238.922L431.111 261.111L436.827 238.922L432.539 228.061L433.575 227.472L440.976 236.562L463.333 242.778L446.692 226.806L435.003 225.034ZM442.558 214.682L453.729 211.576L445.414 219.557L437.629 220.736L442.558 214.682ZM416.808 219.557L408.493 211.576L419.664 214.682L424.594 220.736L416.808 219.557ZM419.664 234.208L408.493 237.313L416.808 229.332L424.593 228.153L419.664 234.208ZM428.255 209.794L431.111 198.707L433.967 209.794L431.111 217.028L428.255 209.794ZM433.967 239.095L431.111 250.182L428.255 239.095L431.111 231.861L433.967 239.095ZM432.704 225.351L431.111 226.257L429.518 225.351V223.539L431.111 222.632L432.704 223.539V225.351ZM442.558 234.208L437.628 228.153L445.414 229.333L453.729 237.314L442.558 234.208Z" fill="#FFE6E6"/>
<path d="M1659.45 326.145V324.966L1671.14 323.195L1687.78 307.222L1665.42 313.438L1658.02 322.528L1656.98 321.938L1661.27 311.077L1655.56 288.889L1649.84 311.077L1654.13 321.938L1653.09 322.528L1645.69 313.438L1623.33 307.222L1639.97 323.195L1651.66 324.966V326.145L1639.97 327.916L1623.33 343.889L1645.69 337.673L1653.09 328.583L1654.13 329.172L1649.84 340.033L1655.56 362.222L1661.27 340.033L1656.98 329.172L1658.02 328.583L1665.42 337.673L1687.78 343.889L1671.14 327.916L1659.45 326.145ZM1667 315.793L1678.17 312.687L1669.86 320.668L1662.07 321.847L1667 315.793ZM1641.25 320.668L1632.94 312.687L1644.11 315.793L1649.04 321.847L1641.25 320.668ZM1644.11 335.318L1632.94 338.424L1641.25 330.443L1649.04 329.264L1644.11 335.318ZM1652.7 310.905L1655.56 299.818L1658.41 310.905L1655.56 318.139L1652.7 310.905ZM1658.41 340.206L1655.56 351.293L1652.7 340.206L1655.56 332.972L1658.41 340.206ZM1657.15 326.462L1655.56 327.368L1653.96 326.462V324.649L1655.56 323.743L1657.15 324.649V326.462ZM1667 335.318L1662.07 329.264L1669.86 330.444L1678.17 338.425L1667 335.318Z" fill="#FFE6E6"/>
<path d="M1111.67 315.034V313.855L1123.36 312.084L1140 296.111L1117.64 302.327L1110.24 311.417L1109.21 310.828L1113.49 299.967L1107.78 277.778L1102.06 299.967L1106.35 310.828L1105.31 311.417L1097.91 302.327L1075.56 296.111L1092.2 312.084L1103.89 313.855V315.034L1092.2 316.806L1075.56 332.778L1097.91 326.562L1105.31 317.472L1106.35 318.061L1102.06 328.922L1107.78 351.111L1113.49 328.922L1109.21 318.061L1110.24 317.472L1117.64 326.562L1140 332.778L1123.36 316.806L1111.67 315.034ZM1119.22 304.682L1130.4 301.576L1122.08 309.557L1114.3 310.736L1119.22 304.682ZM1093.47 309.557L1085.16 301.576L1096.33 304.682L1101.26 310.736L1093.47 309.557ZM1096.33 324.208L1085.16 327.313L1093.47 319.332L1101.26 318.153L1096.33 324.208ZM1104.92 299.794L1107.78 288.707L1110.63 299.794L1107.78 307.028L1104.92 299.794ZM1110.63 329.095L1107.78 340.182L1104.92 329.095L1107.78 321.861L1110.63 329.095ZM1109.37 315.351L1107.78 316.257L1106.19 315.351V313.539L1107.78 312.632L1109.37 313.539V315.351ZM1119.22 324.208L1114.3 318.153L1122.08 319.333L1130.4 327.314L1119.22 324.208Z" fill="#FFE6E6"/>
<path d="M790.818 256.77C791.349 255.575 791.713 254.398 791.957 253.351C793.288 253.719 794.55 253.908 795.619 253.998C795.163 254.969 794.694 256.156 794.348 257.493C793.319 257.181 792.119 256.908 790.818 256.77ZM759.675 258.311C759.747 258.436 759.853 258.539 759.994 258.597C764.714 260.54 775.878 263.269 780.179 262.912C777.719 266.458 774.461 277.422 773.784 282.481C773.764 282.633 773.799 282.775 773.872 282.901C774.177 283.43 775.131 283.66 775.274 283.008C777.045 274.913 782.602 263.547 786.73 260.424C787.934 259.513 788.025 259.676 788.025 259.676C791.752 259.374 795.225 260.858 796.062 261.384C796.463 261.636 796.76 261.428 796.784 260.967C797.016 256.522 799.571 253.01 799.571 253.01L803.841 250.545L813.578 250.562L808.718 246.528L807.574 240.163L802.721 248.604L798.45 251.069C798.45 251.069 794.132 251.527 790.166 249.504C789.755 249.295 789.427 249.448 789.444 249.921C789.481 250.909 789.03 254.659 786.904 257.735C786.905 257.737 786.995 257.898 785.609 258.483C780.841 260.496 768.179 259.556 760.283 257.043C759.647 256.841 759.369 257.781 759.675 258.311Z" fill="#FFE6E6"/>
<path d="M768.654 265.222C763.471 271.617 757.88 275.859 757.88 275.859C757.88 275.859 764.247 272.96 772.377 271.669L778.697 263.563L768.654 265.222Z" fill="#FFE6E6"/>
<path d="M790.778 233.955C792.078 233.817 793.279 233.544 794.308 233.232C794.655 234.569 795.123 235.757 795.579 236.727C794.511 236.818 793.248 237.006 791.917 237.374C791.673 236.327 791.309 235.15 790.778 233.955ZM773.872 207.754C773.799 207.88 773.763 208.023 773.783 208.174C774.461 213.234 777.679 224.267 780.139 227.813C775.838 227.456 764.713 230.116 759.993 232.059C759.852 232.117 759.747 232.22 759.674 232.346C759.369 232.875 759.646 233.816 760.283 233.613C768.179 231.1 780.8 230.229 785.569 232.243C786.96 232.83 786.864 232.991 786.864 232.991C788.989 236.067 789.441 239.817 789.404 240.804C789.387 241.277 789.715 241.43 790.126 241.221C794.091 239.199 798.41 239.656 798.41 239.656L802.68 242.122L807.534 250.563L808.598 244.337L813.538 240.163L803.801 240.181L799.531 237.715C799.531 237.715 796.975 234.204 796.744 229.758C796.72 229.298 796.423 229.09 796.023 229.342C795.186 229.868 791.712 231.352 787.985 231.049C787.984 231.05 787.89 231.209 786.69 230.302C782.563 227.179 777.046 215.743 775.274 207.648C775.131 206.995 774.177 207.226 773.872 207.754Z" fill="#FFE6E6"/>
<path d="M772.376 218.987C764.246 217.696 757.778 214.975 757.778 214.975C757.778 214.975 763.472 219.039 768.654 225.434L778.834 226.855L772.376 218.987Z" fill="#FFE6E6"/>
<path d="M810.516 222.513C811.286 223.571 812.122 224.474 812.907 225.209C811.922 226.178 811.128 227.177 810.516 228.057C809.903 227.177 809.109 226.178 808.125 225.209C808.91 224.474 809.746 223.571 810.516 222.513ZM824.753 194.772C824.608 194.772 824.467 194.812 824.346 194.905C820.303 198.022 812.357 206.325 810.516 210.229C808.674 206.326 800.809 198.022 796.766 194.905C796.645 194.812 796.503 194.772 796.358 194.772C795.748 194.772 795.072 195.483 795.565 195.933C801.69 201.514 808.755 212.009 809.395 217.146C809.582 218.644 809.395 218.642 809.395 218.642C807.794 222.02 804.772 224.286 803.898 224.748C803.48 224.969 803.511 225.33 803.898 225.582C807.632 228.005 809.395 231.974 809.395 231.974V236.905L804.512 245.328L810.436 243.137L816.52 245.328L811.637 236.905V231.974C811.637 231.974 813.4 228.005 817.134 225.582C817.521 225.331 817.552 224.969 817.134 224.748C816.26 224.286 813.238 222.02 811.637 218.642C811.635 218.642 811.451 218.639 811.637 217.146C812.277 212.01 819.422 201.514 825.547 195.933C826.041 195.483 825.364 194.772 824.753 194.772Z" fill="#FFE6E6"/>
<path d="M814.278 199.093C811.331 191.407 810.453 184.444 810.453 184.444C810.453 184.444 809.78 191.407 806.833 199.093L810.693 208.62L814.278 199.093Z" fill="#FFE6E6"/>
<path d="M830.293 233.886C829.762 235.081 829.398 236.257 829.154 237.305C827.823 236.937 826.561 236.748 825.492 236.658C825.948 235.687 826.417 234.5 826.763 233.163C827.792 233.475 828.992 233.748 830.293 233.886ZM861.437 232.345C861.364 232.22 861.258 232.117 861.117 232.059C856.397 230.116 845.233 227.387 840.932 227.744C843.392 224.197 846.65 213.233 847.327 208.174C847.348 208.023 847.312 207.88 847.239 207.754C846.934 207.226 845.98 206.996 845.837 207.648C844.066 215.743 838.509 227.109 834.381 230.232C833.177 231.143 833.086 230.979 833.086 230.979C829.359 231.282 825.886 229.798 825.049 229.272C824.648 229.02 824.351 229.228 824.327 229.688C824.096 234.134 821.54 237.645 821.54 237.645L817.27 240.111L807.533 240.093L812.393 244.128L813.537 250.493L818.391 242.052L822.661 239.586C822.661 239.586 826.979 239.129 830.945 241.151C831.356 241.361 831.685 241.207 831.667 240.735C831.63 239.747 832.081 235.996 834.207 232.921C834.206 232.919 834.116 232.758 835.502 232.173C840.27 230.16 852.932 231.1 860.828 233.613C861.464 233.815 861.742 232.874 861.437 232.345Z" fill="#FFE6E6"/>
<path d="M852.457 225.434C857.64 219.039 863.23 214.797 863.23 214.797C863.23 214.797 856.864 217.696 848.734 218.986L842.414 227.092L852.457 225.434Z" fill="#FFE6E6"/>
<path d="M830.334 256.7C829.034 256.838 827.833 257.111 826.804 257.423C826.457 256.086 825.989 254.899 825.533 253.928C826.601 253.837 827.864 253.649 829.195 253.281C829.44 254.329 829.804 255.505 830.334 256.7ZM847.24 282.901C847.313 282.775 847.349 282.633 847.329 282.481C846.651 277.421 843.433 266.389 840.973 262.842C845.274 263.199 856.398 260.539 861.118 258.596C861.26 258.538 861.365 258.435 861.438 258.31C861.743 257.781 861.466 256.84 860.829 257.042C852.933 259.555 840.312 260.426 835.543 258.413C834.152 257.825 834.248 257.665 834.248 257.665C832.123 254.589 831.672 250.839 831.708 249.851C831.726 249.378 831.398 249.225 830.987 249.434C827.021 251.456 822.702 250.999 822.702 250.999L818.432 248.533L813.579 240.092L812.514 246.318L807.574 250.492L817.311 250.474L821.582 252.94C821.582 252.94 824.137 256.451 824.369 260.897C824.393 261.357 824.69 261.565 825.09 261.313C825.928 260.788 829.401 259.304 833.128 259.606C833.128 259.605 833.223 259.446 834.422 260.354C838.55 263.477 844.067 274.912 845.839 283.007C845.981 283.66 846.935 283.43 847.24 282.901Z" fill="#FFE6E6"/>
<path d="M848.735 271.668C856.865 272.959 863.334 275.68 863.334 275.68C863.334 275.68 857.64 271.616 852.458 265.221L842.278 263.8L848.735 271.668Z" fill="#FFE6E6"/>
<path d="M810.596 268.142C809.826 267.085 808.99 266.181 808.205 265.446C809.189 264.478 809.983 263.479 810.596 262.598C811.208 263.478 812.003 264.478 812.987 265.446C812.202 266.181 811.366 267.085 810.596 268.142ZM796.358 295.884C796.504 295.884 796.645 295.843 796.766 295.75C800.809 292.634 808.755 284.33 810.596 280.427C812.438 284.33 820.303 292.634 824.346 295.75C824.467 295.843 824.609 295.884 824.753 295.884C825.364 295.884 826.04 295.173 825.547 294.723C819.422 289.141 812.357 278.646 811.717 273.509C811.53 272.011 811.717 272.014 811.717 272.014C813.318 268.635 816.34 266.369 817.214 265.907C817.632 265.686 817.601 265.325 817.214 265.074C813.48 262.65 811.717 258.682 811.717 258.682V253.751L816.6 245.327L810.676 247.519L804.592 245.327L809.475 253.751V258.682C809.475 258.682 807.712 262.651 803.978 265.074C803.591 265.325 803.56 265.686 803.978 265.907C804.852 266.369 807.874 268.635 809.475 272.014C809.477 272.014 809.661 272.016 809.475 273.509C808.835 278.645 801.69 289.141 795.565 294.723C795.072 295.173 795.748 295.884 796.358 295.884Z" fill="#FFE6E6"/>
<path d="M806.833 291.562C809.78 299.248 810.658 306.211 810.658 306.211C810.658 306.211 811.331 299.249 814.278 291.562L810.418 282.036L806.833 291.562Z" fill="#FFE6E6"/>
<path d="M1333.86 322.745H1337.95L1337.23 323.456C1336.58 324.089 1336.57 325.123 1337.21 325.766C1337.84 326.41 1338.87 326.419 1339.52 325.786L1342.61 322.745H1346.68L1340.67 328.646C1340.03 329.278 1340.02 330.312 1340.65 330.955C1341.28 331.599 1342.32 331.609 1342.96 330.976L1351.34 322.745H1355.49L1351.27 326.891C1350.63 327.523 1350.62 328.557 1351.25 329.2C1351.88 329.844 1352.92 329.853 1353.56 329.221L1360.15 322.745H1364.78L1367.43 325.398V329.151L1364.16 332.422L1354.92 332.503C1354.02 332.51 1353.29 333.248 1353.3 334.15C1353.31 335.053 1354.06 335.79 1354.95 335.769L1360.86 335.717L1357.93 338.652L1346.18 338.755C1345.28 338.762 1344.56 339.5 1344.56 340.402C1344.57 341.304 1345.3 342.031 1346.21 342.021L1354.63 341.948L1351.76 344.822L1347.42 344.86C1346.51 344.868 1345.79 345.606 1345.8 346.508C1345.81 347.41 1346.56 348.152 1347.44 348.126L1348.46 348.118L1345.56 351.014C1344.93 351.652 1344.93 352.686 1345.56 353.324C1346.2 353.961 1347.24 353.961 1347.87 353.324L1350.77 350.427L1350.76 351.443C1350.75 352.345 1351.48 353.082 1352.38 353.091C1352.39 353.091 1352.39 353.091 1352.4 353.091C1353.29 353.091 1354.02 352.369 1354.03 351.472L1354.07 347.132L1356.94 344.257L1356.87 352.677C1356.86 353.579 1357.58 354.317 1358.49 354.325C1358.49 354.325 1358.5 354.325 1358.5 354.325C1359.4 354.325 1360.13 353.603 1360.13 352.705L1360.24 340.962L1363.17 338.027L1363.12 343.943C1363.11 344.844 1363.84 345.582 1364.74 345.59C1364.74 345.59 1364.75 345.59 1364.75 345.59C1365.65 345.59 1366.38 344.868 1366.39 343.971L1366.47 334.732L1369.74 331.46H1373.49L1376.14 334.113V338.74L1369.67 345.331C1369.04 345.974 1369.05 347.008 1369.69 347.64C1370.33 348.272 1371.37 348.264 1372 347.62L1376.14 343.4V347.551L1367.91 355.928C1367.28 356.571 1367.29 357.606 1367.93 358.238C1368.58 358.871 1369.61 358.862 1370.24 358.217L1376.14 352.211V356.277L1373.1 359.373C1372.47 360.016 1372.48 361.05 1373.12 361.682C1373.77 362.315 1374.8 362.306 1375.43 361.662L1376.14 360.937V365.034C1376.14 365.935 1376.88 366.667 1377.78 366.667C1378.68 366.667 1379.41 365.936 1379.41 365.034V360.937L1380.12 361.662C1380.76 362.306 1381.79 362.315 1382.43 361.682C1383.08 361.05 1383.09 360.016 1382.45 359.373L1379.41 356.277V352.211L1385.31 358.217C1385.95 358.861 1386.98 358.87 1387.62 358.238C1388.27 357.606 1388.27 356.571 1387.64 355.928L1379.41 347.551V343.4L1383.56 347.62C1384.19 348.264 1385.22 348.273 1385.87 347.641C1386.51 347.008 1386.52 345.974 1385.89 345.331L1379.41 338.74V334.114L1382.06 331.46H1385.82L1389.09 334.732L1389.17 343.971C1389.18 344.869 1389.91 345.59 1390.8 345.59C1390.81 345.59 1390.81 345.59 1390.82 345.59C1391.72 345.583 1392.44 344.845 1392.44 343.943L1392.38 338.027L1395.32 340.962L1395.42 352.706C1395.43 353.603 1396.16 354.325 1397.05 354.325C1397.06 354.325 1397.06 354.325 1397.07 354.325C1397.97 354.317 1398.7 353.579 1398.69 352.678L1398.61 344.258L1401.49 347.132L1401.53 351.472C1401.53 352.369 1402.26 353.091 1403.16 353.091C1403.16 353.091 1403.17 353.091 1403.17 353.091C1404.08 353.083 1404.8 352.345 1404.79 351.443L1404.78 350.427L1407.68 353.324C1408.32 353.962 1409.35 353.962 1409.99 353.324C1410.63 352.686 1410.63 351.652 1409.99 351.014L1407.09 348.118L1408.11 348.127C1408.11 348.127 1408.12 348.127 1408.12 348.127C1409.02 348.127 1409.75 347.405 1409.76 346.508C1409.77 345.606 1409.04 344.869 1408.14 344.86L1403.8 344.822L1400.92 341.948L1409.34 342.021C1409.35 342.021 1409.35 342.021 1409.36 342.021C1410.25 342.021 1410.98 341.299 1410.99 340.402C1411 339.501 1410.27 338.762 1409.37 338.755L1397.63 338.652L1394.69 335.718L1400.61 335.77C1400.61 335.77 1400.62 335.77 1400.62 335.77C1401.52 335.77 1402.25 335.048 1402.26 334.15C1402.26 333.249 1401.54 332.511 1400.64 332.503L1391.4 332.422L1388.13 329.151V325.398L1390.78 322.745H1395.41L1402 329.221C1402.64 329.853 1403.67 329.844 1404.31 329.2C1404.94 328.557 1404.93 327.523 1404.29 326.891L1400.07 322.745H1404.22L1412.59 330.976C1413.24 331.608 1414.27 331.6 1414.9 330.955C1415.54 330.312 1415.53 329.278 1414.88 328.646L1408.88 322.744H1412.94L1416.04 325.786C1416.68 326.418 1417.72 326.41 1418.35 325.766C1418.98 325.122 1418.97 324.088 1418.33 323.456L1417.6 322.744H1421.7C1422.6 322.744 1423.33 322.013 1423.33 321.111C1423.33 320.209 1422.6 319.478 1421.7 319.478H1417.6L1418.33 318.766C1418.97 318.134 1418.98 317.1 1418.35 316.457C1418.03 316.131 1417.61 315.968 1417.18 315.968C1416.77 315.968 1416.36 316.124 1416.04 316.436L1412.94 319.478H1408.88L1414.88 313.576C1415.53 312.944 1415.54 311.91 1414.9 311.267C1414.58 310.942 1414.16 310.778 1413.74 310.778C1413.33 310.778 1412.91 310.934 1412.59 311.247L1404.22 319.478H1400.07L1404.29 315.332C1404.93 314.7 1404.94 313.666 1404.31 313.023C1403.99 312.697 1403.56 312.534 1403.14 312.534C1402.73 312.534 1402.32 312.69 1402 313.002L1395.41 319.478H1390.78L1388.13 316.825V313.072L1391.4 309.801L1400.64 309.72C1401.54 309.712 1402.26 308.974 1402.26 308.073C1402.25 307.175 1401.52 306.454 1400.62 306.454C1400.62 306.454 1400.61 306.454 1400.61 306.454L1394.69 306.505L1397.63 303.57L1409.37 303.468C1410.27 303.46 1411 302.722 1410.99 301.821C1410.98 300.923 1410.25 300.201 1409.36 300.201C1409.35 300.201 1409.35 300.201 1409.34 300.201L1400.92 300.275L1403.8 297.401L1408.14 297.363C1409.04 297.355 1409.77 296.617 1409.76 295.715C1409.75 294.818 1409.02 294.096 1408.13 294.096C1408.12 294.096 1408.12 294.096 1408.11 294.096L1407.09 294.105L1409.99 291.209C1410.63 290.571 1410.63 289.537 1409.99 288.899C1409.67 288.58 1409.25 288.421 1408.84 288.421C1408.42 288.421 1408 288.58 1407.68 288.899L1404.78 291.796L1404.79 290.78C1404.8 289.878 1404.08 289.14 1403.17 289.132C1403.17 289.132 1403.16 289.132 1403.16 289.132C1402.26 289.132 1401.54 289.854 1401.53 290.751L1401.49 295.091L1398.61 297.965L1398.69 289.545C1398.7 288.644 1397.97 287.906 1397.07 287.898C1397.06 287.898 1397.06 287.898 1397.05 287.898C1396.16 287.898 1395.43 288.62 1395.42 289.517L1395.32 301.261L1392.38 304.196L1392.44 298.28C1392.44 297.378 1391.72 296.64 1390.82 296.633C1390.81 296.633 1390.81 296.633 1390.8 296.633C1389.91 296.633 1389.18 297.355 1389.17 298.252L1389.09 307.491L1385.82 310.763H1382.07L1379.41 308.109V303.483L1385.89 296.892C1386.52 296.249 1386.51 295.215 1385.87 294.582C1385.55 294.27 1385.14 294.114 1384.72 294.114C1384.3 294.114 1383.88 294.278 1383.56 294.603L1379.41 298.823V294.671L1387.64 286.295C1388.27 285.652 1388.27 284.617 1387.62 283.985C1387.3 283.673 1386.89 283.517 1386.48 283.517C1386.06 283.517 1385.63 283.68 1385.31 284.005L1379.41 290.011V285.946L1382.45 282.85C1383.09 282.207 1383.08 281.173 1382.43 280.54C1382.12 280.228 1381.7 280.072 1381.29 280.072C1380.87 280.072 1380.44 280.235 1380.12 280.561L1379.41 281.286V277.189C1379.41 276.287 1378.68 275.556 1377.78 275.556C1376.88 275.556 1376.14 276.287 1376.14 277.189V281.285L1375.43 280.561C1375.11 280.235 1374.69 280.072 1374.27 280.072C1373.85 280.072 1373.44 280.227 1373.12 280.54C1372.48 281.172 1372.47 282.206 1373.1 282.85L1376.14 285.946V290.011L1370.24 284.005C1369.92 283.68 1369.5 283.517 1369.08 283.517C1368.67 283.517 1368.25 283.672 1367.93 283.985C1367.29 284.617 1367.28 285.651 1367.91 286.294L1376.14 294.671V298.823L1372 294.603C1371.68 294.278 1371.26 294.114 1370.83 294.114C1370.42 294.114 1370.01 294.27 1369.69 294.582C1369.05 295.215 1369.04 296.249 1369.67 296.892L1376.14 303.483V308.11L1373.49 310.763H1369.74L1366.47 307.492L1366.39 298.252C1366.38 297.355 1365.65 296.633 1364.75 296.633C1364.75 296.633 1364.74 296.633 1364.74 296.633C1363.84 296.641 1363.11 297.379 1363.12 298.28L1363.17 304.196L1360.24 301.261L1360.13 289.518C1360.13 288.62 1359.4 287.899 1358.5 287.899C1358.5 287.899 1358.49 287.899 1358.49 287.899C1357.58 287.906 1356.86 288.644 1356.87 289.546L1356.94 297.966L1354.07 295.092L1354.03 290.752C1354.02 289.854 1353.29 289.132 1352.4 289.132C1352.39 289.132 1352.39 289.132 1352.38 289.132C1351.48 289.141 1350.75 289.878 1350.76 290.78L1350.77 291.796L1347.87 288.9C1347.56 288.581 1347.14 288.421 1346.72 288.421C1346.3 288.421 1345.88 288.581 1345.56 288.9C1344.93 289.538 1344.93 290.571 1345.56 291.209L1348.46 294.106L1347.44 294.097C1347.44 294.097 1347.44 294.097 1347.43 294.097C1346.53 294.097 1345.81 294.818 1345.8 295.715C1345.79 296.617 1346.51 297.355 1347.42 297.363L1351.76 297.401L1354.63 300.275L1346.21 300.202C1346.21 300.202 1346.2 300.202 1346.2 300.202C1345.3 300.202 1344.57 300.924 1344.56 301.821C1344.56 302.723 1345.28 303.461 1346.18 303.468L1357.93 303.571L1360.86 306.506L1354.95 306.454C1354.94 306.454 1354.94 306.454 1354.93 306.454C1354.04 306.454 1353.31 307.175 1353.3 308.073C1353.29 308.975 1354.02 309.713 1354.92 309.72L1364.16 309.801L1367.43 313.072V316.825L1364.78 319.479H1360.15L1353.56 313.003C1353.24 312.69 1352.83 312.534 1352.41 312.534C1351.99 312.534 1351.57 312.697 1351.25 313.023C1350.62 313.666 1350.63 314.7 1351.27 315.332L1355.49 319.479H1351.34L1342.96 311.247C1342.64 310.935 1342.23 310.779 1341.82 310.779C1341.39 310.779 1340.97 310.942 1340.65 311.267C1340.02 311.91 1340.03 312.945 1340.67 313.577L1346.68 319.478H1342.61L1339.52 316.436C1339.2 316.124 1338.79 315.968 1338.37 315.968C1337.95 315.968 1337.53 316.132 1337.21 316.457C1336.57 317.1 1336.58 318.134 1337.23 318.766L1337.95 319.478H1333.86C1332.95 319.478 1332.22 320.209 1332.22 321.111C1332.22 322.014 1332.95 322.745 1333.86 322.745ZM1367.76 321.111L1369.06 319.812L1370.9 320.089L1372.29 321.12L1370.91 322.138L1369.06 322.411L1367.76 321.111ZM1377.78 311.095L1379.08 312.395L1378.8 314.236L1377.77 315.622L1376.75 314.242L1376.48 312.395L1377.78 311.095ZM1377.76 321.108L1377.77 321.099L1377.78 321.097L1377.79 321.104L1377.79 321.115L1377.79 321.124L1377.77 321.126L1377.77 321.119L1377.76 321.108ZM1386.49 319.812L1387.79 321.111L1386.49 322.411L1384.65 322.134L1383.27 321.103L1384.65 320.085L1386.49 319.812ZM1377.78 331.128L1376.48 329.829L1376.76 327.988L1377.79 326.601L1378.81 327.981L1379.08 329.828L1377.78 331.128ZM1370.7 326.357L1372.19 325.251L1373.9 324.999L1373.65 326.695L1372.53 328.194H1370.7L1370.7 326.357ZM1383.02 328.194L1381.92 326.696L1381.66 324.986L1383.36 325.242L1384.86 326.356V328.194H1383.02ZM1384.86 315.866L1383.36 316.972L1381.65 317.224L1381.91 315.528L1383.02 314.029H1384.86V315.866ZM1372.53 314.029L1373.64 315.527L1373.89 317.237L1372.2 316.981L1370.7 315.867V314.029H1372.53Z" fill="#FFE6E6"/>
<path d="M968.059 239.638C963.729 246.343 956.711 254.037 949.381 260.005C958.144 256.463 968.27 254.026 976.231 253.467C977.636 250.673 976.998 243.685 976.998 243.685C976.998 243.685 971.184 239.756 968.059 239.638ZM971.937 252.023C971.291 252.11 970.637 252.206 969.977 252.311C970.284 250.097 970.283 248.084 970.282 247.985L970.282 247.654L969.992 247.494C969.905 247.446 968.143 246.474 966.055 245.675C966.465 245.148 966.865 244.622 967.252 244.097C969.426 244.696 971.766 245.874 972.575 246.299C972.557 247.212 972.461 249.83 971.937 252.023ZM960.009 253.725L959.72 253.564C959.707 253.557 959.575 253.485 959.353 253.368C959.889 252.812 960.418 252.253 960.938 251.69C961.534 251.971 962.016 252.218 962.303 252.369C962.297 252.694 962.281 253.234 962.24 253.892C961.496 254.076 960.75 254.27 960.005 254.472C960.01 254.22 960.01 254.07 960.01 254.055L960.009 253.725ZM963.433 251.701L963.144 251.541C963.11 251.522 962.564 251.221 961.732 250.819C962.233 250.264 962.725 249.707 963.207 249.148C964.329 249.627 965.271 250.106 965.727 250.345C965.717 250.86 965.682 251.916 965.56 253.13C964.838 253.283 964.113 253.445 963.385 253.616C963.435 252.693 963.434 252.07 963.434 252.032L963.433 251.701ZM966.859 250.008L966.858 249.678L966.569 249.517C966.511 249.485 965.434 248.891 963.972 248.25C964.433 247.701 964.883 247.153 965.322 246.604C966.989 247.216 968.527 247.993 969.152 248.322C969.138 249.027 969.078 250.749 968.809 252.504C968.117 252.624 967.419 252.755 966.716 252.894C966.86 251.304 966.859 250.074 966.859 250.008ZM958.529 254.211C958.665 254.28 958.784 254.342 958.879 254.393C958.877 254.501 958.874 254.635 958.869 254.787C958.439 254.909 958.009 255.033 957.58 255.16C957.899 254.846 958.214 254.529 958.529 254.211ZM974.874 251.691C974.3 251.743 973.716 251.805 973.126 251.875C973.707 249.151 973.707 246.105 973.706 245.961L973.705 245.631L973.416 245.47C973.291 245.4 970.623 243.931 967.956 243.127C968.301 242.643 968.637 242.161 968.96 241.683C970.754 242.168 973.378 243.601 975.194 244.751C975.326 246.896 975.315 249.886 974.874 251.691Z" fill="#FFE6E6"/>
<path d="M967.976 231.381C971.098 231.201 976.83 227.154 976.83 227.154C976.83 227.154 977.327 220.154 975.866 217.39C967.895 216.993 957.722 214.761 948.889 211.397C956.337 217.216 963.511 224.766 967.976 231.381ZM959.356 217.627L959.642 217.461L959.636 217.13C959.636 217.115 959.633 216.966 959.623 216.714C960.372 216.901 961.121 217.079 961.868 217.248C961.923 217.905 961.95 218.445 961.963 218.77C961.678 218.927 961.203 219.183 960.612 219.477C960.081 218.925 959.541 218.376 958.993 217.831C959.213 217.71 959.343 217.635 959.356 217.627ZM972.356 224.631C971.556 225.072 969.242 226.297 967.079 226.94C966.681 226.424 966.27 225.906 965.849 225.387C967.921 224.546 969.663 223.538 969.749 223.488L970.035 223.322L970.029 222.991C970.027 222.892 969.988 220.88 969.636 218.673C970.297 218.764 970.953 218.847 971.601 218.921C972.169 221.102 972.32 223.718 972.356 224.631ZM968.891 222.678C968.274 223.018 966.752 223.827 965.098 224.472C964.647 223.933 964.186 223.393 963.714 222.854C965.163 222.184 966.228 221.568 966.285 221.535L966.571 221.369L966.565 221.038C966.564 220.973 966.54 219.742 966.364 218.155C967.07 218.28 967.77 218.396 968.465 218.502C968.768 220.252 968.864 221.972 968.891 222.678ZM965.427 220.724C964.976 220.973 964.044 221.471 962.931 221.972C962.439 221.423 961.936 220.875 961.423 220.33C962.247 219.912 962.787 219.6 962.82 219.581L963.105 219.414L963.1 219.084C963.099 219.045 963.087 218.422 963.019 217.501C963.75 217.657 964.479 217.804 965.203 217.942C965.35 219.153 965.407 220.209 965.427 220.724ZM975.005 226.125C973.213 227.311 970.618 228.797 968.835 229.318C968.503 228.847 968.156 228.372 967.802 227.895C970.452 227.037 973.089 225.513 973.213 225.441L973.5 225.275L973.494 224.944C973.491 224.801 973.43 221.756 972.793 219.044C973.385 219.101 973.97 219.151 974.545 219.192C975.022 220.989 975.094 223.977 975.005 226.125ZM958.48 216.422C958.488 216.575 958.494 216.709 958.499 216.817C958.404 216.869 958.286 216.934 958.152 217.005C957.831 216.694 957.509 216.383 957.184 216.076C957.615 216.194 958.048 216.309 958.48 216.422Z" fill="#FFE6E6"/>
<path d="M991.063 218.743C991.063 218.743 997.373 215.673 999.037 213.026C995.395 205.924 992.242 195.998 990.738 186.667C989.424 196.027 986.472 206.014 982.975 213.189C984.692 215.801 991.063 218.743 991.063 218.743ZM991.042 216.648C989.118 215.689 986.534 214.185 985.191 212.901C985.433 212.378 985.671 211.841 985.907 211.295C987.975 213.161 990.613 214.683 990.737 214.755L991.024 214.92L991.308 214.749C991.431 214.675 994.038 213.1 996.067 211.192C996.314 211.733 996.563 212.265 996.816 212.784C995.498 214.094 992.946 215.651 991.042 216.648ZM990.616 202.824L990.903 202.989L991.187 202.818C991.22 202.798 991.753 202.476 992.517 201.956C992.747 202.668 992.984 203.372 993.227 204.069C992.252 204.801 991.366 205.378 990.93 205.653C990.489 205.387 989.592 204.829 988.602 204.116C988.831 203.415 989.053 202.705 989.269 201.989C990.043 202.493 990.583 202.804 990.616 202.824ZM989.603 200.858C989.815 200.122 990.02 199.38 990.218 198.634C990.433 198.764 990.563 198.839 990.576 198.846L990.863 199.011L991.146 198.841C991.159 198.833 991.288 198.756 991.5 198.621C991.713 199.364 991.933 200.101 992.161 200.833C991.619 201.209 991.165 201.502 990.89 201.676C990.612 201.508 990.152 201.224 989.603 200.858ZM990.657 206.801L990.944 206.965L991.227 206.795C991.283 206.762 992.337 206.126 993.623 205.18C993.867 205.853 994.118 206.518 994.373 207.172C993.009 208.31 991.567 209.253 990.971 209.63C990.367 209.265 988.906 208.352 987.519 207.242C987.762 206.582 987.998 205.913 988.228 205.235C989.534 206.154 990.6 206.768 990.657 206.801ZM990.697 210.778L990.984 210.942L991.267 210.772C991.352 210.721 993.075 209.681 994.811 208.272C995.062 208.891 995.318 209.5 995.579 210.098C993.973 211.681 991.783 213.119 991.01 213.606C990.228 213.135 988.011 211.743 986.372 210.191C986.62 209.588 986.864 208.974 987.103 208.349C988.867 209.723 990.611 210.729 990.697 210.778ZM990.834 196.189C990.947 196.623 991.064 197.055 991.182 197.486C991.054 197.569 990.941 197.641 990.849 197.699C990.757 197.643 990.642 197.573 990.513 197.493C990.623 197.059 990.73 196.625 990.834 196.189Z" fill="#FFE6E6"/>
<path d="M1014.4 230.911C1018.73 224.206 1025.75 216.512 1033.08 210.544C1024.32 214.086 1014.19 216.523 1006.23 217.082C1004.82 219.876 1005.46 226.864 1005.46 226.864C1005.46 226.864 1011.28 230.793 1014.4 230.911ZM1010.52 218.526C1011.17 218.439 1011.82 218.343 1012.48 218.238C1012.18 220.452 1012.18 222.465 1012.18 222.563L1012.18 222.894L1012.47 223.055C1012.56 223.103 1014.32 224.075 1016.41 224.874C1016 225.401 1015.6 225.928 1015.21 226.452C1013.03 225.853 1010.69 224.675 1009.88 224.25C1009.9 223.337 1010 220.721 1010.52 218.526ZM1022.45 216.493L1022.45 216.824L1022.74 216.985C1022.75 216.992 1022.89 217.064 1023.11 217.181C1022.57 217.736 1022.04 218.296 1021.52 218.859C1020.93 218.577 1020.44 218.331 1020.16 218.18C1020.16 217.855 1020.18 217.315 1020.22 216.656C1020.97 216.473 1021.71 216.279 1022.46 216.077C1022.45 216.328 1022.45 216.479 1022.45 216.493ZM1019.03 218.517L1019.03 218.848L1019.32 219.008C1019.35 219.027 1019.9 219.328 1020.73 219.729C1020.23 220.285 1019.74 220.842 1019.25 221.401C1018.13 220.922 1017.19 220.443 1016.73 220.204C1016.74 219.689 1016.78 218.632 1016.9 217.418C1017.62 217.266 1018.35 217.104 1019.08 216.933C1019.03 217.855 1019.03 218.479 1019.03 218.517ZM1015.6 220.54L1015.6 220.871L1015.89 221.031C1015.95 221.063 1017.03 221.658 1018.49 222.299C1018.03 222.847 1017.58 223.396 1017.14 223.945C1015.47 223.332 1013.93 222.555 1013.31 222.227C1013.32 221.522 1013.38 219.801 1013.65 218.044C1014.34 217.924 1015.04 217.793 1015.74 217.654C1015.6 219.245 1015.6 220.475 1015.6 220.54ZM1023.93 216.338C1023.8 216.269 1023.68 216.207 1023.58 216.157C1023.58 216.049 1023.59 215.914 1023.59 215.762C1024.02 215.64 1024.45 215.516 1024.88 215.389C1024.56 215.703 1024.25 216.02 1023.93 216.338ZM1007.59 218.858C1008.16 218.805 1008.74 218.743 1009.33 218.674C1008.75 221.398 1008.75 224.444 1008.75 224.587L1008.75 224.918L1009.04 225.079C1009.17 225.148 1011.84 226.618 1014.5 227.422C1014.16 227.906 1013.82 228.388 1013.5 228.866C1011.71 228.38 1009.08 226.948 1007.27 225.798C1007.13 223.652 1007.15 220.663 1007.59 218.858Z" fill="#FFE6E6"/>
<path d="M1014.48 239.167C1011.36 239.348 1005.63 243.395 1005.63 243.395C1005.63 243.395 1005.13 250.394 1006.59 253.159C1014.57 253.556 1024.74 255.788 1033.57 259.151C1026.12 253.333 1018.95 245.783 1014.48 239.167ZM1023.11 252.921L1022.82 253.087L1022.82 253.418C1022.83 253.433 1022.83 253.583 1022.84 253.834C1022.09 253.647 1021.34 253.469 1020.59 253.3C1020.54 252.643 1020.51 252.103 1020.5 251.778C1020.78 251.621 1021.26 251.365 1021.85 251.072C1022.38 251.624 1022.92 252.173 1023.47 252.717C1023.25 252.839 1023.12 252.914 1023.11 252.921ZM1010.1 245.917C1010.9 245.476 1013.22 244.252 1015.38 243.609C1015.78 244.125 1016.19 244.643 1016.61 245.162C1014.54 246.003 1012.8 247.011 1012.71 247.06L1012.43 247.227L1012.43 247.558C1012.43 247.656 1012.47 249.669 1012.82 251.876C1012.16 251.785 1011.51 251.702 1010.86 251.628C1010.29 249.446 1010.14 246.831 1010.1 245.917ZM1013.57 247.871C1014.19 247.531 1015.71 246.723 1017.36 246.076C1017.81 246.616 1018.27 247.155 1018.75 247.694C1017.3 248.365 1016.23 248.981 1016.18 249.014L1015.89 249.181L1015.9 249.511C1015.9 249.577 1015.92 250.807 1016.1 252.394C1015.39 252.269 1014.69 252.153 1014 252.047C1013.69 250.296 1013.6 248.576 1013.57 247.871ZM1017.03 249.825C1017.48 249.576 1018.42 249.078 1019.53 248.577C1020.02 249.125 1020.52 249.673 1021.04 250.218C1020.21 250.636 1019.67 250.948 1019.64 250.967L1019.35 251.134L1019.36 251.464C1019.36 251.503 1019.37 252.126 1019.44 253.047C1018.71 252.891 1017.98 252.744 1017.26 252.606C1017.11 251.395 1017.05 250.339 1017.03 249.825ZM1007.46 244.424C1009.25 243.237 1011.84 241.752 1013.63 241.23C1013.96 241.702 1014.3 242.177 1014.66 242.653C1012.01 243.511 1009.37 245.034 1009.25 245.107L1008.96 245.273L1008.97 245.604C1008.97 245.747 1009.03 248.792 1009.67 251.504C1009.08 251.447 1008.49 251.396 1007.92 251.356C1007.44 249.56 1007.37 246.571 1007.46 244.424ZM1023.98 254.126C1023.97 253.974 1023.97 253.84 1023.96 253.732C1024.06 253.68 1024.18 253.616 1024.31 253.543C1024.63 253.855 1024.95 254.165 1025.28 254.473C1024.85 254.355 1024.41 254.239 1023.98 254.126Z" fill="#FFE6E6"/>
<path d="M991.398 251.805C991.398 251.805 985.088 254.875 983.424 257.522C987.066 264.624 990.219 274.55 991.723 283.881C993.037 274.521 995.989 264.534 999.486 257.359C997.769 254.747 991.398 251.805 991.398 251.805ZM991.419 253.9C993.343 254.859 995.927 256.363 997.27 257.647C997.028 258.17 996.79 258.708 996.555 259.253C994.486 257.387 991.848 255.865 991.724 255.793L991.437 255.629L991.153 255.799C991.03 255.873 988.423 257.449 986.394 259.356C986.147 258.815 985.898 258.283 985.645 257.764C986.963 256.454 989.515 254.898 991.419 253.9ZM991.845 267.725L991.558 267.561L991.274 267.731C991.241 267.751 990.708 268.073 989.944 268.593C989.714 267.881 989.477 267.177 989.234 266.48C990.209 265.748 991.095 265.171 991.531 264.896C991.972 265.162 992.869 265.72 993.859 266.433C993.631 267.134 993.408 267.844 993.192 268.56C992.418 268.055 991.878 267.744 991.845 267.725ZM992.858 269.69C992.646 270.426 992.441 271.168 992.243 271.914C992.028 271.784 991.898 271.709 991.885 271.702L991.598 271.537L991.315 271.707C991.302 271.715 991.173 271.792 990.961 271.927C990.748 271.185 990.528 270.447 990.3 269.716C990.842 269.34 991.296 269.046 991.571 268.873C991.849 269.04 992.309 269.325 992.858 269.69ZM991.805 263.748L991.517 263.583L991.234 263.754C991.177 263.787 990.124 264.423 988.838 265.369C988.593 264.695 988.343 264.031 988.088 263.376C989.451 262.239 990.893 261.296 991.49 260.919C992.094 261.283 993.554 262.196 994.941 263.307C994.699 263.966 994.463 264.636 994.232 265.315C992.927 264.395 991.861 263.781 991.805 263.748ZM991.764 259.771L991.477 259.606L991.194 259.776C991.109 259.827 989.386 260.868 987.65 262.277C987.398 261.657 987.143 261.048 986.882 260.45C988.487 258.867 990.677 257.43 991.45 256.942C992.232 257.414 994.451 258.807 996.088 260.357C995.84 260.96 995.597 261.574 995.358 262.198C993.593 260.825 991.85 259.82 991.764 259.771ZM991.627 274.359C991.513 273.926 991.397 273.494 991.279 273.063C991.407 272.98 991.52 272.908 991.611 272.85C991.704 272.906 991.818 272.976 991.948 273.056C991.838 273.489 991.731 273.924 991.627 274.359Z" fill="#FFE6E6"/>
<path d="M977.66 227.44L966.865 235.28H966.829L977.66 243.109L979.025 256.404L979.036 256.409L991.225 250.944H991.233L1003.42 256.373L1003.44 256.406L1004.8 243.109L1004.8 243.108L1015.61 235.269H1015.63L1004.8 227.44L1004.8 227.439L1003.44 214.145L1003.41 214.159L991.23 219.605L979.035 214.14L979.025 214.145L977.66 227.44ZM978.764 228.96L978.776 228.951L981.317 230.418L974.626 235.278H974.602L981.315 240.131L978.776 241.598L978.761 241.587L970.049 235.29L978.764 228.96ZM999.378 231.457L1004.65 235.268L999.375 239.092L999.362 239.101L996.561 237.484L999.61 235.273H999.617L996.562 233.064L999.363 231.447L999.378 231.457ZM988.433 232.791L988.435 232.774L988.639 230.786L990.462 231.603L990.479 231.611V233.313L991.23 233.649L991.982 233.313V231.61L991.997 231.604L993.822 230.788L994.026 232.773L994.028 232.791L992.553 233.642L992.638 234.461L993.305 234.944L994.779 234.093L994.794 234.104L996.41 235.272L994.791 236.446L994.779 236.455L993.304 235.604L992.638 236.087L992.554 236.906L994.028 237.757L994.026 237.776L993.823 239.758L991.995 238.944L991.982 238.939V237.235L991.23 236.9L990.479 237.237V238.938L990.461 238.946L988.639 239.763L988.435 237.776L988.434 237.758L989.908 236.907L989.823 236.088L989.156 235.605L987.682 236.456L987.667 236.446L986.052 235.278L987.67 234.102L987.682 234.094L989.158 234.946L989.823 234.463L989.908 233.643L988.433 232.791ZM986.65 238.786L987.035 242.536L987.039 242.538L990.479 240.996V244.229L990.461 244.237L984.517 246.902L983.851 240.421L983.85 240.403L986.65 238.786ZM991.982 240.995L995.419 242.526L995.426 242.537L995.81 238.786L998.611 240.403L998.609 240.421L997.946 246.887L991.994 244.236L991.982 244.231V240.995H991.982ZM995.81 231.762L995.426 228.012L995.418 228.017L991.982 229.553V226.317L991.997 226.311L997.945 223.653L998.609 230.127L998.611 230.145L995.81 231.762ZM990.479 229.552L987.039 228.01L987.035 228.012L986.65 231.762L983.85 230.145L983.851 230.127L984.517 223.646L990.462 226.31L990.479 226.318V229.552ZM985.901 233.065L982.856 235.276H982.843L985.899 237.485L983.098 239.102L983.083 239.091L977.816 235.284L983.086 231.455L983.098 231.447L985.901 233.065ZM980.63 253.636L979.529 242.917L979.527 242.899L982.067 241.433L982.913 249.674L982.92 249.677L990.479 246.288V249.22L990.46 249.228L980.63 253.636ZM1001.83 253.61L991.993 249.226L991.982 249.221V246.287L999.535 249.652L999.548 249.674L1000.39 241.432L1002.93 242.898L1002.93 242.916L1001.83 253.61ZM1003.7 241.588L1003.68 241.597L1001.14 240.13L1007.85 235.271H1007.86L1001.15 230.417L1003.69 228.951L1003.7 228.962L1012.42 235.264L1003.7 241.588ZM1001.83 216.924L1002.93 227.631L1002.93 227.649L1000.39 229.115L999.548 220.875L999.534 220.885L991.982 224.26V221.326L991.997 221.32L1001.83 216.924ZM980.629 216.913L990.462 221.319L990.479 221.327V224.259L982.919 220.872L982.913 220.876L982.067 229.116L979.527 227.65L979.529 227.632L980.629 216.913Z" fill="#FFE6E6"/>
<path d="M990.57 236.418L990.571 236.418L991.231 236.122L991.89 236.416L991.891 236.418L991.965 235.698L992.55 235.274H992.551L991.965 234.85L991.891 234.131L991.89 234.131L991.231 234.426L990.571 234.13L990.57 234.131L990.496 234.85L989.912 235.274H989.91L990.496 235.698L990.57 236.418Z" fill="#FFE6E6"/>
</svg>
