<svg width="1953" height="1259" viewBox="0 0 1953 1259" fill="none" xmlns="http://www.w3.org/2000/svg">
<rect x="1632" y="247" width="63" height="65" fill="#6CBA7D"/>
<rect x="1548" y="358" width="63" height="65" fill="#6CBA7D"/>
<rect x="1548" y="469" width="63" height="65" fill="#6CBA7D"/>
<rect x="1462" y="469" width="63" height="65" fill="#6CBA7D"/>
<rect x="1718" y="358" width="63" height="65" fill="#6CBA7D"/>
<rect x="1718" y="469" width="63" height="65" fill="#6CBA7D"/>
<rect x="1718" y="580" width="63" height="65" fill="#6CBA7D"/>
<rect x="1718" y="247" width="63" height="65" fill="#6CBA7D"/>
<rect x="1634" y="358" width="63" height="65" fill="#6CBA7D"/>
<rect x="1634" y="469" width="63" height="65" fill="#6CBA7D"/>
<rect x="1002" y="855" width="63" height="65" fill="#6CBA7D"/>
<rect y="750" width="49" height="52" fill="#6CBA7D"/>
<rect y="925" width="49" height="52" fill="#6CBA7D"/>
<rect y="1100" width="49" height="52" fill="#6CBA7D"/>
<rect x="66" y="750" width="49" height="52" fill="#6CBA7D"/>
<rect x="66" y="925" width="49" height="52" fill="#6CBA7D"/>
<rect x="66" y="1100" width="49" height="52" fill="#6CBA7D"/>
<rect x="132" y="750" width="49" height="52" fill="#6CBA7D"/>
<rect x="132" y="925" width="49" height="52" fill="#6CBA7D"/>
<rect x="132" y="1100" width="49" height="52" fill="#6CBA7D"/>
<rect x="199" y="750" width="49" height="52" fill="#6CBA7D"/>
<rect x="199" y="925" width="49" height="52" fill="#6CBA7D"/>
<rect x="199" y="1100" width="49" height="52" fill="#6CBA7D"/>
<rect x="264" y="750" width="49" height="52" fill="#6CBA7D"/>
<rect x="264" y="925" width="49" height="52" fill="#6CBA7D"/>
<rect x="264" y="1100" width="49" height="52" fill="#6CBA7D"/>
<rect x="331" y="750" width="49" height="52" fill="#6CBA7D"/>
<rect x="331" y="925" width="49" height="52" fill="#6CBA7D"/>
<rect x="331" y="1100" width="49" height="52" fill="#6CBA7D"/>
<rect x="1002" y="1075" width="63" height="65" fill="#6CBA7D"/>
<rect x="1088" y="965" width="63" height="65" fill="#6CBA7D"/>
<rect x="1259" y="965" width="63" height="65" fill="#6CBA7D"/>
<rect x="1173" y="855" width="63" height="65" fill="#6CBA7D"/>
<rect x="1173" y="1075" width="63" height="65" fill="#6CBA7D"/>
<rect x="1344" y="855" width="63" height="65" fill="#6CBA7D"/>
<rect x="1344" y="1075" width="63" height="65" fill="#6CBA7D"/>
<rect x="1634" y="580" width="63" height="65" fill="#6CBA7D"/>
<rect x="1804" y="358" width="63" height="65" fill="#6CBA7D"/>
<rect x="1804" y="469" width="63" height="65" fill="#6CBA7D"/>
<rect x="1888" y="469" width="63" height="65" fill="#6CBA7D"/>
</svg>
