<svg width="781" height="781" viewBox="0 0 781 781" fill="none" xmlns="http://www.w3.org/2000/svg">
<g clip-path="url(#clip0_59_27383)">
<path d="M1015.74 726.39H810.2V709.443C866.16 633.703 898.948 542.123 898.948 443.41C898.948 182.943 670.984 -28.2109 389.78 -28.2109C108.577 -28.2109 -119.388 182.943 -119.388 443.41C-119.388 542.123 -86.5996 633.703 -30.6397 709.443V726.39H-236.178C-323.895 726.39 -395 801.956 -395 895.177C-395 988.398 -323.895 1063.98 -236.178 1063.98H-30.6397V2012.2C-30.6397 2105.42 40.4655 2180.99 128.182 2180.99C215.899 2180.99 287.005 2105.42 287.005 2012.2V1759H492.543V2012.19C492.543 2105.41 563.648 2180.97 651.365 2180.97C739.082 2180.97 810.187 2105.41 810.187 2012.19V1063.98H1015.73C1103.44 1063.98 1174.55 988.41 1174.55 895.177C1174.56 801.956 1103.45 726.39 1015.74 726.39Z" fill="#8B6265"/>
<path d="M270.18 855.797L320.024 991.285L213.319 1469.65C213.319 1469.65 331.027 1682.85 375.33 1661.79C419.62 1640.73 532.066 1538.86 540.066 1476.84C548.079 1414.82 432.523 1003.56 432.523 1003.56L513.489 852.222C513.489 852.222 320.037 771.535 270.18 855.797Z" fill="#E04141"/>
<circle cx="169.097" cy="378.413" r="87.3649" fill="#62393C"/>
<circle cx="611.313" cy="378.413" r="87.3649" fill="#62393C"/>
<path d="M303.918 513.237H476.491V541.28C476.491 588.935 437.859 627.567 390.204 627.567V627.567C342.55 627.567 303.918 588.935 303.918 541.28V513.237Z" fill="#E04141"/>
<path d="M570.882 537.982C553.37 525.492 537.626 509.937 521.433 495.475C513.346 488.256 505.046 481.298 496.545 475.217C488.093 469.153 479.631 464.018 471.18 460.208C454.279 452.592 437.43 450.288 420.84 456.493C412.263 459.701 403.522 467.901 397.79 477.74C393.236 465.945 384.784 455.73 373.367 453.355C355.498 449.64 338.248 453.327 321.428 461.628C313.018 465.78 304.715 471.085 296.496 477.199C288.201 483.348 280.324 490.165 272.538 497.222C256.984 511.351 241.848 526.396 224.751 538.552C216.229 544.634 207.224 549.962 197.783 553.803C188.363 557.686 178.515 560.16 168.832 560.863C177.946 562.944 187.964 565.175 198.887 566.851C209.805 568.574 221.559 569.619 233.699 569.959C257.981 570.681 283.73 568.419 306.689 564.236C318.205 562.144 329.005 559.663 338.924 556.727C348.889 553.759 358.129 550.213 366.315 545.863C379.877 538.657 390.526 529.231 396.793 516.586C404.986 530.229 417.293 540.076 432.299 547.384C440.73 551.492 450.006 554.805 459.867 557.558C469.653 560.272 480.339 562.61 491.544 564.49C513.918 568.283 538.646 570.216 562.255 569.473C574.05 569.133 585.556 568.14 596.398 566.505C607.243 564.916 617.368 562.798 626.791 560.683C617.439 559.945 607.692 557.487 598.241 553.552C588.766 549.667 579.607 544.213 570.882 537.982Z" fill="#FFE6E6"/>
<path d="M860.625 261.27C860.995 238.951 859.927 215.97 856.891 192.857C853.645 169.861 848.647 146.741 841.549 124.058C834.009 101.324 824.979 80.4485 814.382 60.469C793.031 20.9253 765.798 -12.5562 736.223 -37.9278C706.642 -63.5543 674.802 -81.6101 642.9 -92.7511C610.644 -104.016 579.62 -107.747 550.44 -106.88C521.384 -105.677 494.423 -99.8191 470.426 -90.1062C446.383 -80.4152 425.118 -67.1611 406.668 -50.7009C398.887 -43.6694 393.17 -35.8073 389.194 -27.5226C385.214 -35.8073 379.502 -43.6694 371.721 -50.7009C353.271 -67.1611 332.006 -80.4152 307.963 -90.1062C283.966 -99.8264 257.005 -105.685 227.948 -106.88C198.769 -107.74 167.74 -104.016 135.489 -92.7511C103.592 -81.6101 71.7518 -63.5543 42.1715 -37.9278C12.5963 -12.5562 -14.6367 20.9325 -35.9886 60.469C-46.5849 80.4485 -55.6198 101.324 -63.16 124.058C-70.2585 146.741 -75.2561 169.861 -78.5023 192.857C-81.5379 215.962 -82.6062 238.951 -82.2364 261.27C-81.6971 283.647 -79.2163 305.368 -75.5181 325.916C-71.671 346.493 -65.8719 365.678 -59.1792 383.246C-52.2657 400.777 -43.6932 416.049 -34.7302 429.748C-41.767 414.578 -47.8741 398.059 -51.372 379.916C-54.7774 361.809 -56.8011 342.973 -56.2412 323.846C-55.7019 304.777 -53.6834 285.745 -49.636 267.434C-45.5372 249.152 -39.9898 231.636 -33.1224 215.496C-26.024 199.495 -17.7289 184.988 -8.62722 172.542C0.315192 160.418 11.1684 149.379 21.9085 140.249C27.2657 135.534 33.039 131.6 38.576 127.592C44.4211 124.014 50.0455 120.357 55.9985 117.42C67.7762 111.38 79.6412 106.359 91.7733 102.847C103.88 99.2841 115.94 96.6026 127.933 94.8174C139.968 93.1779 151.807 92.1578 163.415 91.7061C186.555 91.094 209.915 92.1432 232.284 92.9302C277.088 94.4895 319.992 93.6588 355.916 75.1075C370.205 67.8355 382.075 54.2171 389.179 37.9391C396.283 54.2171 408.153 67.8283 422.442 75.1075C458.366 93.6661 501.27 94.4968 546.074 92.9302C568.443 92.136 591.809 91.094 614.943 91.7061C626.551 92.1578 638.395 93.1779 650.425 94.8174C662.418 96.6026 674.483 99.2841 686.585 102.847C698.722 106.359 710.587 111.387 722.365 117.42C728.318 120.357 733.942 124.014 739.787 127.592C745.324 131.6 751.097 135.527 756.455 140.249C767.2 149.386 778.053 160.418 786.99 172.542C796.092 184.988 804.387 199.495 811.486 215.496C818.348 231.628 823.9 249.145 827.999 267.434C832.046 285.752 834.065 304.785 834.604 323.846C835.164 342.973 833.141 361.809 829.735 379.916C826.237 398.059 820.13 414.578 813.093 429.748C822.056 416.042 830.629 400.777 837.542 383.246C844.24 365.678 850.034 346.493 853.881 325.916C857.605 305.36 860.086 283.647 860.625 261.27Z" fill="#FFE6E6"/>
<path d="M725.226 299.659C725.49 279.49 724.728 258.722 722.565 237.836C720.251 217.055 716.688 196.162 711.629 175.664C706.254 155.121 699.818 136.256 692.265 118.201C677.045 82.4664 657.634 52.2102 636.553 29.2828C615.468 6.12481 592.773 -10.1917 570.033 -20.2595C547.041 -30.4392 524.927 -33.8106 504.128 -33.027C483.417 -31.9406 464.2 -26.6466 447.095 -17.8693C429.957 -9.11186 414.8 2.86551 401.649 17.7401C396.102 24.0942 392.027 31.1989 389.193 38.6856C386.356 31.1989 382.285 24.0942 376.738 17.7401C363.587 2.86551 348.43 -9.11186 331.292 -17.8693C314.187 -26.6532 294.97 -31.9472 274.258 -33.027C253.459 -33.804 231.342 -30.4392 208.354 -20.2595C185.618 -10.1917 162.922 6.12481 141.838 29.2828C120.757 52.2102 101.345 82.473 86.1256 118.201C78.5726 136.256 72.1325 155.121 66.758 175.664C61.6982 196.162 58.1359 217.055 55.822 237.836C53.6583 258.716 52.8968 279.49 53.1604 299.659C53.5448 319.88 55.3131 339.508 57.9492 358.077C60.6914 376.672 64.8249 394.009 69.5954 409.884C74.5234 425.727 80.6338 439.528 87.0225 451.907C82.0067 438.198 77.6536 423.271 75.1604 406.875C72.733 390.512 71.2905 373.491 71.6896 356.207C72.074 338.975 73.5128 321.776 76.3978 305.229C79.3194 288.708 83.2736 272.879 88.1685 258.294C93.2283 243.834 99.141 230.725 105.629 219.478C112.003 208.521 119.739 198.546 127.394 190.295C131.213 186.035 135.328 182.479 139.275 178.858C143.441 175.625 147.45 172.319 151.693 169.666C160.088 164.207 168.546 159.671 177.193 156.497C185.823 153.277 194.419 150.854 202.968 149.241C211.546 147.759 219.985 146.837 228.259 146.429C244.753 145.876 261.404 146.824 277.348 147.535C309.285 148.944 339.866 148.194 365.473 131.429C375.658 124.858 384.119 112.551 389.182 97.8414C394.246 112.551 402.707 124.851 412.892 131.429C438.498 148.2 469.08 148.951 501.016 147.535C516.961 146.817 533.615 145.876 550.105 146.429C558.38 146.837 566.822 147.759 575.397 149.241C583.946 150.854 592.546 153.277 601.171 156.497C609.823 159.671 618.28 164.214 626.675 169.666C630.918 172.319 634.927 175.625 639.094 178.858C643.04 182.479 647.156 186.029 650.974 190.295C658.633 198.552 666.369 208.521 672.74 219.478C679.227 230.725 685.14 243.834 690.2 258.294C695.091 272.872 699.049 288.702 701.971 305.229C704.856 321.783 706.294 338.982 706.679 356.207C707.078 373.491 705.635 390.512 703.208 406.875C700.715 423.271 696.362 438.198 691.346 451.907C697.735 439.522 703.845 425.727 708.773 409.884C713.547 394.009 717.677 376.672 720.419 358.077C723.074 339.502 724.842 319.88 725.226 299.659Z" fill="#FFE6E6"/>
<path d="M577.52 270.816C577.663 257.916 577.25 244.633 576.077 231.275C574.823 217.983 572.892 204.62 570.149 191.51C567.235 178.37 563.746 166.305 559.651 154.757C551.4 131.901 540.877 112.55 529.448 97.8854C518.018 83.0737 505.714 72.6378 493.386 66.1985C480.922 59.6876 468.934 57.5312 457.658 58.0324C446.43 58.7273 436.012 62.1133 426.738 67.7272C417.448 73.3284 409.23 80.9891 402.101 90.5027C399.094 94.5668 396.885 99.111 395.349 103.899C393.81 99.111 391.603 94.5668 388.596 90.5027C381.467 80.9891 373.25 73.3284 363.959 67.7272C354.686 62.1091 344.268 58.7231 333.04 58.0324C321.764 57.5355 309.774 59.6876 297.311 66.1985C284.985 72.6378 272.682 83.0737 261.251 97.8854C249.823 112.55 239.299 131.906 231.048 154.757C226.954 166.305 223.462 178.37 220.549 191.51C217.806 204.62 215.874 217.983 214.62 231.275C213.447 244.629 213.034 257.916 213.177 270.816C213.385 283.749 214.344 296.304 215.773 308.18C217.26 320.073 219.501 331.162 222.087 341.316C224.758 351.449 228.071 360.276 231.535 368.193C228.815 359.425 226.455 349.878 225.104 339.391C223.788 328.926 223.006 318.039 223.222 306.984C223.431 295.963 224.211 284.962 225.775 274.379C227.358 263.812 229.502 253.688 232.156 244.36C234.899 235.111 238.104 226.726 241.621 219.533C245.077 212.525 249.271 206.145 253.421 200.868C255.491 198.143 257.722 195.869 259.862 193.553C262.12 191.485 264.294 189.371 266.594 187.674C271.145 184.182 275.73 181.281 280.418 179.251C285.097 177.191 289.757 175.641 294.391 174.61C299.042 173.662 303.617 173.072 308.102 172.811C317.044 172.458 326.071 173.064 334.715 173.519C352.028 174.42 368.607 173.94 382.489 163.218C388.011 159.015 392.598 151.143 395.343 141.735C398.088 151.143 402.675 159.01 408.196 163.218C422.078 173.944 438.657 174.424 455.971 173.519C464.615 173.06 473.644 172.458 482.583 172.811C487.069 173.072 491.646 173.662 496.294 174.61C500.929 175.641 505.591 177.191 510.267 179.251C514.957 181.281 519.542 184.187 524.093 187.674C526.394 189.371 528.567 191.485 530.826 193.553C532.965 195.869 535.196 198.139 537.267 200.868C541.419 206.149 545.613 212.525 549.066 219.533C552.583 226.726 555.789 235.111 558.532 244.36C561.183 253.684 563.329 263.808 564.913 274.379C566.477 284.967 567.257 295.967 567.465 306.984C567.682 318.039 566.9 328.926 565.584 339.391C564.232 349.878 561.872 359.425 559.153 368.193C562.617 360.272 565.929 351.449 568.601 341.316C571.189 331.162 573.428 320.073 574.914 308.18C576.353 296.3 577.312 283.749 577.52 270.816Z" fill="#FFE6E6"/>
</g>
<defs>
<clipPath id="clip0_59_27383">
<rect width="781" height="781" fill="white"/>
</clipPath>
</defs>
</svg>
