<svg width="1953" height="1259" viewBox="0 0 1953 1259" fill="none" xmlns="http://www.w3.org/2000/svg">
<g clip-path="url(#clip0_49_10976)">
<g clip-path="url(#clip1_49_10976)">
<rect width="49.2592" height="52.253" transform="matrix(-1 0 0 1 1774.71 969)" fill="#E04141"/>
<rect width="48.395" height="52.253" transform="matrix(-1 0 0 1 1708.16 969)" fill="#E04141"/>
<rect width="49.2592" height="52.253" transform="matrix(-1 0 0 1 1575.26 969)" fill="#E04141"/>
<rect width="48.395" height="52.253" transform="matrix(-1 0 0 1 1509.4 969)" fill="#E04141"/>
<rect width="49.2592" height="52.253" transform="matrix(-1 0 0 1 1774.71 1056.68)" fill="#E04141"/>
<rect width="48.395" height="52.253" transform="matrix(-1 0 0 1 1708.16 1056.68)" fill="#E04141"/>
<rect width="49.2592" height="52.253" transform="matrix(-1 0 0 1 1642.48 1056.68)" fill="#E04141"/>
<rect width="49.2592" height="52.253" transform="matrix(-1 0 0 1 1575.94 1056.68)" fill="#E04141"/>
<rect width="48.395" height="52.253" transform="matrix(-1 0 0 1 1509.4 1056.68)" fill="#E04141"/>
<rect width="48.395" height="52.253" transform="matrix(-1 0 0 1 1708.16 1144.36)" fill="#E04141"/>
<rect width="49.2592" height="52.253" transform="matrix(-1 0 0 1 1642.48 1144.36)" fill="#E04141"/>
<rect width="49.2592" height="52.253" transform="matrix(-1 0 0 1 1575.94 1144.36)" fill="#E04141"/>
<rect width="49.2592" height="52.253" transform="matrix(-1 0 0 1 1642.48 1232.04)" fill="#E04141"/>
<rect x="1549" y="247" width="64" height="65" fill="#E04141"/>
<rect x="1804" y="247" width="64" height="65" fill="#E04141"/>
<rect x="1463" y="467" width="64" height="65" fill="#E04141"/>
<rect x="67" y="838" width="49" height="52" fill="#E04141"/>
<rect x="266" y="838" width="49" height="52" fill="#E04141"/>
<rect y="838" width="50" height="52" fill="#E04141"/>
<rect x="332" y="838" width="49" height="52" fill="#E04141"/>
<rect x="67" y="926" width="49" height="52" fill="#E04141"/>
<rect x="67" y="1013" width="49" height="52" fill="#E04141"/>
<rect x="67" y="1101" width="49" height="52" fill="#E04141"/>
<rect x="1" y="926" width="49" height="52" fill="#E04141"/>
<rect x="1" y="1013" width="49" height="52" fill="#E04141"/>
<rect x="133" y="926" width="49" height="52" fill="#E04141"/>
<rect x="133" y="1014" width="49" height="52" fill="#E04141"/>
<rect x="133" y="1101" width="49" height="52" fill="#E04141"/>
<rect x="133" y="1188" width="49" height="52" fill="#E04141"/>
<rect x="200" y="926" width="49" height="52" fill="#E04141"/>
<rect x="200" y="1013" width="49" height="52" fill="#E04141"/>
<rect x="200" y="1101" width="49" height="52" fill="#E04141"/>
<rect x="200" y="1188" width="49" height="52" fill="#E04141"/>
<rect x="266" y="926" width="49" height="52" fill="#E04141"/>
<rect x="266" y="1013" width="49" height="52" fill="#E04141"/>
<rect x="266" y="1101" width="49" height="52" fill="#E04141"/>
<rect x="332" y="926" width="49" height="52" fill="#E04141"/>
<rect x="332" y="1013" width="49" height="52" fill="#E04141"/>
<rect x="1547" y="577" width="64" height="65" fill="#E04141"/>
<rect x="1633" y="577" width="64" height="65" fill="#E04141"/>
<rect x="1719" y="577" width="64" height="65" fill="#E04141"/>
<rect x="1805" y="577" width="64" height="65" fill="#E04141"/>
<rect x="1888" y="467" width="64" height="65" fill="#E04141"/>
</g>
</g>
<defs>
<clipPath id="clip0_49_10976">
<rect width="1952.22" height="1258.89" fill="white"/>
</clipPath>
<clipPath id="clip1_49_10976">
<rect width="1952.22" height="1258.89" fill="white" transform="translate(1 1)"/>
</clipPath>
</defs>
</svg>
