<svg width="1953" height="1259" viewBox="0 0 1953 1259" fill="none" xmlns="http://www.w3.org/2000/svg">
<g clip-path="url(#clip0_49_8930)">
<rect width="49.2592" height="52.253" transform="matrix(-1 0 0 1 1774.71 970)" fill="#E04141"/>
<rect width="48.395" height="52.253" transform="matrix(-1 0 0 1 1708.16 970)" fill="#E04141"/>
<rect width="49.2592" height="52.253" transform="matrix(-1 0 0 1 1575.94 970)" fill="#E04141"/>
<rect width="48.395" height="52.253" transform="matrix(-1 0 0 1 1509.4 970)" fill="#E04141"/>
<rect width="49.2592" height="52.253" transform="matrix(-1 0 0 1 1774.71 1057.68)" fill="#E04141"/>
<rect width="48.395" height="52.253" transform="matrix(-1 0 0 1 1708.16 1057.68)" fill="#E04141"/>
<rect width="49.2592" height="52.253" transform="matrix(-1 0 0 1 1642.48 1057.68)" fill="#E04141"/>
<rect width="49.2592" height="52.253" transform="matrix(-1 0 0 1 1575.94 1057.68)" fill="#E04141"/>
<rect width="48.395" height="52.253" transform="matrix(-1 0 0 1 1509.4 1057.68)" fill="#E04141"/>
<rect width="48.395" height="52.253" transform="matrix(-1 0 0 1 1708.16 1145.36)" fill="#E04141"/>
<rect width="49.2592" height="52.253" transform="matrix(-1 0 0 1 1642.48 1145.36)" fill="#E04141"/>
<rect width="49.2592" height="52.253" transform="matrix(-1 0 0 1 1575.94 1145.36)" fill="#E04141"/>
<rect width="49.2592" height="52.253" transform="matrix(-1 0 0 1 1642.48 1233.04)" fill="#E04141"/>
<rect x="1549" y="248" width="64" height="65" fill="#E04141"/>
<rect x="1804" y="248" width="64" height="65" fill="#E04141"/>
<rect x="1460" y="468" width="64" height="65" fill="#E04141"/>
<rect x="67" y="839" width="49" height="52" fill="#E04141"/>
<rect x="266" y="839" width="49" height="52" fill="#E04141"/>
<rect y="838" width="50" height="52" fill="#E04141"/>
<rect x="333" y="839" width="49" height="52" fill="#E04141"/>
<rect x="67" y="926" width="49" height="52" fill="#E04141"/>
<rect x="67" y="1013" width="49" height="52" fill="#E04141"/>
<rect x="67" y="1102" width="49" height="52" fill="#E04141"/>
<rect x="1" y="926" width="49" height="52" fill="#E04141"/>
<rect x="1" y="1013" width="49" height="52" fill="#E04141"/>
<rect x="133" y="926" width="49" height="52" fill="#E04141"/>
<rect x="133" y="1013" width="49" height="52" fill="#E04141"/>
<rect x="133" y="1102" width="49" height="52" fill="#E04141"/>
<rect x="133" y="1189" width="49" height="52" fill="#E04141"/>
<rect x="200" y="926" width="49" height="52" fill="#E04141"/>
<rect x="200" y="1013" width="49" height="52" fill="#E04141"/>
<rect x="200" y="1102" width="49" height="52" fill="#E04141"/>
<rect x="200" y="1189" width="49" height="52" fill="#E04141"/>
<rect x="266" y="926" width="49" height="52" fill="#E04141"/>
<rect x="266" y="1013" width="49" height="52" fill="#E04141"/>
<rect x="266" y="1102" width="49" height="52" fill="#E04141"/>
<rect x="332" y="926" width="49" height="52" fill="#E04141"/>
<rect x="332" y="1013" width="49" height="52" fill="#E04141"/>
<rect x="1547" y="578" width="64" height="65" fill="#E04141"/>
<rect x="1633" y="578" width="64" height="65" fill="#E04141"/>
<rect x="1719" y="578" width="64" height="65" fill="#E04141"/>
<rect x="1805" y="578" width="64" height="65" fill="#E04141"/>
<rect x="1888" y="468" width="64" height="65" fill="#E04141"/>
</g>
<defs>
<clipPath id="clip0_49_8930">
<rect width="1952.22" height="1258.89" fill="white"/>
</clipPath>
</defs>
</svg>
