<svg width="1935" height="657" viewBox="0 0 1935 657" fill="none" xmlns="http://www.w3.org/2000/svg">
<g clip-path="url(#clip0_57_13472)">
<path d="M1185.33 102.438C1208.81 88.442 1215.33 73.9768 1215.33 73.9768C1215.33 73.9768 1228.27 74.2668 1233.68 74.4883C1233.59 74.0412 1233.54 73.5814 1233.54 73.1109C1233.54 72.6403 1233.59 72.1806 1233.68 71.7339C1228.27 71.9554 1215.33 72.2454 1215.33 72.2454C1215.33 72.2454 1208.81 57.7802 1185.33 43.7843C1184.97 43.5654 1185.6 42.5568 1185.99 42.7396C1210.91 54.4373 1227.79 52.397 1227.79 52.397C1227.79 52.397 1233.99 62.8483 1236.49 67.2616C1237.25 66.6681 1238.12 66.1966 1239.08 65.8823C1236.17 61.6888 1229.43 51.5311 1229.43 51.5311C1229.43 51.5311 1239.79 39.1062 1241.23 13.4126C1241.26 13.0109 1242.52 13.0109 1242.54 13.4126C1243.99 39.1062 1254.35 51.5311 1254.35 51.5311C1254.35 51.5311 1247.61 61.6888 1244.7 65.8823C1245.66 66.1971 1246.53 66.6681 1247.29 67.2616C1249.78 62.8483 1255.98 52.397 1255.98 52.397C1255.98 52.397 1272.87 54.4377 1297.79 42.7396C1298.18 42.5568 1298.81 43.5654 1298.45 43.7843C1274.97 57.7802 1268.45 72.2454 1268.45 72.2454C1268.45 72.2454 1255.5 71.9554 1250.1 71.7339C1250.19 72.181 1250.24 72.6408 1250.24 73.1109C1250.24 73.5814 1250.19 74.0412 1250.1 74.4883C1255.5 74.2668 1268.45 73.9768 1268.45 73.9768C1268.45 73.9768 1274.97 88.442 1298.45 102.438C1298.81 102.657 1298.18 103.665 1297.79 103.483C1272.87 91.7849 1255.98 93.8252 1255.98 93.8252C1255.98 93.8252 1249.79 83.3739 1247.29 78.9606C1246.53 79.5545 1245.66 80.0255 1244.7 80.3403C1247.61 84.5339 1254.35 94.6915 1254.35 94.6915C1254.35 94.6915 1243.99 107.116 1242.54 132.81C1242.52 133.212 1241.26 133.212 1241.23 132.81C1239.79 107.116 1229.43 94.6915 1229.43 94.6915C1229.43 94.6915 1236.17 84.5339 1239.08 80.3403C1238.12 80.0255 1237.25 79.5545 1236.49 78.9606C1233.99 83.3739 1227.79 93.8252 1227.79 93.8252C1227.79 93.8252 1210.91 91.7845 1185.99 103.483C1185.6 103.665 1184.97 102.657 1185.33 102.438ZM1217.23 67.5398C1218.52 67.4426 1224.04 67.643 1228.01 67.8078L1219.13 64.7291L1210.41 58.1585C1213.69 61.7117 1216.28 65.6743 1217.23 67.5398ZM1205.88 53.9974C1205.94 54.0397 1206 54.0843 1206.05 54.1275L1219.58 62.362C1219.46 62.0292 1219.48 61.6528 1219.69 61.324C1219.89 60.9958 1220.24 60.79 1220.61 60.7229L1206.09 54.0685C1206.02 54.0442 1205.95 54.0217 1205.88 53.9974ZM1224.31 56.2574C1222.08 56.4366 1217.05 56.3546 1212.07 55.5243L1222.61 59.1775L1229.96 64.7147C1227.81 61.6311 1224.86 57.3327 1224.31 56.2574ZM1231.87 67.457L1222.16 61.5451C1222.28 61.8779 1222.26 62.2543 1222.06 62.583C1221.85 62.9113 1221.51 63.1171 1221.13 63.1842L1231.56 67.9618C1232 67.9816 1232.25 67.9937 1232.25 67.9937C1232.25 67.9937 1232.11 67.7947 1231.87 67.457ZM1259.47 56.2574C1258.92 57.3327 1255.96 61.6311 1253.82 64.7147L1261.16 59.1775L1271.71 55.5243C1266.73 56.3546 1261.7 56.4366 1259.47 56.2574ZM1277.89 53.9974C1277.83 54.0217 1277.76 54.0442 1277.69 54.068L1263.17 60.7225C1263.54 60.7895 1263.89 60.9953 1264.09 61.3236C1264.3 61.6518 1264.32 62.0287 1264.2 62.3615L1277.72 54.1275C1277.78 54.0843 1277.84 54.0397 1277.89 53.9974ZM1266.55 67.5398C1267.5 65.6743 1270.09 61.7117 1273.36 58.1589L1264.65 64.7291L1255.76 67.8078C1259.74 67.643 1265.26 67.4421 1266.55 67.5398ZM1252.22 67.9618L1262.65 63.1842C1262.27 63.1171 1261.93 62.9113 1261.72 62.583C1261.51 62.2548 1261.49 61.8779 1261.62 61.5451L1251.91 67.457C1251.67 67.7947 1251.53 67.9937 1251.53 67.9937C1251.53 67.9937 1251.78 67.9816 1252.22 67.9618ZM1266.55 78.6819C1265.26 78.7791 1259.74 78.5788 1255.76 78.414L1264.65 81.4926L1273.36 88.0628C1270.09 84.51 1267.5 80.5474 1266.55 78.6819ZM1277.89 92.2244C1277.84 92.1821 1277.78 92.1375 1277.72 92.0943L1264.2 83.8598C1264.32 84.1921 1264.3 84.569 1264.09 84.8977C1263.89 85.226 1263.54 85.4317 1263.17 85.4988L1277.69 92.1532C1277.75 92.1776 1277.83 92.2001 1277.89 92.2244ZM1259.47 89.9644C1261.7 89.7852 1266.73 89.8671 1271.71 90.6975L1261.16 87.0442L1253.82 81.507C1255.96 84.5906 1258.92 88.8891 1259.47 89.9644ZM1251.91 78.7647L1261.62 84.6766C1261.49 84.3438 1261.51 83.9674 1261.72 83.6387C1261.93 83.31 1262.27 83.1046 1262.65 83.0375L1252.22 78.2599C1251.78 78.2401 1251.53 78.228 1251.53 78.228C1251.53 78.228 1251.67 78.427 1251.91 78.7647ZM1234.8 50.6859C1235.54 51.6639 1238.11 56.1632 1239.95 59.4117L1238.4 50.7958L1240.23 40.5723C1238.53 44.955 1236.09 48.9996 1234.8 50.6859ZM1241.93 35.0851C1241.91 35.018 1241.9 34.9505 1241.89 34.8838C1241.88 34.9505 1241.86 35.0176 1241.85 35.0842L1240.86 49.9731C1241.11 49.7079 1241.48 49.5363 1241.89 49.5363C1242.3 49.5363 1242.67 49.7074 1242.92 49.9731L1241.93 35.0851ZM1241.89 52.0548C1241.48 52.0548 1241.11 51.8837 1240.86 51.618L1241.57 62.3075C1241.77 62.6686 1241.89 62.8762 1241.89 62.8762C1241.89 62.8762 1242 62.6686 1242.21 62.3075L1242.92 51.618C1242.67 51.8837 1242.3 52.0548 1241.89 52.0548ZM1248.97 50.6859C1247.69 48.9996 1245.25 44.955 1243.54 40.5719L1245.38 50.7953L1243.83 59.4112C1245.66 56.1632 1248.24 51.6639 1248.97 50.6859ZM1248.97 95.5358C1248.24 94.5578 1245.66 90.0585 1243.83 86.8105L1245.38 95.4264L1243.54 105.65C1245.25 101.267 1247.69 97.2222 1248.97 95.5358ZM1241.85 111.137C1241.86 111.204 1241.88 111.271 1241.89 111.338C1241.9 111.271 1241.91 111.204 1241.93 111.137L1242.92 96.2482C1242.67 96.5134 1242.3 96.685 1241.89 96.685C1241.48 96.685 1241.11 96.5139 1240.86 96.2482L1241.85 111.137ZM1241.89 94.1669C1242.3 94.1669 1242.67 94.3381 1242.92 94.6037L1242.21 83.9143C1242 83.5531 1241.89 83.3455 1241.89 83.3455C1241.89 83.3455 1241.77 83.5531 1241.57 83.9143L1240.86 94.6037C1241.11 94.3381 1241.48 94.1669 1241.89 94.1669ZM1234.8 95.5358C1236.09 97.2222 1238.52 101.267 1240.23 105.649L1238.4 95.426L1239.95 86.8101C1238.11 90.0585 1235.54 94.5578 1234.8 95.5358ZM1241.89 76.9541C1244.2 76.9541 1246.07 75.2335 1246.07 73.1109C1246.07 70.9882 1244.2 69.2676 1241.89 69.2676C1239.58 69.2676 1237.71 70.9882 1237.71 73.1109C1237.71 75.2335 1239.58 76.9541 1241.89 76.9541ZM1217.23 78.6819C1216.28 80.5474 1213.69 84.51 1210.42 88.0628L1219.13 81.4926L1228.01 78.414C1224.04 78.5788 1218.52 78.7791 1217.23 78.6819ZM1232.25 78.228C1232.25 78.228 1232 78.2397 1231.56 78.2599L1221.13 83.0375C1221.51 83.1046 1221.85 83.3104 1222.06 83.6387C1222.26 83.9674 1222.28 84.3438 1222.16 84.6766L1231.87 78.7647C1232.11 78.427 1232.25 78.228 1232.25 78.228ZM1224.31 89.9644C1224.86 88.8891 1227.81 84.5906 1229.96 81.507L1222.61 87.0442L1212.07 90.6975C1217.05 89.8671 1222.08 89.7852 1224.31 89.9644ZM1206.09 92.1537L1220.61 85.4993C1220.24 85.4322 1219.89 85.2269 1219.69 84.8981C1219.48 84.5699 1219.46 84.193 1219.58 83.8602L1206.05 92.0943C1206 92.1375 1205.94 92.1821 1205.88 92.2244C1205.95 92.2001 1206.02 92.1776 1206.09 92.1537Z" fill="#FFE6E6"/>
<line y1="-1.66667" x2="107.778" y2="-1.66667" transform="matrix(4.37114e-08 1 1 -4.37114e-08 1241.89 -59.1113)" stroke="#FFE6E6" stroke-width="3.33333"/>
<line y1="-1.66667" x2="107.778" y2="-1.66667" transform="matrix(4.37114e-08 1 1 -4.37114e-08 893 -101.333)" stroke="#FFE6E6" stroke-width="3.33333"/>
<line y1="-1.66667" x2="373.333" y2="-1.66667" transform="matrix(4.37114e-08 1 1 -4.37114e-08 121.889 -268)" stroke="#FFE6E6" stroke-width="3.33333"/>
<line y1="-1.66667" x2="181.111" y2="-1.66667" transform="matrix(4.37114e-08 1 1 -4.37114e-08 1647.44 -142.444)" stroke="#FFE6E6" stroke-width="3.33333"/>
<line y1="-1.66667" x2="231.111" y2="-1.66667" transform="matrix(4.37114e-08 1 1 -4.37114e-08 1829.67 -69.1113)" stroke="#FFE6E6" stroke-width="3.33333"/>
<path d="M603.206 50.9524C606.685 47.7426 609.661 43.7168 613.033 41.7696C616.887 39.5445 619.862 41.3597 623.596 39.2038C624.252 38.8251 623.814 38.2173 622.607 37.9544C619.914 37.3683 618.573 38.0788 615.37 37.1012C613.857 36.639 612.021 35.105 609.766 33.2926C609.234 32.8653 609.483 32.0064 610.161 31.9282C613.091 31.5899 615.715 31.5494 617.926 32.6269C621.948 34.5872 622.294 36.3092 624.834 36.99C625.323 37.1214 629.004 35.212 633.088 32.9656C632.942 32.5863 632.341 32.2094 631.367 31.9974C627.704 31.2003 625.881 32.167 621.525 30.837C619.295 30.1563 616.55 27.7639 613.125 25.0332C612.694 24.6898 612.887 23.9958 613.433 23.9256C617.824 23.3626 621.744 23.1647 625.001 24.7524C630.445 27.4058 631.63 30.9355 635.046 31.8806C637.588 30.462 640.117 29.0185 641.987 27.9434C641.787 27.7356 641.401 27.5453 640.854 27.4266C638.169 26.8424 636.833 27.5504 633.64 26.5757C632.074 26.0975 630.159 24.4655 627.791 22.5673C627.361 22.2229 627.554 21.528 628.101 21.4616C631.161 21.0884 633.898 21.0003 636.188 22.1165C639.996 23.9727 640.961 26.4127 643.218 27.2339C644.181 26.6775 644.815 26.3085 644.951 26.2299C646.695 25.2226 647.119 21.545 647.119 21.545C647.119 21.545 650.266 23.1609 652.027 22.1442C652.943 21.6152 653.357 20.9033 653.481 20.2795C653.349 19.5629 652.756 18.9448 652.027 18.5236C650.266 17.5069 647.119 19.1229 647.119 19.1229C647.119 19.1229 646.695 15.4452 644.951 14.438C644.815 14.3598 644.18 13.9909 643.216 13.435C640.961 14.2571 639.995 16.6961 636.188 18.5519C633.898 19.668 631.161 19.5804 628.101 19.2067C627.554 19.1398 627.361 18.4454 627.791 18.101C630.159 16.2028 632.074 14.5708 633.64 14.0926C636.833 13.1179 638.169 13.826 640.854 13.2422C641.399 13.1235 641.785 12.9341 641.985 12.7273C640.113 11.6527 637.58 10.2096 635.034 8.791C631.628 9.74127 630.439 13.2653 625.001 15.9159C621.743 17.5036 617.824 17.3058 613.433 16.7428C612.887 16.6726 612.694 15.9786 613.125 15.6351C616.551 12.9045 619.295 10.5116 621.525 9.83126C625.881 8.50126 627.704 9.46755 631.367 8.6704C632.333 8.46028 632.933 8.08714 633.085 7.71117C628.995 5.46342 625.31 3.55016 624.834 3.67831C622.294 4.35862 621.948 6.08062 617.926 8.04146C615.715 9.11893 613.09 9.07793 610.161 8.74013C609.483 8.66192 609.234 7.80353 609.766 7.37574C612.021 5.56331 613.857 4.02932 615.37 3.56714C618.573 2.58907 619.914 3.29953 622.607 2.71345C623.814 2.45103 624.252 1.84278 623.596 1.46399C619.862 -0.691898 616.887 1.12384 613.033 -1.10177C609.661 -3.04895 606.685 -7.07474 603.206 -10.2845C602.715 -10.7378 603.176 -11.5354 603.813 -11.3366C608.332 -9.92839 613.306 -9.36351 616.678 -7.41633C620.532 -5.19119 620.447 -1.70622 624.181 0.449671C624.837 0.828459 625.145 0.145301 624.769 -1.03158C623.929 -3.65766 622.644 -4.46328 621.889 -7.72726C621.533 -9.2688 621.943 -11.6259 622.385 -14.4847C622.489 -15.1593 623.357 -15.3732 623.764 -14.8253C625.521 -12.4565 626.869 -10.2035 627.041 -7.75035C627.355 -3.2864 626.037 -2.12506 626.717 0.41433C626.849 0.903834 630.342 3.13746 634.329 5.55152C634.584 5.23587 634.61 4.52636 634.306 3.57703C633.165 0.00539585 631.417 -1.08998 630.39 -5.52802C629.865 -7.79933 630.564 -11.3729 631.216 -15.7058C631.298 -16.2505 631.995 -16.4304 632.329 -15.9928C635.012 -12.4706 637.143 -9.17504 637.397 -5.55959C637.822 0.483119 635.358 3.27361 636.247 6.70485C638.747 8.19833 641.261 9.66638 643.127 10.7481C643.207 10.4715 643.179 10.0419 643.008 9.50808C642.172 6.89048 640.891 6.08767 640.138 2.83499C639.769 1.23881 640.225 -1.23509 640.684 -4.23572C640.768 -4.78034 641.466 -4.96032 641.797 -4.52028C643.651 -2.05627 645.095 0.27016 645.273 2.8119C645.571 7.03935 643.942 9.09584 644.36 11.4614C645.322 12.0164 645.957 12.3806 646.093 12.4588C647.836 13.4656 651.233 11.9938 651.233 11.9938C651.233 11.9938 651.408 15.5277 653.168 16.5444C654.085 17.0735 654.909 17.0763 655.51 16.8713C656.064 16.3988 656.303 15.5762 656.303 14.7338C656.303 12.7004 653.33 10.7825 653.33 10.7825C653.33 10.7825 656.303 8.57665 656.303 6.56257C656.303 6.40568 656.305 5.67166 656.304 4.55791C654.465 3.0159 651.87 3.39893 648.36 1.02915C646.248 -0.396487 644.956 -2.81054 643.749 -5.64816C643.533 -6.15509 644.039 -6.66957 644.552 -6.46982C647.379 -5.36737 649.75 -4.52546 650.947 -3.40747C653.388 -1.12956 653.443 0.381827 655.291 2.41522C655.666 2.8284 656.023 3.06725 656.302 3.13744C656.296 0.978729 656.28 -1.9366 656.235 -4.85054C653.709 -7.32632 650.063 -6.59326 645.049 -9.97833C642.046 -12.0056 640.257 -15.499 638.548 -19.5842C638.336 -20.0921 638.841 -20.6061 639.353 -20.4049C643.431 -18.8031 646.875 -17.6219 648.579 -16.0309C651.909 -12.9224 651.984 -10.8608 654.505 -8.08628C655.17 -7.35461 655.793 -7.0215 656.195 -7.07851C656.096 -11.7451 655.91 -15.8924 655.561 -16.2415C653.703 -18.1006 652.038 -17.5395 648.329 -20.0435C646.291 -21.4192 645.014 -23.7132 643.842 -26.4198C643.57 -27.0459 644.19 -27.6904 644.826 -27.4436C647.522 -26.3972 649.769 -25.5741 650.925 -24.4948C653.374 -22.2089 653.428 -20.6928 655.283 -18.6528C656.114 -17.7388 656.859 -17.6639 656.859 -18.421C656.859 -22.7327 653.8 -24.402 653.8 -28.8527C653.8 -32.7466 655.797 -37.3378 656.838 -41.9553C656.984 -42.6073 657.905 -42.6073 658.052 -41.9553C659.092 -37.3378 661.09 -32.7461 661.09 -28.8527C661.09 -24.4024 658.03 -22.7332 658.03 -18.421C658.03 -17.6639 658.775 -17.7388 659.606 -18.6528C661.461 -20.6928 661.516 -22.2093 663.964 -24.4948C665.121 -25.5741 667.367 -26.3972 670.064 -27.4436C670.7 -27.6904 671.319 -27.0459 671.048 -26.4198C669.876 -23.7132 668.598 -21.4192 666.56 -20.0435C662.852 -17.54 661.187 -18.1006 659.329 -16.2415C658.97 -15.883 658.783 -11.7403 658.686 -7.07992C659.087 -7.01632 659.714 -7.34896 660.385 -8.08628C662.906 -10.8608 662.981 -12.9224 666.311 -16.0309C668.014 -17.6215 671.459 -18.8031 675.536 -20.4049C676.049 -20.6061 676.554 -20.0921 676.341 -19.5842C674.633 -15.499 672.844 -12.0056 669.841 -9.97784C664.821 -6.589 661.173 -7.32727 658.646 -4.84159C658.603 -1.93001 658.589 0.982051 658.585 3.13888C658.865 3.0701 659.223 2.83029 659.599 2.41617C661.448 0.382776 661.502 -1.12861 663.943 -3.40652C665.14 -4.52451 667.51 -5.36642 670.338 -6.46887C670.851 -6.6691 671.356 -6.15417 671.141 -5.64724C669.934 -2.80962 668.642 -0.395538 666.53 1.0301C663.019 3.40082 660.423 3.01637 658.584 4.56027C658.584 5.67307 658.586 6.40663 658.586 6.56352C658.586 8.57759 661.559 10.7834 661.559 10.7834C661.559 10.7834 658.586 12.7019 658.586 14.7348C658.586 15.7929 658.995 16.5081 659.474 16.927C660.16 17.171 660.992 16.9665 661.721 16.5453C663.482 15.5286 663.656 11.9947 663.656 11.9947C663.656 11.9947 667.053 13.4665 668.797 12.4597C668.933 12.3815 669.568 12.0164 670.53 11.46C670.946 9.09537 669.319 7.03889 669.616 2.81285C669.795 0.271109 671.239 -2.05532 673.093 -4.51933C673.424 -4.95937 674.122 -4.77939 674.205 -4.23477C674.665 -1.23414 675.121 1.23976 674.751 2.83594C673.999 6.08862 672.718 6.89189 671.881 9.50948C671.711 10.0409 671.682 10.4696 671.761 10.7467C673.628 9.66259 676.144 8.1908 678.645 6.6945C679.525 3.26844 677.068 0.477001 677.492 -5.55864C677.746 -9.17362 679.877 -12.4697 682.56 -15.9918C682.894 -16.43 683.591 -16.2495 683.673 -15.7049C684.325 -11.3724 685.024 -7.79841 684.499 -5.5271C683.472 -1.08858 681.724 0.00680487 680.583 3.57844C680.282 4.52023 680.305 5.22644 680.554 5.5454C684.546 3.12662 688.044 0.892051 688.172 0.415739C688.853 -2.12365 687.534 -3.28499 687.848 -7.74895C688.02 -10.2021 689.368 -12.4555 691.125 -14.8239C691.532 -15.3718 692.4 -15.1579 692.504 -14.4833C692.946 -11.6245 693.356 -9.26739 693 -7.72585C692.245 -4.46234 690.959 -3.65669 690.12 -1.03014C689.744 0.146739 690.052 0.829397 690.708 0.45108C694.441 -1.70481 694.357 -5.18975 698.211 -7.41489C701.583 -9.36207 706.557 -9.92698 711.076 -11.3352C711.713 -11.534 712.174 -10.7364 711.683 -10.2831C708.204 -7.07333 705.228 -3.04754 701.856 -1.10036C698.002 1.12478 695.027 -0.69046 691.293 1.46543C690.637 1.84375 691.075 2.45196 692.282 2.71485C694.975 3.30094 696.316 2.58999 699.519 3.56806C701.032 4.02976 702.868 5.56426 705.123 7.37669C705.654 7.80401 705.406 8.66287 704.728 8.74108C701.798 9.07935 699.174 9.11985 696.963 8.04238C692.941 6.08201 692.594 4.36004 690.055 3.67926C689.566 3.54781 685.885 5.45729 681.801 7.70364C681.947 8.0829 682.548 8.4598 683.522 8.67181C687.185 9.46896 689.008 8.5022 693.364 9.83267C695.594 10.5134 698.339 12.9059 701.764 15.6365C702.195 15.9795 702.002 16.674 701.456 16.7442C697.065 17.3072 693.146 17.505 689.888 15.9173C684.444 13.2639 683.259 9.73423 679.843 8.78867C677.301 10.2072 674.772 11.6508 672.902 12.7259C673.102 12.9337 673.488 13.124 674.035 13.2427C676.72 13.8269 678.056 13.1188 681.249 14.0931C682.815 14.5713 684.73 16.2033 687.098 18.1015C687.528 18.4459 687.335 19.1408 686.788 19.2072C683.728 19.5803 680.991 19.6685 678.701 18.5524C674.893 16.6961 673.928 14.2561 671.671 13.435C670.708 13.9914 670.074 14.3602 669.938 14.4384C668.194 15.4457 667.77 19.1234 667.77 19.1234C667.77 19.1234 664.623 17.5074 662.862 18.5241C661.946 19.0532 661.532 19.765 661.408 20.3888C661.54 21.1054 662.133 21.7235 662.862 22.1447C664.623 23.1614 667.77 21.5454 667.77 21.5454C667.77 21.5454 668.194 25.2231 669.938 26.2304C670.074 26.3086 670.709 26.6774 671.674 27.2334C673.929 26.4113 674.894 23.9722 678.702 22.1165C680.992 21.0003 683.728 21.088 686.789 21.4616C687.335 21.528 687.528 22.2229 687.099 22.5673C684.73 24.4655 682.816 26.0975 681.249 26.5757C678.056 27.5504 676.72 26.8424 674.036 27.4266C673.49 27.5453 673.105 27.7347 672.905 27.9415C674.777 29.0161 677.309 30.4592 679.855 31.8778C683.262 30.9275 684.45 27.4034 689.889 24.7529C693.146 23.1652 697.066 23.363 701.457 23.926C702.003 23.9962 702.196 24.6902 701.765 25.0337C698.339 27.7643 695.594 30.1572 693.365 30.8375C689.008 32.1675 687.185 31.2012 683.522 31.9984C682.556 32.2085 681.957 32.5816 681.805 32.9576C685.895 35.2054 689.579 37.1186 690.056 36.9905C692.595 36.3102 692.941 34.5882 696.964 32.6274C699.174 31.5504 701.799 31.5909 704.729 31.9287C705.407 32.0069 705.655 32.8653 705.123 33.293C702.869 35.1055 701.033 36.6395 699.52 37.1016C696.316 38.0797 694.976 37.3688 692.282 37.9549C691.075 38.2178 690.638 38.8255 691.294 39.2043C695.027 41.3602 698.003 39.5449 701.856 41.7701C705.228 43.7172 708.205 47.7431 711.683 50.9529C712.174 51.4061 711.714 52.2037 711.076 52.0049C706.558 50.5967 701.583 50.0318 698.211 48.0846C694.357 45.8595 694.442 42.3745 690.708 40.2187C690.052 39.8399 689.745 40.523 690.121 41.6999C690.96 44.326 692.246 45.1316 693 48.3951C693.357 49.9366 692.946 52.2937 692.504 55.1525C692.4 55.8267 691.532 56.0411 691.126 55.4932C689.368 53.1243 688.021 50.8714 687.848 48.4182C687.535 43.9542 688.853 42.7929 688.172 40.253C688.041 39.7631 684.547 37.5299 680.561 35.1159C680.305 35.4315 680.28 36.141 680.583 37.0903C681.724 40.662 683.473 41.7574 684.499 46.1959C685.025 48.4672 684.326 52.0407 683.674 56.3737C683.592 56.9183 682.895 57.0983 682.561 56.6606C679.877 53.1384 677.747 49.8429 677.492 46.2274C677.068 40.1847 679.532 37.3942 678.642 33.963C676.142 32.4695 673.628 31.0015 671.762 29.9198C671.682 30.1963 671.71 30.626 671.881 31.1598C672.718 33.7774 673.999 34.5802 674.751 37.8333C675.121 39.4295 674.665 41.9034 674.205 44.904C674.122 45.4487 673.424 45.6286 673.093 45.1886C671.239 42.7246 669.795 40.3982 669.616 37.8564C669.319 33.629 670.947 31.5725 670.53 29.2069C669.568 28.6515 668.932 28.2878 668.797 28.2096C667.053 27.2023 663.656 28.6746 663.656 28.6746C663.656 28.6746 663.481 25.1406 661.721 24.1239C660.805 23.5949 659.981 23.592 659.379 23.7965C658.825 24.269 658.586 25.0921 658.586 25.934C658.586 27.9674 661.559 29.8854 661.559 29.8854C661.559 29.8854 658.586 32.0912 658.586 34.1053C658.586 34.2622 658.584 34.9962 658.585 36.1095C660.424 37.6515 663.019 37.2684 666.53 39.6382C668.641 41.0639 669.934 43.4779 671.14 46.3155C671.356 46.8225 670.851 47.337 670.338 47.1372C667.51 46.0347 665.14 45.1928 663.942 44.0749C661.502 41.7969 661.447 40.2856 659.599 38.2522C659.223 37.839 658.867 37.5996 658.588 37.5299C658.593 39.6891 658.61 42.604 658.654 45.5179C661.181 47.9937 664.827 47.2606 669.841 50.6457C672.844 52.673 674.632 56.1664 676.341 60.2516C676.553 60.7599 676.049 61.2739 675.536 61.0723C671.458 59.4704 668.014 58.2893 666.31 56.6983C662.98 53.5898 662.906 51.5281 660.384 48.7536C659.719 48.022 659.096 47.6889 658.694 47.7459C658.793 52.4124 658.979 56.5598 659.328 56.9089C661.186 58.768 662.851 58.2068 666.559 60.7109C668.597 62.0866 669.875 64.3805 671.047 67.0872C671.318 67.7133 670.699 68.3578 670.063 68.1109C667.366 67.0646 665.12 66.2415 663.963 65.1617C661.515 62.8757 661.46 61.3596 659.605 59.3196C658.775 58.4057 658.029 58.3308 658.029 59.0879C658.029 63.3997 661.089 65.0689 661.089 69.5196C661.089 73.4135 659.091 78.0046 658.051 82.6222C657.904 83.2742 656.983 83.2742 656.837 82.6222C655.796 78.0046 653.799 73.4135 653.799 69.5196C653.799 65.0693 656.858 63.4001 656.858 59.0879C656.858 58.3308 656.113 58.4057 655.282 59.3196C653.428 61.3596 653.373 62.8762 650.924 65.1617C649.768 66.241 647.521 67.0641 644.825 68.1109C644.189 68.3578 643.569 67.7133 643.841 67.0872C645.013 64.3805 646.29 62.0866 648.328 60.7109C652.037 58.2073 653.701 58.768 655.56 56.9089C655.918 56.5504 656.105 52.4077 656.203 47.7473C655.802 47.6837 655.174 48.0163 654.504 48.7536C651.982 51.5281 651.907 53.5898 648.578 56.6983C646.874 58.2888 643.43 59.47 639.352 61.0723C638.84 61.2734 638.335 60.7594 638.547 60.2516C640.255 56.1664 642.044 52.673 645.047 50.6457C650.067 47.2569 653.715 47.9951 656.242 45.5094C656.285 42.5974 656.299 39.6858 656.303 37.529C656.024 37.5978 655.666 37.8376 655.289 38.2517C653.44 40.2851 653.386 41.796 650.945 44.0744C649.748 45.1924 647.378 46.0343 644.55 47.1367C644.037 47.337 643.531 46.822 643.747 46.3151C644.954 43.4775 646.246 41.0634 648.358 39.6377C651.869 37.267 654.465 37.6515 656.304 36.1076C656.304 34.9948 656.302 34.2612 656.302 34.1048C656.302 32.0907 653.329 29.8849 653.329 29.8849C653.329 29.8849 656.302 27.9665 656.302 25.9335C656.302 24.8754 655.893 24.1602 655.414 23.7414C654.728 23.4973 653.896 23.7018 653.167 24.123C651.406 25.1397 651.232 28.6736 651.232 28.6736C651.232 28.6736 647.835 27.2018 646.091 28.2086C645.955 28.2868 645.32 28.6515 644.358 29.2084C643.942 31.573 645.569 33.6294 645.272 37.8555C645.093 40.3972 643.649 42.7237 641.795 45.1877C641.464 45.6277 640.766 45.4477 640.683 44.9031C640.224 41.9025 639.768 39.4286 640.137 37.8324C640.889 34.5797 642.17 33.7764 643.007 31.1588C643.177 30.6274 643.206 30.1987 643.127 29.9216C641.26 31.0057 638.744 32.4775 636.243 33.9734C635.363 37.3994 637.82 40.1909 637.396 46.2265C637.142 49.8415 635.011 53.1375 632.328 56.6597C631.994 57.0978 631.297 56.9174 631.215 56.3728C630.563 52.0403 629.864 48.4662 630.389 46.1949C631.416 41.7564 633.164 40.661 634.306 37.0894C634.607 36.1476 634.583 35.4414 634.334 35.1224C630.342 37.5412 626.844 39.7758 626.716 40.2521C626.036 42.7915 627.354 43.9528 627.04 48.4168C626.867 50.87 625.52 53.1234 623.762 55.4917C623.356 56.0396 622.488 55.8258 622.384 55.1511C621.941 52.2923 621.531 49.9352 621.888 48.3937C622.642 45.1302 623.928 44.3245 624.767 41.6985C625.143 40.5216 624.836 39.8385 624.18 40.2172C620.446 42.3731 620.531 45.8581 616.677 48.0832C613.305 50.0304 608.33 50.5953 603.812 52.0035C603.176 52.2032 602.715 51.4056 603.206 50.9524Z" fill="#FFE6E6"/>
<path d="M1773.21 236.508C1776.68 233.298 1779.66 229.272 1783.03 227.325C1786.89 225.1 1789.86 226.915 1793.6 224.76C1794.25 224.381 1793.81 223.773 1792.61 223.51C1789.91 222.924 1788.57 223.634 1785.37 222.657C1783.86 222.195 1782.02 220.661 1779.77 218.848C1779.23 218.421 1779.48 217.562 1780.16 217.484C1783.09 217.146 1785.72 217.105 1787.93 218.183C1791.95 220.143 1792.29 221.865 1794.83 222.546C1795.32 222.677 1799 220.768 1803.09 218.521C1802.94 218.142 1802.34 217.765 1801.37 217.553C1797.7 216.756 1795.88 217.723 1791.52 216.393C1789.3 215.712 1786.55 213.32 1783.12 210.589C1782.69 210.245 1782.89 209.551 1783.43 209.481C1787.82 208.918 1791.74 208.72 1795 210.308C1800.45 212.961 1801.63 216.491 1805.05 217.436C1807.59 216.018 1810.12 214.574 1811.99 213.499C1811.79 213.291 1811.4 213.101 1810.85 212.982C1808.17 212.398 1806.83 213.106 1803.64 212.131C1802.07 211.653 1800.16 210.021 1797.79 208.123C1797.36 207.779 1797.55 207.084 1798.1 207.017C1801.16 206.644 1803.9 206.556 1806.19 207.672C1810 209.528 1810.96 211.968 1813.22 212.79C1814.18 212.233 1814.81 211.864 1814.95 211.786C1816.69 210.778 1817.12 207.101 1817.12 207.101C1817.12 207.101 1820.27 208.717 1822.03 207.7C1822.94 207.171 1823.36 206.459 1823.48 205.835C1823.35 205.119 1822.76 204.5 1822.03 204.079C1820.27 203.063 1817.12 204.679 1817.12 204.679C1817.12 204.679 1816.7 201.001 1814.95 199.994C1814.81 199.915 1814.18 199.547 1813.22 198.991C1810.96 199.813 1810 202.252 1806.19 204.108C1803.9 205.224 1801.16 205.136 1798.1 204.762C1797.55 204.696 1797.36 204.001 1797.79 203.657C1800.16 201.758 1802.07 200.127 1803.64 199.648C1806.83 198.674 1808.17 199.382 1810.85 198.798C1811.4 198.679 1811.78 198.49 1811.98 198.283C1810.11 197.208 1807.58 195.765 1805.03 194.347C1801.63 195.297 1800.44 198.821 1795 201.472C1791.74 203.059 1787.82 202.861 1783.43 202.298C1782.89 202.228 1782.69 201.534 1783.12 201.191C1786.55 198.46 1789.3 196.067 1791.52 195.387C1795.88 194.057 1797.7 195.023 1801.37 194.226C1802.33 194.016 1802.93 193.643 1803.08 193.267C1798.99 191.019 1795.31 189.106 1794.83 189.234C1792.29 189.914 1791.95 191.636 1787.93 193.597C1785.72 194.675 1783.09 194.634 1780.16 194.296C1779.48 194.218 1779.23 193.359 1779.77 192.931C1782.02 191.119 1783.86 189.585 1785.37 189.123C1788.57 188.145 1789.91 188.855 1792.61 188.269C1793.81 188.007 1794.25 187.398 1793.6 187.02C1789.86 184.864 1786.89 186.68 1783.03 184.454C1779.66 182.507 1776.68 178.481 1773.21 175.271C1772.72 174.818 1773.18 174.02 1773.81 174.219C1778.33 175.627 1783.31 176.192 1786.68 178.139C1790.53 180.364 1790.45 183.849 1794.18 186.005C1794.84 186.384 1795.14 185.701 1794.77 184.524C1793.93 181.898 1792.64 181.092 1791.89 177.828C1791.53 176.287 1791.94 173.93 1792.39 171.071C1792.49 170.396 1793.36 170.182 1793.76 170.73C1795.52 173.099 1796.87 175.352 1797.04 177.805C1797.35 182.269 1796.04 183.431 1796.72 185.97C1796.85 186.459 1800.34 188.693 1804.33 191.107C1804.58 190.792 1804.61 190.082 1804.31 189.133C1803.17 185.561 1801.42 184.466 1800.39 180.028C1799.86 177.756 1800.56 174.183 1801.22 169.85C1801.3 169.305 1802 169.125 1802.33 169.563C1805.01 173.085 1807.14 176.381 1807.4 179.996C1807.82 186.039 1805.36 188.829 1806.25 192.261C1808.75 193.754 1811.26 195.222 1813.13 196.304C1813.21 196.027 1813.18 195.598 1813.01 195.064C1812.17 192.446 1810.89 191.643 1810.14 188.391C1809.77 186.794 1810.22 184.321 1810.68 181.32C1810.77 180.775 1811.47 180.595 1811.8 181.035C1813.65 183.499 1815.09 185.826 1815.27 188.368C1815.57 192.595 1813.94 194.651 1814.36 197.017C1815.32 197.572 1815.96 197.936 1816.09 198.014C1817.84 199.021 1821.23 197.549 1821.23 197.549C1821.23 197.549 1821.41 201.083 1823.17 202.1C1824.08 202.629 1824.91 202.632 1825.51 202.427C1826.06 201.954 1826.3 201.132 1826.3 200.289C1826.3 198.256 1823.33 196.338 1823.33 196.338C1823.33 196.338 1826.3 194.132 1826.3 192.118C1826.3 191.961 1826.31 191.227 1826.3 190.114C1824.47 188.572 1821.87 188.955 1818.36 186.585C1816.25 185.159 1814.96 182.745 1813.75 179.908C1813.53 179.401 1814.04 178.886 1814.55 179.086C1817.38 180.188 1819.75 181.03 1820.95 182.148C1823.39 184.426 1823.44 185.937 1825.29 187.971C1825.67 188.384 1826.02 188.623 1826.3 188.693C1826.3 186.534 1826.28 183.619 1826.24 180.705C1823.71 178.229 1820.06 178.962 1815.05 175.577C1812.05 173.55 1810.26 170.057 1808.55 165.971C1808.34 165.464 1808.84 164.95 1809.35 165.151C1813.43 166.753 1816.87 167.934 1818.58 169.525C1821.91 172.633 1821.98 174.695 1824.51 177.469C1825.17 178.201 1825.79 178.534 1826.19 178.477C1826.1 173.811 1825.91 169.663 1825.56 169.314C1823.7 167.455 1822.04 168.016 1818.33 165.512C1816.29 164.136 1815.01 161.842 1813.84 159.136C1813.57 158.51 1814.19 157.865 1814.83 158.112C1817.52 159.158 1819.77 159.982 1820.93 161.061C1823.37 163.347 1823.43 164.863 1825.28 166.903C1826.11 167.817 1826.86 167.892 1826.86 167.135C1826.86 162.823 1823.8 161.154 1823.8 156.703C1823.8 152.809 1825.8 148.218 1826.84 143.6C1826.98 142.948 1827.91 142.948 1828.05 143.6C1829.09 148.218 1831.09 152.81 1831.09 156.703C1831.09 161.153 1828.03 162.822 1828.03 167.135C1828.03 167.892 1828.78 167.817 1829.61 166.903C1831.46 164.863 1831.52 163.346 1833.96 161.061C1835.12 159.982 1837.37 159.158 1840.06 158.112C1840.7 157.865 1841.32 158.51 1841.05 159.136C1839.88 161.842 1838.6 164.136 1836.56 165.512C1832.85 168.016 1831.19 167.455 1829.33 169.314C1828.97 169.673 1828.78 173.815 1828.69 178.476C1829.09 178.539 1829.71 178.207 1830.38 177.469C1832.91 174.695 1832.98 172.633 1836.31 169.525C1838.01 167.934 1841.46 166.753 1845.54 165.151C1846.05 164.95 1846.55 165.464 1846.34 165.971C1844.63 170.057 1842.84 173.55 1839.84 175.578C1834.82 178.967 1831.17 178.228 1828.65 180.714C1828.6 183.626 1828.59 186.538 1828.59 188.695C1828.86 188.626 1829.22 188.386 1829.6 187.972C1831.45 185.938 1831.5 184.427 1833.94 182.149C1835.14 181.031 1837.51 180.189 1840.34 179.087C1840.85 178.887 1841.36 179.401 1841.14 179.908C1839.93 182.746 1838.64 185.16 1836.53 186.586C1833.02 188.956 1830.42 188.572 1828.58 190.116C1828.58 191.229 1828.59 191.962 1828.59 192.119C1828.59 194.133 1831.56 196.339 1831.56 196.339C1831.56 196.339 1828.59 198.258 1828.59 200.29C1828.59 201.349 1829 202.064 1829.47 202.483C1830.16 202.727 1830.99 202.522 1831.72 202.101C1833.48 201.084 1833.66 197.55 1833.66 197.55C1833.66 197.55 1837.05 199.022 1838.8 198.015C1838.93 197.937 1839.57 197.572 1840.53 197.016C1840.95 194.651 1839.32 192.595 1839.62 188.369C1839.79 185.827 1841.24 183.5 1843.09 181.036C1843.42 180.596 1844.12 180.776 1844.21 181.321C1844.66 184.322 1845.12 186.795 1844.75 188.392C1844 191.644 1842.72 192.448 1841.88 195.065C1841.71 195.597 1841.68 196.025 1841.76 196.302C1843.63 195.218 1846.14 193.746 1848.65 192.25C1849.53 188.824 1847.07 186.033 1847.49 179.997C1847.75 176.382 1849.88 173.086 1852.56 169.564C1852.89 169.126 1853.59 169.306 1853.67 169.851C1854.33 174.183 1855.02 177.757 1854.5 180.029C1853.47 184.467 1851.72 185.562 1850.58 189.134C1850.28 190.076 1850.3 190.782 1850.55 191.101C1854.55 188.682 1858.04 186.448 1858.17 185.971C1858.85 183.432 1857.53 182.271 1857.85 177.807C1858.02 175.354 1859.37 173.1 1861.13 170.732C1861.53 170.184 1862.4 170.398 1862.5 171.072C1862.95 173.931 1863.36 176.288 1863 177.83C1862.25 181.093 1860.96 181.899 1860.12 184.526C1859.74 185.702 1860.05 186.385 1860.71 186.007C1864.44 183.851 1864.36 180.366 1868.21 178.141C1871.58 176.194 1876.56 175.629 1881.08 174.22C1881.71 174.022 1882.17 174.819 1881.68 175.273C1878.2 178.482 1875.23 182.508 1871.86 184.455C1868 186.68 1865.03 184.865 1861.29 187.021C1860.64 187.399 1861.08 188.008 1862.28 188.271C1864.98 188.857 1866.32 188.146 1869.52 189.124C1871.03 189.585 1872.87 191.12 1875.12 192.932C1875.65 193.36 1875.41 194.219 1874.73 194.297C1871.8 194.635 1869.17 194.676 1866.96 193.598C1862.94 191.638 1862.59 189.916 1860.06 189.235C1859.57 189.103 1855.88 191.013 1851.8 193.259C1851.95 193.639 1852.55 194.015 1853.52 194.227C1857.18 195.025 1859.01 194.058 1863.36 195.388C1865.59 196.069 1868.34 198.462 1871.76 201.192C1872.19 201.535 1872 202.23 1871.46 202.3C1867.07 202.863 1863.15 203.061 1859.89 201.473C1854.44 198.82 1853.26 195.29 1849.84 194.344C1847.3 195.763 1844.77 197.206 1842.9 198.282C1843.1 198.489 1843.49 198.68 1844.04 198.798C1846.72 199.383 1848.06 198.674 1851.25 199.649C1852.82 200.127 1854.73 201.759 1857.1 203.657C1857.53 204.002 1857.33 204.696 1856.79 204.763C1853.73 205.136 1850.99 205.224 1848.7 204.108C1844.89 202.252 1843.93 199.812 1841.67 198.991C1840.71 199.547 1840.07 199.916 1839.94 199.994C1838.19 201.001 1837.77 204.679 1837.77 204.679C1837.77 204.679 1834.62 203.063 1832.86 204.08C1831.95 204.609 1831.53 205.321 1831.41 205.944C1831.54 206.661 1832.13 207.279 1832.86 207.7C1834.62 208.717 1837.77 207.101 1837.77 207.101C1837.77 207.101 1838.19 210.779 1839.94 211.786C1840.07 211.864 1840.71 212.233 1841.67 212.789C1843.93 211.967 1844.89 209.528 1848.7 207.672C1850.99 206.556 1853.73 206.644 1856.79 207.017C1857.34 207.084 1857.53 207.779 1857.1 208.123C1854.73 210.021 1852.82 211.653 1851.25 212.131C1848.06 213.106 1846.72 212.398 1844.04 212.982C1843.49 213.101 1843.1 213.29 1842.9 213.497C1844.78 214.572 1847.31 216.015 1849.86 217.433C1853.26 216.483 1854.45 212.959 1859.89 210.309C1863.15 208.721 1867.07 208.919 1871.46 209.482C1872 209.552 1872.2 210.246 1871.76 210.589C1868.34 213.32 1865.59 215.713 1863.36 216.393C1859.01 217.723 1857.19 216.757 1853.52 217.554C1852.56 217.764 1851.96 218.137 1851.8 218.513C1855.9 220.761 1859.58 222.674 1860.06 222.546C1862.6 221.866 1862.94 220.144 1866.96 218.183C1869.17 217.106 1871.8 217.147 1874.73 217.484C1875.41 217.563 1875.65 218.421 1875.12 218.849C1872.87 220.661 1871.03 222.195 1869.52 222.657C1866.32 223.635 1864.98 222.924 1862.28 223.511C1861.08 223.773 1860.64 224.381 1861.29 224.76C1865.03 226.916 1868 225.101 1871.86 227.326C1875.23 229.273 1878.2 233.299 1881.68 236.509C1882.17 236.962 1881.71 237.759 1881.08 237.561C1876.56 236.152 1871.58 235.587 1868.21 233.64C1864.36 231.415 1864.44 227.93 1860.71 225.774C1860.05 225.396 1859.74 226.079 1860.12 227.256C1860.96 229.882 1862.25 230.687 1863 233.951C1863.36 235.492 1862.95 237.849 1862.5 240.708C1862.4 241.382 1861.53 241.597 1861.13 241.049C1859.37 238.68 1858.02 236.427 1857.85 233.974C1857.53 229.51 1858.85 228.349 1858.17 225.809C1858.04 225.319 1854.55 223.086 1850.56 220.672C1850.31 220.987 1850.28 221.697 1850.58 222.646C1851.72 226.218 1853.47 227.313 1854.5 231.752C1855.02 234.023 1854.33 237.596 1853.67 241.929C1853.59 242.474 1852.89 242.654 1852.56 242.216C1849.88 238.694 1847.75 235.399 1847.49 231.783C1847.07 225.74 1849.53 222.95 1848.64 219.519C1846.14 218.025 1843.63 216.557 1841.76 215.475C1841.68 215.752 1841.71 216.182 1841.88 216.715C1842.72 219.333 1844 220.136 1844.75 223.389C1845.12 224.985 1844.66 227.459 1844.21 230.46C1844.12 231.004 1843.42 231.184 1843.09 230.744C1841.24 228.28 1839.79 225.954 1839.62 223.412C1839.32 219.185 1840.95 217.128 1840.53 214.763C1839.57 214.207 1838.93 213.843 1838.8 213.765C1837.05 212.758 1833.66 214.23 1833.66 214.23C1833.66 214.23 1833.48 210.696 1831.72 209.68C1830.8 209.151 1829.98 209.148 1829.38 209.352C1828.82 209.825 1828.59 210.648 1828.59 211.49C1828.59 213.523 1831.56 215.441 1831.56 215.441C1831.56 215.441 1828.59 217.647 1828.59 219.661C1828.59 219.818 1828.58 220.552 1828.59 221.665C1830.42 223.207 1833.02 222.824 1836.53 225.194C1838.64 226.62 1839.93 229.034 1841.14 231.871C1841.36 232.378 1840.85 232.893 1840.34 232.693C1837.51 231.59 1835.14 230.749 1833.94 229.631C1831.5 227.353 1831.45 225.841 1829.6 223.808C1829.22 223.395 1828.87 223.155 1828.59 223.086C1828.59 225.245 1828.61 228.16 1828.65 231.074C1831.18 233.549 1834.83 232.816 1839.84 236.201C1842.84 238.229 1844.63 241.722 1846.34 245.807C1846.55 246.316 1846.05 246.83 1845.54 246.628C1841.46 245.026 1838.01 243.845 1836.31 242.254C1832.98 239.145 1832.91 237.084 1830.38 234.309C1829.72 233.578 1829.1 233.245 1828.69 233.302C1828.79 237.968 1828.98 242.115 1829.33 242.465C1831.19 244.324 1832.85 243.763 1836.56 246.267C1838.6 247.642 1839.87 249.936 1841.05 252.643C1841.32 253.269 1840.7 253.913 1840.06 253.667C1837.37 252.62 1835.12 251.797 1833.96 250.717C1831.51 248.431 1831.46 246.915 1829.61 244.875C1828.77 243.961 1828.03 243.886 1828.03 244.644C1828.03 248.955 1831.09 250.625 1831.09 255.075C1831.09 258.969 1829.09 263.56 1828.05 268.178C1827.9 268.83 1826.98 268.83 1826.84 268.178C1825.8 263.56 1823.8 258.969 1823.8 255.075C1823.8 250.625 1826.86 248.956 1826.86 244.644C1826.86 243.886 1826.11 243.961 1825.28 244.875C1823.43 246.915 1823.37 248.432 1820.92 250.717C1819.77 251.797 1817.52 252.62 1814.82 253.667C1814.19 253.913 1813.57 253.269 1813.84 252.643C1815.01 249.936 1816.29 247.642 1818.33 246.267C1822.04 243.763 1823.7 244.324 1825.56 242.465C1825.92 242.106 1826.11 237.963 1826.2 233.303C1825.8 233.239 1825.17 233.572 1824.5 234.309C1821.98 237.084 1821.91 239.145 1818.58 242.254C1816.87 243.844 1813.43 245.026 1809.35 246.628C1808.84 246.829 1808.33 246.315 1808.55 245.807C1810.26 241.722 1812.04 238.229 1815.05 236.201C1820.07 232.813 1823.72 233.551 1826.24 231.065C1826.28 228.153 1826.3 225.241 1826.3 223.085C1826.02 223.153 1825.67 223.393 1825.29 223.807C1823.44 225.841 1823.39 227.352 1820.95 229.63C1819.75 230.748 1817.38 231.59 1814.55 232.692C1814.04 232.893 1813.53 232.378 1813.75 231.871C1814.95 229.033 1816.25 226.619 1818.36 225.193C1821.87 222.823 1824.46 223.207 1826.3 221.663C1826.3 220.55 1826.3 219.817 1826.3 219.66C1826.3 217.646 1823.33 215.441 1823.33 215.441C1823.33 215.441 1826.3 213.522 1826.3 211.489C1826.3 210.431 1825.89 209.716 1825.41 209.297C1824.73 209.053 1823.9 209.257 1823.17 209.679C1821.41 210.695 1821.23 214.229 1821.23 214.229C1821.23 214.229 1817.84 212.757 1816.09 213.764C1815.96 213.842 1815.32 214.207 1814.36 214.764C1813.94 217.129 1815.57 219.185 1815.27 223.411C1815.09 225.953 1813.65 228.279 1811.8 230.743C1811.46 231.183 1810.77 231.003 1810.68 230.459C1810.22 227.458 1809.77 224.984 1810.14 223.388C1810.89 220.135 1812.17 219.332 1813.01 216.715C1813.18 216.183 1813.21 215.754 1813.13 215.477C1811.26 216.561 1808.74 218.033 1806.24 219.529C1805.36 222.955 1807.82 225.747 1807.4 231.782C1807.14 235.397 1805.01 238.693 1802.33 242.215C1801.99 242.653 1801.3 242.473 1801.21 241.928C1800.56 237.596 1799.86 234.022 1800.39 231.751C1801.42 227.312 1803.16 226.217 1804.31 222.645C1804.61 221.703 1804.58 220.997 1804.33 220.678C1800.34 223.097 1796.84 225.331 1796.72 225.808C1796.04 228.347 1797.35 229.508 1797.04 233.972C1796.87 236.426 1795.52 238.679 1793.76 241.047C1793.36 241.595 1792.49 241.381 1792.38 240.707C1791.94 237.848 1791.53 235.491 1791.89 233.949C1792.64 230.686 1793.93 229.88 1794.77 227.254C1795.14 226.077 1794.84 225.394 1794.18 225.773C1790.45 227.929 1790.53 231.414 1786.68 233.639C1783.3 235.586 1778.33 236.151 1773.81 237.559C1773.18 237.759 1772.72 236.961 1773.21 236.508Z" fill="#FFE6E6"/>
<path d="M1612.98 80.3303C1613.02 80.0015 1613.47 79.7882 1613.73 79.97C1617.01 82.2049 1626.37 86.4114 1632.5 82.9078C1636.12 80.8416 1636.94 78.9158 1637.07 77.5413L1637.06 77.5417C1637.07 77.3784 1637.09 77.1973 1637.09 76.9999C1637.09 76.8025 1637.07 76.6214 1637.06 76.4582L1637.07 76.4585C1636.94 75.0837 1636.12 73.1582 1632.5 71.0921C1626.37 67.5888 1617.01 71.7949 1613.73 74.0299C1613.47 74.2117 1613.02 73.9983 1612.98 73.6695C1612.39 69.0746 1611.97 61.8242 1603.15 52.8008C1602.98 52.6257 1602.96 52.4223 1603.05 52.2776C1603.13 52.1329 1603.32 52.0468 1603.56 52.1058C1615.87 55.1464 1622.43 51.8858 1626.74 50.0905C1627.05 49.9621 1627.46 50.2349 1627.43 50.554C1627.11 54.4777 1628.11 64.5976 1634.24 68.1009C1637.86 70.167 1639.96 69.9058 1641.23 69.3321L1641.22 69.325C1641.37 69.256 1641.54 69.1766 1641.71 69.0805C1641.88 68.9792 1642.03 68.8775 1642.17 68.7833L1642.17 68.7911C1643.31 67.9899 1644.59 66.3253 1644.59 62.1934C1644.59 55.1864 1636.23 49.273 1632.63 47.5843C1632.34 47.447 1632.31 46.9609 1632.57 46.7605C1636.3 43.9608 1642.44 39.971 1645.93 27.9071C1646 27.6729 1646.16 27.5557 1646.33 27.5557C1646.5 27.5557 1646.67 27.6729 1646.74 27.9071C1650.23 39.971 1656.36 43.9608 1660.09 46.7605C1660.36 46.9609 1660.33 47.447 1660.03 47.5843C1656.44 49.273 1648.08 55.1864 1648.08 62.1934C1648.08 66.3257 1649.36 67.9899 1650.49 68.7911L1650.5 68.7833C1650.63 68.8775 1650.78 68.9792 1650.95 69.0805C1651.13 69.1766 1651.29 69.256 1651.44 69.325L1651.44 69.3321C1652.71 69.9058 1654.8 70.167 1658.42 68.1009C1664.56 64.5972 1665.55 54.4777 1665.23 50.554C1665.21 50.2352 1665.62 49.9621 1665.92 50.0905C1670.24 51.8858 1676.8 55.1464 1689.11 52.1058C1689.35 52.0468 1689.53 52.1329 1689.62 52.2776C1689.7 52.4223 1689.68 52.6257 1689.51 52.8008C1680.7 61.8242 1680.27 69.0742 1679.69 73.6695C1679.64 73.9983 1679.2 74.2117 1678.93 74.0299C1675.66 71.7949 1666.3 67.5884 1660.17 71.0921C1656.55 73.1582 1655.73 75.0841 1655.6 76.4585L1655.61 76.4582C1655.59 76.6214 1655.58 76.8025 1655.58 76.9999C1655.58 77.1973 1655.59 77.3784 1655.61 77.5417L1655.6 77.5413C1655.73 78.9161 1656.55 80.8416 1660.17 82.9078C1666.3 86.4111 1675.66 82.2049 1678.93 79.97C1679.2 79.7882 1679.64 80.0015 1679.69 80.3303C1680.27 84.9253 1680.7 92.1757 1689.51 101.199C1689.68 101.374 1689.7 101.578 1689.62 101.722C1689.53 101.867 1689.35 101.953 1689.11 101.894C1676.8 98.8535 1670.24 102.114 1665.92 103.909C1665.62 104.038 1665.21 103.765 1665.23 103.446C1665.55 99.5221 1664.56 89.4023 1658.42 85.899C1654.8 83.8328 1652.71 84.0941 1651.44 84.6678L1651.44 84.6748C1651.29 84.7438 1651.13 84.8232 1650.95 84.9193C1650.78 85.0203 1650.63 85.1223 1650.5 85.2166L1650.49 85.2088C1649.36 86.0099 1648.08 87.6746 1648.08 91.8068C1648.08 98.8138 1656.44 104.727 1660.03 106.416C1660.33 106.553 1660.36 107.039 1660.09 107.24C1656.36 110.039 1650.23 114.029 1646.74 126.093C1646.67 126.327 1646.5 126.445 1646.33 126.445C1646.16 126.445 1646 126.327 1645.93 126.093C1642.44 114.029 1636.3 110.039 1632.57 107.24C1632.31 107.039 1632.34 106.553 1632.63 106.416C1636.23 104.727 1644.59 98.8138 1644.59 91.8068C1644.59 87.6746 1643.31 86.0099 1642.17 85.2088L1642.17 85.2166C1642.03 85.1223 1641.88 85.0203 1641.71 84.9193C1641.54 84.8232 1641.37 84.7438 1641.22 84.6748L1641.23 84.6678C1639.96 84.0941 1637.86 83.8328 1634.24 85.899C1628.11 89.4026 1627.11 99.5221 1627.43 103.446C1627.46 103.765 1627.05 104.038 1626.74 103.909C1622.43 102.114 1615.87 98.8535 1603.56 101.894C1603.32 101.953 1603.13 101.867 1603.05 101.722C1602.96 101.578 1602.98 101.374 1603.15 101.199C1611.97 92.1757 1612.39 84.9253 1612.98 80.3303ZM1622.6 57.175C1620.21 57.87 1617.37 58.4233 1613.96 58.5072C1615.59 61.4728 1616.53 64.1879 1617.11 66.5746C1619.41 65.6993 1622.06 64.9657 1624.8 64.6996C1623.66 62.222 1622.98 59.5851 1622.6 57.175ZM1675.56 66.5746C1676.14 64.1879 1677.08 61.4728 1678.71 58.5072C1675.3 58.4229 1672.45 57.87 1670.07 57.175C1669.69 59.5851 1669 62.2223 1667.87 64.6996C1670.61 64.9657 1673.26 65.6997 1675.56 66.5746ZM1670.07 96.8248C1672.45 96.1298 1675.3 95.5765 1678.71 95.4927C1677.08 92.5271 1676.14 89.8119 1675.56 87.4252C1673.26 88.3006 1670.61 89.0342 1667.87 89.3002C1669 91.7775 1669.69 94.4143 1670.07 96.8248ZM1651.82 46.7497C1650.02 45.058 1648.11 42.8958 1646.33 40.0144C1644.55 42.8958 1642.65 45.058 1640.85 46.7497C1642.77 48.2849 1644.73 50.1881 1646.33 52.3993C1647.94 50.1881 1649.9 48.2849 1651.82 46.7497ZM1640.85 107.25C1642.65 108.941 1644.55 111.104 1646.33 113.985C1648.11 111.104 1650.02 108.941 1651.82 107.25C1649.9 105.715 1647.93 103.811 1646.33 101.6C1644.73 103.811 1642.77 105.715 1640.85 107.25ZM1646.33 81.8205C1649.03 81.8205 1651.21 79.6624 1651.21 76.9999C1651.21 74.3375 1649.03 72.1793 1646.33 72.1793C1643.64 72.1793 1641.46 74.3375 1641.46 76.9999C1641.46 79.6624 1643.64 81.8205 1646.33 81.8205ZM1622.6 96.8248C1622.98 94.4147 1623.66 91.7775 1624.8 89.3002C1622.06 89.0342 1619.41 88.3002 1617.11 87.4252C1616.53 89.8119 1615.59 92.5274 1613.96 95.4927C1617.37 95.5765 1620.21 96.1298 1622.6 96.8248Z" fill="#FFE6E6"/>
<path d="M341.87 33.6633C341.912 33.3345 342.355 33.1212 342.622 33.303C345.897 35.538 355.255 39.7444 361.389 36.2408C365.006 34.1746 365.825 32.2488 365.958 30.8743L365.949 30.8747C365.964 30.7114 365.977 30.5303 365.98 30.3329C365.977 30.1355 365.964 29.9544 365.949 29.7912L365.958 29.7915C365.825 28.4167 365.006 26.4912 361.389 24.4251C355.255 20.9218 345.897 25.1279 342.622 27.3629C342.355 27.5447 341.912 27.3313 341.87 27.0026C341.284 22.4076 340.858 15.1572 332.043 6.13383C331.872 5.95868 331.854 5.75533 331.938 5.61062C332.022 5.4659 332.21 5.37981 332.449 5.43881C344.755 8.47938 351.315 5.21876 355.631 3.42352C355.939 3.29513 356.348 3.56786 356.322 3.88699C356.003 7.8107 356.999 17.9306 363.133 21.4339C366.751 23.5 368.846 23.2388 370.116 22.6651L370.111 22.658C370.261 22.589 370.427 22.5096 370.601 22.4135C370.772 22.3122 370.924 22.2105 371.06 22.1163L371.063 22.1241C372.2 21.3229 373.477 19.6583 373.477 15.5264C373.477 8.51945 365.116 2.60604 361.522 0.917293C361.229 0.779997 361.195 0.293895 361.462 0.0935155C365.191 -2.70622 371.325 -6.69599 374.817 -18.7599C374.885 -18.9941 375.054 -19.1113 375.223 -19.1113C375.391 -19.1113 375.56 -18.9941 375.628 -18.7599C379.119 -6.69599 385.254 -2.70622 388.983 0.0935155C389.25 0.293895 389.216 0.779997 388.923 0.917293C385.329 2.60604 376.968 8.51945 376.968 15.5264C376.968 19.6587 378.245 21.3229 379.382 22.1241L379.385 22.1163C379.521 22.2105 379.673 22.3122 379.844 22.4135C380.018 22.5096 380.183 22.589 380.334 22.658L380.329 22.6651C381.598 23.2388 383.694 23.5 387.311 21.4339C393.445 17.9302 394.441 7.8107 394.123 3.88699C394.097 3.56824 394.505 3.29513 394.814 3.42352C399.13 5.21876 405.69 8.47938 417.996 5.43881C418.235 5.37981 418.422 5.4659 418.507 5.61062C418.591 5.75533 418.573 5.95868 418.402 6.13383C409.586 15.1572 409.161 22.4072 408.574 27.0026C408.532 27.3313 408.089 27.5447 407.823 27.3629C404.548 25.1279 395.19 20.9214 389.056 24.4251C385.439 26.4912 384.62 28.4171 384.487 29.7915L384.496 29.7912C384.481 29.9544 384.468 30.1355 384.465 30.3329C384.468 30.5303 384.481 30.7114 384.496 30.8747L384.487 30.8743C384.62 32.2491 385.439 34.1746 389.056 36.2408C395.19 39.7441 404.547 35.538 407.823 33.303C408.089 33.1212 408.532 33.3345 408.574 33.6633C409.161 38.2583 409.586 45.5087 418.402 54.532C418.573 54.7072 418.591 54.9105 418.507 55.0552C418.422 55.2 418.235 55.2861 417.996 55.2271C405.69 52.1865 399.129 55.4471 394.814 57.2423C394.505 57.3707 394.097 57.098 394.123 56.7789C394.441 52.8552 393.445 42.7353 387.311 39.232C383.694 37.1658 381.598 37.4271 380.329 38.0008L380.334 38.0078C380.183 38.0768 380.018 38.1562 379.844 38.2523C379.673 38.3533 379.521 38.4553 379.385 38.5496L379.382 38.5418C378.245 39.3429 376.968 41.0076 376.968 45.1398C376.968 52.1468 385.329 58.0602 388.923 59.7489C389.216 59.8862 389.25 60.3723 388.983 60.5727C385.254 63.3725 379.119 67.3622 375.628 79.4262C375.56 79.6603 375.391 79.7776 375.223 79.7776C375.054 79.7776 374.885 79.6603 374.817 79.4262C371.326 67.3622 365.191 63.3725 361.462 60.5727C361.195 60.3723 361.229 59.8862 361.522 59.7489C365.116 58.0602 373.477 52.1468 373.477 45.1398C373.477 41.0076 372.2 39.3429 371.063 38.5418L371.06 38.5496C370.924 38.4553 370.772 38.3533 370.601 38.2523C370.427 38.1562 370.261 38.0768 370.111 38.0078L370.116 38.0008C368.846 37.4271 366.751 37.1658 363.133 39.232C356.999 42.7356 356.003 52.8552 356.322 56.7789C356.348 57.0976 355.939 57.3707 355.631 57.2423C351.315 55.4471 344.755 52.1865 332.449 55.2271C332.21 55.2861 332.022 55.2 331.938 55.0552C331.854 54.9105 331.872 54.7072 332.043 54.532C340.858 45.5087 341.284 38.2583 341.87 33.6633ZM351.484 10.508C349.104 11.203 346.257 11.7563 342.845 11.8402C344.478 14.8058 345.417 17.5209 345.999 19.9077C348.301 19.0323 350.951 18.2987 353.687 18.0326C352.552 15.555 351.87 12.9181 351.484 10.508ZM404.447 19.9077C405.029 17.5209 405.968 14.8058 407.601 11.8402C404.188 11.7559 401.342 11.203 398.961 10.508C398.576 12.9181 397.894 15.5554 396.758 18.0326C399.495 18.2987 402.145 19.0327 404.447 19.9077ZM398.961 50.1578C401.342 49.4628 404.188 48.9095 407.601 48.8257C405.968 45.8601 405.029 43.1449 404.447 40.7582C402.145 41.6336 399.495 42.3672 396.758 42.6332C397.894 45.1105 398.576 47.7473 398.961 50.1578ZM380.709 0.0827519C378.91 -1.60897 377.003 -3.7712 375.223 -6.65258C373.443 -3.7712 371.536 -1.60897 369.737 0.0827519C371.655 1.61788 373.622 3.52111 375.223 5.73233C376.824 3.52111 378.791 1.61788 380.709 0.0827519ZM369.737 60.5827C371.536 62.2745 373.443 64.4367 375.223 67.3181C377.003 64.4367 378.91 62.2745 380.709 60.5827C378.791 59.0476 376.824 57.1444 375.223 54.9332C373.622 57.1444 371.654 59.0476 369.737 60.5827ZM375.223 35.1535C377.914 35.1535 380.096 32.9954 380.096 30.3329C380.096 27.6705 377.914 25.5123 375.223 25.5123C372.532 25.5123 370.35 27.6705 370.35 30.3329C370.35 32.9954 372.532 35.1535 375.223 35.1535ZM351.484 50.1578C351.87 47.7477 352.552 45.1105 353.687 42.6332C350.951 42.3672 348.301 41.6332 345.999 40.7582C345.417 43.1449 344.478 45.8604 342.845 48.8257C346.257 48.9095 349.104 49.4628 351.484 50.1578Z" fill="#FFE6E6"/>
<path d="M53.679 162.943C70.8275 162.943 85.9278 155.58 87.7369 154.636C89.7034 155.659 101.659 162.108 102.682 162.108C103.704 162.108 106.064 160.063 106.064 160.063C106.064 160.063 108.659 162.108 109.997 162.108C110.674 162.108 113.291 161.952 115.708 161.797C114.109 159.978 112.369 158.017 111.89 157.538C110.944 156.592 107.663 156.203 107.663 156.203C107.663 156.203 107.44 153.088 106.717 152.365C105.994 151.642 92.9795 147.749 90.8657 147.082C90.2538 145.135 84.7827 129.25 72.6573 117.124C72.3511 116.818 72.4333 116.389 72.6891 116.134C72.9448 115.878 73.3737 115.796 73.6799 116.102C85.8057 128.228 101.69 133.699 103.637 134.31C104.304 136.424 108.197 149.439 108.921 150.162C109.644 150.885 112.758 151.107 112.758 151.107C112.758 151.107 113.148 154.389 114.093 155.334C114.573 155.813 116.534 157.552 118.352 159.152C118.507 156.735 118.664 154.118 118.664 153.441C118.664 152.103 116.619 149.508 116.619 149.508C116.619 149.508 118.664 147.148 118.664 146.126C118.664 145.103 112.214 133.147 111.192 131.181C112.135 129.372 119.499 114.271 119.499 97.1229C119.499 96.6895 119.86 96.4443 120.222 96.4443C120.584 96.4443 120.945 96.6895 120.945 97.1229C120.945 114.272 128.309 129.372 129.253 131.181C128.23 133.148 121.78 145.104 121.78 146.126C121.78 147.148 123.825 149.508 123.825 149.508C123.825 149.508 121.78 152.103 121.78 153.441C121.78 154.118 121.937 156.735 122.092 159.152C123.91 157.552 125.872 155.813 126.351 155.334C127.296 154.389 127.686 151.107 127.686 151.107C127.686 151.107 130.8 150.885 131.523 150.162C132.246 149.439 136.14 136.424 136.807 134.31C138.754 133.699 154.639 128.227 166.764 116.102C167.071 115.796 167.5 115.878 167.755 116.134C168.011 116.389 168.093 116.818 167.787 117.124C155.661 129.25 150.19 145.135 149.579 147.082C147.465 147.749 134.45 151.642 133.728 152.365C133.005 153.088 132.782 156.203 132.782 156.203C132.782 156.203 129.5 156.592 128.555 157.538C128.076 158.017 126.337 159.978 124.738 161.797C127.154 161.952 129.771 162.108 130.448 162.108C131.786 162.108 134.381 160.063 134.381 160.063C134.381 160.063 136.741 162.108 137.763 162.108C138.786 162.108 150.742 155.659 152.708 154.636C154.517 155.58 169.618 162.943 186.766 162.943C187.199 162.943 187.444 163.305 187.444 163.667C187.444 164.029 187.199 164.39 186.766 164.39C169.617 164.39 154.517 171.753 152.708 172.697C150.741 171.675 138.786 165.225 137.763 165.225C136.741 165.225 134.381 167.27 134.381 167.27C134.381 167.27 131.786 165.225 130.448 165.225C129.771 165.225 127.154 165.382 124.738 165.536C126.337 167.355 128.076 169.316 128.555 169.795C129.5 170.741 132.782 171.13 132.782 171.13C132.782 171.13 133.005 174.245 133.728 174.968C134.45 175.691 147.465 179.584 149.579 180.251C150.19 182.198 155.662 198.083 167.787 210.209C168.093 210.515 168.011 210.944 167.755 211.2C167.499 211.455 167.071 211.538 166.764 211.231C154.639 199.105 138.754 193.634 136.807 193.023C136.14 190.909 132.247 177.894 131.523 177.172C130.8 176.449 127.686 176.226 127.686 176.226C127.686 176.226 127.296 172.944 126.351 171.999C125.872 171.52 123.911 169.781 122.092 168.181C121.937 170.598 121.78 173.214 121.78 173.892C121.78 175.229 123.825 177.825 123.825 177.825C123.825 177.825 121.78 180.184 121.78 181.207C121.78 182.23 128.23 194.186 129.253 196.152C128.309 197.961 120.945 213.062 120.945 230.21C120.945 230.644 120.584 230.889 120.222 230.889C119.86 230.889 119.499 230.644 119.499 230.21C119.499 213.062 112.135 197.961 111.192 196.152C112.214 194.186 118.664 182.23 118.664 181.207C118.664 180.184 116.619 177.825 116.619 177.825C116.619 177.825 118.664 175.229 118.664 173.892C118.664 173.214 118.507 170.598 118.352 168.181C116.534 169.78 114.573 171.52 114.093 171.998C113.148 172.944 112.758 176.226 112.758 176.226C112.758 176.226 109.644 176.448 108.921 177.171C108.198 177.894 104.304 190.909 103.637 193.022C101.69 193.634 85.8057 199.105 73.6799 211.231C73.3737 211.537 72.9443 211.455 72.6885 211.199C72.4327 210.943 72.3505 210.514 72.6567 210.208C84.7826 198.082 90.2538 182.198 90.8652 180.251C92.9785 179.584 105.993 175.69 106.717 174.967C107.44 174.244 107.662 171.13 107.662 171.13C107.662 171.13 110.944 170.74 111.889 169.795C112.369 169.316 114.108 167.355 115.707 165.536C113.291 165.381 110.674 165.224 109.996 165.224C108.659 165.224 106.063 167.269 106.063 167.269C106.063 167.269 103.704 165.224 102.681 165.224C101.659 165.224 89.7029 171.674 87.7364 172.697C85.9273 171.753 70.8265 164.389 53.6784 164.389C53.2451 164.389 52.9999 164.028 52.9999 163.666C53.0004 163.305 53.2456 162.943 53.679 162.943ZM100.082 137.729C97.7954 136.875 93.9648 135.306 89.4774 132.922C91.8621 137.409 93.4306 141.24 94.2852 143.526C97.9301 144.645 100.665 145.503 102.732 146.177C102.059 144.109 101.201 141.374 100.082 137.729ZM146.159 143.526C147.014 141.24 148.582 137.409 150.967 132.922C146.479 135.306 142.649 136.875 140.363 137.729C139.244 141.374 138.385 144.109 137.712 146.177C139.779 145.503 142.514 144.645 146.159 143.526ZM152.804 167.765C155.025 166.753 158.842 165.153 163.702 163.666C158.842 162.18 155.025 160.58 152.804 159.567C149.435 161.354 146.895 162.681 144.956 163.666C146.895 164.652 149.435 165.979 152.804 167.765ZM140.363 189.604C142.649 190.458 146.479 192.027 150.967 194.412C148.582 189.924 147.014 186.093 146.159 183.807C142.514 182.688 139.779 181.83 137.712 181.157C138.385 183.224 139.244 185.959 140.363 189.604ZM94.2852 183.807C93.4306 186.093 91.8621 189.924 89.4774 194.412C93.9648 192.027 97.7954 190.458 100.082 189.604C101.201 185.959 102.059 183.224 102.732 181.157C100.665 181.83 97.9301 182.688 94.2852 183.807ZM124.321 131.084C123.308 128.863 121.709 125.045 120.222 120.186C118.735 125.045 117.135 128.863 116.123 131.084C117.909 134.453 119.236 136.993 120.222 138.932C121.208 136.993 122.534 134.453 124.321 131.084ZM116.123 196.248C117.136 198.47 118.736 202.287 120.222 207.146C121.709 202.287 123.309 198.47 124.321 196.248C122.534 192.88 121.208 190.339 120.222 188.401C119.237 190.339 117.91 192.88 116.123 196.248ZM120.222 166.06C121.544 166.06 122.616 164.988 122.616 163.666C122.616 162.345 121.544 161.273 120.222 161.273C118.901 161.273 117.829 162.345 117.829 163.666C117.829 164.988 118.901 166.06 120.222 166.06ZM87.6406 167.765C91.009 165.979 93.5496 164.652 95.4878 163.666C93.5496 162.681 91.009 161.354 87.6406 159.567C85.4193 160.58 81.6018 162.18 76.7426 163.666C81.6018 165.153 85.4193 166.753 87.6406 167.765Z" fill="#FFE6E6"/>
<line y1="-1.66667" x2="181.111" y2="-1.66667" transform="matrix(4.37114e-08 1 1 -4.37114e-08 1453 -132.444)" stroke="#FFE6E6" stroke-width="3.33333"/>
<line y1="-1.66667" x2="181.111" y2="-1.66667" transform="matrix(4.37114e-08 1 1 -4.37114e-08 228.556 -71.3335)" stroke="#FFE6E6" stroke-width="3.33333"/>
<line y1="-1.66667" x2="181.111" y2="-1.66667" transform="matrix(4.37114e-08 1 1 -4.37114e-08 1073 -176.889)" stroke="#FFE6E6" stroke-width="3.33333"/>
<line y1="-1.66667" x2="181.111" y2="-1.66667" transform="matrix(4.37114e-08 1 1 -4.37114e-08 506.333 -88)" stroke="#FFE6E6" stroke-width="3.33333"/>
<line y1="-1.66667" x2="181.111" y2="-1.66667" transform="matrix(4.37114e-08 1 1 -4.37114e-08 776.333 -82.4443)" stroke="#FFE6E6" stroke-width="3.33333"/>
<path d="M1446.89 75.9232V74.7435L1435.2 72.9724L1418.56 56.9997L1440.91 63.216L1448.31 72.3059L1449.35 71.7162L1445.06 60.8552L1450.78 38.6665L1456.49 60.8552L1452.21 71.7162L1453.24 72.3059L1460.64 63.216L1483 56.9997L1466.36 72.9724L1454.67 74.7435V75.9232L1466.36 77.6942L1483 93.6666L1460.64 87.4504L1453.24 78.3604L1452.21 78.9501L1456.49 89.8111L1450.78 112L1445.06 89.8111L1449.35 78.9501L1448.31 78.3604L1440.91 87.4504L1418.56 93.6666L1435.2 77.6942L1446.89 75.9232ZM1439.33 65.5704L1428.16 62.4645L1436.47 70.4455L1444.26 71.6251L1439.33 65.5704ZM1465.08 70.4455L1473.4 62.4645L1462.22 65.5704L1457.3 71.6249L1465.08 70.4455ZM1462.22 85.0962L1473.4 88.2022L1465.08 80.2212L1457.3 79.0415L1462.22 85.0962ZM1453.63 60.6827L1450.78 49.5958L1447.92 60.6827L1450.78 67.9168L1453.63 60.6827ZM1447.92 89.9839L1450.78 101.071L1453.63 89.9839L1450.78 82.7498L1447.92 89.9839ZM1449.19 76.2396L1450.78 77.1458L1452.37 76.2396V74.4273L1450.78 73.5211L1449.19 74.4273V76.2396ZM1439.33 85.0962L1444.26 79.0417L1436.47 80.2214L1428.16 88.2024L1439.33 85.0962Z" fill="#FFE6E6"/>
<path d="M222.441 137.034V135.854L210.752 134.083L194.111 118.111L216.468 124.327L223.869 133.417L224.905 132.827L220.618 121.966L226.333 99.7773L232.049 121.966L227.761 132.827L228.798 133.417L236.199 124.327L258.556 118.111L241.914 134.083L230.226 135.854V137.034L241.914 138.805L258.556 154.777L236.199 148.561L228.798 139.471L227.761 140.061L232.049 150.922L226.333 173.111L220.618 150.922L224.905 140.061L223.869 139.471L216.468 148.561L194.111 154.777L210.752 138.805L222.441 137.034ZM214.887 126.681L203.715 123.575L212.03 131.556L219.816 132.736L214.887 126.681ZM240.636 131.556L248.951 123.575L237.78 126.681L232.851 132.736L240.636 131.556ZM237.78 146.207L248.952 149.313L240.637 141.332L232.851 140.152L237.78 146.207ZM229.189 121.794L226.333 110.707L223.477 121.794L226.333 129.028L229.189 121.794ZM223.477 151.095L226.333 162.182L229.189 151.095L226.333 143.861L223.477 151.095ZM224.741 137.35L226.333 138.257L227.926 137.35V135.538L226.333 134.632L224.741 135.538V137.35ZM214.887 146.207L219.816 140.153L212.031 141.332L203.715 149.313L214.887 146.207Z" fill="#FFE6E6"/>
<path d="M770.219 125.923V124.743L758.53 122.972L741.889 107L764.246 113.216L771.647 122.306L772.683 121.716L768.395 110.855L774.111 88.6665L779.827 110.855L775.539 121.716L776.576 122.306L783.976 113.216L806.333 107L789.692 122.972L778.004 124.743V125.923L789.692 127.694L806.333 143.667L783.976 137.45L776.576 128.36L775.539 128.95L779.827 139.811L774.111 162L768.395 139.811L772.683 128.95L771.647 128.36L764.246 137.45L741.889 143.667L758.53 127.694L770.219 125.923ZM762.664 115.57L751.493 112.464L759.808 120.445L767.593 121.625L762.664 115.57ZM788.414 120.445L796.729 112.464L785.558 115.57L780.629 121.625L788.414 120.445ZM785.558 135.096L796.73 138.202L788.414 130.221L780.629 129.041L785.558 135.096ZM776.967 110.683L774.111 99.5958L771.255 110.683L774.111 117.917L776.967 110.683ZM771.255 139.984L774.111 151.071L776.967 139.984L774.111 132.75L771.255 139.984ZM772.519 126.24L774.111 127.146L775.704 126.24V124.427L774.111 123.521L772.519 124.427V126.24ZM762.664 135.096L767.594 129.042L759.808 130.221L751.493 138.202L762.664 135.096Z" fill="#FFE6E6"/>
<path d="M913.83 50.5269C918.16 57.2317 925.178 64.9255 932.508 70.8935C923.745 67.3518 913.619 64.9142 905.657 64.3554C904.253 61.5618 904.891 54.5739 904.891 54.5739C904.891 54.5739 910.705 50.6443 913.83 50.5269ZM909.952 62.9119C910.598 62.9983 911.252 63.0947 911.912 63.1997C911.605 60.9854 911.606 58.9729 911.606 58.874L911.607 58.5431L911.897 58.383C911.984 58.3349 913.746 57.363 915.834 56.5642C915.424 56.0367 915.024 55.5103 914.636 54.9861C912.463 55.5847 910.122 56.7622 909.314 57.1876C909.332 58.101 909.428 60.7191 909.952 62.9119ZM921.88 64.6133L922.169 64.4531C922.182 64.4458 922.313 64.3733 922.536 64.2565C922 63.7009 921.471 63.1413 920.951 62.5785C920.355 62.8594 919.873 63.1063 919.586 63.2577C919.592 63.5824 919.608 64.123 919.649 64.7811C920.393 64.9649 921.138 65.1583 921.884 65.3604C921.879 65.109 921.879 64.9591 921.879 64.9441L921.88 64.6133ZM918.456 62.5898L918.745 62.4293C918.779 62.4107 919.325 62.1094 920.157 61.7081C919.656 61.1529 919.164 60.5955 918.682 60.0366C917.56 60.5152 916.618 60.9942 916.162 61.2339C916.171 61.7482 916.206 62.8043 916.329 64.019C917.051 64.1715 917.776 64.3335 918.504 64.5046C918.454 63.582 918.455 62.9586 918.455 62.9206L918.456 62.5898ZM915.03 60.8972L915.031 60.5663L915.32 60.4058C915.378 60.374 916.455 59.7794 917.917 59.1385C917.456 58.5898 917.006 58.0412 916.567 57.4926C914.899 58.1047 913.362 58.882 912.737 59.2104C912.751 59.9159 912.811 61.6373 913.079 63.3931C913.772 63.5131 914.47 63.6433 915.173 63.7827C915.029 62.1925 915.03 60.9624 915.03 60.8972ZM923.36 65.0996C923.224 65.1689 923.105 65.2305 923.009 65.2812C923.012 65.3892 923.015 65.5234 923.02 65.6756C923.45 65.7974 923.88 65.9214 924.309 66.0491C923.99 65.7343 923.675 65.4177 923.36 65.0996ZM907.014 62.5799C907.589 62.6321 908.173 62.6941 908.763 62.7634C908.182 60.0395 908.182 56.9935 908.183 56.8502L908.184 56.5193L908.473 56.3588C908.598 56.2891 911.266 54.8197 913.933 54.0154C913.588 53.5316 913.252 53.0498 912.929 52.5719C911.135 53.057 908.511 54.4896 906.695 55.6394C906.563 57.7851 906.574 60.7749 907.014 62.5799Z" fill="#FFE6E6"/>
<path d="M913.913 42.2702C910.791 42.0892 905.059 38.0426 905.059 38.0426C905.059 38.0426 904.563 31.043 906.023 28.2786C913.994 27.8813 924.167 25.6495 933 22.2861C925.552 28.1046 918.378 35.6543 913.913 42.2702ZM922.533 28.516L922.247 28.3497L922.253 28.0188C922.253 28.0039 922.256 27.8543 922.266 27.603C921.517 27.7901 920.768 27.9681 920.021 28.1367C919.966 28.794 919.939 29.3339 919.927 29.6586C920.211 29.8154 920.686 30.0719 921.277 30.3652C921.809 29.8132 922.348 29.2642 922.896 28.72C922.676 28.5989 922.546 28.5237 922.533 28.516ZM909.533 35.5197C910.333 35.9607 912.648 37.1857 914.81 37.8288C915.208 37.3126 915.619 36.7946 916.04 36.2755C913.968 35.4343 912.226 34.4268 912.14 34.3772L911.854 34.2108L911.86 33.8799C911.862 33.7811 911.902 31.7689 912.254 29.5612C911.592 29.6527 910.936 29.7359 910.288 29.8092C909.72 31.9907 909.569 34.6062 909.533 35.5197ZM912.998 33.5662C913.615 33.9069 915.137 34.7157 916.792 35.361C917.242 34.8215 917.704 34.2819 918.175 33.7431C916.726 33.0727 915.661 32.4565 915.605 32.4237L915.319 32.2573L915.324 31.9265C915.325 31.8612 915.349 30.6311 915.525 29.0439C914.82 29.169 914.119 29.2847 913.424 29.3908C913.121 31.1404 913.025 32.8607 912.998 33.5662ZM916.462 31.6128C916.913 31.8616 917.845 32.3595 918.958 32.8603C919.451 32.3117 919.954 31.7642 920.466 31.2192C919.642 30.8011 919.102 30.4888 919.069 30.4695L918.784 30.3032L918.789 29.9723C918.79 29.934 918.802 29.3109 918.871 28.3895C918.139 28.546 917.41 28.693 916.686 28.8309C916.539 30.042 916.483 31.098 916.462 31.6128ZM906.884 37.0135C908.676 38.2002 911.271 39.6856 913.054 40.2069C913.387 39.7352 913.733 39.2606 914.087 38.7838C911.438 37.9255 908.8 36.4021 908.676 36.3299L908.389 36.1635L908.395 35.8327C908.398 35.6893 908.459 32.6444 909.096 29.9325C908.505 29.9894 907.919 30.0401 907.344 30.0803C906.867 31.8772 906.796 34.866 906.884 37.0135ZM923.409 27.3111C923.401 27.4633 923.395 27.5975 923.391 27.7055C923.485 27.7576 923.603 27.8222 923.737 27.8941C924.058 27.5825 924.38 27.2721 924.705 26.9642C924.274 27.0828 923.842 27.1977 923.409 27.3111Z" fill="#FFE6E6"/>
<path d="M890.826 29.6318C890.826 29.6318 884.516 26.5617 882.852 23.9148C886.494 16.8127 889.648 6.88704 891.151 -2.44434C892.466 6.91585 895.417 16.9031 898.914 24.0778C897.197 26.6901 890.826 29.6318 890.826 29.6318ZM890.847 27.5368C892.771 26.5781 895.355 25.0737 896.698 23.79C896.456 23.2665 896.218 22.7296 895.983 22.1838C893.915 24.0498 891.276 25.572 891.152 25.6435L890.865 25.8084L890.581 25.6381C890.458 25.564 887.851 23.9885 885.822 22.081C885.575 22.6216 885.326 23.1538 885.074 23.6722C886.391 24.9829 888.944 26.5395 890.847 27.5368ZM891.273 13.7123L890.986 13.8772L890.703 13.7068C890.669 13.6868 890.136 13.365 889.372 12.8448C889.142 13.5565 888.905 14.2609 888.662 14.9573C889.637 15.6898 890.523 16.2666 890.959 16.5416C891.4 16.2757 892.297 15.7175 893.288 15.0044C893.058 14.3033 892.836 13.5937 892.62 12.878C891.846 13.3822 891.306 13.693 891.273 13.7123ZM892.287 11.7472C892.074 11.011 891.869 10.269 891.671 9.52266C891.456 9.65289 891.326 9.72767 891.313 9.73496L891.026 9.89985L890.743 9.72949C890.73 9.72183 890.602 9.64449 890.389 9.50989C890.176 10.2522 889.956 10.9898 889.729 11.7213C890.27 12.0974 890.725 12.391 890.999 12.5643C891.278 12.3965 891.738 12.1123 892.287 11.7472ZM891.233 17.6892L890.946 17.8541L890.662 17.6838C890.606 17.6502 889.552 17.0144 888.266 16.0685C888.022 16.7419 887.772 17.4069 887.516 18.061C888.88 19.1988 890.322 20.1417 890.918 20.5182C891.523 20.1538 892.983 19.2403 894.37 18.1306C894.128 17.4711 893.891 16.8013 893.661 16.1232C892.355 17.0428 891.289 17.6568 891.233 17.6892ZM891.193 21.6662L890.905 21.8311L890.622 21.6607C890.537 21.6097 888.814 20.5693 887.078 19.1605C886.827 19.7795 886.571 20.3891 886.311 20.9866C887.916 22.5698 890.106 24.0074 890.879 24.4952C891.661 24.0235 893.878 22.6314 895.517 21.0796C895.269 20.477 895.025 19.8623 894.786 19.2382C893.022 20.6116 891.278 21.6173 891.193 21.6662ZM891.055 7.07782C890.942 7.51119 890.826 7.94347 890.707 8.37466C890.835 8.45746 890.948 8.52969 891.04 8.58733C891.132 8.53152 891.247 8.46148 891.376 8.38122C891.267 7.94785 891.159 7.51338 891.055 7.07782Z" fill="#FFE6E6"/>
<path d="M867.488 41.7993C863.158 35.0944 856.139 27.4006 848.81 21.4326C857.573 24.9744 867.698 27.4119 875.66 27.9708C877.064 30.7644 876.426 37.7523 876.426 37.7523C876.426 37.7523 870.613 41.6818 867.488 41.7993ZM871.365 29.4143C870.719 29.3278 870.065 29.2315 869.405 29.1264C869.712 31.3407 869.711 33.3533 869.711 33.4521L869.71 33.783L869.42 33.9435C869.334 33.9917 867.571 34.9635 865.483 35.7624C865.894 36.2899 866.293 36.8162 866.681 37.3405C868.855 36.7415 871.195 35.5639 872.004 35.1389C871.986 34.2255 871.89 31.6092 871.365 29.4143ZM859.439 27.382L859.438 27.7129L859.148 27.8734C859.135 27.8803 859.003 27.9529 858.781 28.0696C859.318 28.6249 859.846 29.1844 860.366 29.7473C860.962 29.4661 861.444 29.2195 861.731 29.0684C861.725 28.7441 861.709 28.2035 861.668 27.5451C860.924 27.3612 860.179 27.1679 859.434 26.9658C859.439 27.2171 859.439 27.3674 859.439 27.382ZM862.863 29.4055L862.862 29.7364L862.572 29.8969C862.539 29.9155 861.993 30.2168 861.161 30.6181C861.662 31.1733 862.154 31.7307 862.635 32.2895C863.757 31.8109 864.7 31.332 865.156 31.0923C865.146 30.5776 865.111 29.5208 864.989 28.3071C864.267 28.1546 863.542 27.9927 862.813 27.8216C862.863 28.7441 862.863 29.3672 862.863 29.4055ZM866.287 31.429L866.286 31.7599L865.996 31.92C865.939 31.9521 864.862 32.5464 863.4 33.1873C863.861 33.7359 864.312 34.2846 864.75 34.8332C866.418 34.2211 867.955 33.4437 868.58 33.1154C868.566 32.4103 868.506 30.6896 868.237 28.9324C867.545 28.8124 866.847 28.6821 866.144 28.5428C866.288 30.1336 866.287 31.3637 866.287 31.429ZM857.957 27.2266C858.093 27.1573 858.212 27.0956 858.308 27.0453C858.306 26.9373 858.302 26.8031 858.298 26.651C857.868 26.5291 857.437 26.4051 857.008 26.2774C857.327 26.5919 857.643 26.9085 857.957 27.2266ZM874.303 29.7462C873.728 29.6941 873.144 29.632 872.554 29.5627C873.136 32.2866 873.135 35.3326 873.135 35.476L873.134 35.8069L872.844 35.9674C872.719 36.0371 870.051 37.5064 867.384 38.3108C867.729 38.7945 868.066 39.2764 868.388 39.7543C870.182 39.2691 872.806 37.8366 874.622 36.6864C874.754 34.541 874.743 31.5512 874.303 29.7462Z" fill="#FFE6E6"/>
<path d="M867.404 50.0557C870.526 50.2366 876.259 54.2832 876.259 54.2832C876.259 54.2832 876.755 61.2829 875.295 64.0472C867.323 64.4445 857.15 66.6763 848.317 70.0397C855.766 64.2213 862.939 56.6715 867.404 50.0557ZM858.784 63.8098L859.07 63.9761L859.064 64.307C859.064 64.3219 859.061 64.4715 859.051 64.7228C859.8 64.5357 860.549 64.3577 861.296 64.1888C861.351 63.5314 861.378 62.9915 861.391 62.6665C861.107 62.5096 860.631 62.2532 860.04 61.9603C859.509 62.5122 858.969 63.0612 858.421 63.6055C858.641 63.7273 858.771 63.8025 858.784 63.8098ZM871.784 56.8061C870.985 56.3651 868.671 55.1405 866.507 54.4974C866.11 55.0135 865.699 55.5315 865.278 56.0506C867.35 56.8919 869.092 57.8994 869.178 57.949L869.464 58.1154L869.458 58.4462C869.456 58.5451 869.417 60.5573 869.064 62.765C869.726 62.6734 870.382 62.5903 871.03 62.5169C871.598 60.3348 871.748 57.7196 871.784 56.8061ZM868.32 58.76C867.703 58.4192 866.182 57.6112 864.527 56.9648C864.076 57.5043 863.615 58.0439 863.143 58.583C864.592 59.2539 865.656 59.87 865.713 59.9028L865.999 60.0692L865.993 60.4001C865.992 60.4654 865.969 61.6954 865.792 63.2823C866.498 63.1575 867.199 63.0415 867.893 62.9354C868.196 61.1851 868.292 59.4651 868.32 58.76ZM864.856 60.7134C864.405 60.4646 863.472 59.9667 862.36 59.4655C861.867 60.0141 861.364 60.5617 860.852 61.1067C861.676 61.5247 862.215 61.837 862.248 61.8559L862.534 62.0223L862.529 62.3532C862.528 62.3915 862.516 63.0149 862.447 63.936C863.179 63.7795 863.907 63.6325 864.632 63.4946C864.779 62.2838 864.835 61.2281 864.856 60.7134ZM874.434 55.3123C872.641 54.1256 870.047 52.6402 868.263 52.1189C867.931 52.5902 867.585 53.0652 867.23 53.5416C869.88 54.4 872.517 55.923 872.641 55.9952L872.928 56.1615L872.922 56.4924C872.919 56.6358 872.858 59.6807 872.221 62.3926C872.812 62.3356 873.398 62.2849 873.973 62.2448C874.45 60.4486 874.522 57.4598 874.434 55.3123ZM857.909 65.0147C857.916 64.8629 857.922 64.7287 857.927 64.6207C857.832 64.5685 857.714 64.5043 857.58 64.4321C857.26 64.7436 856.937 65.0541 856.612 65.362C857.044 65.2434 857.476 65.1281 857.909 65.0147Z" fill="#FFE6E6"/>
<path d="M890.491 62.6938C890.491 62.6938 896.801 65.7639 898.465 68.4109C894.823 75.513 891.67 85.4386 890.166 94.77C888.852 85.4098 885.9 75.4225 882.403 68.2478C884.12 65.6355 890.491 62.6938 890.491 62.6938ZM890.47 64.7889C888.546 65.7475 885.962 67.2519 884.619 68.5356C884.861 69.0591 885.099 69.5964 885.334 70.1418C887.402 68.2759 890.041 66.7536 890.165 66.6821L890.452 66.5172L890.736 66.6876C890.859 66.7616 893.466 68.3372 895.495 70.2447C895.742 69.7041 895.991 69.1718 896.244 68.6531C894.926 67.3428 892.373 65.7862 890.47 64.7889ZM890.044 78.6137L890.331 78.4492L890.615 78.6196C890.648 78.6396 891.181 78.9614 891.945 79.4816C892.175 78.7699 892.412 78.0654 892.655 77.3691C891.68 76.6366 890.794 76.0598 890.358 75.7848C889.917 76.0507 889.02 76.6088 888.03 77.322C888.258 78.0231 888.481 78.7326 888.697 79.4484C889.471 78.9439 890.011 78.6327 890.044 78.6137ZM889.03 80.5785C889.243 81.3146 889.448 82.0563 889.646 82.803C889.861 82.6728 889.991 82.598 890.004 82.5907L890.291 82.4258L890.574 82.5962C890.587 82.6038 890.715 82.6812 890.928 82.8158C891.141 82.0734 891.361 81.3358 891.588 80.6044C891.047 80.2283 890.593 79.9346 890.318 79.7614C890.04 79.9292 889.58 80.2133 889.03 80.5785ZM890.084 74.6368L890.371 74.4719L890.655 74.6422C890.711 74.6758 891.765 75.3116 893.051 76.2575C893.296 75.5841 893.546 74.9195 893.801 74.265C892.438 73.1273 890.996 72.1843 890.399 71.8074C889.795 72.1719 888.335 73.0842 886.948 74.1954C887.19 74.8549 887.426 75.5247 887.657 76.2032C888.962 75.2832 890.028 74.6692 890.084 74.6368ZM890.125 70.6594L890.412 70.4946L890.695 70.6649C890.78 70.716 892.503 71.7564 894.239 73.1652C894.491 72.5461 894.746 71.9366 895.007 71.339C893.401 69.7559 891.212 68.3182 890.439 67.8305C889.656 68.3029 887.438 69.696 885.801 71.246C886.049 71.8487 886.292 72.463 886.531 73.0871C888.295 71.7137 890.039 70.7083 890.125 70.6594ZM890.262 85.2478C890.375 84.8144 890.491 84.3825 890.61 83.9514C890.482 83.8685 890.369 83.7963 890.278 83.7387C890.185 83.7945 890.071 83.8645 889.941 83.9448C890.05 84.3778 890.158 84.8123 890.262 85.2478Z" fill="#FFE6E6"/>
<path d="M904.229 38.3283L915.024 46.1687H915.06L904.229 53.9979L902.864 67.2924L902.853 67.2978L890.665 61.8329H890.657L878.472 67.2613L878.453 67.2942L877.089 53.9975L877.089 53.9972L866.279 46.1578H866.258L877.088 38.3286L877.089 38.3279L878.454 25.0338L878.474 25.048L890.659 30.4933L902.854 25.0283L902.864 25.0338L904.229 38.3283ZM903.125 39.8483L903.113 39.84L900.572 41.3071L907.263 46.1669H907.287L900.574 51.0201L903.113 52.4862L903.128 52.4756L911.84 46.1782L903.125 39.8483ZM882.512 42.3461L877.241 46.1563L882.514 49.9808L882.527 49.9899L885.328 48.3724L882.279 46.1614H882.272L885.327 43.953L882.526 42.3359L882.512 42.3461ZM893.456 43.6801L893.454 43.6622L893.25 41.6749L891.427 42.492L891.41 42.4993V44.2014L890.659 44.5381L889.907 44.2021V42.4989L889.892 42.4924L888.067 41.6767L887.863 43.6619L887.862 43.6798L889.336 44.5308L889.251 45.3501L888.584 45.8328L887.11 44.9817L887.095 44.9923L885.479 46.1607L887.098 47.3346L887.11 47.3437L888.585 46.4923L889.251 46.9756L889.335 47.7946L887.862 48.6457L887.863 48.6643L888.067 50.6469L889.895 49.8327L889.907 49.8272V48.1233L890.659 47.7884L891.41 48.1255V49.8269L891.428 49.8349L893.25 50.652L893.454 48.665L893.456 48.6468L891.982 47.7957L892.066 46.9764L892.733 46.4938L894.207 47.3448L894.222 47.3342L895.837 46.1665L894.219 44.9908L894.207 44.9824L892.731 45.8346L892.066 45.3512L891.982 44.5315L893.456 43.6801ZM895.239 49.6751L894.854 53.4252L894.85 53.427L891.41 51.8847V55.1178L891.428 55.1258L897.372 57.791L898.038 51.3101L898.04 51.2919L895.239 49.6751ZM889.907 51.8832L886.47 53.4146L886.464 53.4259L886.079 49.6747L883.278 51.2915L883.28 51.3101L883.943 57.776L889.895 55.1244L889.907 55.1193V51.8832H889.907ZM886.079 42.651L886.464 38.901L886.471 38.9057L889.907 40.4415V37.2062L889.892 37.1996L883.944 34.5414L883.28 41.0157L883.278 41.0339L886.079 42.651ZM891.41 40.4408L894.851 38.8992L894.854 38.901L895.239 42.6507L898.04 41.0336L898.038 41.0157L897.372 34.5348L891.427 37.1989L891.41 37.2065V40.4408ZM895.988 43.9537L899.033 46.1651H899.046L895.991 48.3735L898.791 49.9907L898.806 49.9801L904.074 46.1724L898.803 42.3439L898.791 42.3355L895.988 43.9537ZM901.26 64.5247L902.36 53.806L902.362 53.7878L899.822 52.3217L898.976 60.5623L898.969 60.566L891.41 57.177V60.1085L891.429 60.1169L901.26 64.5247ZM880.055 64.4991L889.896 60.1147L889.907 60.1096V57.1756L882.354 60.5408L882.341 60.563L881.495 52.3206L878.956 53.7867L878.958 53.8049L880.055 64.4991ZM878.192 52.4763L878.204 52.4855L880.745 51.0186L874.044 46.1592H874.03L880.743 41.3061L878.204 39.84L878.189 39.8505L869.471 46.1523L878.192 52.4763ZM880.056 27.8128L878.957 38.5201L878.955 38.538L881.495 40.0041L882.341 31.7635L882.355 31.7733L889.907 35.1484V32.2151L889.892 32.2085L880.056 27.8128ZM901.26 27.8015L891.427 32.2078L891.41 32.2154V35.148L898.97 31.7605L898.976 31.7642L899.822 40.0045L902.362 38.5384L902.36 38.5205L901.26 27.8015Z" fill="#FFE6E6"/>
<path d="M891.319 47.3063L891.318 47.3067L890.658 47.0108L889.999 47.3045L889.998 47.3063L889.924 46.5869L889.339 46.1627H889.338L889.924 45.7388L889.998 45.0194L889.999 45.0201L890.658 45.3149L891.318 45.019L891.319 45.0194L891.393 45.7388L891.977 46.163H891.979L891.393 46.5869L891.319 47.3063Z" fill="#FFE6E6"/>
<path d="M1091.07 67.6585C1090.54 66.4632 1090.18 65.2871 1089.93 64.2398C1088.6 64.6081 1087.34 64.7964 1086.27 64.8868C1086.73 65.8573 1087.2 67.0449 1087.54 68.3819C1088.57 68.0693 1089.77 67.7965 1091.07 67.6585ZM1122.22 69.1993C1122.14 69.3249 1122.04 69.4272 1121.9 69.4853C1117.18 71.4286 1106.01 74.1577 1101.71 73.8004C1104.17 77.347 1107.43 88.3109 1108.11 93.3699C1108.13 93.5216 1108.09 93.6642 1108.02 93.7898C1107.71 94.3185 1106.76 94.5488 1106.62 93.8963C1104.84 85.8015 1099.29 74.4356 1095.16 71.3125C1093.96 70.4019 1093.86 70.565 1093.86 70.565C1090.14 70.2625 1086.66 71.7466 1085.83 72.2725C1085.43 72.5242 1085.13 72.3168 1085.11 71.8558C1084.87 67.4104 1082.32 63.899 1082.32 63.899L1078.05 61.4334L1068.31 61.4508L1073.17 57.4162L1074.32 51.0513L1079.17 59.4924L1083.44 61.958C1083.44 61.958 1087.76 62.4154 1091.72 60.393C1092.13 60.1833 1092.46 60.3368 1092.45 60.8098C1092.41 61.7976 1092.86 65.548 1094.99 68.624C1094.98 68.6253 1094.89 68.7866 1096.28 69.3715C1101.05 71.3851 1113.71 70.4448 1121.61 67.9317C1122.24 67.7293 1122.52 68.6701 1122.22 69.1993Z" fill="#FFE6E6"/>
<path d="M1113.24 76.1103C1118.42 82.5054 1124.01 86.7475 1124.01 86.7475C1124.01 86.7475 1117.64 83.8487 1109.51 82.5579L1103.19 74.4521L1113.24 76.1103Z" fill="#FFE6E6"/>
<path d="M1091.11 44.8438C1089.81 44.7058 1088.61 44.433 1087.58 44.121C1087.23 45.4579 1086.77 46.6455 1086.31 47.616C1087.38 47.7064 1088.64 47.8947 1089.97 48.263C1090.22 47.2153 1090.58 46.0391 1091.11 44.8438ZM1108.02 18.6431C1108.09 18.7687 1108.13 18.9113 1108.11 19.063C1107.43 24.1225 1104.21 35.1553 1101.75 38.7019C1106.05 38.3446 1117.18 41.0048 1121.9 42.948C1122.04 43.0061 1122.14 43.1089 1122.22 43.2346C1122.52 43.7632 1122.24 44.7044 1121.61 44.502C1113.71 41.989 1101.09 41.1181 1096.32 43.1317C1094.93 43.7189 1095.03 43.8793 1095.03 43.8793C1092.9 46.9553 1092.45 50.7052 1092.49 51.6931C1092.5 52.1655 1092.17 52.319 1091.76 52.1098C1087.8 50.0874 1083.48 50.5448 1083.48 50.5448L1079.21 53.0103L1074.36 61.4515L1073.29 55.2255L1068.35 51.052L1078.09 51.0694L1082.36 48.6038C1082.36 48.6038 1084.91 45.0924 1085.15 40.647C1085.17 40.1864 1085.47 39.979 1085.87 40.2303C1086.7 40.7562 1090.18 42.2403 1093.9 41.9378C1093.9 41.9392 1094 42.0977 1095.2 41.1903C1099.33 38.0672 1104.84 26.6319 1106.61 18.5371C1106.76 17.8841 1107.71 18.1144 1108.02 18.6431Z" fill="#FFE6E6"/>
<path d="M1109.51 29.8755C1117.64 28.5847 1124.11 25.8638 1124.11 25.8638C1124.11 25.8638 1118.42 29.9281 1113.23 36.3231L1103.06 37.7442L1109.51 29.8755Z" fill="#FFE6E6"/>
<path d="M1071.37 33.4021C1070.6 34.4594 1069.77 35.3628 1068.98 36.0979C1069.97 37.0666 1070.76 38.0655 1071.37 38.9459C1071.99 38.0659 1072.78 37.0666 1073.76 36.0979C1072.98 35.3628 1072.14 34.4594 1071.37 33.4021ZM1057.14 5.66064C1057.28 5.66064 1057.42 5.70085 1057.54 5.79406C1061.59 8.91026 1069.53 17.2139 1071.37 21.1178C1073.21 17.2143 1081.08 8.91026 1085.12 5.79406C1085.24 5.70085 1085.39 5.66064 1085.53 5.66064C1086.14 5.66064 1086.82 6.3716 1086.32 6.82121C1080.2 12.403 1073.13 22.898 1072.49 28.0347C1072.31 29.5329 1072.49 29.5302 1072.49 29.5302C1074.09 32.9087 1077.12 35.1745 1077.99 35.6369C1078.41 35.8581 1078.38 36.219 1077.99 36.4703C1074.26 38.8938 1072.49 42.8622 1072.49 42.8622V47.7933L1077.38 56.2171L1071.45 54.0257L1065.37 56.2171L1070.25 47.7933V42.8622C1070.25 42.8622 1068.49 38.8934 1064.76 36.4703C1064.37 36.2195 1064.34 35.8581 1064.76 35.6369C1065.63 35.1745 1068.65 32.9091 1070.25 29.5302C1070.25 29.5302 1070.44 29.5274 1070.25 28.0347C1069.61 22.8984 1062.47 12.403 1056.34 6.82121C1055.85 6.3716 1056.52 5.66064 1057.14 5.66064Z" fill="#FFE6E6"/>
<path d="M1067.61 9.98189C1070.56 2.29602 1071.44 -4.66699 1071.44 -4.66699C1071.44 -4.66699 1072.11 2.29556 1075.06 9.98189L1071.2 19.5082L1067.61 9.98189Z" fill="#FFE6E6"/>
<path d="M1051.6 44.7745C1052.13 45.9698 1052.49 47.1458 1052.73 48.1936C1054.07 47.8253 1055.33 47.637 1056.4 47.5466C1055.94 46.5761 1055.47 45.3885 1055.13 44.0516C1054.1 44.3637 1052.9 44.6365 1051.6 44.7745ZM1020.45 43.2341C1020.53 43.1085 1020.63 43.0062 1020.77 42.9477C1025.49 41.0044 1036.66 38.2752 1040.96 38.6325C1038.5 35.0859 1035.24 24.1221 1034.56 19.063C1034.54 18.9113 1034.58 18.7688 1034.65 18.6431C1034.96 18.1145 1035.91 17.8842 1036.05 18.5367C1037.82 26.6315 1043.38 37.9974 1047.51 41.1204C1048.71 42.0315 1048.8 41.868 1048.8 41.868C1052.53 42.1705 1056 40.6864 1056.84 40.1605C1057.24 39.9092 1057.54 40.1166 1057.56 40.5772C1057.79 45.0226 1060.35 48.534 1060.35 48.534L1064.62 50.9995L1074.36 50.9822L1069.5 55.0168L1068.35 61.3817L1063.5 52.9405L1059.23 50.475C1059.23 50.475 1054.91 50.0176 1050.94 52.04C1050.53 52.2497 1050.2 52.0962 1050.22 51.6233C1050.26 50.6354 1049.81 46.885 1047.68 43.8094C1047.68 43.808 1047.77 43.6468 1046.39 43.0619C1041.62 41.0483 1028.96 41.9886 1021.06 44.5017C1020.42 44.7041 1020.15 43.7628 1020.45 43.2341Z" fill="#FFE6E6"/>
<path d="M1029.43 36.3226C1024.25 29.9276 1018.66 25.6855 1018.66 25.6855C1018.66 25.6855 1025.03 28.5843 1033.16 29.8751L1039.48 37.9808L1029.43 36.3226Z" fill="#FFE6E6"/>
<path d="M1051.55 67.5886C1052.86 67.7266 1054.06 67.9994 1055.09 68.3115C1055.43 66.9745 1055.9 65.7875 1056.36 64.8165C1055.29 64.7261 1054.02 64.5378 1052.69 64.1695C1052.45 65.2172 1052.09 66.3933 1051.55 67.5886ZM1034.65 93.7894C1034.58 93.6637 1034.54 93.5212 1034.56 93.3695C1035.24 88.31 1038.46 77.2772 1040.92 73.7306C1036.61 74.0879 1025.49 71.4277 1020.77 69.4849C1020.63 69.4268 1020.52 69.324 1020.45 69.1984C1020.15 68.6697 1020.42 67.7285 1021.06 67.9309C1028.96 70.4439 1041.58 71.3148 1046.35 69.3012C1047.74 68.714 1047.64 68.5537 1047.64 68.5537C1049.77 65.4777 1050.22 61.7277 1050.18 60.7394C1050.16 60.2669 1050.49 60.1134 1050.9 60.3227C1054.87 62.345 1059.19 61.8877 1059.19 61.8877L1063.46 59.4221L1068.31 50.981L1069.37 57.2069L1074.31 61.3805L1064.58 61.3631L1060.31 63.8286C1060.31 63.8286 1057.75 67.3401 1057.52 71.7855C1057.5 72.246 1057.2 72.4535 1056.8 72.2022C1055.96 71.6763 1052.49 70.1922 1048.76 70.4947C1048.76 70.4933 1048.67 70.3348 1047.47 71.2422C1043.34 74.3653 1037.82 85.8006 1036.05 93.8954C1035.91 94.5484 1034.95 94.3185 1034.65 93.7894Z" fill="#FFE6E6"/>
<path d="M1033.15 82.5571C1025.02 83.8479 1018.56 86.5689 1018.56 86.5689C1018.56 86.5689 1024.25 82.5046 1029.43 76.1095L1039.61 74.6885L1033.15 82.5571Z" fill="#FFE6E6"/>
<path d="M1071.29 79.0308C1072.06 77.9735 1072.9 77.0701 1073.68 76.3349C1072.7 75.3663 1071.91 74.3675 1071.29 73.487C1070.68 74.367 1069.89 75.3663 1068.9 76.3349C1069.69 77.0701 1070.52 77.9735 1071.29 79.0308ZM1085.53 106.772C1085.39 106.772 1085.24 106.732 1085.12 106.639C1081.08 103.523 1073.13 95.219 1071.29 91.3156C1069.45 95.219 1061.59 103.523 1057.54 106.639C1057.42 106.732 1057.28 106.772 1057.14 106.772C1056.53 106.772 1055.85 106.061 1056.34 105.611C1062.47 100.029 1069.53 89.5345 1070.17 84.3978C1070.36 82.8995 1070.17 82.9023 1070.17 82.9023C1068.57 79.5238 1065.55 77.258 1064.68 76.7955C1064.26 76.5744 1064.29 76.2134 1064.68 75.9626C1068.41 73.5391 1070.17 69.5707 1070.17 69.5707V64.6396L1065.29 56.2158L1071.21 58.4072L1077.3 56.2158L1072.41 64.6396V69.5707C1072.41 69.5707 1074.18 73.5395 1077.91 75.9626C1078.3 76.2134 1078.33 76.5749 1077.91 76.7955C1077.04 77.258 1074.01 79.5234 1072.41 82.9023C1072.41 82.9023 1072.23 82.905 1072.41 84.3978C1073.05 89.534 1080.2 100.029 1086.32 105.611C1086.82 106.061 1086.14 106.772 1085.53 106.772Z" fill="#FFE6E6"/>
<path d="M1075.06 102.451C1072.11 110.137 1071.23 117.1 1071.23 117.1C1071.23 117.1 1070.56 110.137 1067.61 102.451L1071.47 92.9248L1075.06 102.451Z" fill="#FFE6E6"/>
<path d="M548.034 133.633H543.937L544.662 134.345C545.305 134.977 545.314 136.011 544.682 136.655C544.05 137.298 543.015 137.308 542.373 136.675L539.277 133.633H535.212L541.217 139.535C541.861 140.167 541.87 141.201 541.238 141.844C540.606 142.488 539.571 142.497 538.928 141.865L530.551 133.633H526.401L530.621 137.779C531.264 138.412 531.273 139.446 530.641 140.089C530.009 140.733 528.974 140.742 528.331 140.109L521.74 133.633H517.114L514.46 136.287V140.04L517.731 143.31L526.972 143.391C527.874 143.399 528.598 144.137 528.59 145.039C528.582 145.942 527.83 146.678 526.943 146.658L521.027 146.606L523.962 149.541L535.706 149.643C536.608 149.651 537.333 150.389 537.325 151.29C537.317 152.193 536.592 152.919 535.677 152.91L527.258 152.836L530.132 155.71L534.473 155.749C535.375 155.757 536.1 156.494 536.092 157.397C536.084 158.299 535.332 159.041 534.444 159.015L533.428 159.006L536.325 161.903C536.963 162.541 536.963 163.574 536.325 164.212C535.687 164.85 534.652 164.85 534.015 164.212L531.118 161.316L531.127 162.331C531.135 163.234 530.411 163.971 529.508 163.979C529.504 163.979 529.498 163.979 529.494 163.979C528.598 163.979 527.869 163.258 527.861 162.36L527.823 158.02L524.948 155.146L525.022 163.566C525.03 164.468 524.305 165.206 523.403 165.213C523.399 165.213 523.393 165.213 523.389 165.213C522.493 165.213 521.764 164.492 521.756 163.594L521.653 151.85L518.718 148.916L518.769 154.831C518.777 155.733 518.052 156.471 517.151 156.479C517.145 156.479 517.141 156.479 517.136 156.479C516.241 156.479 515.511 155.757 515.503 154.859L515.422 145.62L512.151 142.349H508.398L505.745 145.002V149.629L512.221 156.22C512.853 156.863 512.844 157.897 512.2 158.529C511.557 159.161 510.522 159.153 509.891 158.508L505.745 154.289V158.44L513.976 166.817C514.608 167.46 514.599 168.494 513.955 169.126C513.313 169.759 512.278 169.75 511.646 169.106L505.744 163.1V167.165L508.786 170.262C509.419 170.905 509.409 171.939 508.766 172.571C508.123 173.204 507.088 173.194 506.456 172.551L505.744 171.826V175.922C505.744 176.824 505.013 177.555 504.111 177.555C503.209 177.555 502.478 176.824 502.478 175.922V171.826L501.766 172.551C501.134 173.194 500.099 173.204 499.456 172.571C498.813 171.939 498.804 170.905 499.436 170.262L502.478 167.165V163.1L496.576 169.106C495.944 169.75 494.909 169.759 494.267 169.126C493.623 168.494 493.614 167.46 494.246 166.817L502.478 158.44V154.289L498.331 158.509C497.699 159.153 496.664 159.162 496.021 158.529C495.378 157.897 495.369 156.863 496.001 156.22L502.478 149.629V145.002L499.824 142.349H496.072L492.8 145.621L492.719 154.86C492.712 155.757 491.982 156.479 491.087 156.479C491.082 156.479 491.077 156.479 491.072 156.479C490.17 156.471 489.445 155.733 489.453 154.832L489.505 148.916L486.57 151.851L486.467 163.594C486.46 164.492 485.73 165.214 484.835 165.214C484.83 165.214 484.825 165.214 484.82 165.214C483.918 165.206 483.193 164.468 483.201 163.566L483.275 155.146L480.401 158.021L480.362 162.361C480.354 163.258 479.625 163.98 478.73 163.98C478.725 163.98 478.72 163.98 478.715 163.98C477.813 163.972 477.088 163.234 477.096 162.332L477.105 161.316L474.208 164.213C473.571 164.85 472.536 164.85 471.899 164.213C471.261 163.575 471.261 162.541 471.899 161.903L474.795 159.007L473.779 159.015C473.774 159.015 473.769 159.015 473.764 159.015C472.869 159.015 472.139 158.294 472.131 157.397C472.124 156.495 472.848 155.757 473.75 155.749L478.091 155.711L480.965 152.837L472.545 152.91C472.54 152.91 472.536 152.91 472.531 152.91C471.635 152.91 470.906 152.188 470.898 151.291C470.89 150.389 471.615 149.651 472.517 149.644L484.261 149.541L487.196 146.606L481.281 146.658C481.276 146.658 481.271 146.658 481.266 146.658C480.371 146.658 479.641 145.936 479.633 145.039C479.625 144.137 480.35 143.399 481.252 143.392L490.492 143.311L493.763 140.04V136.287L491.11 133.633H486.482L479.892 140.109C479.248 140.742 478.214 140.733 477.582 140.089C476.95 139.446 476.959 138.412 477.602 137.779L481.822 133.633H477.671L469.295 141.864C468.652 142.496 467.617 142.488 466.985 141.844C466.353 141.201 466.362 140.166 467.006 139.534L473.011 133.633H468.946L465.85 136.675C465.207 137.307 464.173 137.299 463.541 136.654C462.908 136.011 462.918 134.977 463.561 134.345L464.286 133.633H460.189C459.287 133.633 458.556 132.902 458.556 132C458.556 131.098 459.287 130.367 460.189 130.367H464.286L463.561 129.655C462.918 129.023 462.908 127.988 463.541 127.345C463.86 127.02 464.283 126.857 464.705 126.857C465.118 126.857 465.532 127.012 465.85 127.325L468.946 130.367H473.011L467.006 124.465C466.362 123.833 466.353 122.799 466.985 122.156C467.305 121.83 467.727 121.667 468.15 121.667C468.563 121.667 468.977 121.823 469.295 122.136L477.671 130.367H481.822L477.602 126.221C476.959 125.589 476.95 124.554 477.582 123.911C477.902 123.586 478.324 123.423 478.747 123.423C479.16 123.423 479.574 123.578 479.892 123.891L486.482 130.367H491.109L493.763 127.713V123.961L490.491 120.69L481.251 120.609C480.349 120.601 479.625 119.863 479.632 118.961C479.64 118.064 480.37 117.342 481.265 117.342C481.27 117.342 481.275 117.342 481.28 117.342L487.196 117.394L484.261 114.459L472.516 114.357C471.614 114.349 470.889 113.611 470.897 112.709C470.905 111.811 471.635 111.09 472.53 111.09C472.535 111.09 472.54 111.09 472.545 111.09L480.965 111.164L478.09 108.289L473.75 108.251C472.847 108.243 472.123 107.506 472.131 106.604C472.139 105.706 472.868 104.985 473.764 104.985C473.768 104.985 473.774 104.985 473.778 104.985L474.794 104.994L471.898 102.097C471.26 101.459 471.26 100.426 471.898 99.7879C472.217 99.469 472.635 99.3093 473.053 99.3093C473.471 99.3093 473.889 99.469 474.208 99.7879L477.105 102.684L477.096 101.669C477.088 100.766 477.812 100.029 478.714 100.021C478.719 100.021 478.724 100.021 478.729 100.021C479.625 100.021 480.354 100.742 480.362 101.64L480.4 105.98L483.275 108.854L483.201 100.434C483.193 99.5325 483.918 98.7944 484.82 98.7869C484.824 98.7869 484.829 98.7869 484.834 98.7869C485.73 98.7869 486.459 99.5086 486.467 100.406L486.57 112.15L489.505 115.084L489.453 109.169C489.445 108.267 490.17 107.529 491.072 107.521C491.077 107.521 491.081 107.521 491.086 107.521C491.982 107.521 492.711 108.243 492.719 109.141L492.8 118.38L496.072 121.651H499.824L502.478 118.998V114.372L496.001 107.781C495.369 107.138 495.378 106.103 496.021 105.471C496.339 105.159 496.753 105.003 497.166 105.003C497.589 105.003 498.012 105.166 498.331 105.492L502.478 109.712V105.56L494.246 97.1834C493.614 96.5403 493.623 95.5061 494.266 94.874C494.584 94.5615 494.998 94.4056 495.411 94.4056C495.834 94.4056 496.257 94.569 496.576 94.8941L502.478 100.9V96.8347L499.436 93.7386C498.804 93.0955 498.813 92.0612 499.456 91.4291C499.774 91.1166 500.188 90.9607 500.601 90.9607C501.024 90.9607 501.446 91.1241 501.766 91.4496L502.478 92.1744V88.0775C502.478 87.1753 503.209 86.4443 504.111 86.4443C505.013 86.4443 505.744 87.1756 505.744 88.0775V92.1741L506.456 91.4493C506.776 91.1238 507.199 90.9604 507.621 90.9604C508.034 90.9604 508.448 91.1159 508.766 91.4287C509.409 92.0609 509.419 93.0951 508.786 93.7382L505.744 96.8344V100.899L511.646 94.8938C511.966 94.5683 512.388 94.4052 512.811 94.4052C513.224 94.4052 513.637 94.5608 513.956 94.8736C514.599 95.5058 514.608 96.54 513.976 97.1831L505.745 105.56V109.711L509.891 105.492C510.21 105.166 510.633 105.003 511.055 105.003C511.468 105.003 511.882 105.158 512.2 105.471C512.844 106.103 512.853 107.138 512.221 107.781L505.745 114.372V118.998L508.398 121.652H512.15L515.422 118.38L515.503 109.141C515.511 108.244 516.24 107.522 517.136 107.522C517.14 107.522 517.145 107.522 517.15 107.522C518.052 107.529 518.777 108.267 518.769 109.169L518.717 115.085L521.653 112.15L521.755 100.406C521.763 99.509 522.493 98.7872 523.388 98.7872C523.393 98.7872 523.398 98.7872 523.403 98.7872C524.305 98.7948 525.03 99.5329 525.022 100.434L524.948 108.854L527.822 105.98L527.861 101.64C527.868 100.743 528.598 100.021 529.493 100.021C529.498 100.021 529.503 100.021 529.508 100.021C530.41 100.029 531.135 100.767 531.127 101.669L531.118 102.685L534.015 99.7883C534.333 99.4693 534.752 99.3096 535.17 99.3096C535.587 99.3096 536.006 99.4693 536.325 99.7883C536.963 100.426 536.963 101.46 536.325 102.098L533.428 104.994L534.444 104.985C534.449 104.985 534.454 104.985 534.459 104.985C535.354 104.985 536.084 105.707 536.092 106.604C536.1 107.506 535.375 108.244 534.473 108.252L530.132 108.29L527.258 111.164L535.677 111.09C535.683 111.09 535.687 111.09 535.692 111.09C536.587 111.09 537.317 111.813 537.325 112.71C537.333 113.611 536.608 114.349 535.706 114.357L523.962 114.459L521.027 117.394L526.943 117.343C526.948 117.343 526.953 117.343 526.958 117.343C527.853 117.343 528.583 118.064 528.59 118.962C528.598 119.863 527.874 120.601 526.972 120.609L517.731 120.69L514.46 123.961V127.714L517.114 130.368H521.74L528.331 123.891C528.649 123.579 529.062 123.423 529.476 123.423C529.898 123.423 530.321 123.586 530.641 123.912C531.273 124.555 531.264 125.589 530.621 126.221L526.401 130.367H530.551L538.928 122.136C539.246 121.823 539.66 121.667 540.073 121.667C540.496 121.667 540.918 121.831 541.238 122.156C541.87 122.799 541.861 123.833 541.217 124.466L535.212 130.367H539.277L542.373 127.325C542.69 127.013 543.104 126.857 543.517 126.857C543.94 126.857 544.363 127.02 544.682 127.346C545.314 127.989 545.305 129.023 544.662 129.655L543.937 130.367H548.034C548.936 130.367 549.667 131.098 549.667 132C549.667 132.902 548.936 133.633 548.034 133.633ZM514.127 132L512.828 130.701L510.987 130.978L509.599 132.009L510.979 133.027L512.827 133.3L514.127 132ZM504.111 121.984L502.812 123.283L503.09 125.124L504.12 126.511L505.138 125.131L505.411 123.284L504.111 121.984ZM504.126 131.997L504.119 131.987L504.108 131.986L504.099 131.993L504.097 132.004L504.104 132.013L504.114 132.014L504.124 132.007L504.126 131.997ZM495.395 130.7L494.096 132L495.395 133.3L497.235 133.023L498.623 131.992L497.244 130.973L495.395 130.7ZM504.111 142.016L505.411 140.718L505.133 138.876L504.103 137.49L503.084 138.87L502.812 140.717L504.111 142.016ZM511.194 137.245L509.696 136.14L507.986 135.887L508.241 137.584L509.355 139.083H511.193L511.194 137.245ZM498.866 139.083L499.972 137.584L500.224 135.875L498.529 136.13L497.029 137.245V139.083H498.866ZM497.029 126.755L498.527 127.861L500.237 128.113L499.981 126.417L498.867 124.918H497.029V126.755ZM509.357 124.917L508.251 126.416L507.999 128.125L509.694 127.87L511.194 126.756V124.917H509.357Z" fill="#FFE6E6"/>
</g>
<defs>
<clipPath id="clip0_57_13472">
<rect width="1934.44" height="656.67" fill="white"/>
</clipPath>
</defs>
</svg>
