<svg width="1953" height="1259" viewBox="0 0 1953 1259" fill="none" xmlns="http://www.w3.org/2000/svg">
<path d="M720.341 646.077C720.341 646.077 732.44 646.157 750.586 646.276C759.659 646.392 770.244 646.527 781.584 646.672C792.924 646.865 805.021 647.072 817.117 647.279C823.165 647.389 829.213 647.499 835.166 647.607C841.119 647.746 846.978 647.883 852.647 648.016C855.482 648.086 858.27 648.156 860.999 648.225C862.144 648.2 863.739 648.245 864.876 648.12C866.096 648.059 867.319 647.888 868.528 647.705C873.283 646.905 877.586 644.991 879.878 641.895C881.016 640.369 881.578 638.612 881.647 636.915C881.717 635.207 881.19 633.59 880.437 632.224C878.869 629.47 876.259 627.859 873.996 627.143C871.701 626.404 869.726 626.331 868.398 626.335C867.065 626.395 866.347 626.466 866.347 626.466L866.307 626.47C865.669 626.533 865.1 626.066 865.037 625.427C864.977 624.82 865.401 624.274 865.994 624.169C865.994 624.169 866.775 624.032 868.266 623.864C869.756 623.751 872.013 623.669 874.817 624.413C877.569 625.135 880.995 626.892 883.324 630.477C884.461 632.251 885.259 634.492 885.273 636.933C885.291 639.362 884.547 641.954 883.049 644.13C879.994 648.542 874.704 650.985 869.328 652.051C867.973 652.289 866.59 652.514 865.145 652.618C863.629 652.785 862.516 652.76 860.936 652.821C858.206 652.815 855.418 652.81 852.583 652.804C846.911 652.784 841.051 652.762 835.096 652.741C829.143 652.688 823.094 652.635 817.045 652.58C804.947 652.462 792.85 652.342 781.509 652.229C770.169 652.067 759.584 651.917 750.512 651.787C732.368 651.418 720.272 651.171 720.272 651.171C718.866 651.142 717.749 649.979 717.778 648.572C717.807 647.178 718.952 646.068 720.341 646.077Z" fill="#9E6969"/>
<path d="M753.652 651.123C752.643 651.123 751.766 650.373 751.633 649.346C751.49 648.237 752.264 647.224 753.367 647.067C753.6 647.026 764.086 644.96 768.156 622.159C768.354 621.051 769.414 620.313 770.52 620.51C771.629 620.708 772.366 621.767 772.169 622.875C767.495 649.061 754.467 651.034 753.915 651.106C753.826 651.117 753.739 651.123 753.652 651.123Z" fill="#9E6969"/>
<path d="M826.807 652.124C826.702 652.124 826.596 652.115 826.49 652.099C825.94 652.013 812.969 649.681 809.013 623.38C808.846 622.266 809.613 621.228 810.726 621.061C811.84 620.9 812.878 621.66 813.045 622.773C816.51 645.816 827.045 648.057 827.151 648.077C828.246 648.283 828.988 649.332 828.799 650.429C828.628 651.42 827.78 652.124 826.807 652.124Z" fill="#9E6969"/>
<path d="M837.934 596.992C828.412 606.708 831.922 617.52 824.029 617.41C824.029 617.41 827.04 601.521 810.11 588.653C810.949 587.162 816.977 585.961 818.617 586.194C822.674 586.763 824.167 586.44 825.894 585.662C829.417 584.077 827.996 579.387 824.824 580.267C821.794 581.107 820.644 579.524 820.644 579.524C820.644 579.524 821.194 577.627 820.283 577.527C819.373 577.428 819.66 577.979 818.532 579.611C817.404 581.245 815.521 581.099 815.521 581.099C808.577 581.504 806.549 580.295 806.549 580.295C806.023 574.391 800.729 573.443 800.729 573.443C799.78 571.483 802.506 571.881 801.287 570.366C800.071 568.853 798.344 567.125 799.55 565.251C801.005 562.984 793.392 554.667 782.79 560.49C779.71 562.183 776.885 562.896 774.86 563.191C774.806 562.115 773.987 561.206 772.88 561.083C771.654 560.95 770.551 561.833 770.419 563.06C770.285 564.284 771.17 565.388 772.397 565.521C773.263 565.616 774.061 565.195 774.506 564.509C779.002 566.718 783.145 565.495 786.041 572.22C773.646 583.717 773.481 595.95 777.085 602.829C766.313 599.836 770.534 592.924 768.24 573.399C766.232 556.327 751.841 555.189 742.784 556.068C742.828 555.255 742.839 554.335 742.782 553.263C742.416 546.568 739.747 544.468 739.45 546.063C739.15 547.677 739.545 549.716 738.698 550.031C738.698 550.031 735.868 548.982 736.01 550.801C736.147 552.563 735.054 552.025 735.054 552.025C735.054 552.025 732.334 551.62 731.463 553.181C731.463 553.181 736.133 554.226 738.862 557.098C738.176 557.424 737.55 557.815 737.015 558.284C731.233 563.345 720.23 580.038 728.072 592.74C742.959 616.857 737.643 629.158 745.072 634.824C748.292 637.281 753.565 636.392 767.196 637.187C797.913 638.981 839.103 641.261 840.575 634.069C845.7 609.03 856.159 599.657 856.71 597.247C857.622 593.253 844.893 589.89 837.934 596.992Z" fill="#9E6969"/>
<path d="M1028.95 566.175C1028.31 566.322 1026.15 569.207 1025.63 568.749C1025.1 568.281 1028.18 566.139 1028.02 561.38C1027.86 556.371 1025.16 554.09 1024.44 554.335C1023.72 554.58 1026.76 557.4 1026.72 562.046C1026.68 565.91 1023.9 567.728 1023.22 567.42C1022.55 567.11 1022.54 565.464 1022.25 564.438C1021.45 561.586 1020.01 560.22 1019.55 560.924C1019.23 561.411 1020.29 561.954 1020.91 564.682C1021.23 566.094 1022.17 568.371 1021.4 569.859C1021 570.629 1020.61 571.335 1020.23 571.995C1020.35 571.196 1020.43 570.305 1020.43 569.38C1020.46 565.844 1019.43 566.086 1019.45 569.302C1019.52 576.019 1013.62 580.03 1012.32 580.091L1013.65 580.893C1017.06 579.279 1017.62 576.535 1022.73 572.566C1024.38 571.281 1026.28 570.205 1027.25 569.389C1029.71 567.327 1029.85 565.965 1028.95 566.175Z" fill="#9E6969"/>
<path d="M980.884 607.518C983.613 611.275 988.554 611.72 990.221 611.374C989.584 612.974 989.294 616.616 987.46 617.483C986.118 618.117 984.518 617.308 984.138 617.773C983.757 618.236 983.37 620.737 983.894 621.145C984.414 621.555 987.955 620.251 988.788 619.245C990.08 617.69 990.961 615.3 992.821 613C993.552 612.093 994.921 611.086 996.951 610.127C993.431 614.971 992.47 619.58 990.998 620.992C989.95 621.998 989.144 621.61 988.646 622.161C988.15 622.712 988.556 624.485 989.457 625.159C990.355 625.832 991.611 623.851 992.497 622.477C994.582 619.251 996.412 614.964 997.524 613.434C999.345 610.913 1004.47 608.969 1005.01 606.702C1005.35 605.275 1003.36 603.676 1001.12 603.41C1001.12 603.41 1005.74 601.87 1008.15 597.158C1011.2 591.178 1013.48 590.453 1013.48 590.453C1019.08 593.352 1020.6 590.902 1024.54 589.287C1026.97 588.289 1026.62 587.536 1026.5 586.491C1026.35 585.125 1023.64 585.149 1022.14 584.725C1019.67 584.025 1018.9 581.874 1016.75 579.781C1011.88 575.054 1007.18 576.487 1004.52 581.178C1000.55 588.197 986.096 589.719 978.787 585.27C953.823 570.068 944.663 577.98 937.207 591.594C935.153 595.343 933.58 597.817 932.36 600.994C931.145 604.169 927.753 602.95 926.472 604.695C924.388 607.54 922.118 612.937 920.32 616.532C917.837 621.498 916.193 621.904 913.947 626.134C913.241 627.468 912.452 627.878 912.25 628.835C912.049 629.792 914.656 631.413 915.601 631.319C916.548 631.226 916.695 627.931 916.695 627.931C916.695 627.931 918.984 626.411 921.904 619.416C924.942 612.138 927.625 610.604 929.41 609.339C930.774 608.373 929.496 612.352 928.665 614.518C927.837 616.682 925.647 618.615 923.859 621.656C922.912 623.271 920.225 628.879 919.785 629.695C918.503 632.06 917.283 631.468 917.302 632.717C917.318 633.965 920.463 635.782 920.822 634.978C921.421 633.633 920.149 633.601 922.195 630.537C923.994 627.836 925.465 625.12 926.181 623.374C927.47 620.227 931.785 617.851 933.477 616.652C937.797 613.591 938.403 614.247 942.115 610.528C945.881 606.756 947.503 606.841 954.085 604.356C958.873 602.548 957.924 603.842 964.851 606.497C971.78 609.153 975.962 608.783 980.884 607.518Z" fill="#9E6969"/>
<path d="M998.557 555.039C999.552 554.972 999.211 561.129 1002.8 565.481C1002.64 564.56 1002.55 563.377 1002.55 561.853C1002.53 556.719 1004.76 555.742 1003.98 560.111C1003.32 563.802 1004 566.092 1004.57 567.256C1007.15 569.552 1009.24 570.54 1010.64 570.542C1010 569.905 1009.26 568.754 1008.39 566.814C1006.61 562.859 1007.99 561.338 1008.89 564.976C1009.63 567.934 1010.87 569.466 1011.71 570.205C1013.86 568.138 1009.41 556.804 1010.53 556.57C1011.72 556.317 1014 564.559 1013.78 569.551C1013.76 570.094 1013.71 570.62 1013.66 571.131C1014.45 570.389 1015.34 569.272 1016.15 567.587C1017.77 564.21 1018.81 565.981 1016.26 569.49C1015.09 571.105 1014.18 572.064 1013.45 572.585C1012.21 579.48 1008.21 583.099 1008.21 583.099L1007.27 582.206C1010.37 578.116 1010.42 574.228 1008.58 572.242C1006.39 569.879 1003.34 569.813 1000.32 564.159C997.997 559.821 997.879 555.084 998.557 555.039Z" fill="#9E6969"/>
<path d="M1010.73 581.11C1010.73 581.11 1004.52 573.332 1000.17 575.066C1000.17 575.066 1002.98 581.564 1010.73 581.11Z" fill="#9E6969"/>
<path d="M948.09 580.699C948.09 580.699 942.96 577.244 940.382 580.725C937.805 584.208 934.124 582.796 934.124 582.796C934.124 582.796 936.864 590.551 948.09 580.699Z" fill="#9E6969"/>
<path d="M1149.47 559.293C1148.84 559.476 1146.86 562.483 1146.31 562.056C1145.75 561.62 1148.7 559.301 1148.27 554.561C1147.82 549.57 1144.98 547.45 1144.28 547.735C1143.58 548.022 1146.77 550.659 1147 555.301C1147.19 559.159 1144.52 561.139 1143.83 560.868C1143.14 560.598 1143.03 558.955 1142.68 557.949C1141.72 555.147 1140.2 553.869 1139.78 554.598C1139.5 555.101 1140.58 555.584 1141.36 558.27C1141.76 559.659 1142.84 561.879 1142.15 563.409C1141.8 564.2 1141.45 564.928 1141.1 565.61C1141.18 564.804 1141.21 563.91 1141.16 562.987C1140.97 559.456 1139.96 559.755 1140.17 562.966C1140.63 569.668 1134.98 574.016 1133.68 574.152L1135.06 574.876C1138.36 573.065 1138.77 570.293 1143.63 566.034C1145.2 564.655 1147.04 563.469 1147.97 562.599C1150.3 560.399 1150.36 559.031 1149.47 559.293Z" fill="#9E6969"/>
<path d="M1103.89 603.363C1106.84 606.955 1111.8 607.111 1113.44 606.669C1112.9 608.304 1112.82 611.956 1111.04 612.928C1109.74 613.64 1108.09 612.925 1107.74 613.411C1107.39 613.897 1107.15 616.415 1107.69 616.793C1108.24 617.172 1111.69 615.665 1112.47 614.609C1113.66 612.982 1114.41 610.546 1116.13 608.141C1116.81 607.192 1118.12 606.108 1120.09 605.033C1116.85 610.074 1116.16 614.729 1114.77 616.226C1113.79 617.291 1112.96 616.949 1112.49 617.528C1112.03 618.108 1112.54 619.855 1113.48 620.474C1114.42 621.094 1115.55 619.044 1116.36 617.621C1118.25 614.279 1119.83 609.892 1120.85 608.3C1122.52 605.678 1127.52 603.438 1127.93 601.144C1128.19 599.701 1126.1 598.219 1123.86 598.085C1123.86 598.085 1128.38 596.277 1130.51 591.432C1133.21 585.287 1135.44 584.431 1135.44 584.431C1141.2 586.999 1142.57 584.463 1146.42 582.621C1148.78 581.485 1148.39 580.753 1148.21 579.716C1147.97 578.362 1145.27 578.543 1143.76 578.207C1141.25 577.652 1140.35 575.548 1138.08 573.586C1132.94 569.15 1128.34 570.854 1125.96 575.691C1122.4 582.929 1108.06 585.291 1100.5 581.273C1074.7 567.552 1066.01 575.982 1059.36 590.008C1057.53 593.87 1056.1 596.432 1055.07 599.673C1054.04 602.914 1050.58 601.894 1049.41 603.712C1047.49 606.672 1045.54 612.193 1043.96 615.887C1041.76 620.989 1040.15 621.488 1038.15 625.842C1037.53 627.217 1036.76 627.671 1036.62 628.638C1036.47 629.605 1039.17 631.071 1040.11 630.922C1041.04 630.776 1041 627.477 1041 627.477C1041 627.477 1043.2 625.827 1045.71 618.673C1048.32 611.231 1050.9 609.545 1052.61 608.176C1053.92 607.132 1052.87 611.18 1052.17 613.391C1051.47 615.599 1049.39 617.656 1047.79 620.796C1046.94 622.463 1044.58 628.219 1044.19 629.058C1043.05 631.493 1041.79 630.974 1041.89 632.219C1041.98 633.464 1045.22 635.096 1045.53 634.272C1046.05 632.894 1044.78 632.938 1046.64 629.758C1048.28 626.958 1049.59 624.16 1050.21 622.376C1051.31 619.159 1055.48 616.537 1057.1 615.24C1061.23 611.932 1061.88 612.553 1065.37 608.624C1068.9 604.64 1070.53 604.629 1076.96 601.766C1081.63 599.681 1080.76 601.028 1087.83 603.278C1094.9 605.526 1099.05 604.912 1103.89 603.363Z" fill="#9E6969"/>
<path d="M1118.48 549.945C1119.47 549.822 1119.49 555.986 1123.32 560.123C1123.11 559.213 1122.96 558.036 1122.86 556.515C1122.55 551.391 1124.72 550.286 1124.19 554.694C1123.74 558.417 1124.56 560.662 1125.19 561.792C1127.9 563.933 1130.05 564.798 1131.45 564.718C1130.77 564.119 1129.97 563.014 1128.98 561.127C1126.98 557.282 1128.27 555.684 1129.38 559.264C1130.28 562.173 1131.62 563.63 1132.5 564.317C1134.52 562.131 1129.42 551.076 1130.52 550.777C1131.7 550.454 1134.45 558.549 1134.52 563.545C1134.53 564.088 1134.52 564.618 1134.49 565.131C1135.24 564.344 1136.06 563.177 1136.77 561.449C1138.2 557.981 1139.34 559.689 1137 563.34C1135.92 565.021 1135.07 566.031 1134.37 566.594C1133.54 573.551 1129.75 577.395 1129.75 577.395L1128.76 576.559C1131.61 572.294 1131.44 568.41 1129.49 566.536C1127.17 564.304 1124.12 564.416 1120.77 558.947C1118.2 554.752 1117.81 550.028 1118.48 549.945Z" fill="#9E6969"/>
<path d="M1132.15 575.262C1132.15 575.262 1125.5 567.859 1121.26 569.844C1121.26 569.844 1124.45 576.167 1132.15 575.262Z" fill="#9E6969"/>
<path d="M1069.59 578.5C1069.59 578.5 1064.27 575.347 1061.9 578.972C1059.53 582.599 1055.78 581.405 1055.78 581.405C1055.78 581.405 1058.96 588.986 1069.59 578.5Z" fill="#9E6969"/>
<path d="M905.211 594.698C878.249 591.901 851.287 587.633 825.532 581.524L825.703 580.264C945.323 608.642 1091.33 597.319 1139.46 583.007L1139.46 584.261C1101.66 595.5 1003.53 604.898 905.211 594.698Z" fill="#9E6969"/>
</svg>
