<svg width="433" height="108" viewBox="0 0 433 108" fill="none" xmlns="http://www.w3.org/2000/svg">
<path d="M3.34134 101.077C3.34134 101.077 15.4397 101.157 33.5859 101.276C42.659 101.392 53.244 101.527 64.5842 101.672C75.9243 101.865 88.0206 102.072 100.117 102.279C106.165 102.389 112.213 102.499 118.166 102.607C124.119 102.746 129.978 102.883 135.647 103.016C138.482 103.086 141.27 103.156 143.999 103.225C145.144 103.2 146.739 103.245 147.876 103.12C149.096 103.059 150.319 102.888 151.528 102.705C156.283 101.905 160.586 99.9909 162.878 96.8947C164.016 95.3686 164.578 93.6121 164.647 91.9153C164.717 90.2066 164.19 88.5895 163.437 87.2239C161.869 84.4699 159.259 82.8593 156.996 82.1425C154.701 81.4041 152.726 81.3315 151.398 81.335C150.065 81.3953 149.347 81.4656 149.347 81.4662L149.307 81.4697C148.669 81.533 148.1 81.0664 148.037 80.4273C147.977 79.8196 148.401 79.2741 148.994 79.1687C148.994 79.1687 149.775 79.0319 151.266 78.8643C152.756 78.7509 155.013 78.669 157.817 79.4127C160.569 80.1348 163.995 81.892 166.324 85.4771C167.461 87.2508 168.259 89.4925 168.273 91.9333C168.291 94.3623 167.547 96.9535 166.049 99.1302C162.994 103.542 157.704 105.985 152.328 107.051C150.973 107.289 149.59 107.514 148.145 107.618C146.629 107.785 145.516 107.76 143.936 107.821C141.206 107.815 138.418 107.81 135.583 107.804C129.911 107.784 124.051 107.762 118.096 107.741C112.143 107.688 106.094 107.635 100.045 107.58C87.9473 107.462 75.8502 107.342 64.5088 107.229C53.1689 107.067 42.5839 106.917 33.5117 106.787C15.3682 106.418 3.2725 106.171 3.2725 106.171C1.86609 106.142 0.748939 104.979 0.777894 103.572C0.80685 102.178 1.95207 101.068 3.34134 101.077Z" fill="#9E6969"/>
<path d="M36.6515 106.123C35.6425 106.123 34.7656 105.373 34.6332 104.346C34.4902 103.237 35.2643 102.224 36.3673 102.067C36.5995 102.026 47.0861 99.9604 51.1555 77.1585C51.3544 76.0511 52.4142 75.3128 53.5204 75.5099C54.6287 75.7078 55.3662 76.7668 55.1688 77.875C50.4955 104.061 37.4673 106.034 36.9154 106.106C36.8265 106.117 36.739 106.123 36.6515 106.123Z" fill="#9E6969"/>
<path d="M109.807 107.124C109.702 107.124 109.596 107.115 109.49 107.099C108.94 107.013 95.9692 104.681 92.0132 78.3798C91.8457 77.2662 92.6127 76.2282 93.7257 76.0607C94.8402 75.8997 95.8782 76.6602 96.0448 77.7732C99.51 100.816 110.045 103.057 110.151 103.077C111.246 103.283 111.988 104.332 111.799 105.429C111.628 106.42 110.78 107.124 109.807 107.124Z" fill="#9E6969"/>
<path d="M120.934 51.9919C111.412 61.7079 114.922 72.5195 107.029 72.4105C107.029 72.4105 110.04 56.5211 93.1103 43.6533C93.9485 42.1624 99.9769 40.9614 101.617 41.1936C105.674 41.7632 107.167 41.4403 108.894 40.6623C112.417 39.0769 110.996 34.3873 107.824 35.2669C104.794 36.1069 103.644 34.5241 103.644 34.5241C103.644 34.5241 104.194 32.6269 103.283 32.527C102.373 32.4281 102.66 32.9791 101.532 34.6112C100.404 36.2455 98.5211 36.0995 98.5211 36.0995C91.5771 36.5037 89.5488 35.2947 89.5488 35.2947C89.0231 29.3907 83.7293 28.4434 83.7293 28.4434C82.7803 26.4833 85.5056 26.8813 84.2875 25.3662C83.0713 23.8528 81.3443 22.1249 82.5498 20.2505C84.0047 17.9837 76.3918 9.66673 65.7899 15.4897C62.71 17.1833 59.8845 17.8963 57.86 18.1909C57.8059 17.1148 56.9869 16.2056 55.8801 16.083C54.6539 15.9498 53.551 16.8329 53.4186 18.0603C53.2847 19.2844 54.1702 20.3876 55.3967 20.5215C56.2627 20.616 57.0614 20.1947 57.506 19.5086C62.0021 21.7178 66.1445 20.4946 69.0406 27.2196C56.6462 38.7173 56.4808 50.9495 60.0845 57.8288C49.3125 54.8363 53.5341 47.9237 51.2401 28.3991C49.2316 11.3266 34.841 10.1888 25.7842 11.0684C25.8282 10.2553 25.8391 9.33522 25.7824 8.26298C25.416 1.56837 22.7468 -0.532085 22.4496 1.06342C22.15 2.67665 22.545 4.71594 21.6979 5.03091C21.6979 5.03091 18.8683 3.98201 19.0104 5.80059C19.1475 7.56274 18.0542 7.02529 18.0542 7.02529C18.0542 7.02529 15.3336 6.6202 14.4629 8.18114C14.4629 8.18114 19.1327 9.2256 21.8616 12.0975C21.1764 12.4243 20.5497 12.8149 20.0149 13.2841C14.2333 18.3454 3.22996 35.0382 11.0722 47.7402C25.9594 71.8574 20.6431 84.1581 28.0717 89.8237C31.2919 92.2807 36.565 91.392 50.1957 92.1871C80.9127 93.9811 122.103 96.2615 123.575 89.0693C128.7 64.0303 139.159 54.6573 139.71 52.2472C140.622 48.2531 127.893 44.8901 120.934 51.9919Z" fill="#9E6969"/>
<path d="M311.948 21.1747C311.308 21.3215 309.153 24.2067 308.628 23.7488C308.099 23.2808 311.177 21.1389 311.023 16.3799C310.861 11.3706 308.157 9.09024 307.441 9.33518C306.723 9.58012 309.756 12.3997 309.715 17.0456C309.683 20.9097 306.898 22.7282 306.222 22.4204C305.549 22.1095 305.536 20.4641 305.25 19.4377C304.451 16.5856 303.01 15.2199 302.551 15.924C302.233 16.4109 303.288 16.954 303.907 19.682C304.225 21.0937 305.175 23.3715 304.404 24.8588C304.004 25.6294 303.611 26.3353 303.228 26.9953C303.352 26.1961 303.429 25.3047 303.434 24.3799C303.455 20.8444 302.426 21.0858 302.454 24.3025C302.516 31.0187 296.623 35.0305 295.321 35.0907L296.653 35.8929C300.059 34.2794 300.623 31.5345 305.725 27.5659C307.376 26.2812 309.28 25.2045 310.253 24.3887C312.711 22.3273 312.847 20.9649 311.948 21.1747Z" fill="#9E6969"/>
<path d="M263.884 62.5176C266.613 66.2753 271.554 66.7202 273.221 66.3742C272.584 67.9739 272.294 71.6158 270.46 72.4827C269.118 73.1173 267.518 72.308 267.138 72.7725C266.757 73.2361 266.37 75.7372 266.894 76.1449C267.414 76.5553 270.955 75.2509 271.788 74.2445C273.08 72.6898 273.961 70.3004 275.821 68.0002C276.552 67.0934 277.921 66.0862 279.951 65.1274C276.431 69.9709 275.47 74.5799 273.998 75.9922C272.95 76.9979 272.144 76.6097 271.646 77.1607C271.15 77.7118 271.556 79.4852 272.457 80.1585C273.355 80.8322 274.611 78.8514 275.497 77.4769C277.582 74.2507 279.412 69.9635 280.524 68.4342C282.345 65.9133 287.469 63.9695 288.007 61.7018C288.346 60.2747 286.356 58.676 284.123 58.4103C284.123 58.4103 288.744 56.8701 291.149 52.1577C294.202 46.1781 296.483 45.4534 296.483 45.4534C302.081 48.3524 303.596 45.9025 307.541 44.2866C309.97 43.2891 309.623 42.5357 309.502 41.4912C309.345 40.1253 306.639 40.1486 305.145 39.7249C302.673 39.0247 301.904 36.8737 299.746 34.7806C294.877 30.0541 290.179 31.4865 287.521 36.1779C283.546 43.1969 269.096 44.7191 261.787 40.2697C236.823 25.0681 227.663 32.9801 220.207 46.5936C218.153 50.343 216.58 52.8172 215.36 55.9943C214.145 59.1688 210.753 57.9497 209.472 59.6953C207.388 62.5403 205.118 67.9367 203.32 71.5316C200.837 76.4977 199.193 76.9037 196.947 81.1341C196.241 82.4685 195.452 82.878 195.25 83.835C195.049 84.792 197.656 86.4135 198.601 86.3189C199.548 86.2262 199.695 82.9311 199.695 82.9311C199.695 82.9311 201.984 81.4113 204.904 74.4162C207.942 67.138 210.625 65.604 212.41 64.3391C213.774 63.3729 212.496 67.3522 211.665 69.5183C210.837 71.682 208.647 73.6146 206.859 76.6561C205.912 78.2711 203.225 83.879 202.785 84.6948C201.503 87.0599 200.283 86.4684 200.302 87.7171C200.318 88.9648 203.463 90.7825 203.822 89.9777C204.421 88.6327 203.149 88.6014 205.195 85.5365C206.994 82.8357 208.465 80.1204 209.181 78.3739C210.47 75.2266 214.785 72.8514 216.477 71.6515C220.797 68.5905 221.403 69.2467 225.115 65.5277C228.881 61.7565 230.503 61.841 237.085 59.3561C241.873 57.5485 240.924 58.842 247.851 61.497C254.78 64.1533 258.962 63.7833 263.884 62.5176Z" fill="#9E6969"/>
<path d="M281.557 10.0391C282.552 9.97234 282.211 16.1286 285.795 20.4814C285.641 19.5604 285.552 18.3765 285.547 16.8525C285.535 11.7191 287.762 10.742 286.979 15.111C286.317 18.8023 286.999 21.0918 287.566 22.2559C290.145 24.5517 292.239 25.5403 293.641 25.5421C292.998 24.9054 292.264 23.7539 291.391 21.8139C289.61 17.8589 290.991 16.3375 291.894 19.9764C292.626 22.9337 293.873 24.4663 294.714 25.2047C296.859 23.1376 292.406 11.8036 293.526 11.5705C294.725 11.3173 296.996 19.5587 296.779 24.5511C296.756 25.0939 296.712 25.6204 296.657 26.1309C297.449 25.389 298.337 24.2719 299.148 22.5872C300.772 19.2103 301.814 20.981 299.265 24.4896C298.09 26.1046 297.181 27.0637 296.446 27.5849C295.214 34.4802 291.208 38.0993 291.208 38.0993L290.274 37.2061C293.367 33.1163 293.423 29.2277 291.584 27.2425C289.394 24.8794 286.344 24.8135 283.319 19.1595C280.997 14.8212 280.879 10.084 281.557 10.0391Z" fill="#9E6969"/>
<path d="M293.728 36.11C293.728 36.11 287.518 28.3316 283.168 30.0663C283.168 30.0663 285.984 36.5638 293.728 36.11Z" fill="#9E6969"/>
<path d="M231.09 35.6995C231.09 35.6995 225.96 32.244 223.382 35.7255C220.805 39.2078 217.124 37.7964 217.124 37.7964C217.124 37.7964 219.864 45.5505 231.09 35.6995Z" fill="#9E6969"/>
<path d="M432.469 14.293C431.841 14.4765 429.855 17.4828 429.308 17.0558C428.75 16.6203 431.7 14.3009 431.268 9.56111C430.815 4.56985 427.984 2.4496 427.281 2.73502C426.581 3.02221 429.772 5.65922 430.002 10.301C430.194 14.1588 427.518 16.1387 426.828 15.8684C426.137 15.5983 426.029 13.9552 425.682 12.9486C424.72 10.147 423.201 8.86854 422.784 9.59775C422.495 10.1012 423.58 10.5837 424.356 13.2701C424.756 14.6593 425.837 16.8792 425.154 18.4088C424.798 19.2 424.448 19.9283 424.102 20.6103C424.18 19.8037 424.207 18.9105 424.157 17.9866C423.974 14.4558 422.958 14.7554 423.174 17.9659C423.625 24.6676 417.979 29.0159 416.682 29.1521L418.059 29.8757C421.365 28.0654 421.767 25.2934 426.632 21.034C428.204 19.6547 430.04 18.469 430.966 17.5986C433.3 15.3995 433.357 14.0309 432.469 14.293Z" fill="#9E6969"/>
<path d="M386.893 58.3631C389.837 61.9553 394.796 62.111 396.44 61.669C395.897 63.3038 395.819 66.9557 394.039 67.9278C392.736 68.6402 391.091 67.9255 390.74 68.4106C390.387 68.8966 390.146 71.4155 390.691 71.7928C391.237 72.1719 394.693 70.6647 395.467 69.6087C396.665 67.9819 397.407 65.5458 399.129 63.141C399.807 62.192 401.115 61.1082 403.086 60.033C399.853 65.0736 399.161 69.7293 397.774 71.2264C396.787 72.2906 395.961 71.9494 395.494 72.5282C395.032 73.1079 395.541 74.8553 396.478 75.474C397.415 76.0941 398.552 74.0442 399.357 72.6213C401.251 69.2793 402.828 64.8922 403.849 63.3003C405.52 60.6777 410.524 58.4378 410.929 56.1438C411.185 54.7008 409.104 53.2188 406.859 53.0855C406.859 53.0855 411.382 51.277 413.51 46.4317C416.208 40.2869 418.444 39.4309 418.444 39.4309C424.2 41.9988 425.57 39.4634 429.415 37.6212C431.782 36.4852 431.391 35.7533 431.209 34.7162C430.971 33.3621 428.275 33.5432 426.758 33.2073C424.249 32.6515 423.354 30.5484 421.08 28.5859C415.943 24.1504 411.337 25.8535 408.957 30.6908C405.396 37.9294 391.061 40.2907 383.505 36.2727C357.698 22.5523 349.013 30.9825 342.363 45.0075C340.532 48.8695 339.105 51.4321 338.073 54.673C337.043 57.914 333.585 56.894 332.41 58.7117C330.494 61.672 328.54 67.1927 326.957 70.8866C324.764 75.9887 323.147 76.4883 321.154 80.8422C320.526 82.217 319.761 82.6706 319.616 83.6385C319.471 84.6053 322.167 86.0711 323.106 85.9224C324.044 85.7756 324 82.477 324 82.477C324 82.477 326.197 80.8275 328.705 73.6731C331.315 66.231 333.905 64.5451 335.613 63.1756C336.919 62.132 335.873 66.1799 335.17 68.3908C334.468 70.5994 332.395 72.6564 330.787 75.7957C329.936 77.463 327.58 83.2186 327.188 84.0578C326.048 86.493 324.794 85.9738 324.886 87.2186C324.976 88.4637 328.219 90.0962 328.53 89.2724C329.05 87.8944 327.78 87.9375 329.641 84.7583C331.283 81.9576 332.592 79.1602 333.206 77.3759C334.31 74.1588 338.478 71.5366 340.098 70.2401C344.233 66.9315 344.875 67.5526 348.366 63.6238C351.904 59.6398 353.529 59.6291 359.955 56.7661C364.629 54.681 363.759 56.0277 370.828 58.2777C377.902 60.5256 382.053 59.9125 386.893 58.3631Z" fill="#9E6969"/>
<path d="M401.482 4.94543C402.471 4.82193 402.488 10.9862 406.319 15.1233C406.115 14.2129 405.956 13.0364 405.862 11.5148C405.549 6.39055 407.718 5.2864 407.19 9.69413C406.743 13.417 407.557 15.6625 408.192 16.7923C410.901 18.933 413.047 19.7984 414.448 19.718C413.768 19.1194 412.969 18.0141 411.984 16.1267C409.976 12.2824 411.265 10.6836 412.38 14.2641C413.283 17.1729 414.617 18.6295 415.497 19.3174C417.52 17.1307 412.416 6.07558 413.519 5.77746C414.703 5.45422 417.448 13.549 417.524 18.5447C417.532 19.0878 417.52 19.6182 417.493 20.1311C418.24 19.344 419.062 18.1772 419.773 16.4487C421.199 12.9809 422.342 14.6886 420.001 18.3403C418.922 20.0212 418.07 21.0311 417.368 21.5939C416.537 28.5515 412.748 32.3955 412.748 32.3955L411.764 31.559C414.615 27.2943 414.444 23.4104 412.494 21.5363C410.17 19.3044 407.122 19.4161 403.772 13.9467C401.202 9.75175 400.806 5.02787 401.482 4.94543Z" fill="#9E6969"/>
<path d="M415.15 30.2623C415.15 30.2623 408.499 22.8592 404.258 24.8441C404.258 24.8441 407.446 31.167 415.15 30.2623Z" fill="#9E6969"/>
<path d="M352.594 33.4998C352.594 33.4998 347.269 30.3469 344.901 33.9722C342.531 37.5987 338.775 36.4051 338.775 36.4051C338.775 36.4051 341.959 43.9864 352.594 33.4998Z" fill="#9E6969"/>
<path d="M188.211 49.6981C161.249 46.901 134.287 42.633 108.532 36.5237L108.703 35.2635C228.323 63.642 374.332 52.3187 422.463 38.0072L422.455 39.2611C384.66 50.4998 286.532 59.8979 188.211 49.6981Z" fill="#9E6969"/>
</svg>
