<svg width="1829" height="546" viewBox="0 0 1829 546" fill="none" xmlns="http://www.w3.org/2000/svg">
<path d="M696.556 271.549C673.078 257.553 666.557 243.088 666.557 243.088C666.557 243.088 653.616 243.378 648.212 243.599C648.3 243.152 648.348 242.692 648.348 242.222C648.348 241.751 648.3 241.291 648.212 240.845C653.616 241.066 666.557 241.356 666.557 241.356C666.557 241.356 673.077 226.891 696.556 212.895C696.923 212.676 696.29 211.668 695.901 211.85C670.979 223.548 654.094 221.508 654.094 221.508C654.094 221.508 647.896 231.959 645.403 236.372C644.643 235.779 643.767 235.307 642.81 234.993C645.721 230.8 652.463 220.642 652.463 220.642C652.463 220.642 642.099 208.217 640.656 182.523C640.634 182.122 639.367 182.122 639.344 182.523C637.901 208.217 627.537 220.642 627.537 220.642C627.537 220.642 634.279 230.8 637.19 234.993C636.233 235.308 635.357 235.779 634.598 236.372C632.105 231.959 625.906 221.508 625.906 221.508C625.906 221.508 609.021 223.549 584.1 211.85C583.71 211.668 583.077 212.676 583.444 212.895C606.922 226.891 613.443 241.356 613.443 241.356C613.443 241.356 626.385 241.066 631.789 240.845C631.701 241.292 631.652 241.752 631.652 242.222C631.652 242.692 631.701 243.152 631.789 243.599C626.385 243.378 613.443 243.088 613.443 243.088C613.443 243.088 606.923 257.553 583.444 271.549C583.077 271.768 583.71 272.776 584.1 272.593C609.021 260.896 625.906 262.936 625.906 262.936C625.906 262.936 632.104 252.485 634.598 248.071C635.357 248.665 636.233 249.136 637.19 249.451C634.279 253.645 627.537 263.802 627.537 263.802C627.537 263.802 637.901 276.227 639.344 301.921C639.367 302.323 640.634 302.323 640.656 301.921C642.099 276.227 652.463 263.802 652.463 263.802C652.463 263.802 645.721 253.645 642.81 249.451C643.767 249.136 644.643 248.665 645.403 248.071C647.896 252.485 654.094 262.936 654.094 262.936C654.094 262.936 670.979 260.895 695.901 272.593C696.29 272.776 696.924 271.768 696.556 271.549ZM664.663 236.651C663.374 236.553 657.85 236.754 653.874 236.919L662.761 233.84L671.475 227.269C668.201 230.823 665.61 234.785 664.663 236.651ZM676.005 223.108C675.948 223.151 675.891 223.195 675.835 223.238L662.307 231.473C662.432 231.14 662.41 230.764 662.204 230.435C661.998 230.107 661.654 229.901 661.278 229.834L675.797 223.179C675.866 223.155 675.936 223.133 676.005 223.108ZM657.579 225.368C659.809 225.547 664.837 225.465 669.82 224.635L659.275 228.288L651.932 233.826C654.075 230.742 657.026 226.443 657.579 225.368ZM650.017 236.568L659.729 230.656C659.605 230.989 659.626 231.365 659.832 231.694C660.038 232.022 660.383 232.228 660.758 232.295L650.334 237.073C649.893 237.092 649.64 237.105 649.64 237.105C649.64 237.105 649.78 236.906 650.017 236.568ZM622.421 225.368C622.974 226.443 625.925 230.742 628.068 233.826L620.725 228.288L610.18 224.635C615.163 225.465 620.191 225.547 622.421 225.368ZM603.995 223.108C604.064 223.133 604.134 223.155 604.203 223.179L618.722 229.833C618.347 229.9 618.003 230.106 617.796 230.434C617.59 230.763 617.569 231.14 617.693 231.472L604.166 223.238C604.109 223.195 604.053 223.151 603.995 223.108ZM615.337 236.651C614.39 234.785 611.8 230.823 608.526 227.27L617.239 233.84L626.126 236.919C622.15 236.754 616.626 236.553 615.337 236.651ZM629.667 237.073L619.242 232.295C619.618 232.228 619.962 232.022 620.168 231.694C620.374 231.366 620.396 230.989 620.271 230.656L629.984 236.568C630.221 236.906 630.361 237.105 630.361 237.105C630.361 237.105 630.107 237.092 629.667 237.073ZM615.337 247.793C616.626 247.89 622.15 247.69 626.126 247.525L617.239 250.603L608.526 257.174C611.8 253.621 614.39 249.658 615.337 247.793ZM603.995 261.335C604.052 261.293 604.109 261.248 604.166 261.205L617.693 252.971C617.569 253.303 617.59 253.68 617.796 254.009C618.002 254.337 618.347 254.543 618.722 254.61L604.203 261.264C604.134 261.288 604.064 261.311 603.995 261.335ZM622.421 259.075C620.191 258.896 615.163 258.978 610.181 259.808L620.726 256.155L628.069 250.618C625.925 253.701 622.974 258 622.421 259.075ZM629.984 247.876L620.271 253.787C620.396 253.455 620.374 253.078 620.168 252.75C619.962 252.421 619.618 252.215 619.242 252.148L629.666 247.371C630.107 247.351 630.36 247.339 630.36 247.339C630.36 247.339 630.221 247.538 629.984 247.876ZM647.085 219.797C646.348 220.775 643.775 225.274 641.943 228.522L643.486 219.907L641.654 209.683C643.364 214.066 645.801 218.11 647.085 219.797ZM639.963 204.196C639.975 204.129 639.989 204.061 640 203.995C640.011 204.061 640.025 204.128 640.037 204.195L641.029 219.084C640.778 218.819 640.413 218.647 640 218.647C639.587 218.647 639.222 218.818 638.971 219.084L639.963 204.196ZM640 221.166C640.412 221.166 640.778 220.995 641.029 220.729L640.317 231.418C640.116 231.779 640 231.987 640 231.987C640 231.987 639.885 231.779 639.684 231.418L638.972 220.729C639.222 220.995 639.588 221.166 640 221.166ZM632.916 219.797C634.2 218.11 636.636 214.066 638.346 209.683L636.514 219.906L638.057 228.522C636.225 225.274 633.652 220.775 632.916 219.797ZM632.916 264.647C633.652 263.669 636.225 259.169 638.058 255.921L636.514 264.537L638.346 274.761C636.636 270.378 634.2 266.333 632.916 264.647ZM640.038 280.248C640.025 280.315 640.012 280.382 640 280.449C639.989 280.382 639.975 280.315 639.963 280.248L638.971 265.359C639.222 265.624 639.588 265.796 640 265.796C640.412 265.796 640.778 265.625 641.029 265.359L640.038 280.248ZM640 263.278C639.588 263.278 639.222 263.449 638.971 263.715L639.683 253.025C639.884 252.664 640 252.456 640 252.456C640 252.456 640.115 252.664 640.317 253.025L641.029 263.715C640.778 263.449 640.413 263.278 640 263.278ZM647.085 264.647C645.801 266.333 643.364 270.378 641.655 274.76L643.486 264.537L641.943 255.921C643.775 259.169 646.348 263.669 647.085 264.647ZM640 246.065C637.691 246.065 635.82 244.344 635.82 242.222C635.82 240.099 637.691 238.378 640 238.378C642.308 238.378 644.18 240.099 644.18 242.222C644.18 244.344 642.308 246.065 640 246.065ZM664.663 247.793C665.61 249.658 668.201 253.621 671.474 257.174L662.761 250.603L653.874 247.525C657.85 247.69 663.374 247.89 664.663 247.793ZM649.64 247.339C649.64 247.339 649.893 247.351 650.334 247.371L660.758 252.148C660.383 252.215 660.039 252.421 659.832 252.75C659.626 253.078 659.605 253.455 659.729 253.787L650.017 247.876C649.78 247.538 649.64 247.339 649.64 247.339ZM657.579 259.075C657.026 258 654.075 253.701 651.932 250.618L659.275 256.155L669.82 259.808C664.837 258.978 659.809 258.896 657.579 259.075ZM675.797 261.265L661.278 254.61C661.654 254.543 661.997 254.338 662.204 254.009C662.41 253.681 662.432 253.304 662.307 252.971L675.835 261.205C675.891 261.248 675.948 261.293 676.005 261.335C675.936 261.311 675.866 261.288 675.797 261.265Z" fill="#FFE6E6"/>
<line x1="641.667" y1="110" x2="641.667" y2="217.778" stroke="#FFE6E6" stroke-width="3.33333"/>
<line x1="990.556" y1="87.7778" x2="990.556" y2="195.556" stroke="#FFE6E6" stroke-width="3.33333"/>
<line x1="1761.67" y1="46.6667" x2="1761.67" y2="420" stroke="#FFE6E6" stroke-width="3.33333"/>
<line x1="236.111" y1="46.6667" x2="236.111" y2="227.778" stroke="#FFE6E6" stroke-width="3.33333"/>
<line x1="1507.22" y1="7.28523e-08" x2="1507.22" y2="181.111" stroke="#FFE6E6" stroke-width="3.33333"/>
<line x1="1226.11" y1="53.3335" x2="1226.11" y2="172.222" stroke="#FFE6E6" stroke-width="3.33333"/>
<line x1="53.8888" y1="102.222" x2="53.8888" y2="333.333" stroke="#FFE6E6" stroke-width="3.33333"/>
<path d="M1278.68 240.063C1275.2 236.854 1272.23 232.828 1268.86 230.881C1265 228.656 1262.03 230.471 1258.29 228.315C1257.64 227.936 1258.08 227.328 1259.28 227.065C1261.98 226.479 1263.32 227.19 1266.52 226.212C1268.03 225.75 1269.87 224.216 1272.12 222.404C1272.65 221.976 1272.41 221.117 1271.73 221.039C1268.8 220.701 1266.17 220.66 1263.96 221.738C1259.94 223.698 1259.59 225.42 1257.06 226.101C1256.57 226.233 1252.89 224.323 1248.8 222.077C1248.95 221.697 1249.55 221.321 1250.52 221.109C1254.19 220.311 1256.01 221.278 1260.36 219.948C1262.59 219.267 1265.34 216.875 1268.76 214.144C1269.2 213.801 1269 213.107 1268.46 213.037C1264.06 212.474 1260.15 212.276 1256.89 213.863C1251.44 216.517 1250.26 220.047 1246.84 220.992C1244.3 219.573 1241.77 218.13 1239.9 217.054C1240.1 216.847 1240.49 216.656 1241.04 216.538C1243.72 215.953 1245.06 216.662 1248.25 215.687C1249.82 215.209 1251.73 213.577 1254.1 211.678C1254.53 211.334 1254.34 210.639 1253.79 210.573C1250.73 210.2 1247.99 210.111 1245.7 211.228C1241.89 213.084 1240.93 215.524 1238.67 216.345C1237.71 215.789 1237.07 215.42 1236.94 215.341C1235.19 214.334 1234.77 210.656 1234.77 210.656C1234.77 210.656 1231.62 212.272 1229.86 211.255C1228.95 210.726 1228.53 210.014 1228.41 209.391C1228.54 208.674 1229.13 208.056 1229.86 207.635C1231.62 206.618 1234.77 208.234 1234.77 208.234C1234.77 208.234 1235.19 204.556 1236.94 203.549C1237.07 203.471 1237.71 203.102 1238.67 202.546C1240.93 203.368 1241.89 205.807 1245.7 207.663C1247.99 208.779 1250.73 208.691 1253.79 208.318C1254.33 208.251 1254.53 207.556 1254.1 207.212C1251.73 205.314 1249.82 203.682 1248.25 203.204C1245.06 202.229 1243.72 202.937 1241.04 202.353C1240.49 202.235 1240.1 202.045 1239.9 201.838C1241.78 200.764 1244.31 199.321 1246.85 197.902C1250.26 198.852 1251.45 202.376 1256.89 205.027C1260.15 206.615 1264.06 206.417 1268.46 205.854C1269 205.784 1269.2 205.09 1268.76 204.746C1265.34 202.016 1262.59 199.623 1260.36 198.942C1256.01 197.612 1254.19 198.579 1250.52 197.781C1249.56 197.571 1248.96 197.198 1248.8 196.822C1252.89 194.574 1256.58 192.661 1257.06 192.789C1259.59 193.47 1259.94 195.192 1263.96 197.153C1266.17 198.23 1268.8 198.189 1271.73 197.851C1272.41 197.773 1272.65 196.915 1272.12 196.487C1269.87 194.674 1268.03 193.14 1266.52 192.678C1263.32 191.7 1261.98 192.411 1259.28 191.825C1258.07 191.562 1257.64 190.954 1258.29 190.575C1262.03 188.419 1265 190.235 1268.86 188.009C1272.23 186.062 1275.2 182.036 1278.68 178.827C1279.17 178.373 1278.71 177.576 1278.08 177.774C1273.56 179.183 1268.58 179.748 1265.21 181.695C1261.36 183.92 1261.44 187.405 1257.71 189.561C1257.05 189.94 1256.74 189.256 1257.12 188.08C1257.96 185.453 1259.25 184.648 1260 181.384C1260.36 179.842 1259.95 177.485 1259.5 174.626C1259.4 173.952 1258.53 173.738 1258.13 174.286C1256.37 176.655 1255.02 178.908 1254.85 181.361C1254.53 185.825 1255.85 186.986 1255.17 189.525C1255.04 190.015 1251.55 192.249 1247.56 194.663C1247.3 194.347 1247.28 193.637 1247.58 192.688C1248.72 189.116 1250.47 188.021 1251.5 183.583C1252.02 181.312 1251.33 177.738 1250.67 173.405C1250.59 172.861 1249.89 172.681 1249.56 173.118C1246.88 176.64 1244.75 179.936 1244.49 183.551C1244.07 189.594 1246.53 192.385 1245.64 195.816C1243.14 197.309 1240.63 198.777 1238.76 199.859C1238.68 199.583 1238.71 199.153 1238.88 198.619C1239.72 196.002 1241 195.199 1241.75 191.946C1242.12 190.35 1241.66 187.876 1241.2 184.875C1241.12 184.331 1240.42 184.151 1240.09 184.591C1238.24 187.055 1236.79 189.381 1236.62 191.923C1236.32 196.15 1237.95 198.207 1237.53 200.572C1236.57 201.127 1235.93 201.492 1235.8 201.57C1234.05 202.577 1230.66 201.105 1230.66 201.105C1230.66 201.105 1230.48 204.639 1228.72 205.655C1227.8 206.185 1226.98 206.187 1226.38 205.982C1225.82 205.51 1225.59 204.687 1225.59 203.845C1225.59 201.812 1228.56 199.894 1228.56 199.894C1228.56 199.894 1225.59 197.688 1225.59 195.674C1225.59 195.517 1225.58 194.783 1225.58 193.669C1227.42 192.127 1230.02 192.51 1233.53 190.14C1235.64 188.715 1236.93 186.301 1238.14 183.463C1238.36 182.956 1237.85 182.442 1237.34 182.641C1234.51 183.744 1232.14 184.586 1230.94 185.704C1228.5 187.982 1228.45 189.493 1226.6 191.526C1226.22 191.939 1225.87 192.178 1225.59 192.249C1225.59 190.09 1225.61 187.174 1225.65 184.261C1228.18 181.785 1231.83 182.518 1236.84 179.133C1239.84 177.105 1241.63 173.612 1243.34 169.527C1243.55 169.019 1243.05 168.505 1242.54 168.706C1238.46 170.308 1235.01 171.489 1233.31 173.08C1229.98 176.189 1229.91 178.25 1227.38 181.025C1226.72 181.756 1226.1 182.09 1225.69 182.033C1225.79 177.366 1225.98 173.219 1226.33 172.87C1228.19 171.01 1229.85 171.572 1233.56 169.068C1235.6 167.692 1236.88 165.398 1238.05 162.691C1238.32 162.065 1237.7 161.421 1237.06 161.668C1234.37 162.714 1232.12 163.537 1230.96 164.616C1228.52 166.902 1228.46 168.418 1226.61 170.458C1225.78 171.372 1225.03 171.447 1225.03 170.69C1225.03 166.378 1228.09 164.709 1228.09 160.258C1228.09 156.364 1226.09 151.773 1225.05 147.156C1224.9 146.504 1223.98 146.504 1223.84 147.156C1222.8 151.773 1220.8 156.365 1220.8 160.258C1220.8 164.709 1223.86 166.378 1223.86 170.69C1223.86 171.447 1223.11 171.372 1222.28 170.458C1220.43 168.418 1220.37 166.902 1217.92 164.616C1216.77 163.537 1214.52 162.714 1211.83 161.668C1211.19 161.421 1210.57 162.065 1210.84 162.691C1212.01 165.398 1213.29 167.692 1215.33 169.068C1219.04 171.571 1220.7 171.01 1222.56 172.87C1222.92 173.228 1223.11 177.371 1223.2 182.031C1222.8 182.095 1222.17 181.762 1221.5 181.025C1218.98 178.25 1218.91 176.189 1215.58 173.08C1213.87 171.49 1210.43 170.308 1206.35 168.706C1205.84 168.505 1205.34 169.019 1205.55 169.527C1207.26 173.612 1209.04 177.106 1212.05 179.133C1217.07 182.522 1220.72 181.784 1223.24 184.269C1223.29 187.181 1223.3 190.093 1223.3 192.25C1223.02 192.181 1222.67 191.941 1222.29 191.527C1220.44 189.494 1220.39 187.982 1217.95 185.705C1216.75 184.587 1214.38 183.745 1211.55 182.642C1211.04 182.442 1210.53 182.957 1210.75 183.464C1211.96 186.301 1213.25 188.716 1215.36 190.141C1218.87 192.512 1221.47 192.127 1223.31 193.671C1223.31 194.784 1223.3 195.518 1223.3 195.675C1223.3 197.689 1220.33 199.894 1220.33 199.894C1220.33 199.894 1223.3 201.813 1223.3 203.846C1223.3 204.904 1222.89 205.619 1222.42 206.038C1221.73 206.282 1220.9 206.078 1220.17 205.656C1218.41 204.64 1218.23 201.106 1218.23 201.106C1218.23 201.106 1214.84 202.578 1213.09 201.571C1212.96 201.493 1212.32 201.127 1211.36 200.571C1210.94 198.206 1212.57 196.15 1212.27 191.924C1212.09 189.382 1210.65 187.056 1208.8 184.592C1208.47 184.152 1207.77 184.332 1207.68 184.876C1207.22 187.877 1206.77 190.351 1207.14 191.947C1207.89 195.2 1209.17 196.003 1210.01 198.621C1210.18 199.152 1210.21 199.581 1210.13 199.858C1208.26 198.774 1205.75 197.302 1203.24 195.806C1202.36 192.38 1204.82 189.588 1204.4 183.552C1204.14 179.937 1202.01 176.641 1199.33 173.119C1199 172.681 1198.3 172.862 1198.22 173.406C1197.56 177.739 1196.86 181.313 1197.39 183.584C1198.42 188.022 1200.17 189.118 1201.31 192.69C1201.61 193.631 1201.58 194.338 1201.33 194.656C1197.34 192.238 1193.84 190.003 1193.72 189.527C1193.04 186.987 1194.35 185.826 1194.04 181.362C1193.87 178.909 1192.52 176.656 1190.76 174.287C1190.36 173.739 1189.49 173.953 1189.39 174.628C1188.94 177.487 1188.53 179.844 1188.89 181.385C1189.64 184.649 1190.93 185.454 1191.77 188.081C1192.14 189.258 1191.84 189.94 1191.18 189.562C1187.45 187.406 1187.53 183.921 1183.68 181.696C1180.31 179.749 1175.33 179.184 1170.81 177.776C1170.18 177.577 1169.72 178.375 1170.21 178.828C1173.68 182.038 1176.66 186.064 1180.03 188.011C1183.89 190.236 1186.86 188.421 1190.6 190.577C1191.25 190.955 1190.81 191.563 1189.61 191.826C1186.91 192.412 1185.57 191.701 1182.37 192.679C1180.86 193.141 1179.02 194.675 1176.77 196.488C1176.23 196.915 1176.48 197.774 1177.16 197.852C1180.09 198.19 1182.72 198.231 1184.93 197.153C1188.95 195.193 1189.29 193.471 1191.83 192.79C1192.32 192.659 1196 194.568 1200.09 196.815C1199.94 197.194 1199.34 197.571 1198.37 197.783C1194.7 198.58 1192.88 197.613 1188.52 198.944C1186.3 199.625 1183.55 202.017 1180.12 204.748C1179.69 205.091 1179.89 205.785 1180.43 205.855C1184.82 206.418 1188.74 206.616 1192 205.028C1197.45 202.375 1198.63 198.845 1202.05 197.9C1204.59 199.318 1207.12 200.762 1208.99 201.837C1208.79 202.045 1208.4 202.235 1207.85 202.354C1205.17 202.938 1203.83 202.23 1200.64 203.204C1199.07 203.682 1197.16 205.314 1194.79 207.213C1194.36 207.557 1194.55 208.252 1195.1 208.318C1198.16 208.691 1200.9 208.78 1203.19 207.663C1207 205.807 1207.96 203.367 1210.22 202.546C1211.18 203.102 1211.82 203.471 1211.95 203.55C1213.69 204.557 1214.12 208.234 1214.12 208.234C1214.12 208.234 1217.27 206.618 1219.03 207.635C1219.94 208.164 1220.36 208.876 1220.48 209.5C1220.35 210.216 1219.76 210.835 1219.03 211.256C1217.27 212.273 1214.12 210.657 1214.12 210.657C1214.12 210.657 1213.69 214.334 1211.95 215.341C1211.82 215.42 1211.18 215.789 1210.22 216.344C1207.96 215.522 1206.99 213.083 1203.19 211.228C1200.9 210.111 1198.16 210.199 1195.1 210.573C1194.55 210.639 1194.36 211.334 1194.79 211.678C1197.16 213.577 1199.07 215.209 1200.64 215.687C1203.83 216.662 1205.17 215.953 1207.85 216.538C1208.4 216.656 1208.78 216.846 1208.98 217.053C1207.11 218.127 1204.58 219.57 1202.03 220.989C1198.63 220.039 1197.44 216.515 1192 213.864C1188.74 212.276 1184.82 212.474 1180.43 213.037C1179.89 213.107 1179.69 213.801 1180.12 214.145C1183.55 216.875 1186.29 219.268 1188.52 219.949C1192.88 221.279 1194.7 220.312 1198.37 221.109C1199.33 221.32 1199.93 221.693 1200.08 222.069C1195.99 224.316 1192.31 226.23 1191.83 226.102C1189.29 225.421 1188.95 223.699 1184.93 221.738C1182.72 220.661 1180.09 220.702 1177.16 221.04C1176.48 221.118 1176.23 221.976 1176.77 222.404C1179.02 224.217 1180.86 225.751 1182.37 226.213C1185.57 227.191 1186.91 226.48 1189.61 227.066C1190.81 227.329 1191.25 227.937 1190.6 228.315C1186.86 230.471 1183.89 228.656 1180.03 230.881C1176.66 232.828 1173.68 236.854 1170.21 240.064C1169.72 240.517 1170.18 241.315 1170.81 241.116C1175.33 239.708 1180.31 239.143 1183.68 237.196C1187.53 234.971 1187.45 231.486 1191.18 229.33C1191.84 228.951 1192.14 229.634 1191.77 230.811C1190.93 233.437 1189.64 234.243 1188.89 237.506C1188.53 239.048 1188.94 241.405 1189.38 244.264C1189.49 244.938 1190.36 245.152 1190.76 244.604C1192.52 242.235 1193.87 239.982 1194.04 237.529C1194.35 233.065 1193.04 231.904 1193.72 229.364C1193.85 228.874 1197.34 226.641 1201.33 224.227C1201.58 224.543 1201.61 225.252 1201.31 226.201C1200.16 229.773 1198.42 230.868 1197.39 235.307C1196.86 237.578 1197.56 241.152 1198.22 245.485C1198.3 246.029 1198.99 246.209 1199.33 245.772C1202.01 242.25 1204.14 238.954 1204.4 235.339C1204.82 229.296 1202.36 226.505 1203.25 223.074C1205.75 221.581 1208.26 220.113 1210.13 219.031C1210.21 219.307 1210.18 219.737 1210.01 220.271C1209.17 222.888 1207.89 223.691 1207.14 226.944C1206.77 228.541 1207.22 231.015 1207.68 234.015C1207.77 234.56 1208.47 234.74 1208.8 234.3C1210.65 231.836 1212.09 229.509 1212.27 226.968C1212.57 222.74 1210.94 220.684 1211.36 218.318C1212.32 217.763 1212.96 217.399 1213.09 217.321C1214.84 216.313 1218.23 217.786 1218.23 217.786C1218.23 217.786 1218.41 214.252 1220.17 213.235C1221.08 212.706 1221.91 212.703 1222.51 212.908C1223.06 213.38 1223.3 214.203 1223.3 215.045C1223.3 217.078 1220.33 218.996 1220.33 218.996C1220.33 218.996 1223.3 221.202 1223.3 223.216C1223.3 223.373 1223.3 224.107 1223.3 225.221C1221.46 226.763 1218.87 226.38 1215.36 228.749C1213.25 230.175 1211.96 232.589 1210.75 235.427C1210.53 235.934 1211.04 236.448 1211.55 236.248C1214.38 235.146 1216.75 234.304 1217.95 233.186C1220.39 230.908 1220.44 229.397 1222.29 227.363C1222.67 226.95 1223.02 226.711 1223.3 226.641C1223.3 228.8 1223.28 231.715 1223.23 234.629C1220.71 237.105 1217.06 236.372 1212.05 239.757C1209.05 241.784 1207.26 245.277 1205.55 249.363C1205.34 249.871 1205.84 250.385 1206.35 250.183C1210.43 248.582 1213.87 247.4 1215.58 245.809C1218.91 242.701 1218.98 240.639 1221.51 237.865C1222.17 237.133 1222.79 236.8 1223.19 236.857C1223.1 241.524 1222.91 245.671 1222.56 246.02C1220.7 247.879 1219.04 247.318 1215.33 249.822C1213.29 251.198 1212.01 253.492 1210.84 256.198C1210.57 256.824 1211.19 257.469 1211.83 257.222C1214.52 256.176 1216.77 255.353 1217.93 254.273C1220.37 251.987 1220.43 250.471 1222.28 248.431C1223.11 247.517 1223.86 247.442 1223.86 248.199C1223.86 252.511 1220.8 254.18 1220.8 258.631C1220.8 262.525 1222.8 267.116 1223.84 271.733C1223.99 272.385 1224.91 272.385 1225.05 271.733C1226.09 267.116 1228.09 262.525 1228.09 258.631C1228.09 254.18 1225.03 252.511 1225.03 248.199C1225.03 247.442 1225.78 247.517 1226.61 248.431C1228.46 250.471 1228.52 251.987 1230.96 254.273C1232.12 255.352 1234.37 256.175 1237.06 257.222C1237.7 257.469 1238.32 256.824 1238.05 256.198C1236.88 253.492 1235.6 251.198 1233.56 249.822C1229.85 247.318 1228.19 247.879 1226.33 246.02C1225.97 245.661 1225.78 241.519 1225.69 236.858C1226.09 236.795 1226.71 237.127 1227.39 237.865C1229.91 240.639 1229.98 242.701 1233.31 245.809C1235.02 247.4 1238.46 248.581 1242.54 250.183C1243.05 250.385 1243.55 249.871 1243.34 249.363C1241.63 245.277 1239.85 241.784 1236.84 239.757C1231.82 236.368 1228.17 237.106 1225.65 234.621C1225.6 231.708 1225.59 228.797 1225.59 226.64C1225.87 226.709 1226.22 226.949 1226.6 227.363C1228.45 229.396 1228.5 230.907 1230.94 233.185C1232.14 234.303 1234.51 235.145 1237.34 236.248C1237.85 236.448 1238.36 235.933 1238.14 235.426C1236.94 232.589 1235.64 230.174 1233.53 228.749C1230.02 226.378 1227.42 226.763 1225.58 225.219C1225.58 224.106 1225.59 223.372 1225.59 223.216C1225.59 221.202 1228.56 218.996 1228.56 218.996C1228.56 218.996 1225.59 217.078 1225.59 215.045C1225.59 213.986 1226 213.271 1226.47 212.852C1227.16 212.608 1227.99 212.813 1228.72 213.234C1230.48 214.251 1230.66 217.785 1230.66 217.785C1230.66 217.785 1234.05 216.313 1235.8 217.32C1235.93 217.398 1236.57 217.763 1237.53 218.319C1237.95 220.684 1236.32 222.741 1236.62 226.967C1236.8 229.508 1238.24 231.835 1240.09 234.299C1240.42 234.739 1241.12 234.559 1241.21 234.014C1241.67 231.014 1242.12 228.54 1241.75 226.943C1241 223.691 1239.72 222.888 1238.88 220.27C1238.71 219.738 1238.68 219.31 1238.76 219.033C1240.63 220.117 1243.14 221.589 1245.65 223.084C1246.53 226.511 1244.07 229.302 1244.49 235.338C1244.75 238.953 1246.88 242.249 1249.56 245.771C1249.89 246.209 1250.59 246.028 1250.67 245.484C1251.33 241.151 1252.03 237.577 1251.5 235.306C1250.47 230.868 1248.73 229.772 1247.58 226.2C1247.28 225.259 1247.31 224.552 1247.56 224.234C1251.55 226.652 1255.05 228.887 1255.17 229.363C1255.85 231.903 1254.54 233.064 1254.85 237.528C1255.02 239.981 1256.37 242.234 1258.13 244.603C1258.53 245.151 1259.4 244.937 1259.51 244.262C1259.95 241.403 1260.36 239.046 1260 237.505C1259.25 234.241 1257.96 233.436 1257.12 230.81C1256.75 229.633 1257.05 228.95 1257.71 229.328C1261.44 231.484 1261.36 234.969 1265.21 237.194C1268.58 239.141 1273.56 239.706 1278.08 241.115C1278.71 241.314 1279.17 240.517 1278.68 240.063Z" fill="#FFE6E6"/>
<path d="M108.683 407.841C105.205 404.631 102.228 400.605 98.856 398.658C95.0022 396.433 92.027 398.248 88.2933 396.093C87.6376 395.714 88.0752 395.106 89.2821 394.843C91.9756 394.257 93.3163 394.967 96.5195 393.99C98.0326 393.528 99.8683 391.994 102.123 390.181C102.655 389.754 102.406 388.895 101.729 388.817C98.7986 388.479 96.1738 388.438 93.9635 389.516C89.9411 391.476 89.5949 393.198 87.0553 393.879C86.5659 394.01 82.885 392.101 78.8013 389.854C78.9469 389.475 79.5484 389.098 80.5221 388.886C84.1851 388.089 86.0082 389.056 90.3646 387.726C92.5941 387.045 95.339 384.653 98.7646 381.922C99.1952 381.578 99.0025 380.884 98.4565 380.814C94.0648 380.251 90.1455 380.053 86.8886 381.641C81.444 384.294 80.2593 387.824 76.8436 388.769C74.3008 387.351 71.7721 385.907 69.9024 384.832C70.1017 384.624 70.4885 384.434 71.0354 384.315C73.72 383.731 75.0559 384.439 78.2488 383.464C79.8155 382.986 81.73 381.354 84.0985 379.456C84.5281 379.112 84.3354 378.417 83.7885 378.35C80.728 377.977 77.9916 377.889 75.7013 379.005C71.8927 380.861 70.928 383.301 68.6716 384.123C67.7082 383.566 67.0742 383.197 66.9385 383.119C65.1946 382.111 64.7707 378.434 64.7707 378.434C64.7707 378.434 61.6235 380.05 59.8626 379.033C58.9464 378.504 58.5319 377.792 58.4084 377.168C58.5403 376.452 59.1334 375.833 59.8626 375.412C61.6235 374.396 64.7707 376.012 64.7707 376.012C64.7707 376.012 65.1941 372.334 66.9385 371.327C67.0742 371.248 67.7087 370.88 68.6734 370.324C70.9284 371.146 71.8941 373.585 75.7013 375.441C77.9916 376.557 80.728 376.469 83.7885 376.095C84.335 376.029 84.5281 375.334 84.0985 374.99C81.73 373.092 79.8155 371.46 78.2488 370.981C75.0559 370.007 73.72 370.715 71.0354 370.131C70.4903 370.012 70.1045 369.823 69.9043 369.616C71.7763 368.541 74.3088 367.098 76.8549 365.68C80.2616 366.63 81.4501 370.154 86.8886 372.805C90.146 374.392 94.0648 374.194 98.4565 373.631C99.0025 373.561 99.1952 372.867 98.7646 372.524C95.3386 369.793 92.5941 367.4 90.3646 366.72C86.0082 365.39 84.1856 366.356 80.5221 365.559C79.556 365.349 78.9563 364.976 78.8046 364.6C82.8944 362.352 86.5791 360.439 87.0553 360.567C89.5949 361.247 89.9411 362.969 93.9635 364.93C96.1738 366.008 98.799 365.967 101.729 365.629C102.406 365.551 102.655 364.692 102.123 364.264C99.8683 362.452 98.0326 360.918 96.5195 360.456C93.3163 359.478 91.9756 360.188 89.2821 359.602C88.0747 359.34 87.6376 358.731 88.2933 358.353C92.027 356.197 95.0022 358.013 98.856 355.787C102.228 353.84 105.205 349.814 108.683 346.604C109.174 346.151 108.714 345.353 108.076 345.552C103.557 346.96 98.5828 347.525 95.2109 349.472C91.3571 351.697 91.4419 355.182 87.7078 357.338C87.052 357.717 86.7444 357.034 87.1203 355.857C87.9598 353.231 89.2453 352.425 90 349.161C90.3566 347.62 89.9458 345.263 89.5039 342.404C89.3998 341.729 88.5321 341.515 88.1256 342.063C86.3681 344.432 85.0203 346.685 84.8479 349.138C84.5342 353.602 85.8522 354.764 85.172 357.303C85.0406 357.793 81.5472 360.026 77.5606 362.44C77.3048 362.125 77.2793 361.415 77.5827 360.466C78.7241 356.894 80.4722 355.799 81.4991 351.361C82.0244 349.089 81.3253 345.516 80.6734 341.183C80.5914 340.638 79.8937 340.458 79.5602 340.896C76.877 344.418 74.7464 347.714 74.492 351.329C74.0676 357.372 76.5313 360.162 75.6419 363.594C73.142 365.087 70.6279 366.555 68.762 367.637C68.6819 367.36 68.7102 366.931 68.8807 366.397C69.7173 363.779 70.9986 362.976 71.7509 359.724C72.1202 358.127 71.6642 355.654 71.2049 352.653C71.1216 352.108 70.4234 351.928 70.0923 352.368C68.2386 354.832 66.7944 357.159 66.6158 359.701C66.3186 363.928 67.947 365.985 67.5292 368.35C66.5673 368.905 65.9318 369.269 65.7966 369.347C64.0528 370.354 60.6559 368.882 60.6559 368.882C60.6559 368.882 60.4811 372.416 58.7208 373.433C57.8045 373.962 56.9807 373.965 56.3791 373.76C55.8247 373.287 55.5858 372.465 55.5858 371.623C55.5858 369.589 58.5587 367.671 58.5587 367.671C58.5587 367.671 55.5858 365.465 55.5858 363.451C55.5858 363.294 55.5839 362.56 55.5849 361.447C57.4239 359.905 60.019 360.288 63.5294 357.918C65.6412 356.492 66.9333 354.078 68.1402 351.241C68.3559 350.734 67.8505 350.219 67.3375 350.419C64.5097 351.521 62.1393 352.363 60.9418 353.481C58.5013 355.759 58.4466 357.27 56.5986 359.304C56.2232 359.717 55.8666 359.956 55.5872 360.026C55.5929 357.867 55.6094 354.952 55.6541 352.038C58.1805 349.562 61.8265 350.295 66.8405 346.91C69.8436 344.883 71.6322 341.39 73.3407 337.304C73.5532 336.797 73.0482 336.283 72.5357 336.484C68.4582 338.086 65.0142 339.267 63.3099 340.858C59.9799 343.966 59.9055 346.028 57.3839 348.802C56.7187 349.534 56.096 349.867 55.6946 349.81C55.7931 345.144 55.9787 340.996 56.3278 340.647C58.1866 338.788 59.8508 339.349 63.56 336.845C65.5978 335.469 66.8754 333.175 68.0474 330.469C68.3187 329.843 67.6993 329.198 67.0633 329.445C64.367 330.491 62.1204 331.315 60.964 332.394C58.5154 334.68 58.4607 336.196 56.6062 338.236C55.7752 339.15 55.03 339.225 55.03 338.468C55.03 334.156 58.0895 332.487 58.0895 328.036C58.0895 324.142 56.0918 319.551 55.0516 314.933C54.9047 314.281 53.9837 314.281 53.8372 314.933C52.7971 319.551 50.7993 324.143 50.7993 328.036C50.7993 332.486 53.8589 334.155 53.8589 338.468C53.8589 339.225 53.1137 339.15 52.2827 338.236C50.4281 336.196 50.3735 334.679 47.9249 332.394C46.7684 331.315 44.5219 330.491 41.8255 329.445C41.1891 329.198 40.5701 329.843 40.8415 330.469C42.0135 333.175 43.291 335.469 45.3288 336.845C49.0375 339.349 50.7018 338.788 52.5606 340.647C52.9191 341.006 53.1061 345.148 53.2032 349.809C52.8023 349.872 52.1748 349.54 51.5045 348.802C48.9829 346.028 48.9085 343.966 45.5785 340.858C43.8747 339.267 40.4302 338.086 36.3527 336.484C35.8402 336.283 35.3352 336.797 35.5481 337.304C37.2562 341.39 39.0448 344.883 42.0479 346.911C47.068 350.3 50.7164 349.561 53.2427 352.047C53.2861 354.959 53.3002 357.871 53.304 360.028C53.0246 359.959 52.6666 359.719 52.2898 359.305C50.4413 357.271 50.3872 355.76 47.9466 353.482C46.7491 352.364 44.3787 351.522 41.5509 350.42C41.0379 350.22 40.5329 350.734 40.7482 351.241C41.9551 354.079 43.2472 356.493 45.359 357.919C48.8703 360.289 51.4659 359.905 53.3054 361.449C53.3054 362.562 53.303 363.295 53.303 363.452C53.303 365.466 50.3302 367.672 50.3302 367.672C50.3302 367.672 53.303 369.591 53.303 371.623C53.303 372.682 52.8937 373.397 52.4156 373.816C51.7287 374.06 50.8973 373.855 50.1681 373.434C48.4073 372.417 48.233 368.883 48.233 368.883C48.233 368.883 44.8366 370.355 43.0922 369.348C42.9566 369.27 42.3211 368.905 41.3592 368.349C40.9428 365.984 42.5698 363.928 42.273 359.702C42.0945 357.16 40.6502 354.833 38.7966 352.369C38.4654 351.929 37.7673 352.109 37.6839 352.654C37.2246 355.655 36.7686 358.128 37.138 359.725C37.8903 362.977 39.1715 363.781 40.0082 366.398C40.1782 366.93 40.207 367.358 40.1278 367.635C38.261 366.551 35.7455 365.079 33.2441 363.583C32.3637 360.157 34.8208 357.366 34.3968 351.33C34.1429 347.715 32.0123 344.419 29.3291 340.897C28.9956 340.459 28.2979 340.639 28.216 341.184C27.564 345.516 26.865 349.09 27.3902 351.362C28.4167 355.8 30.1653 356.895 31.3066 360.467C31.6077 361.409 31.5846 362.115 31.3349 362.434C27.3436 360.015 23.845 357.781 23.7173 357.304C23.0366 354.765 24.3547 353.604 24.0414 349.14C23.869 346.687 22.5213 344.433 20.7637 342.065C20.3572 341.517 19.4895 341.731 19.3854 342.405C18.9431 345.264 18.5328 347.621 18.8894 349.163C19.644 352.426 20.93 353.232 21.769 355.859C22.1449 357.035 21.8373 357.718 21.1816 357.34C17.4479 355.184 17.5322 351.699 13.6784 349.474C10.3066 347.527 5.3321 346.962 0.813644 345.553C0.175821 345.355 -0.284882 346.152 0.20644 346.606C3.68479 349.815 6.66145 353.841 10.0333 355.788C13.8871 358.013 16.8624 356.198 20.596 358.354C21.2518 358.732 20.8141 359.341 19.6073 359.604C16.9137 360.19 15.5731 359.479 12.3698 360.457C10.8567 360.918 9.02101 362.453 6.76649 364.265C6.23466 364.693 6.48292 365.552 7.16078 365.63C10.0908 365.968 12.7156 366.009 14.9258 364.931C18.9483 362.971 19.2949 361.249 21.834 360.568C22.3234 360.436 26.0043 362.346 30.088 364.592C29.9424 364.972 29.3409 365.348 28.3672 365.56C24.7042 366.358 22.8812 365.391 18.5248 366.721C16.2952 367.402 13.5503 369.795 10.1247 372.525C9.69416 372.868 9.88683 373.563 10.4328 373.633C14.8241 374.196 18.7433 374.394 22.0007 372.806C27.4453 370.153 28.6301 366.623 32.0457 365.677C34.5886 367.096 37.1172 368.539 38.9869 369.615C38.7872 369.822 38.4009 370.013 37.854 370.131C35.1694 370.716 33.8334 370.007 30.6406 370.982C29.0738 371.46 27.1594 373.092 24.7909 374.99C24.3613 375.335 24.5544 376.029 25.1008 376.096C28.1613 376.469 30.8978 376.557 33.1881 375.441C36.9966 373.585 37.9614 371.145 40.2178 370.324C41.1811 370.88 41.8152 371.249 41.9508 371.327C43.6947 372.334 44.1187 376.012 44.1187 376.012C44.1187 376.012 47.2663 374.396 49.0267 375.413C49.9429 375.942 50.3575 376.654 50.4809 377.277C50.349 377.994 49.7559 378.612 49.0267 379.033C47.2663 380.05 44.1187 378.434 44.1187 378.434C44.1187 378.434 43.6947 382.112 41.9508 383.119C41.8152 383.197 41.1802 383.566 40.2154 384.122C37.9604 383.3 36.9948 380.861 33.1876 379.005C30.8973 377.889 28.1609 377.977 25.1004 378.35C24.5539 378.417 24.3608 379.112 24.7904 379.456C27.1589 381.354 29.0733 382.986 30.6401 383.464C33.833 384.439 35.1689 383.731 37.8535 384.315C38.399 384.434 38.7843 384.623 38.9845 384.83C37.1125 385.905 34.5801 387.348 32.034 388.766C28.6272 387.816 27.4387 384.292 22.0003 381.642C18.7433 380.054 14.8236 380.252 10.4323 380.815C9.8859 380.885 9.69322 381.579 10.1242 381.922C13.5498 384.653 16.2947 387.046 18.5243 387.726C22.8807 389.056 24.7037 388.09 28.3667 388.887C29.3329 389.097 29.9325 389.47 30.0842 389.846C25.994 392.094 22.3098 394.007 21.8335 393.879C19.294 393.199 18.9478 391.477 14.9254 389.516C12.7151 388.439 10.0899 388.48 7.1603 388.817C6.48244 388.896 6.23419 389.754 6.76602 390.182C9.02054 391.994 10.8563 393.528 12.3694 393.99C15.5731 394.968 16.9132 394.257 19.6068 394.844C20.8141 395.106 21.2513 395.714 20.5956 396.093C16.8619 398.249 13.8866 396.434 10.0329 398.659C6.66097 400.606 3.68431 404.632 0.205965 407.842C-0.284885 408.295 0.175347 409.092 0.813169 408.894C5.33163 407.485 10.3061 406.92 13.678 404.973C17.5318 402.748 17.447 399.263 21.1811 397.107C21.8368 396.729 22.1444 397.412 21.7685 398.589C20.9291 401.215 19.6435 402.02 18.8889 405.284C18.5323 406.825 18.9431 409.182 19.3849 412.041C19.489 412.715 20.3567 412.93 20.7633 412.382C22.5208 410.013 23.8685 407.76 24.0409 405.307C24.3547 400.843 23.0366 399.682 23.7168 397.142C23.8478 396.652 27.3417 394.419 31.3283 392.005C31.5841 392.32 31.6095 393.03 31.3062 393.979C30.1648 397.551 28.4167 398.646 27.3897 403.085C26.8645 405.356 27.5636 408.929 28.2155 413.262C28.2975 413.807 28.9947 413.987 29.3286 413.549C32.0118 410.027 34.1425 406.732 34.3968 403.116C34.8213 397.073 32.3576 394.283 33.247 390.852C35.7469 389.358 38.261 387.89 40.1269 386.808C40.207 387.085 40.1787 387.515 40.0082 388.048C39.1715 390.666 37.8903 391.469 37.138 394.722C36.7686 396.318 37.2246 398.792 37.6839 401.793C37.7673 402.337 38.4654 402.517 38.7966 402.077C40.6502 399.613 42.0945 397.287 42.273 394.745C42.5698 390.518 40.9418 388.461 41.3597 386.096C42.3216 385.54 42.957 385.176 43.0922 385.098C44.8361 384.091 48.233 385.563 48.233 385.563C48.233 385.563 48.4077 382.029 50.1681 381.013C51.0843 380.484 51.9082 380.481 52.5098 380.685C53.0642 381.158 53.303 381.981 53.303 382.823C53.303 384.856 50.3302 386.774 50.3302 386.774C50.3302 386.774 53.303 388.98 53.303 390.994C53.303 391.151 53.3049 391.885 53.304 392.998C51.4649 394.54 48.8698 394.157 45.3595 396.527C43.2477 397.953 41.9556 400.367 40.7487 403.204C40.5329 403.711 41.0384 404.226 41.5514 404.026C44.3792 402.923 46.7496 402.082 47.947 400.964C50.3876 398.686 50.4423 397.174 52.2903 395.141C52.6657 394.728 53.0223 394.488 53.3016 394.419C53.296 396.578 53.2795 399.493 53.2347 402.407C50.7084 404.882 47.0624 404.149 42.0484 407.534C39.0453 409.562 37.2567 413.055 35.5486 417.14C35.3361 417.649 35.8407 418.163 36.3532 417.961C40.4307 416.359 43.8747 415.178 45.579 413.587C48.9089 410.478 48.9834 408.417 51.5055 405.642C52.1706 404.911 52.7934 404.578 53.1947 404.635C53.0962 409.301 52.9102 413.448 52.5616 413.798C50.7028 415.657 49.0385 415.096 45.3298 417.6C43.292 418.975 42.0144 421.269 40.8424 423.976C40.5711 424.602 41.1905 425.246 41.8265 425C44.5229 423.953 46.7694 423.13 47.9258 422.05C50.3744 419.764 50.4291 418.248 52.2837 416.208C53.1146 415.294 53.8598 415.219 53.8598 415.977C53.8598 420.288 50.8003 421.958 50.8003 426.408C50.8003 430.302 52.7981 434.893 53.8382 439.511C53.9851 440.163 54.9061 440.163 55.0526 439.511C56.0927 434.893 58.0905 430.302 58.0905 426.408C58.0905 421.958 55.0309 420.289 55.0309 415.977C55.0309 415.219 55.7761 415.294 56.6071 416.208C58.4612 418.248 58.5163 419.765 60.9649 422.05C62.1214 423.13 64.3679 423.953 67.0643 425C67.7002 425.246 68.3197 424.602 68.0483 423.976C66.8763 421.269 65.5988 418.975 63.561 417.6C59.8523 415.096 58.188 415.657 56.3292 413.798C55.9707 413.439 55.7837 409.296 55.6866 404.636C56.0875 404.572 56.715 404.905 57.3853 405.642C59.9069 408.417 59.9818 410.478 63.3113 413.587C65.0156 415.178 68.4596 416.359 72.5371 417.961C73.0496 418.162 73.5546 417.648 73.3422 417.14C71.6341 413.055 69.8455 409.562 66.8424 407.534C61.8223 404.146 58.1739 404.884 55.6475 402.398C55.6042 399.486 55.5901 396.574 55.5863 394.418C55.8656 394.486 56.2237 394.726 56.6005 395.14C58.449 397.174 58.5031 398.685 60.9437 400.963C62.1412 402.081 64.5116 402.923 67.3394 404.025C67.8524 404.226 68.3578 403.711 68.1421 403.204C66.9352 400.366 65.6431 397.952 63.5313 396.526C60.02 394.156 57.4244 394.54 55.5849 392.996C55.5849 391.883 55.5872 391.15 55.5872 390.993C55.5872 388.979 58.5601 386.774 58.5601 386.774C58.5601 386.774 55.5872 384.855 55.5872 382.822C55.5872 381.764 55.9966 381.049 56.4747 380.63C57.1615 380.386 57.993 380.59 58.7222 381.012C60.483 382.028 60.6573 385.562 60.6573 385.562C60.6573 385.562 64.0537 384.09 65.7981 385.097C65.9337 385.175 66.5692 385.54 67.5311 386.097C67.9475 388.462 66.3205 390.518 66.6172 394.744C66.7958 397.286 68.24 399.612 70.0937 402.076C70.4249 402.516 71.123 402.336 71.2063 401.792C71.6656 398.791 72.1216 396.317 71.7523 394.721C71 391.468 69.7187 390.665 68.8821 388.048C68.7121 387.516 68.6833 387.087 68.7625 386.81C70.6293 387.894 73.1448 389.366 75.6461 390.862C76.5266 394.288 74.069 397.08 74.4934 403.115C74.7473 406.73 76.878 410.026 79.5612 413.548C79.8947 413.986 80.5923 413.806 80.6743 413.261C81.3262 408.929 82.0253 405.355 81.5001 403.084C80.4736 398.645 78.725 397.55 77.5836 393.978C77.2826 393.036 77.3057 392.33 77.5554 392.011C81.5467 394.43 85.0453 396.664 85.173 397.141C85.8532 399.68 84.5356 400.842 84.8493 405.305C85.0218 407.759 86.3695 410.012 88.127 412.38C88.5336 412.928 89.4013 412.714 89.5054 412.04C89.9477 409.181 90.358 406.824 90.0014 405.282C89.2467 402.019 87.9612 401.213 87.1218 398.587C86.7458 397.41 87.0535 396.727 87.7092 397.106C91.4428 399.262 91.3585 402.747 95.2123 404.972C98.5842 406.919 103.559 407.484 108.077 408.892C108.713 409.092 109.174 408.294 108.683 407.841Z" fill="#FFE6E6"/>
<path d="M268.908 269.441C268.866 269.113 268.423 268.899 268.156 269.081C264.88 271.316 255.523 275.523 249.389 272.019C245.772 269.953 244.953 268.027 244.82 266.652L244.829 266.653C244.814 266.489 244.801 266.308 244.798 266.111C244.801 265.914 244.814 265.733 244.829 265.569L244.82 265.57C244.953 264.195 245.772 262.269 249.389 260.203C255.523 256.7 264.88 260.906 268.156 263.141C268.423 263.323 268.866 263.109 268.908 262.781C269.494 258.186 269.92 250.935 278.735 241.912C278.906 241.737 278.924 241.533 278.84 241.389C278.755 241.244 278.568 241.158 278.329 241.217C266.023 244.257 259.463 240.997 255.147 239.202C254.838 239.073 254.43 239.346 254.456 239.665C254.775 243.589 253.778 253.709 247.644 257.212C244.027 259.278 241.932 259.017 240.662 258.443L240.667 258.436C240.517 258.367 240.351 258.288 240.177 258.192C240.006 258.09 239.854 257.989 239.718 257.894L239.714 257.902C238.577 257.101 237.301 255.436 237.301 251.304C237.301 244.298 245.662 238.384 249.256 236.695C249.548 236.558 249.583 236.072 249.316 235.872C245.587 233.072 239.453 229.082 235.961 217.018C235.893 216.784 235.724 216.667 235.555 216.667C235.387 216.667 235.218 216.784 235.15 217.018C231.658 229.082 225.524 233.072 221.794 235.872C221.527 236.072 221.562 236.558 221.854 236.695C225.449 238.384 233.81 244.298 233.81 251.304C233.81 255.437 232.533 257.101 231.396 257.902L231.392 257.894C231.257 257.989 231.105 258.09 230.934 258.192C230.76 258.288 230.595 258.367 230.444 258.436L230.449 258.443C229.179 259.017 227.084 259.278 223.467 257.212C217.333 253.708 216.336 243.589 216.655 239.665C216.681 239.346 216.273 239.073 215.964 239.202C211.648 240.997 205.088 244.257 192.782 241.217C192.543 241.158 192.356 241.244 192.271 241.389C192.187 241.533 192.205 241.737 192.376 241.912C201.191 250.935 201.617 258.185 202.203 262.781C202.245 263.109 202.688 263.323 202.955 263.141C206.23 260.906 215.587 256.7 221.722 260.203C225.339 262.269 226.158 264.195 226.291 265.57L226.282 265.569C226.297 265.733 226.31 265.914 226.313 266.111C226.31 266.308 226.297 266.489 226.282 266.653L226.291 266.652C226.158 268.027 225.339 269.953 221.722 272.019C215.588 275.522 206.231 271.316 202.955 269.081C202.688 268.899 202.245 269.113 202.203 269.441C201.617 274.036 201.191 281.287 192.376 290.31C192.205 290.485 192.187 290.689 192.271 290.833C192.356 290.978 192.543 291.064 192.782 291.005C205.088 287.965 211.648 291.225 215.964 293.02C216.273 293.149 216.681 292.876 216.655 292.557C216.336 288.633 217.333 278.513 223.467 275.01C227.084 272.944 229.179 273.205 230.449 273.779L230.444 273.786C230.595 273.855 230.76 273.934 230.934 274.03C231.105 274.131 231.257 274.233 231.392 274.328L231.396 274.32C232.533 275.121 233.81 276.786 233.81 280.918C233.81 287.925 225.449 293.838 221.854 295.527C221.562 295.664 221.528 296.15 221.794 296.351C225.524 299.151 231.658 303.14 235.15 315.204C235.218 315.438 235.387 315.556 235.555 315.556C235.724 315.556 235.893 315.438 235.961 315.204C239.452 303.14 245.587 299.151 249.316 296.351C249.583 296.15 249.548 295.664 249.256 295.527C245.662 293.838 237.301 287.925 237.301 280.918C237.301 276.786 238.577 275.121 239.714 274.32L239.718 274.328C239.854 274.233 240.006 274.131 240.177 274.03C240.351 273.934 240.516 273.855 240.667 273.786L240.662 273.779C241.932 273.205 244.027 272.944 247.644 275.01C253.778 278.514 254.775 288.633 254.456 292.557C254.43 292.876 254.838 293.149 255.147 293.02C259.463 291.225 266.023 287.965 278.329 291.005C278.568 291.064 278.755 290.978 278.84 290.833C278.924 290.689 278.906 290.485 278.735 290.31C269.92 281.287 269.494 274.036 268.908 269.441ZM259.293 246.286C261.674 246.981 264.52 247.534 267.933 247.618C266.3 250.584 265.361 253.299 264.779 255.686C262.477 254.81 259.827 254.077 257.09 253.811C258.226 251.333 258.908 248.696 259.293 246.286ZM206.331 255.686C205.749 253.299 204.81 250.584 203.177 247.618C206.589 247.534 209.436 246.981 211.816 246.286C212.202 248.696 212.884 251.333 214.019 253.811C211.283 254.077 208.633 254.811 206.331 255.686ZM211.816 285.936C209.436 285.241 206.589 284.688 203.177 284.604C204.81 281.638 205.749 278.923 206.331 276.536C208.633 277.412 211.283 278.145 214.019 278.411C212.884 280.889 212.202 283.525 211.816 285.936ZM230.069 235.861C231.868 234.169 233.775 232.007 235.555 229.125C237.335 232.007 239.242 234.169 241.041 235.861C239.123 237.396 237.156 239.299 235.555 241.51C233.954 239.299 231.987 237.396 230.069 235.861ZM241.041 296.361C239.242 298.053 237.335 300.215 235.555 303.096C233.775 300.215 231.868 298.053 230.069 296.361C231.987 294.826 233.954 292.922 235.555 290.711C237.156 292.922 239.124 294.826 241.041 296.361ZM235.555 270.932C232.864 270.932 230.682 268.773 230.682 266.111C230.682 263.449 232.864 261.29 235.555 261.29C238.246 261.29 240.428 263.449 240.428 266.111C240.428 268.773 238.246 270.932 235.555 270.932ZM259.293 285.936C258.908 283.526 258.226 280.889 257.09 278.411C259.827 278.145 262.477 277.411 264.779 276.536C265.361 278.923 266.3 281.639 267.933 284.604C264.52 284.688 261.674 285.241 259.293 285.936Z" fill="#FFE6E6"/>
<path d="M1540.02 222.775C1539.98 222.446 1539.53 222.232 1539.27 222.414C1535.99 224.649 1526.63 228.856 1520.5 225.352C1516.88 223.286 1516.06 221.36 1515.93 219.986L1515.94 219.986C1515.93 219.823 1515.91 219.642 1515.91 219.444C1515.91 219.247 1515.93 219.066 1515.94 218.902L1515.93 218.903C1516.06 217.528 1516.88 215.603 1520.5 213.536C1526.63 210.033 1535.99 214.239 1539.27 216.474C1539.53 216.656 1539.98 216.443 1540.02 216.114C1540.61 211.519 1541.03 204.269 1549.85 195.245C1550.02 195.07 1550.04 194.867 1549.95 194.722C1549.87 194.577 1549.68 194.491 1549.44 194.55C1537.13 197.591 1530.57 194.33 1526.26 192.535C1525.95 192.406 1525.54 192.679 1525.57 192.998C1525.89 196.922 1524.89 207.042 1518.76 210.545C1515.14 212.611 1513.04 212.35 1511.77 211.776L1511.78 211.769C1511.63 211.7 1511.46 211.621 1511.29 211.525C1511.12 211.424 1510.97 211.322 1510.83 211.228L1510.83 211.235C1509.69 210.434 1508.41 208.77 1508.41 204.638C1508.41 197.631 1516.77 191.717 1520.37 190.029C1520.66 189.891 1520.69 189.405 1520.43 189.205C1516.7 186.405 1510.56 182.415 1507.07 170.351C1507 170.117 1506.84 170 1506.67 170C1506.5 170 1506.33 170.117 1506.26 170.351C1502.77 182.415 1496.64 186.405 1492.91 189.205C1492.64 189.405 1492.67 189.891 1492.97 190.029C1496.56 191.717 1504.92 197.631 1504.92 204.638C1504.92 208.77 1503.64 210.434 1502.51 211.235L1502.5 211.228C1502.37 211.322 1502.22 211.424 1502.05 211.525C1501.87 211.621 1501.71 211.7 1501.56 211.769L1501.56 211.776C1500.29 212.35 1498.2 212.611 1494.58 210.545C1488.44 207.042 1487.45 196.922 1487.77 192.998C1487.79 192.68 1487.38 192.406 1487.08 192.535C1482.76 194.33 1476.2 197.591 1463.89 194.55C1463.65 194.491 1463.47 194.577 1463.38 194.722C1463.3 194.867 1463.32 195.07 1463.49 195.245C1472.3 204.269 1472.73 211.519 1473.31 216.114C1473.36 216.443 1473.8 216.656 1474.07 216.474C1477.34 214.239 1486.7 210.033 1492.83 213.536C1496.45 215.603 1497.27 217.528 1497.4 218.903L1497.39 218.902C1497.41 219.066 1497.42 219.247 1497.42 219.444C1497.42 219.642 1497.41 219.823 1497.39 219.986L1497.4 219.986C1497.27 221.36 1496.45 223.286 1492.83 225.352C1486.7 228.855 1477.34 224.649 1474.07 222.414C1473.8 222.232 1473.36 222.446 1473.31 222.775C1472.73 227.37 1472.3 234.62 1463.49 243.643C1463.32 243.819 1463.3 244.022 1463.38 244.167C1463.47 244.311 1463.65 244.397 1463.89 244.338C1476.2 241.298 1482.76 244.558 1487.08 246.354C1487.38 246.482 1487.79 246.209 1487.77 245.89C1487.45 241.966 1488.44 231.847 1494.58 228.343C1498.2 226.277 1500.29 226.538 1501.56 227.112L1501.56 227.119C1501.71 227.188 1501.87 227.268 1502.05 227.364C1502.22 227.465 1502.37 227.567 1502.5 227.661L1502.51 227.653C1503.64 228.454 1504.92 230.119 1504.92 234.251C1504.92 241.258 1496.56 247.172 1492.97 248.86C1492.67 248.998 1492.64 249.484 1492.91 249.684C1496.64 252.484 1502.77 256.474 1506.26 268.537C1506.33 268.772 1506.5 268.889 1506.67 268.889C1506.84 268.889 1507 268.772 1507.07 268.537C1510.56 256.474 1516.7 252.484 1520.43 249.684C1520.69 249.484 1520.66 248.998 1520.37 248.86C1516.77 247.172 1508.41 241.258 1508.41 234.251C1508.41 230.119 1509.69 228.454 1510.83 227.653L1510.83 227.661C1510.97 227.567 1511.12 227.465 1511.29 227.364C1511.46 227.268 1511.63 227.188 1511.78 227.119L1511.77 227.112C1513.04 226.538 1515.14 226.277 1518.76 228.343C1524.89 231.847 1525.89 241.966 1525.57 245.89C1525.54 246.209 1525.95 246.482 1526.26 246.354C1530.57 244.558 1537.13 241.298 1549.44 244.338C1549.68 244.397 1549.87 244.311 1549.95 244.167C1550.04 244.022 1550.02 243.819 1549.85 243.643C1541.03 234.62 1540.61 227.37 1540.02 222.775ZM1530.4 199.619C1532.79 200.314 1535.63 200.868 1539.04 200.952C1537.41 203.917 1536.47 206.632 1535.89 209.019C1533.59 208.144 1530.94 207.41 1528.2 207.144C1529.34 204.666 1530.02 202.029 1530.4 199.619ZM1477.44 209.019C1476.86 206.632 1475.92 203.917 1474.29 200.952C1477.7 200.867 1480.55 200.314 1482.93 199.619C1483.31 202.029 1484 204.667 1485.13 207.144C1482.39 207.41 1479.74 208.144 1477.44 209.019ZM1482.93 239.269C1480.55 238.574 1477.7 238.021 1474.29 237.937C1475.92 234.971 1476.86 232.256 1477.44 229.87C1479.74 230.745 1482.39 231.478 1485.13 231.745C1484 234.222 1483.31 236.859 1482.93 239.269ZM1501.18 189.194C1502.98 187.502 1504.89 185.34 1506.67 182.459C1508.45 185.34 1510.35 187.502 1512.15 189.194C1510.23 190.729 1508.27 192.632 1506.67 194.844C1505.06 192.632 1503.1 190.729 1501.18 189.194ZM1512.15 249.694C1510.35 251.386 1508.45 253.548 1506.67 256.429C1504.89 253.548 1502.98 251.386 1501.18 249.694C1503.1 248.159 1505.07 246.256 1506.67 244.044C1508.27 246.256 1510.23 248.159 1512.15 249.694ZM1506.67 224.265C1503.97 224.265 1501.79 222.107 1501.79 219.444C1501.79 216.782 1503.97 214.624 1506.67 214.624C1509.36 214.624 1511.54 216.782 1511.54 219.444C1511.54 222.107 1509.36 224.265 1506.67 224.265ZM1530.4 239.269C1530.02 236.859 1529.34 234.222 1528.2 231.745C1530.94 231.478 1533.59 230.745 1535.89 229.87C1536.47 232.256 1537.41 234.972 1539.04 237.937C1535.63 238.021 1532.79 238.574 1530.4 239.269Z" fill="#FFE6E6"/>
<path d="M1828.21 477.61C1811.06 477.61 1795.96 470.247 1794.15 469.303C1792.19 470.325 1780.23 476.775 1779.21 476.775C1778.18 476.775 1775.83 474.73 1775.83 474.73C1775.83 474.73 1773.23 476.775 1771.89 476.775C1771.21 476.775 1768.6 476.618 1766.18 476.463C1767.78 474.645 1769.52 472.684 1770 472.204C1770.94 471.259 1774.23 470.87 1774.23 470.87C1774.23 470.87 1774.45 467.755 1775.17 467.032C1775.89 466.309 1788.91 462.415 1791.02 461.748C1791.64 459.802 1797.11 443.917 1809.23 431.791C1809.54 431.485 1809.46 431.056 1809.2 430.8C1808.94 430.545 1808.52 430.462 1808.21 430.769C1796.08 442.895 1780.2 448.366 1778.25 448.977C1777.58 451.091 1773.69 464.105 1772.97 464.828C1772.25 465.551 1769.13 465.774 1769.13 465.774C1769.13 465.774 1768.74 469.055 1767.8 470.001C1767.32 470.48 1765.36 472.219 1763.54 473.818C1763.38 471.402 1763.23 468.785 1763.23 468.108C1763.23 466.77 1765.27 464.175 1765.27 464.175C1765.27 464.175 1763.23 461.815 1763.23 460.792C1763.23 459.77 1769.68 447.814 1770.7 445.848C1769.75 444.039 1762.39 428.938 1762.39 411.79C1762.39 411.356 1762.03 411.111 1761.67 411.111C1761.31 411.111 1760.94 411.356 1760.94 411.79C1760.94 428.938 1753.58 444.039 1752.64 445.848C1753.66 447.814 1760.11 459.77 1760.11 460.792C1760.11 461.815 1758.06 464.175 1758.06 464.175C1758.06 464.175 1760.11 466.77 1760.11 468.108C1760.11 468.785 1759.95 471.402 1759.8 473.818C1757.98 472.219 1756.02 470.48 1755.54 470.001C1754.59 469.055 1754.2 465.774 1754.2 465.774C1754.2 465.774 1751.09 465.551 1750.37 464.828C1749.64 464.105 1745.75 451.091 1745.08 448.977C1743.13 448.365 1727.25 442.894 1715.12 430.769C1714.82 430.462 1714.39 430.545 1714.13 430.8C1713.88 431.056 1713.8 431.485 1714.1 431.791C1726.23 443.917 1731.7 459.802 1732.31 461.748C1734.42 462.416 1747.44 466.309 1748.16 467.032C1748.88 467.755 1749.11 470.87 1749.11 470.87C1749.11 470.87 1752.39 471.259 1753.33 472.204C1753.81 472.684 1755.55 474.645 1757.15 476.463C1754.74 476.618 1752.12 476.775 1751.44 476.775C1750.1 476.775 1747.51 474.73 1747.51 474.73C1747.51 474.73 1745.15 476.775 1744.13 476.775C1743.1 476.775 1731.15 470.325 1729.18 469.303C1727.37 470.247 1712.27 477.61 1695.12 477.61C1694.69 477.61 1694.44 477.971 1694.44 478.334C1694.44 478.695 1694.69 479.056 1695.12 479.056C1712.27 479.056 1727.37 486.42 1729.18 487.364C1731.15 486.341 1743.1 479.891 1744.13 479.891C1745.15 479.891 1747.51 481.937 1747.51 481.937C1747.51 481.937 1750.1 479.891 1751.44 479.891C1752.12 479.891 1754.74 480.048 1757.15 480.203C1755.55 482.021 1753.81 483.983 1753.33 484.462C1752.39 485.408 1749.11 485.797 1749.11 485.797C1749.11 485.797 1748.88 488.912 1748.16 489.635C1747.44 490.358 1734.42 494.251 1732.31 494.918C1731.7 496.865 1726.23 512.749 1714.1 524.875C1713.8 525.182 1713.88 525.611 1714.13 525.866C1714.39 526.122 1714.82 526.204 1715.12 525.898C1727.25 513.772 1743.13 508.301 1745.08 507.689C1745.75 505.576 1749.64 492.561 1750.37 491.838C1751.09 491.115 1754.2 490.893 1754.2 490.893C1754.2 490.893 1754.59 487.611 1755.54 486.666C1756.02 486.186 1757.98 484.447 1759.8 482.848C1759.95 485.264 1760.11 487.881 1760.11 488.559C1760.11 489.896 1758.06 492.492 1758.06 492.492C1758.06 492.492 1760.11 494.851 1760.11 495.874C1760.11 496.896 1753.66 508.852 1752.64 510.819C1753.58 512.628 1760.94 527.729 1760.94 544.877C1760.94 545.31 1761.31 545.556 1761.67 545.556C1762.03 545.556 1762.39 545.31 1762.39 544.877C1762.39 527.728 1769.75 512.628 1770.7 510.819C1769.68 508.852 1763.23 496.896 1763.23 495.874C1763.23 494.851 1765.27 492.492 1765.27 492.492C1765.27 492.492 1763.23 489.896 1763.23 488.559C1763.23 487.881 1763.38 485.264 1763.54 482.848C1765.36 484.447 1767.32 486.186 1767.8 486.665C1768.74 487.611 1769.13 490.892 1769.13 490.892C1769.13 490.892 1772.25 491.115 1772.97 491.838C1773.69 492.561 1777.58 505.576 1778.25 507.689C1780.2 508.301 1796.08 513.772 1808.21 525.898C1808.52 526.204 1808.94 526.122 1809.2 525.866C1809.46 525.61 1809.54 525.181 1809.23 524.875C1797.11 512.749 1791.64 496.865 1791.02 494.918C1788.91 494.25 1775.9 490.357 1775.17 489.634C1774.45 488.911 1774.23 485.797 1774.23 485.797C1774.23 485.797 1770.95 485.407 1770 484.462C1769.52 483.982 1767.78 482.021 1766.18 480.203C1768.6 480.048 1771.22 479.891 1771.89 479.891C1773.23 479.891 1775.83 481.936 1775.83 481.936C1775.83 481.936 1778.19 479.891 1779.21 479.891C1780.23 479.891 1792.19 486.341 1794.15 487.363C1795.96 486.42 1811.06 479.056 1828.21 479.056C1828.64 479.056 1828.89 478.694 1828.89 478.333C1828.89 477.971 1828.64 477.61 1828.21 477.61ZM1781.81 452.396C1784.09 451.542 1787.92 449.973 1792.41 447.588C1790.03 452.076 1788.46 455.906 1787.6 458.193C1783.96 459.312 1781.22 460.17 1779.16 460.843C1779.83 458.775 1780.69 456.041 1781.81 452.396ZM1735.73 458.193C1734.88 455.906 1733.31 452.076 1730.92 447.588C1735.41 449.973 1739.24 451.542 1741.53 452.396C1742.65 456.041 1743.5 458.776 1744.18 460.843C1742.11 460.169 1739.37 459.312 1735.73 458.193ZM1729.09 482.432C1726.86 481.42 1723.05 479.82 1718.19 478.333C1723.05 476.846 1726.86 475.247 1729.09 474.234C1732.45 476.02 1734.99 477.347 1736.93 478.333C1734.99 479.319 1732.45 480.646 1729.09 482.432ZM1741.53 504.27C1739.24 505.125 1735.41 506.694 1730.92 509.078C1733.31 504.591 1734.88 500.76 1735.73 498.474C1739.37 497.355 1742.11 496.497 1744.18 495.823C1743.5 497.891 1742.65 500.626 1741.53 504.27ZM1787.6 498.474C1788.46 500.76 1790.03 504.591 1792.41 509.078C1787.92 506.694 1784.09 505.125 1781.81 504.27C1780.69 500.626 1779.83 497.891 1779.16 495.823C1781.22 496.497 1783.96 497.355 1787.6 498.474ZM1757.57 445.751C1758.58 443.53 1760.18 439.712 1761.67 434.853C1763.15 439.712 1764.75 443.53 1765.77 445.751C1763.98 449.119 1762.65 451.66 1761.67 453.598C1760.68 451.66 1759.35 449.12 1757.57 445.751ZM1765.77 510.915C1764.75 513.136 1763.15 516.954 1761.67 521.813C1760.18 516.954 1758.58 513.136 1757.57 510.915C1759.35 507.547 1760.68 505.006 1761.67 503.068C1762.65 505.006 1763.98 507.547 1765.77 510.915ZM1761.67 480.726C1760.35 480.726 1759.27 479.655 1759.27 478.333C1759.27 477.011 1760.35 475.94 1761.67 475.94C1762.99 475.94 1764.06 477.011 1764.06 478.333C1764.06 479.655 1762.99 480.726 1761.67 480.726ZM1794.25 482.432C1790.88 480.646 1788.34 479.319 1786.4 478.333C1788.34 477.347 1790.88 476.02 1794.25 474.234C1796.47 475.247 1800.29 476.846 1805.15 478.333C1800.29 479.82 1796.47 481.42 1794.25 482.432Z" fill="#FFE6E6"/>
<line x1="430.556" y1="16.6667" x2="430.556" y2="197.778" stroke="#FFE6E6" stroke-width="3.33333"/>
<path d="M1655 84.5L1655 298.889" stroke="#FFE6E6" stroke-width="3.33333"/>
<line x1="810.556" y1="12.2222" x2="810.556" y2="193.333" stroke="#FFE6E6" stroke-width="3.33333"/>
<line x1="1377.22" y1="101.111" x2="1377.22" y2="282.222" stroke="#FFE6E6" stroke-width="3.33333"/>
<line x1="1107.22" y1="106.667" x2="1107.22" y2="287.778" stroke="#FFE6E6" stroke-width="3.33333"/>
<path d="M435.004 225.034V223.855L446.692 222.084L463.334 206.111L440.976 212.327L433.576 221.417L432.539 220.828L436.827 209.967L431.111 187.778L425.395 209.967L429.683 220.828L428.647 221.417L421.246 212.327L398.889 206.111L415.53 222.084L427.219 223.855V225.034L415.53 226.806L398.889 242.778L421.246 236.562L428.647 227.472L429.683 228.061L425.395 238.922L431.111 261.111L436.827 238.922L432.539 228.061L433.576 227.472L440.976 236.562L463.334 242.778L446.692 226.806L435.004 225.034ZM442.558 214.682L453.73 211.576L445.415 219.557L437.629 220.736L442.558 214.682ZM416.808 219.557L408.493 211.576L419.665 214.682L424.594 220.736L416.808 219.557ZM419.664 234.208L408.493 237.313L416.808 229.332L424.593 228.153L419.664 234.208ZM428.255 209.794L431.111 198.707L433.967 209.794L431.111 217.028L428.255 209.794ZM433.967 239.095L431.111 250.182L428.255 239.095L431.111 231.861L433.967 239.095ZM432.704 225.351L431.111 226.257L429.519 225.351V223.539L431.111 222.632L432.704 223.539V225.351ZM442.558 234.208L437.629 228.153L445.414 229.333L453.729 237.314L442.558 234.208Z" fill="#FFE6E6"/>
<path d="M1659.45 326.146V324.966L1671.14 323.195L1687.78 307.222L1665.42 313.438L1658.02 322.528L1656.98 321.939L1661.27 311.078L1655.56 288.889L1649.84 311.078L1654.13 321.939L1653.09 322.528L1645.69 313.438L1623.33 307.222L1639.97 323.195L1651.66 324.966V326.146L1639.97 327.917L1623.33 343.889L1645.69 337.673L1653.09 328.583L1654.13 329.173L1649.84 340.034L1655.56 362.222L1661.27 340.034L1656.98 329.173L1658.02 328.583L1665.42 337.673L1687.78 343.889L1671.14 327.917L1659.45 326.146ZM1667 315.793L1678.17 312.687L1669.86 320.668L1662.07 321.848L1667 315.793ZM1641.25 320.668L1632.94 312.687L1644.11 315.793L1649.04 321.847L1641.25 320.668ZM1644.11 335.319L1632.94 338.425L1641.25 330.444L1649.04 329.264L1644.11 335.319ZM1652.7 310.905L1655.56 299.818L1658.41 310.905L1655.56 318.139L1652.7 310.905ZM1658.41 340.206L1655.56 351.293L1652.7 340.206L1655.56 332.972L1658.41 340.206ZM1657.15 326.462L1655.56 327.368L1653.96 326.462V324.65L1655.56 323.744L1657.15 324.65V326.462ZM1667 335.319L1662.07 329.264L1669.86 330.444L1678.17 338.425L1667 335.319Z" fill="#FFE6E6"/>
<path d="M1111.67 315.034V313.855L1123.36 312.084L1140 296.111L1117.64 302.327L1110.24 311.417L1109.21 310.828L1113.49 299.967L1107.78 277.778L1102.06 299.967L1106.35 310.828L1105.31 311.417L1097.91 302.327L1075.56 296.111L1092.2 312.084L1103.89 313.855V315.034L1092.2 316.806L1075.56 332.778L1097.91 326.562L1105.31 317.472L1106.35 318.061L1102.06 328.922L1107.78 351.111L1113.49 328.922L1109.21 318.061L1110.24 317.472L1117.64 326.562L1140 332.778L1123.36 316.806L1111.67 315.034ZM1119.22 304.682L1130.4 301.576L1122.08 309.557L1114.3 310.736L1119.22 304.682ZM1093.47 309.557L1085.16 301.576L1096.33 304.682L1101.26 310.736L1093.47 309.557ZM1096.33 324.208L1085.16 327.313L1093.47 319.332L1101.26 318.153L1096.33 324.208ZM1104.92 299.794L1107.78 288.707L1110.63 299.794L1107.78 307.028L1104.92 299.794ZM1110.63 329.095L1107.78 340.182L1104.92 329.095L1107.78 321.861L1110.63 329.095ZM1109.37 315.351L1107.78 316.257L1106.19 315.351V313.539L1107.78 312.632L1109.37 313.539V315.351ZM1119.22 324.208L1114.3 318.153L1122.08 319.333L1130.4 327.314L1119.22 324.208Z" fill="#FFE6E6"/>
<path d="M790.818 256.77C791.349 255.575 791.713 254.398 791.957 253.351C793.288 253.719 794.55 253.908 795.619 253.998C795.163 254.969 794.694 256.156 794.348 257.493C793.319 257.181 792.119 256.908 790.818 256.77ZM759.675 258.311C759.747 258.436 759.853 258.539 759.994 258.597C764.714 260.54 775.878 263.269 780.179 262.912C777.719 266.458 774.461 277.422 773.784 282.481C773.764 282.633 773.799 282.775 773.872 282.901C774.177 283.43 775.131 283.66 775.274 283.008C777.045 274.913 782.602 263.547 786.73 260.424C787.934 259.513 788.025 259.676 788.025 259.676C791.752 259.374 795.225 260.858 796.062 261.384C796.463 261.636 796.76 261.428 796.784 260.967C797.016 256.522 799.571 253.01 799.571 253.01L803.841 250.545L813.578 250.562L808.718 246.528L807.574 240.163L802.721 248.604L798.45 251.069C798.45 251.069 794.132 251.527 790.166 249.504C789.755 249.295 789.427 249.448 789.444 249.921C789.481 250.909 789.03 254.659 786.904 257.735C786.905 257.737 786.995 257.898 785.609 258.483C780.841 260.496 768.179 259.556 760.283 257.043C759.647 256.841 759.369 257.781 759.675 258.311Z" fill="#FFE6E6"/>
<path d="M768.654 265.221C763.471 271.616 757.88 275.859 757.88 275.859C757.88 275.859 764.247 272.96 772.377 271.669L778.697 263.563L768.654 265.221Z" fill="#FFE6E6"/>
<path d="M790.778 233.955C792.078 233.817 793.279 233.545 794.308 233.233C794.655 234.569 795.123 235.757 795.579 236.728C794.511 236.818 793.248 237.006 791.917 237.375C791.673 236.327 791.309 235.151 790.778 233.955ZM773.872 207.755C773.799 207.88 773.763 208.023 773.783 208.175C774.461 213.234 777.679 224.267 780.139 227.813C775.838 227.456 764.713 230.116 759.993 232.06C759.852 232.118 759.747 232.22 759.674 232.346C759.369 232.875 759.646 233.816 760.283 233.614C768.179 231.101 780.8 230.23 785.569 232.243C786.96 232.83 786.864 232.991 786.864 232.991C788.989 236.067 789.441 239.817 789.404 240.805C789.387 241.277 789.715 241.431 790.126 241.221C794.091 239.199 798.41 239.656 798.41 239.656L802.68 242.122L807.534 250.563L808.598 244.337L813.538 240.164L803.801 240.181L799.531 237.715C799.531 237.715 796.975 234.204 796.744 229.759C796.72 229.298 796.423 229.091 796.023 229.342C795.186 229.868 791.712 231.352 787.985 231.049C787.984 231.051 787.89 231.209 786.69 230.302C782.563 227.179 777.046 215.743 775.274 207.649C775.131 206.996 774.177 207.226 773.872 207.755Z" fill="#FFE6E6"/>
<path d="M772.376 218.987C764.246 217.697 757.778 214.976 757.778 214.976C757.778 214.976 763.472 219.04 768.654 225.435L778.834 226.856L772.376 218.987Z" fill="#FFE6E6"/>
<path d="M810.516 222.513C811.286 223.571 812.122 224.474 812.907 225.209C811.922 226.178 811.128 227.177 810.516 228.057C809.903 227.177 809.109 226.178 808.125 225.209C808.91 224.474 809.746 223.571 810.516 222.513ZM824.753 194.772C824.608 194.772 824.467 194.812 824.346 194.905C820.303 198.022 812.357 206.325 810.516 210.229C808.674 206.326 800.809 198.022 796.766 194.905C796.645 194.812 796.503 194.772 796.358 194.772C795.748 194.772 795.072 195.483 795.565 195.933C801.69 201.514 808.755 212.009 809.395 217.146C809.582 218.644 809.395 218.642 809.395 218.642C807.794 222.02 804.772 224.286 803.898 224.748C803.48 224.969 803.511 225.33 803.898 225.582C807.632 228.005 809.395 231.974 809.395 231.974V236.905L804.512 245.328L810.436 243.137L816.52 245.328L811.637 236.905V231.974C811.637 231.974 813.4 228.005 817.134 225.582C817.521 225.331 817.552 224.969 817.134 224.748C816.26 224.286 813.238 222.02 811.637 218.642C811.635 218.642 811.451 218.639 811.637 217.146C812.277 212.01 819.422 201.514 825.547 195.933C826.041 195.483 825.364 194.772 824.753 194.772Z" fill="#FFE6E6"/>
<path d="M814.278 199.093C811.331 191.407 810.453 184.444 810.453 184.444C810.453 184.444 809.78 191.407 806.833 199.093L810.693 208.62L814.278 199.093Z" fill="#FFE6E6"/>
<path d="M830.293 233.886C829.762 235.081 829.398 236.257 829.154 237.305C827.823 236.937 826.561 236.748 825.492 236.658C825.948 235.687 826.417 234.5 826.763 233.163C827.792 233.475 828.992 233.748 830.293 233.886ZM861.437 232.345C861.364 232.22 861.258 232.117 861.117 232.059C856.397 230.116 845.233 227.387 840.932 227.744C843.392 224.197 846.65 213.233 847.327 208.174C847.348 208.023 847.312 207.88 847.239 207.754C846.934 207.226 845.98 206.996 845.837 207.648C844.066 215.743 838.509 227.109 834.381 230.232C833.177 231.143 833.086 230.979 833.086 230.979C829.359 231.282 825.886 229.798 825.049 229.272C824.648 229.02 824.351 229.228 824.327 229.688C824.096 234.134 821.54 237.645 821.54 237.645L817.27 240.111L807.533 240.093L812.393 244.128L813.537 250.493L818.391 242.052L822.661 239.586C822.661 239.586 826.979 239.129 830.945 241.151C831.356 241.361 831.685 241.207 831.667 240.735C831.63 239.747 832.081 235.996 834.207 232.921C834.206 232.919 834.116 232.758 835.502 232.173C840.27 230.16 852.932 231.1 860.828 233.613C861.464 233.815 861.742 232.874 861.437 232.345Z" fill="#FFE6E6"/>
<path d="M852.457 225.434C857.64 219.039 863.23 214.797 863.23 214.797C863.23 214.797 856.864 217.696 848.734 218.986L842.414 227.092L852.457 225.434Z" fill="#FFE6E6"/>
<path d="M830.334 256.7C829.034 256.838 827.833 257.111 826.804 257.423C826.457 256.086 825.989 254.899 825.533 253.928C826.601 253.837 827.864 253.649 829.195 253.281C829.44 254.329 829.804 255.505 830.334 256.7ZM847.24 282.901C847.313 282.775 847.349 282.633 847.329 282.481C846.651 277.421 843.433 266.389 840.973 262.842C845.274 263.199 856.398 260.539 861.118 258.596C861.26 258.538 861.365 258.435 861.438 258.31C861.743 257.781 861.466 256.84 860.829 257.042C852.933 259.555 840.312 260.426 835.543 258.413C834.152 257.825 834.248 257.665 834.248 257.665C832.123 254.589 831.672 250.839 831.708 249.851C831.726 249.378 831.398 249.225 830.987 249.434C827.021 251.456 822.702 250.999 822.702 250.999L818.432 248.533L813.579 240.092L812.514 246.318L807.574 250.492L817.311 250.474L821.582 252.94C821.582 252.94 824.137 256.451 824.369 260.897C824.393 261.357 824.69 261.565 825.09 261.313C825.928 260.788 829.401 259.304 833.128 259.606C833.128 259.605 833.223 259.446 834.422 260.354C838.55 263.477 844.067 274.912 845.839 283.007C845.981 283.66 846.935 283.43 847.24 282.901Z" fill="#FFE6E6"/>
<path d="M848.735 271.668C856.865 272.959 863.334 275.68 863.334 275.68C863.334 275.68 857.64 271.616 852.458 265.221L842.278 263.8L848.735 271.668Z" fill="#FFE6E6"/>
<path d="M810.596 268.142C809.826 267.085 808.99 266.181 808.205 265.446C809.189 264.478 809.983 263.479 810.596 262.598C811.208 263.478 812.003 264.478 812.987 265.446C812.202 266.181 811.366 267.085 810.596 268.142ZM796.358 295.884C796.504 295.884 796.645 295.843 796.766 295.75C800.809 292.634 808.755 284.33 810.596 280.427C812.438 284.33 820.303 292.634 824.346 295.75C824.467 295.843 824.609 295.884 824.753 295.884C825.364 295.884 826.04 295.173 825.547 294.723C819.422 289.141 812.357 278.646 811.717 273.509C811.53 272.011 811.717 272.014 811.717 272.014C813.318 268.635 816.34 266.369 817.214 265.907C817.632 265.686 817.601 265.325 817.214 265.074C813.48 262.65 811.717 258.682 811.717 258.682V253.751L816.6 245.327L810.676 247.519L804.592 245.327L809.475 253.751V258.682C809.475 258.682 807.712 262.651 803.978 265.074C803.591 265.325 803.56 265.686 803.978 265.907C804.852 266.369 807.874 268.635 809.475 272.014C809.477 272.014 809.661 272.016 809.475 273.509C808.835 278.645 801.69 289.141 795.565 294.723C795.072 295.173 795.748 295.884 796.358 295.884Z" fill="#FFE6E6"/>
<path d="M806.833 291.562C809.78 299.248 810.658 306.211 810.658 306.211C810.658 306.211 811.331 299.249 814.278 291.562L810.418 282.036L806.833 291.562Z" fill="#FFE6E6"/>
<path d="M1333.86 322.745H1337.95L1337.23 323.456C1336.58 324.089 1336.57 325.123 1337.21 325.766C1337.84 326.41 1338.87 326.419 1339.52 325.786L1342.61 322.745H1346.68L1340.67 328.646C1340.03 329.278 1340.02 330.312 1340.65 330.955C1341.28 331.599 1342.32 331.609 1342.96 330.976L1351.34 322.745H1355.49L1351.27 326.891C1350.63 327.523 1350.62 328.557 1351.25 329.2C1351.88 329.844 1352.92 329.853 1353.56 329.221L1360.15 322.745H1364.78L1367.43 325.398V329.151L1364.16 332.422L1354.92 332.503C1354.02 332.51 1353.29 333.248 1353.3 334.15C1353.31 335.053 1354.06 335.79 1354.95 335.769L1360.86 335.717L1357.93 338.652L1346.18 338.755C1345.28 338.762 1344.56 339.5 1344.56 340.402C1344.57 341.304 1345.3 342.031 1346.21 342.021L1354.63 341.948L1351.76 344.822L1347.42 344.86C1346.51 344.868 1345.79 345.606 1345.8 346.508C1345.81 347.41 1346.56 348.152 1347.44 348.126L1348.46 348.118L1345.56 351.014C1344.93 351.652 1344.93 352.686 1345.56 353.324C1346.2 353.961 1347.24 353.961 1347.87 353.324L1350.77 350.427L1350.76 351.443C1350.75 352.345 1351.48 353.082 1352.38 353.091C1352.39 353.091 1352.39 353.091 1352.4 353.091C1353.29 353.091 1354.02 352.369 1354.03 351.472L1354.07 347.132L1356.94 344.257L1356.87 352.677C1356.86 353.579 1357.58 354.317 1358.49 354.325C1358.49 354.325 1358.5 354.325 1358.5 354.325C1359.4 354.325 1360.13 353.603 1360.13 352.705L1360.24 340.962L1363.17 338.027L1363.12 343.943C1363.11 344.844 1363.84 345.582 1364.74 345.59C1364.74 345.59 1364.75 345.59 1364.75 345.59C1365.65 345.59 1366.38 344.868 1366.39 343.971L1366.47 334.732L1369.74 331.46H1373.49L1376.14 334.113V338.74L1369.67 345.331C1369.04 345.974 1369.05 347.008 1369.69 347.64C1370.33 348.272 1371.37 348.264 1372 347.62L1376.14 343.4V347.551L1367.91 355.928C1367.28 356.571 1367.29 357.606 1367.93 358.238C1368.58 358.871 1369.61 358.862 1370.24 358.217L1376.14 352.211V356.277L1373.1 359.373C1372.47 360.016 1372.48 361.05 1373.12 361.682C1373.77 362.315 1374.8 362.306 1375.43 361.662L1376.14 360.937V365.034C1376.14 365.935 1376.88 366.667 1377.78 366.667C1378.68 366.667 1379.41 365.936 1379.41 365.034V360.937L1380.12 361.662C1380.76 362.306 1381.79 362.315 1382.43 361.682C1383.08 361.05 1383.09 360.016 1382.45 359.373L1379.41 356.277V352.211L1385.31 358.217C1385.95 358.861 1386.98 358.87 1387.62 358.238C1388.27 357.606 1388.27 356.571 1387.64 355.928L1379.41 347.551V343.4L1383.56 347.62C1384.19 348.264 1385.22 348.273 1385.87 347.641C1386.51 347.008 1386.52 345.974 1385.89 345.331L1379.41 338.74V334.114L1382.06 331.46H1385.82L1389.09 334.732L1389.17 343.971C1389.18 344.869 1389.91 345.59 1390.8 345.59C1390.81 345.59 1390.81 345.59 1390.82 345.59C1391.72 345.583 1392.44 344.845 1392.44 343.943L1392.38 338.027L1395.32 340.962L1395.42 352.706C1395.43 353.603 1396.16 354.325 1397.05 354.325C1397.06 354.325 1397.06 354.325 1397.07 354.325C1397.97 354.317 1398.7 353.579 1398.69 352.678L1398.61 344.258L1401.49 347.132L1401.53 351.472C1401.53 352.369 1402.26 353.091 1403.16 353.091C1403.16 353.091 1403.17 353.091 1403.17 353.091C1404.08 353.083 1404.8 352.345 1404.79 351.443L1404.78 350.427L1407.68 353.324C1408.32 353.962 1409.35 353.962 1409.99 353.324C1410.63 352.686 1410.63 351.652 1409.99 351.014L1407.09 348.118L1408.11 348.127C1408.11 348.127 1408.12 348.127 1408.12 348.127C1409.02 348.127 1409.75 347.405 1409.76 346.508C1409.77 345.606 1409.04 344.869 1408.14 344.86L1403.8 344.822L1400.92 341.948L1409.34 342.021C1409.35 342.021 1409.35 342.021 1409.36 342.021C1410.25 342.021 1410.98 341.299 1410.99 340.402C1411 339.501 1410.27 338.762 1409.37 338.755L1397.63 338.652L1394.69 335.718L1400.61 335.77C1400.61 335.77 1400.62 335.77 1400.62 335.77C1401.52 335.77 1402.25 335.048 1402.26 334.15C1402.26 333.249 1401.54 332.511 1400.64 332.503L1391.4 332.422L1388.13 329.151V325.398L1390.78 322.745H1395.41L1402 329.221C1402.64 329.853 1403.67 329.844 1404.31 329.2C1404.94 328.557 1404.93 327.523 1404.29 326.891L1400.07 322.745H1404.22L1412.59 330.976C1413.24 331.608 1414.27 331.6 1414.9 330.955C1415.54 330.312 1415.53 329.278 1414.88 328.646L1408.88 322.744H1412.94L1416.04 325.786C1416.68 326.418 1417.72 326.41 1418.35 325.766C1418.98 325.122 1418.97 324.088 1418.33 323.456L1417.6 322.744H1421.7C1422.6 322.744 1423.33 322.013 1423.33 321.111C1423.33 320.209 1422.6 319.478 1421.7 319.478H1417.6L1418.33 318.766C1418.97 318.134 1418.98 317.1 1418.35 316.457C1418.03 316.131 1417.61 315.968 1417.18 315.968C1416.77 315.968 1416.36 316.124 1416.04 316.436L1412.94 319.478H1408.88L1414.88 313.576C1415.53 312.944 1415.54 311.91 1414.9 311.267C1414.58 310.942 1414.16 310.778 1413.74 310.778C1413.33 310.778 1412.91 310.934 1412.59 311.247L1404.22 319.478H1400.07L1404.29 315.332C1404.93 314.7 1404.94 313.666 1404.31 313.023C1403.99 312.697 1403.56 312.534 1403.14 312.534C1402.73 312.534 1402.32 312.69 1402 313.002L1395.41 319.478H1390.78L1388.13 316.825V313.072L1391.4 309.801L1400.64 309.72C1401.54 309.712 1402.26 308.974 1402.26 308.073C1402.25 307.175 1401.52 306.454 1400.62 306.454C1400.62 306.454 1400.61 306.454 1400.61 306.454L1394.69 306.505L1397.63 303.57L1409.37 303.468C1410.27 303.46 1411 302.722 1410.99 301.821C1410.98 300.923 1410.25 300.201 1409.36 300.201C1409.35 300.201 1409.35 300.201 1409.34 300.201L1400.92 300.275L1403.8 297.401L1408.14 297.363C1409.04 297.355 1409.77 296.617 1409.76 295.715C1409.75 294.818 1409.02 294.096 1408.13 294.096C1408.12 294.096 1408.12 294.096 1408.11 294.096L1407.09 294.105L1409.99 291.209C1410.63 290.571 1410.63 289.537 1409.99 288.899C1409.67 288.58 1409.25 288.421 1408.84 288.421C1408.42 288.421 1408 288.58 1407.68 288.899L1404.78 291.796L1404.79 290.78C1404.8 289.878 1404.08 289.14 1403.17 289.132C1403.17 289.132 1403.16 289.132 1403.16 289.132C1402.26 289.132 1401.54 289.854 1401.53 290.751L1401.49 295.091L1398.61 297.965L1398.69 289.545C1398.7 288.644 1397.97 287.906 1397.07 287.898C1397.06 287.898 1397.06 287.898 1397.05 287.898C1396.16 287.898 1395.43 288.62 1395.42 289.517L1395.32 301.261L1392.38 304.196L1392.44 298.28C1392.44 297.378 1391.72 296.64 1390.82 296.633C1390.81 296.633 1390.81 296.633 1390.8 296.633C1389.91 296.633 1389.18 297.355 1389.17 298.252L1389.09 307.491L1385.82 310.763H1382.07L1379.41 308.109V303.483L1385.89 296.892C1386.52 296.249 1386.51 295.215 1385.87 294.582C1385.55 294.27 1385.14 294.114 1384.72 294.114C1384.3 294.114 1383.88 294.278 1383.56 294.603L1379.41 298.823V294.671L1387.64 286.295C1388.27 285.652 1388.27 284.617 1387.62 283.985C1387.3 283.673 1386.89 283.517 1386.48 283.517C1386.06 283.517 1385.63 283.68 1385.31 284.005L1379.41 290.011V285.946L1382.45 282.85C1383.09 282.207 1383.08 281.173 1382.43 280.54C1382.12 280.228 1381.7 280.072 1381.29 280.072C1380.87 280.072 1380.44 280.235 1380.12 280.561L1379.41 281.286V277.189C1379.41 276.287 1378.68 275.556 1377.78 275.556C1376.88 275.556 1376.14 276.287 1376.14 277.189V281.285L1375.43 280.561C1375.11 280.235 1374.69 280.072 1374.27 280.072C1373.85 280.072 1373.44 280.227 1373.12 280.54C1372.48 281.172 1372.47 282.206 1373.1 282.85L1376.14 285.946V290.011L1370.24 284.005C1369.92 283.68 1369.5 283.517 1369.08 283.517C1368.67 283.517 1368.25 283.672 1367.93 283.985C1367.29 284.617 1367.28 285.651 1367.91 286.294L1376.14 294.671V298.823L1372 294.603C1371.68 294.278 1371.26 294.114 1370.83 294.114C1370.42 294.114 1370.01 294.27 1369.69 294.582C1369.05 295.215 1369.04 296.249 1369.67 296.892L1376.14 303.483V308.11L1373.49 310.763H1369.74L1366.47 307.492L1366.39 298.252C1366.38 297.355 1365.65 296.633 1364.75 296.633C1364.75 296.633 1364.74 296.633 1364.74 296.633C1363.84 296.641 1363.11 297.379 1363.12 298.28L1363.17 304.196L1360.24 301.261L1360.13 289.518C1360.13 288.62 1359.4 287.899 1358.5 287.899C1358.5 287.899 1358.49 287.899 1358.49 287.899C1357.58 287.906 1356.86 288.644 1356.87 289.546L1356.94 297.966L1354.07 295.092L1354.03 290.752C1354.02 289.854 1353.29 289.132 1352.4 289.132C1352.39 289.132 1352.39 289.132 1352.38 289.132C1351.48 289.141 1350.75 289.878 1350.76 290.78L1350.77 291.796L1347.87 288.9C1347.56 288.581 1347.14 288.421 1346.72 288.421C1346.3 288.421 1345.88 288.581 1345.56 288.9C1344.93 289.538 1344.93 290.571 1345.56 291.209L1348.46 294.106L1347.44 294.097C1347.44 294.097 1347.44 294.097 1347.43 294.097C1346.53 294.097 1345.81 294.818 1345.8 295.715C1345.79 296.617 1346.51 297.355 1347.42 297.363L1351.76 297.401L1354.63 300.275L1346.21 300.202C1346.21 300.202 1346.2 300.202 1346.2 300.202C1345.3 300.202 1344.57 300.924 1344.56 301.821C1344.56 302.723 1345.28 303.461 1346.18 303.468L1357.93 303.571L1360.86 306.506L1354.95 306.454C1354.94 306.454 1354.94 306.454 1354.93 306.454C1354.04 306.454 1353.31 307.175 1353.3 308.073C1353.29 308.975 1354.02 309.713 1354.92 309.72L1364.16 309.801L1367.43 313.072V316.825L1364.78 319.479H1360.15L1353.56 313.003C1353.24 312.69 1352.83 312.534 1352.41 312.534C1351.99 312.534 1351.57 312.697 1351.25 313.023C1350.62 313.666 1350.63 314.7 1351.27 315.332L1355.49 319.479H1351.34L1342.96 311.247C1342.64 310.935 1342.23 310.779 1341.82 310.779C1341.39 310.779 1340.97 310.942 1340.65 311.267C1340.02 311.91 1340.03 312.945 1340.67 313.577L1346.68 319.478H1342.61L1339.52 316.436C1339.2 316.124 1338.79 315.968 1338.37 315.968C1337.95 315.968 1337.53 316.132 1337.21 316.457C1336.57 317.1 1336.58 318.134 1337.23 318.766L1337.95 319.478H1333.86C1332.95 319.478 1332.22 320.209 1332.22 321.111C1332.22 322.014 1332.95 322.745 1333.86 322.745ZM1367.76 321.111L1369.06 319.812L1370.9 320.089L1372.29 321.12L1370.91 322.138L1369.06 322.411L1367.76 321.111ZM1377.78 311.095L1379.08 312.395L1378.8 314.236L1377.77 315.622L1376.75 314.242L1376.48 312.395L1377.78 311.095ZM1377.76 321.108L1377.77 321.099L1377.78 321.097L1377.79 321.104L1377.79 321.115L1377.79 321.124L1377.77 321.126L1377.77 321.119L1377.76 321.108ZM1386.49 319.812L1387.79 321.111L1386.49 322.411L1384.65 322.134L1383.27 321.103L1384.65 320.085L1386.49 319.812ZM1377.78 331.128L1376.48 329.829L1376.76 327.988L1377.79 326.601L1378.81 327.981L1379.08 329.828L1377.78 331.128ZM1370.7 326.357L1372.19 325.251L1373.9 324.999L1373.65 326.695L1372.53 328.194H1370.7L1370.7 326.357ZM1383.02 328.194L1381.92 326.696L1381.66 324.986L1383.36 325.242L1384.86 326.356V328.194H1383.02ZM1384.86 315.866L1383.36 316.972L1381.65 317.224L1381.91 315.528L1383.02 314.029H1384.86V315.866ZM1372.53 314.029L1373.64 315.527L1373.89 317.237L1372.2 316.981L1370.7 315.867V314.029H1372.53Z" fill="#FFE6E6"/>
</svg>
