<svg width="1829" height="546" viewBox="0 0 1829 546" fill="none" xmlns="http://www.w3.org/2000/svg">
<g clip-path="url(#clip0_46_2466)">
<path d="M696.557 109.549C673.078 95.5528 666.558 81.0876 666.558 81.0876C666.558 81.0876 653.616 81.3776 648.212 81.5992C648.3 81.152 648.349 80.6923 648.349 80.2217C648.349 79.7511 648.3 79.2914 648.212 78.8447C653.616 79.0663 666.558 79.3562 666.558 79.3562C666.558 79.3562 673.078 64.8911 696.557 50.8951C696.924 50.6763 696.29 49.6676 695.901 49.8504C670.979 61.5481 654.095 59.5078 654.095 59.5078C654.095 59.5078 647.897 69.9591 645.403 74.3724C644.643 73.7789 643.768 73.3075 642.81 72.9932C645.721 68.7996 652.464 58.6419 652.464 58.6419C652.464 58.6419 642.1 46.217 640.657 20.5234C640.634 20.1218 639.367 20.1218 639.345 20.5234C637.901 46.217 627.537 58.6419 627.537 58.6419C627.537 58.6419 634.279 68.7996 637.191 72.9932C636.233 73.3079 635.357 73.7789 634.598 74.3724C632.105 69.9591 625.907 59.5078 625.907 59.5078C625.907 59.5078 609.022 61.5486 584.1 49.8504C583.711 49.6676 583.077 50.6763 583.444 50.8951C606.923 64.8911 613.444 79.3562 613.444 79.3562C613.444 79.3562 626.385 79.0663 631.789 78.8447C631.701 79.2919 631.653 79.7516 631.653 80.2217C631.653 80.6923 631.701 81.152 631.789 81.5992C626.385 81.3776 613.444 81.0876 613.444 81.0876C613.444 81.0876 606.923 95.5528 583.444 109.549C583.078 109.768 583.711 110.776 584.1 110.593C609.022 98.8958 625.907 100.936 625.907 100.936C625.907 100.936 632.105 90.4848 634.598 86.0715C635.358 86.6654 636.233 87.1364 637.191 87.4511C634.279 91.6447 627.537 101.802 627.537 101.802C627.537 101.802 637.901 114.227 639.345 139.921C639.367 140.323 640.634 140.323 640.657 139.921C642.1 114.227 652.464 101.802 652.464 101.802C652.464 101.802 645.722 91.6447 642.81 87.4511C643.768 87.1364 644.643 86.6654 645.403 86.0715C647.896 90.4848 654.095 100.936 654.095 100.936C654.095 100.936 670.979 98.8953 695.901 110.593C696.29 110.776 696.924 109.768 696.557 109.549ZM664.664 74.6507C663.374 74.5534 657.85 74.7538 653.875 74.9186L662.762 71.84L671.475 65.2693C668.201 68.8226 665.611 72.7851 664.664 74.6507ZM676.006 61.1082C675.949 61.1505 675.892 61.1951 675.835 61.2383L662.308 69.4728C662.432 69.14 662.411 68.7636 662.205 68.4349C661.998 68.1066 661.654 67.9008 661.279 67.8337L675.798 61.1793C675.866 61.155 675.937 61.1325 676.006 61.1082ZM657.58 63.3682C659.81 63.5474 664.838 63.4655 669.82 62.6351L659.275 66.2883L651.932 71.8256C654.076 68.742 657.027 64.4435 657.58 63.3682ZM650.017 74.5679L659.729 68.656C659.605 68.9887 659.627 69.3652 659.833 69.6939C660.039 70.0221 660.383 70.2279 660.759 70.295L650.335 75.0726C649.894 75.0924 649.641 75.1046 649.641 75.1046C649.641 75.1046 649.78 74.9056 650.017 74.5679ZM622.422 63.3682C622.975 64.4435 625.926 68.742 628.069 71.8256L620.726 66.2883L610.181 62.6351C615.164 63.4655 620.192 63.5474 622.422 63.3682ZM603.996 61.1082C604.064 61.1325 604.134 61.155 604.203 61.1789L618.723 67.8333C618.347 67.9004 618.003 68.1062 617.797 68.4344C617.59 68.7627 617.569 69.1396 617.693 69.4723L604.166 61.2383C604.109 61.1951 604.053 61.1505 603.996 61.1082ZM615.337 74.6507C614.391 72.7851 611.8 68.8226 608.527 65.2698L617.24 71.84L626.126 74.9186C622.151 74.7538 616.627 74.553 615.337 74.6507ZM629.667 75.0726L619.243 70.295C619.619 70.2279 619.962 70.0221 620.168 69.6939C620.375 69.3656 620.396 68.9887 620.272 68.656L629.984 74.5679C630.221 74.9056 630.361 75.1046 630.361 75.1046C630.361 75.1046 630.108 75.0924 629.667 75.0726ZM615.337 85.7927C616.627 85.89 622.151 85.6896 626.126 85.5248L617.239 88.6034L608.526 95.1736C611.8 91.6208 614.391 87.6583 615.337 85.7927ZM603.996 99.3352C604.053 99.2929 604.109 99.2483 604.166 99.2051L617.693 90.9706C617.569 91.3029 617.591 91.6798 617.797 92.0085C618.003 92.3368 618.347 92.5426 618.722 92.6097L604.203 99.2641C604.135 99.2884 604.064 99.3109 603.996 99.3352ZM622.422 97.0752C620.192 96.896 615.163 96.978 610.181 97.8083L620.726 94.1551L628.069 88.6178C625.926 91.7014 622.975 95.9999 622.422 97.0752ZM629.984 85.8756L620.272 91.7874C620.396 91.4547 620.375 91.0782 620.168 90.7495C619.962 90.4208 619.618 90.2155 619.242 90.1484L629.667 85.3708C630.107 85.351 630.361 85.3388 630.361 85.3388C630.361 85.3388 630.221 85.5379 629.984 85.8756ZM647.085 57.7967C646.349 58.7748 643.776 63.2741 641.943 66.5225L643.487 57.9066L641.655 47.6832C643.364 52.0659 645.801 56.1104 647.085 57.7967ZM639.963 42.1959C639.975 42.1289 639.989 42.0613 640 41.9947C640.012 42.0613 640.025 42.1284 640.038 42.195L641.03 57.0839C640.779 56.8187 640.413 56.6471 640 56.6471C639.588 56.6471 639.222 56.8183 638.971 57.0839L639.963 42.1959ZM640 59.1656C640.413 59.1656 640.779 58.9945 641.03 58.7289L640.318 69.4183C640.116 69.7794 640.001 69.987 640.001 69.987C640.001 69.987 639.885 69.7794 639.684 69.4183L638.972 58.7289C639.223 58.9945 639.588 59.1656 640 59.1656ZM632.916 57.7967C634.2 56.1104 636.636 52.0659 638.346 47.6827L636.514 57.9062L638.058 66.522C636.226 63.2741 633.653 58.7748 632.916 57.7967ZM632.916 102.647C633.653 101.669 636.226 97.1693 638.058 93.9214L636.515 102.537L638.347 112.761C636.637 108.378 634.2 104.333 632.916 102.647ZM640.038 118.248C640.026 118.315 640.012 118.382 640.001 118.449C639.99 118.382 639.976 118.315 639.964 118.248L638.971 103.359C639.223 103.624 639.588 103.796 640 103.796C640.413 103.796 640.779 103.625 641.03 103.359L640.038 118.248ZM640 101.278C639.588 101.278 639.222 101.449 638.971 101.715L639.684 91.0251C639.885 90.664 640 90.4564 640 90.4564C640 90.4564 640.116 90.664 640.317 91.0251L641.029 101.715C640.779 101.449 640.413 101.278 640 101.278ZM647.085 102.647C645.801 104.333 643.365 108.378 641.655 112.76L643.487 102.537L641.943 93.9209C643.776 97.1693 646.349 101.669 647.085 102.647ZM640 84.065C637.692 84.065 635.821 82.3444 635.821 80.2217C635.821 78.099 637.692 76.3785 640 76.3785C642.309 76.3785 644.18 78.099 644.18 80.2217C644.181 82.3444 642.309 84.065 640 84.065ZM664.664 85.7927C665.611 87.6583 668.201 91.6208 671.475 95.1736L662.761 88.6034L653.875 85.5248C657.85 85.6896 663.374 85.89 664.664 85.7927ZM649.64 85.3388C649.64 85.3388 649.893 85.3505 650.335 85.3708L660.759 90.1484C660.383 90.2155 660.039 90.4213 659.833 90.7495C659.627 91.0782 659.605 91.4547 659.729 91.7874L650.017 85.8756C649.78 85.5379 649.64 85.3388 649.64 85.3388ZM657.58 97.0752C657.027 95.9999 654.076 91.7014 651.933 88.6178L659.276 94.1551L669.821 97.8083C664.838 96.978 659.81 96.896 657.58 97.0752ZM675.798 99.2645L661.278 92.6101C661.654 92.543 661.998 92.3377 662.205 92.009C662.411 91.6807 662.432 91.3038 662.308 90.9711L675.835 99.2051C675.892 99.2483 675.949 99.2929 676.006 99.3352C675.937 99.3109 675.867 99.2884 675.798 99.2645Z" fill="#FFE6E6"/>
<line x1="641.667" y1="-52" x2="641.667" y2="55.7778" stroke="#FFE6E6" stroke-width="3.33333"/>
<line x1="990.556" y1="-74.2222" x2="990.556" y2="33.5556" stroke="#FFE6E6" stroke-width="3.33333"/>
<line x1="1761.67" y1="-115.333" x2="1761.67" y2="258" stroke="#FFE6E6" stroke-width="3.33333"/>
<line x1="236.112" y1="-115.333" x2="236.112" y2="65.7781" stroke="#FFE6E6" stroke-width="3.33333"/>
<line x1="1507.22" y1="-162" x2="1507.22" y2="19.1111" stroke="#FFE6E6" stroke-width="3.33333"/>
<line x1="1230.11" y1="-71" x2="1230.11" y2="47.8889" stroke="#FFE6E6" stroke-width="3.33333"/>
<line x1="53.8893" y1="-59.7778" x2="53.8893" y2="171.333" stroke="#FFE6E6" stroke-width="3.33333"/>
<path d="M1282.68 115.73C1279.2 112.52 1276.23 108.495 1272.86 106.547C1269 104.322 1266.03 106.138 1262.29 103.982C1261.64 103.603 1262.08 102.995 1263.28 102.732C1265.98 102.146 1267.32 102.857 1270.52 101.879C1272.03 101.417 1273.87 99.8829 1276.12 98.0704C1276.65 97.6431 1276.41 96.7842 1275.73 96.706C1272.8 96.3678 1270.17 96.3272 1267.96 97.4047C1263.94 99.3651 1263.59 101.087 1261.06 101.768C1260.57 101.899 1256.89 99.9898 1252.8 97.7434C1252.95 97.3642 1253.55 96.9873 1254.52 96.7753C1258.19 95.9781 1260.01 96.9449 1264.36 95.6149C1266.59 94.9341 1269.34 92.5417 1272.76 89.811C1273.2 89.4676 1273 88.7736 1272.46 88.7034C1268.06 88.1404 1264.15 87.9425 1260.89 89.5302C1255.44 92.1836 1254.26 95.7133 1250.84 96.6584C1248.3 95.2399 1245.77 93.7963 1243.9 92.7212C1244.1 92.5134 1244.49 92.3231 1245.04 92.2044C1247.72 91.6202 1249.06 92.3283 1252.25 91.3535C1253.82 90.8753 1255.73 89.2433 1258.1 87.3451C1258.53 87.0007 1258.34 86.3058 1257.79 86.2394C1254.73 85.8663 1251.99 85.7782 1249.7 86.8943C1245.89 88.7505 1244.93 91.1905 1242.67 92.0117C1241.71 91.4553 1241.07 91.0864 1240.94 91.0077C1239.19 90.0004 1238.77 86.3228 1238.77 86.3228C1238.77 86.3228 1235.62 87.9388 1233.86 86.9221C1232.95 86.393 1232.53 85.6811 1232.41 85.0573C1232.54 84.3407 1233.13 83.7226 1233.86 83.3014C1235.62 82.2847 1238.77 83.9007 1238.77 83.9007C1238.77 83.9007 1239.19 80.2231 1240.94 79.2158C1241.07 79.1376 1241.71 78.7687 1242.67 78.2128C1244.93 79.0349 1245.89 81.4739 1249.7 83.3297C1251.99 84.4458 1254.73 84.3582 1257.79 83.9846C1258.33 83.9177 1258.53 83.2232 1258.1 82.8788C1255.73 80.9807 1253.82 79.3487 1252.25 78.8705C1249.06 77.8957 1247.72 78.6038 1245.04 78.0201C1244.49 77.9013 1244.1 77.712 1243.9 77.5051C1245.78 76.4305 1248.31 74.9874 1250.85 73.5688C1254.26 74.5191 1255.45 78.0432 1260.89 80.6937C1264.15 82.2815 1268.06 82.0836 1272.46 81.5206C1273 81.4504 1273.2 80.7564 1272.76 80.413C1269.34 77.6823 1266.59 75.2894 1264.36 74.6091C1260.01 73.2791 1258.19 74.2454 1254.52 73.4482C1253.56 73.2381 1252.96 72.865 1252.8 72.489C1256.89 70.2412 1260.58 68.328 1261.06 68.4561C1263.59 69.1364 1263.94 70.8585 1267.96 72.8193C1270.17 73.8968 1272.8 73.8558 1275.73 73.518C1276.41 73.4398 1276.65 72.5814 1276.12 72.1536C1273.87 70.3411 1272.03 68.8071 1270.52 68.345C1267.32 67.3669 1265.98 68.0774 1263.28 67.4913C1262.07 67.2289 1261.64 66.6206 1262.29 66.2418C1266.03 64.0859 1269 65.9017 1272.86 63.6761C1276.23 61.7289 1279.2 57.7031 1282.68 54.4933C1283.17 54.0401 1282.71 53.2424 1282.08 53.4412C1277.56 54.8494 1272.58 55.4143 1269.21 57.3615C1265.36 59.5866 1265.44 63.0716 1261.71 65.2275C1261.05 65.6063 1260.74 64.9231 1261.12 63.7463C1261.96 61.1202 1263.25 60.3146 1264 57.0506C1264.36 55.509 1263.95 53.152 1263.5 50.2931C1263.4 49.6185 1262.53 49.4046 1262.13 49.9525C1260.37 52.3214 1259.02 54.5743 1258.85 57.0275C1258.53 61.4914 1259.85 62.6528 1259.17 65.1922C1259.04 65.6817 1255.55 67.9153 1251.56 70.3294C1251.3 70.0137 1251.28 69.3042 1251.58 68.3549C1252.72 64.7832 1254.47 63.6879 1255.5 59.2498C1256.02 56.9785 1255.33 53.405 1254.67 49.072C1254.59 48.5274 1253.89 48.3474 1253.56 48.7851C1250.88 52.3072 1248.75 55.6028 1248.49 59.2182C1248.07 65.261 1250.53 68.0514 1249.64 71.4827C1247.14 72.9762 1244.63 74.4442 1242.76 75.5259C1242.68 75.2494 1242.71 74.8197 1242.88 74.2859C1243.72 71.6683 1245 70.8655 1245.75 67.6128C1246.12 66.0166 1245.66 63.5427 1245.2 60.5421C1245.12 59.9975 1244.42 59.8175 1244.09 60.2576C1242.24 62.7216 1240.79 65.048 1240.62 67.5897C1240.32 71.8172 1241.95 73.8737 1241.53 76.2392C1240.57 76.7942 1239.93 77.1584 1239.8 77.2366C1238.05 78.2434 1234.66 76.7716 1234.66 76.7716C1234.66 76.7716 1234.48 80.3055 1232.72 81.3222C1231.8 81.8513 1230.98 81.8541 1230.38 81.6492C1229.82 81.1766 1229.59 80.354 1229.59 79.5117C1229.59 77.4783 1232.56 75.5603 1232.56 75.5603C1232.56 75.5603 1229.59 73.3545 1229.59 71.3404C1229.59 71.1835 1229.58 70.4495 1229.58 69.3357C1231.42 67.7937 1234.02 68.1768 1237.53 65.807C1239.64 64.3813 1240.93 61.9673 1242.14 59.1297C1242.36 58.6227 1241.85 58.1083 1241.34 58.308C1238.51 59.4105 1236.14 60.2524 1234.94 61.3704C1232.5 63.6483 1232.45 65.1597 1230.6 67.1931C1230.22 67.6062 1229.87 67.8451 1229.59 67.9153C1229.59 65.7566 1229.61 62.8412 1229.65 59.9273C1232.18 57.4515 1235.83 58.1846 1240.84 54.7995C1243.84 52.7722 1245.63 49.2788 1247.34 45.1937C1247.55 44.6858 1247.05 44.1718 1246.54 44.3729C1242.46 45.9748 1239.01 47.1559 1237.31 48.7469C1233.98 51.8554 1233.91 53.9171 1231.38 56.6916C1230.72 57.4232 1230.1 57.7563 1229.69 57.6993C1229.79 53.0328 1229.98 48.8854 1230.33 48.5363C1232.19 46.6772 1233.85 47.2383 1237.56 44.7343C1239.6 43.3586 1240.88 41.0647 1242.05 38.358C1242.32 37.7319 1241.7 37.0874 1241.06 37.3343C1238.37 38.3806 1236.12 39.2037 1234.96 40.2831C1232.52 42.569 1232.46 44.0851 1230.61 46.1251C1229.78 47.0391 1229.03 47.114 1229.03 46.3569C1229.03 42.0451 1232.09 40.3759 1232.09 35.9251C1232.09 32.0312 1230.09 27.4401 1229.05 22.8225C1228.9 22.1705 1227.98 22.1705 1227.84 22.8225C1226.8 27.4401 1224.8 32.0317 1224.8 35.9251C1224.8 40.3754 1227.86 42.0446 1227.86 46.3569C1227.86 47.114 1227.11 47.0391 1226.28 46.1251C1224.43 44.0851 1224.37 42.5685 1221.92 40.2831C1220.77 39.2037 1218.52 38.3806 1215.83 37.3343C1215.19 37.0874 1214.57 37.7319 1214.84 38.358C1216.01 41.0647 1217.29 43.3586 1219.33 44.7343C1223.04 47.2379 1224.7 46.6772 1226.56 48.5363C1226.92 48.8948 1227.11 53.0375 1227.2 57.6979C1226.8 57.7615 1226.17 57.4289 1225.5 56.6916C1222.98 53.9171 1222.91 51.8554 1219.58 48.7469C1217.87 47.1564 1214.43 45.9748 1210.35 44.3729C1209.84 44.1718 1209.34 44.6858 1209.55 45.1937C1211.26 49.2788 1213.04 52.7723 1216.05 54.8C1221.07 58.1888 1224.72 57.4506 1227.24 59.9362C1227.29 62.8478 1227.3 65.7599 1227.3 67.9167C1227.02 67.8479 1226.67 67.6081 1226.29 67.194C1224.44 65.1606 1224.39 63.6492 1221.95 61.3713C1220.75 60.2533 1218.38 59.4114 1215.55 58.309C1215.04 58.1087 1214.53 58.6237 1214.75 59.1306C1215.96 61.9682 1217.25 64.3823 1219.36 65.8079C1222.87 68.1787 1225.47 67.7942 1227.31 69.3381C1227.31 70.4509 1227.3 71.1845 1227.3 71.3413C1227.3 73.3554 1224.33 75.5612 1224.33 75.5612C1224.33 75.5612 1227.3 77.4797 1227.3 79.5126C1227.3 80.5708 1226.89 81.286 1226.42 81.7048C1225.73 81.9488 1224.9 81.7444 1224.17 81.3232C1222.41 80.3065 1222.23 76.7725 1222.23 76.7725C1222.23 76.7725 1218.84 78.2443 1217.09 77.2375C1216.96 77.1593 1216.32 76.7942 1215.36 76.2378C1214.94 73.8732 1216.57 71.8167 1216.27 67.5907C1216.09 65.0489 1214.65 62.7225 1212.8 60.2585C1212.47 59.8185 1211.77 59.9984 1211.68 60.5431C1211.22 63.5437 1210.77 66.0176 1211.14 67.6138C1211.89 70.8665 1213.17 71.6697 1214.01 74.2873C1214.18 74.8188 1214.21 75.2475 1214.13 75.5245C1212.26 74.4404 1209.75 72.9686 1207.24 71.4723C1206.36 68.0463 1208.82 65.2548 1208.4 59.2192C1208.14 55.6042 1206.01 52.3082 1203.33 48.786C1203 48.3479 1202.3 48.5283 1202.22 49.0729C1201.56 53.4054 1200.86 56.9794 1201.39 59.2507C1202.42 63.6892 1204.17 64.7846 1205.31 68.3563C1205.61 69.2981 1205.58 70.0043 1205.33 70.3232C1201.34 67.9045 1197.84 65.6699 1197.72 65.1936C1197.04 62.6542 1198.35 61.4928 1198.04 57.0289C1197.87 54.5757 1196.52 52.3223 1194.76 49.9539C1194.36 49.406 1193.49 49.6199 1193.39 50.2946C1192.94 53.1534 1192.53 55.5104 1192.89 57.052C1193.64 60.3155 1194.93 61.1211 1195.77 63.7477C1196.14 64.9246 1195.84 65.6072 1195.18 65.2289C1191.45 63.073 1191.53 59.5881 1187.68 57.3629C1184.31 55.4158 1179.33 54.8509 1174.81 53.4426C1174.18 53.2438 1173.72 54.0415 1174.21 54.4947C1177.68 57.7045 1180.66 61.7303 1184.03 63.6775C1187.89 65.9026 1190.86 64.0874 1194.6 66.2433C1195.25 66.6216 1194.81 67.2298 1193.61 67.4927C1190.91 68.0788 1189.57 67.3678 1186.37 68.3459C1184.86 68.8076 1183.02 70.3421 1180.77 72.1545C1180.23 72.5818 1180.48 73.4407 1181.16 73.5189C1184.09 73.8572 1186.72 73.8977 1188.93 72.8202C1192.95 70.8598 1193.29 69.1379 1195.83 68.4571C1196.32 68.3256 1200 70.2351 1204.09 72.4815C1203.94 72.8607 1203.34 73.2376 1202.37 73.4496C1198.7 74.2468 1196.88 73.28 1192.52 74.6105C1190.3 75.2913 1187.55 77.6837 1184.12 80.4144C1183.69 80.7573 1183.89 81.4518 1184.43 81.522C1188.82 82.085 1192.74 82.2829 1196 80.6952C1201.45 78.0418 1202.63 74.5121 1206.05 73.5665C1208.59 74.9851 1211.12 76.4286 1212.99 77.5037C1212.79 77.7115 1212.4 77.9018 1211.85 78.0206C1209.17 78.6048 1207.83 77.8966 1204.64 78.8709C1203.07 79.3491 1201.16 80.9811 1198.79 82.8793C1198.36 83.2237 1198.55 83.9186 1199.1 83.985C1202.16 84.3582 1204.9 84.4463 1207.19 83.3302C1211 81.4739 1211.96 79.034 1214.22 78.2128C1215.18 78.7692 1215.82 79.1381 1215.95 79.2163C1217.69 80.2235 1218.12 83.9012 1218.12 83.9012C1218.12 83.9012 1221.27 82.2852 1223.03 83.3019C1223.94 83.831 1224.36 84.5429 1224.48 85.1666C1224.35 85.8832 1223.76 86.5014 1223.03 86.9226C1221.27 87.9393 1218.12 86.3233 1218.12 86.3233C1218.12 86.3233 1217.69 90.0009 1215.95 91.0082C1215.82 91.0864 1215.18 91.4553 1214.22 92.0112C1211.96 91.1891 1210.99 88.7501 1207.19 86.8943C1204.9 85.7782 1202.16 85.8658 1199.1 86.2394C1198.55 86.3058 1198.36 87.0007 1198.79 87.3451C1201.16 89.2433 1203.07 90.8753 1204.64 91.3535C1207.83 92.3283 1209.17 91.6202 1211.85 92.2044C1212.4 92.3231 1212.78 92.5125 1212.98 92.7193C1211.11 93.794 1208.58 95.237 1206.03 96.6556C1202.63 95.7053 1201.44 92.1813 1196 89.5307C1192.74 87.943 1188.82 88.1409 1184.43 88.7039C1183.89 88.7741 1183.69 89.468 1184.12 89.8115C1187.55 92.5422 1190.29 94.935 1192.52 95.6154C1196.88 96.9454 1198.7 95.9791 1202.37 96.7762C1203.33 96.9863 1203.93 97.3595 1204.08 97.7354C1199.99 99.9832 1196.31 101.896 1195.83 101.768C1193.29 101.088 1192.95 99.366 1188.93 97.4052C1186.72 96.3282 1184.09 96.3687 1181.16 96.7065C1180.48 96.7847 1180.23 97.6431 1180.77 98.0709C1183.02 99.8833 1184.86 101.417 1186.37 101.879C1189.57 102.858 1190.91 102.147 1193.61 102.733C1194.81 102.996 1195.25 103.603 1194.6 103.982C1190.86 106.138 1187.89 104.323 1184.03 106.548C1180.66 108.495 1177.68 112.521 1174.21 115.731C1173.72 116.184 1174.18 116.982 1174.81 116.783C1179.33 115.375 1184.31 114.81 1187.68 112.862C1191.53 110.637 1191.45 107.152 1195.18 104.996C1195.84 104.618 1196.14 105.301 1195.77 106.478C1194.93 109.104 1193.64 109.909 1192.89 113.173C1192.53 114.714 1192.94 117.072 1193.38 119.93C1193.49 120.605 1194.36 120.819 1194.76 120.271C1196.52 117.902 1197.87 115.649 1198.04 113.196C1198.35 108.732 1197.04 107.571 1197.72 105.031C1197.85 104.541 1201.34 102.308 1205.33 99.8937C1205.58 100.209 1205.61 100.919 1205.31 101.868C1204.16 105.44 1202.42 106.535 1201.39 110.974C1200.86 113.245 1201.56 116.819 1202.22 121.152C1202.3 121.696 1202.99 121.876 1203.33 121.438C1206.01 117.916 1208.14 114.621 1208.4 111.005C1208.82 104.963 1206.36 102.172 1207.25 98.7408C1209.75 97.2473 1212.26 95.7793 1214.13 94.6976C1214.21 94.9742 1214.18 95.4038 1214.01 95.9376C1213.17 98.5552 1211.89 99.358 1211.14 102.611C1210.77 104.207 1211.22 106.681 1211.68 109.682C1211.77 110.227 1212.47 110.406 1212.8 109.966C1214.65 107.502 1216.09 105.176 1216.27 102.634C1216.57 98.4068 1214.94 96.3503 1215.36 93.9848C1216.32 93.4293 1216.96 93.0656 1217.09 92.9874C1218.84 91.9801 1222.23 93.4524 1222.23 93.4524C1222.23 93.4524 1222.41 89.9185 1224.17 88.9018C1225.08 88.3727 1225.91 88.3699 1226.51 88.5743C1227.06 89.0469 1227.3 89.8699 1227.3 90.7118C1227.3 92.7452 1224.33 94.6632 1224.33 94.6632C1224.33 94.6632 1227.3 96.869 1227.3 98.8831C1227.3 99.04 1227.3 99.774 1227.3 100.887C1225.46 102.429 1222.87 102.046 1219.36 104.416C1217.25 105.842 1215.96 108.256 1214.75 111.093C1214.53 111.6 1215.04 112.115 1215.55 111.915C1218.38 110.813 1220.75 109.971 1221.95 108.853C1224.39 106.575 1224.44 105.063 1226.29 103.03C1226.67 102.617 1227.02 102.377 1227.3 102.308C1227.3 104.467 1227.28 107.382 1227.23 110.296C1224.71 112.772 1221.06 112.038 1216.05 115.424C1213.05 117.451 1211.26 120.944 1209.55 125.029C1209.34 125.538 1209.84 126.052 1210.35 125.85C1214.43 124.248 1217.87 123.067 1219.58 121.476C1222.91 118.368 1222.98 116.306 1225.51 113.531C1226.17 112.8 1226.79 112.467 1227.19 112.524C1227.1 117.19 1226.91 121.338 1226.56 121.687C1224.7 123.546 1223.04 122.985 1219.33 125.489C1217.29 126.864 1216.01 129.158 1214.84 131.865C1214.57 132.491 1215.19 133.136 1215.83 132.889C1218.52 131.842 1220.77 131.019 1221.93 129.939C1224.37 127.654 1224.43 126.137 1226.28 124.097C1227.11 123.183 1227.86 123.109 1227.86 123.866C1227.86 128.177 1224.8 129.847 1224.8 134.297C1224.8 138.191 1226.8 142.782 1227.84 147.4C1227.99 148.052 1228.91 148.052 1229.05 147.4C1230.09 142.782 1232.09 138.191 1232.09 134.297C1232.09 129.847 1229.03 128.178 1229.03 123.866C1229.03 123.109 1229.78 123.183 1230.61 124.097C1232.46 126.137 1232.52 127.654 1234.96 129.939C1236.12 131.019 1238.37 131.842 1241.06 132.889C1241.7 133.136 1242.32 132.491 1242.05 131.865C1240.88 129.158 1239.6 126.864 1237.56 125.489C1233.85 122.985 1232.19 123.546 1230.33 121.687C1229.97 121.328 1229.78 117.186 1229.69 112.525C1230.09 112.462 1230.71 112.794 1231.39 113.531C1233.91 116.306 1233.98 118.368 1237.31 121.476C1239.02 123.067 1242.46 124.248 1246.54 125.85C1247.05 126.051 1247.55 125.537 1247.34 125.029C1245.63 120.944 1243.85 117.451 1240.84 115.424C1235.82 112.035 1232.17 112.773 1229.65 110.287C1229.6 107.375 1229.59 104.464 1229.59 102.307C1229.87 102.376 1230.22 102.615 1230.6 103.03C1232.45 105.063 1232.5 106.574 1234.94 108.852C1236.14 109.97 1238.51 110.812 1241.34 111.915C1241.85 112.115 1242.36 111.6 1242.14 111.093C1240.94 108.255 1239.64 105.841 1237.53 104.416C1234.02 102.045 1231.42 102.429 1229.58 100.885C1229.58 99.7726 1229.59 99.0391 1229.59 98.8826C1229.59 96.8686 1232.56 94.6627 1232.56 94.6627C1232.56 94.6627 1229.59 92.7443 1229.59 90.7114C1229.59 89.6532 1230 88.938 1230.47 88.5192C1231.16 88.2752 1231.99 88.4796 1232.72 88.9008C1234.48 89.9175 1234.66 93.4515 1234.66 93.4515C1234.66 93.4515 1238.05 91.9796 1239.8 92.9864C1239.93 93.0647 1240.57 93.4293 1241.53 93.9862C1241.95 96.3508 1240.32 98.4073 1240.62 102.633C1240.8 105.175 1242.24 107.501 1244.09 109.965C1244.42 110.406 1245.12 110.226 1245.21 109.681C1245.67 106.68 1246.12 104.206 1245.75 102.61C1245 99.3575 1243.72 98.5543 1242.88 95.9367C1242.71 95.4052 1242.68 94.9765 1242.76 94.6995C1244.63 95.7835 1247.14 97.2554 1249.65 98.7512C1250.53 102.177 1248.07 104.969 1248.49 111.004C1248.75 114.619 1250.88 117.915 1253.56 121.437C1253.89 121.876 1254.59 121.695 1254.67 121.151C1255.33 116.818 1256.03 113.244 1255.5 110.973C1254.47 106.534 1252.73 105.439 1251.58 101.867C1251.28 100.925 1251.31 100.219 1251.56 99.9003C1255.55 102.319 1259.05 104.554 1259.17 105.03C1259.85 107.569 1258.54 108.731 1258.85 113.195C1259.02 115.648 1260.37 117.901 1262.13 120.27C1262.53 120.817 1263.4 120.604 1263.51 119.929C1263.95 117.07 1264.36 114.713 1264 113.172C1263.25 109.908 1261.96 109.102 1261.12 106.476C1260.75 105.299 1261.05 104.616 1261.71 104.995C1265.44 107.151 1265.36 110.636 1269.21 112.861C1272.58 114.808 1277.56 115.373 1282.08 116.781C1282.71 116.981 1283.17 116.183 1282.68 115.73Z" fill="#FFE6E6"/>
<path d="M108.683 245.841C105.205 242.631 102.228 238.605 98.856 236.658C95.0022 234.433 92.027 236.248 88.2933 234.093C87.6376 233.714 88.0752 233.106 89.2821 232.843C91.9756 232.257 93.3163 232.967 96.5195 231.99C98.0326 231.528 99.8683 229.994 102.123 228.181C102.655 227.754 102.406 226.895 101.729 226.817C98.7986 226.479 96.1738 226.438 93.9635 227.516C89.9411 229.476 89.5949 231.198 87.0553 231.879C86.5659 232.01 82.885 230.101 78.8013 227.854C78.9469 227.475 79.5484 227.098 80.5221 226.886C84.1851 226.089 86.0082 227.056 90.3646 225.726C92.5941 225.045 95.339 222.653 98.7646 219.922C99.1952 219.578 99.0025 218.884 98.4565 218.814C94.0648 218.251 90.1455 218.053 86.8886 219.641C81.444 222.294 80.2593 225.824 76.8436 226.769C74.3008 225.351 71.7721 223.907 69.9024 222.832C70.1017 222.624 70.4885 222.434 71.0354 222.315C73.72 221.731 75.0559 222.439 78.2488 221.464C79.8155 220.986 81.73 219.354 84.0985 217.456C84.5281 217.112 84.3354 216.417 83.7885 216.35C80.728 215.977 77.9916 215.889 75.7013 217.005C71.8927 218.861 70.928 221.301 68.6716 222.123C67.7082 221.566 67.0742 221.197 66.9385 221.119C65.1946 220.111 64.7707 216.434 64.7707 216.434C64.7707 216.434 61.6235 218.05 59.8626 217.033C58.9464 216.504 58.5319 215.792 58.4084 215.168C58.5403 214.452 59.1334 213.833 59.8626 213.412C61.6235 212.396 64.7707 214.012 64.7707 214.012C64.7707 214.012 65.1941 210.334 66.9385 209.327C67.0742 209.248 67.7087 208.88 68.6734 208.324C70.9284 209.146 71.8941 211.585 75.7013 213.441C77.9916 214.557 80.728 214.469 83.7885 214.095C84.335 214.029 84.5281 213.334 84.0985 212.99C81.73 211.092 79.8155 209.46 78.2488 208.981C75.0559 208.007 73.72 208.715 71.0354 208.131C70.4903 208.012 70.1045 207.823 69.9043 207.616C71.7763 206.541 74.3088 205.098 76.8549 203.68C80.2616 204.63 81.4501 208.154 86.8886 210.805C90.146 212.392 94.0648 212.194 98.4565 211.631C99.0025 211.561 99.1952 210.867 98.7646 210.524C95.3386 207.793 92.5941 205.4 90.3646 204.72C86.0082 203.39 84.1856 204.356 80.5221 203.559C79.556 203.349 78.9563 202.976 78.8046 202.6C82.8944 200.352 86.5791 198.439 87.0553 198.567C89.5949 199.247 89.9411 200.969 93.9635 202.93C96.1738 204.008 98.799 203.967 101.729 203.629C102.406 203.551 102.655 202.692 102.123 202.264C99.8683 200.452 98.0326 198.918 96.5195 198.456C93.3163 197.478 91.9756 198.188 89.2821 197.602C88.0747 197.34 87.6376 196.731 88.2933 196.353C92.027 194.197 95.0022 196.013 98.856 193.787C102.228 191.84 105.205 187.814 108.683 184.604C109.174 184.151 108.714 183.353 108.076 183.552C103.557 184.96 98.5828 185.525 95.2109 187.472C91.3571 189.697 91.4419 193.182 87.7078 195.338C87.052 195.717 86.7444 195.034 87.1203 193.857C87.9598 191.231 89.2453 190.425 90 187.161C90.3566 185.62 89.9458 183.263 89.5039 180.404C89.3998 179.729 88.5321 179.515 88.1256 180.063C86.3681 182.432 85.0203 184.685 84.8479 187.138C84.5342 191.602 85.8522 192.764 85.172 195.303C85.0406 195.793 81.5472 198.026 77.5606 200.44C77.3048 200.125 77.2793 199.415 77.5827 198.466C78.7241 194.894 80.4722 193.799 81.4991 189.361C82.0244 187.089 81.3253 183.516 80.6734 179.183C80.5914 178.638 79.8937 178.458 79.5602 178.896C76.877 182.418 74.7464 185.714 74.492 189.329C74.0676 195.372 76.5313 198.162 75.6419 201.594C73.142 203.087 70.6279 204.555 68.762 205.637C68.6819 205.36 68.7102 204.931 68.8807 204.397C69.7173 201.779 70.9986 200.976 71.7509 197.724C72.1202 196.127 71.6642 193.654 71.2049 190.653C71.1216 190.108 70.4234 189.928 70.0923 190.368C68.2386 192.832 66.7944 195.159 66.6158 197.701C66.3186 201.928 67.947 203.985 67.5292 206.35C66.5673 206.905 65.9318 207.269 65.7966 207.347C64.0528 208.354 60.6559 206.882 60.6559 206.882C60.6559 206.882 60.4811 210.416 58.7208 211.433C57.8045 211.962 56.9807 211.965 56.3791 211.76C55.8247 211.287 55.5858 210.465 55.5858 209.623C55.5858 207.589 58.5587 205.671 58.5587 205.671C58.5587 205.671 55.5858 203.465 55.5858 201.451C55.5858 201.294 55.5839 200.56 55.5849 199.447C57.4239 197.905 60.019 198.288 63.5294 195.918C65.6412 194.492 66.9333 192.078 68.1402 189.241C68.3559 188.734 67.8505 188.219 67.3375 188.419C64.5097 189.521 62.1393 190.363 60.9418 191.481C58.5013 193.759 58.4466 195.27 56.5986 197.304C56.2232 197.717 55.8666 197.956 55.5872 198.026C55.5929 195.867 55.6094 192.952 55.6541 190.038C58.1805 187.562 61.8265 188.295 66.8405 184.91C69.8436 182.883 71.6322 179.39 73.3407 175.304C73.5532 174.797 73.0482 174.283 72.5357 174.484C68.4582 176.086 65.0142 177.267 63.3099 178.858C59.9799 181.966 59.9055 184.028 57.3839 186.802C56.7187 187.534 56.096 187.867 55.6946 187.81C55.7931 183.144 55.9787 178.996 56.3278 178.647C58.1866 176.788 59.8508 177.349 63.56 174.845C65.5978 173.469 66.8754 171.175 68.0474 168.469C68.3187 167.843 67.6993 167.198 67.0633 167.445C64.367 168.491 62.1204 169.315 60.964 170.394C58.5154 172.68 58.4607 174.196 56.6062 176.236C55.7752 177.15 55.03 177.225 55.03 176.468C55.03 172.156 58.0895 170.487 58.0895 166.036C58.0895 162.142 56.0918 157.551 55.0516 152.933C54.9047 152.281 53.9837 152.281 53.8372 152.933C52.7971 157.551 50.7993 162.143 50.7993 166.036C50.7993 170.486 53.8589 172.155 53.8589 176.468C53.8589 177.225 53.1137 177.15 52.2827 176.236C50.4281 174.196 50.3735 172.679 47.9249 170.394C46.7684 169.315 44.5219 168.491 41.8255 167.445C41.1891 167.198 40.5701 167.843 40.8415 168.469C42.0135 171.175 43.291 173.469 45.3288 174.845C49.0375 177.349 50.7018 176.788 52.5606 178.647C52.9191 179.006 53.1061 183.148 53.2032 187.809C52.8023 187.872 52.1748 187.54 51.5045 186.802C48.9829 184.028 48.9085 181.966 45.5785 178.858C43.8747 177.267 40.4302 176.086 36.3527 174.484C35.8402 174.283 35.3352 174.797 35.5481 175.304C37.2562 179.39 39.0448 182.883 42.0479 184.911C47.068 188.3 50.7164 187.561 53.2427 190.047C53.2861 192.959 53.3002 195.871 53.304 198.028C53.0246 197.959 52.6666 197.719 52.2898 197.305C50.4413 195.271 50.3872 193.76 47.9466 191.482C46.7491 190.364 44.3787 189.522 41.5509 188.42C41.0379 188.22 40.5329 188.734 40.7482 189.241C41.9551 192.079 43.2472 194.493 45.359 195.919C48.8703 198.289 51.4659 197.905 53.3054 199.449C53.3054 200.562 53.303 201.295 53.303 201.452C53.303 203.466 50.3302 205.672 50.3302 205.672C50.3302 205.672 53.303 207.591 53.303 209.623C53.303 210.682 52.8937 211.397 52.4156 211.816C51.7287 212.06 50.8973 211.855 50.1681 211.434C48.4073 210.417 48.233 206.883 48.233 206.883C48.233 206.883 44.8366 208.355 43.0922 207.348C42.9566 207.27 42.3211 206.905 41.3592 206.349C40.9428 203.984 42.5698 201.928 42.273 197.702C42.0945 195.16 40.6502 192.833 38.7966 190.369C38.4654 189.929 37.7673 190.109 37.6839 190.654C37.2246 193.655 36.7686 196.128 37.138 197.725C37.8903 200.977 39.1715 201.781 40.0082 204.398C40.1782 204.93 40.207 205.358 40.1278 205.635C38.261 204.551 35.7455 203.079 33.2441 201.583C32.3637 198.157 34.8208 195.366 34.3968 189.33C34.1429 185.715 32.0123 182.419 29.3291 178.897C28.9956 178.459 28.2979 178.639 28.216 179.184C27.564 183.516 26.865 187.09 27.3902 189.362C28.4167 193.8 30.1653 194.895 31.3066 198.467C31.6077 199.409 31.5846 200.115 31.3349 200.434C27.3436 198.015 23.845 195.781 23.7173 195.304C23.0366 192.765 24.3547 191.604 24.0414 187.14C23.869 184.687 22.5213 182.433 20.7637 180.065C20.3572 179.517 19.4895 179.731 19.3854 180.405C18.9431 183.264 18.5328 185.621 18.8894 187.163C19.644 190.426 20.93 191.232 21.769 193.859C22.1449 195.035 21.8373 195.718 21.1816 195.34C17.4479 193.184 17.5322 189.699 13.6784 187.474C10.3066 185.527 5.3321 184.962 0.813644 183.553C0.175821 183.355 -0.284882 184.152 0.20644 184.606C3.68479 187.815 6.66145 191.841 10.0333 193.788C13.8871 196.013 16.8624 194.198 20.596 196.354C21.2518 196.732 20.8141 197.341 19.6073 197.604C16.9137 198.19 15.5731 197.479 12.3698 198.457C10.8567 198.918 9.02101 200.453 6.76649 202.265C6.23466 202.693 6.48292 203.552 7.16078 203.63C10.0908 203.968 12.7156 204.009 14.9258 202.931C18.9483 200.971 19.2949 199.249 21.834 198.568C22.3234 198.436 26.0043 200.346 30.088 202.592C29.9424 202.972 29.3409 203.348 28.3672 203.56C24.7042 204.358 22.8812 203.391 18.5248 204.721C16.2952 205.402 13.5503 207.795 10.1247 210.525C9.69416 210.868 9.88683 211.563 10.4328 211.633C14.8241 212.196 18.7433 212.394 22.0007 210.806C27.4453 208.153 28.6301 204.623 32.0457 203.677C34.5886 205.096 37.1172 206.539 38.9869 207.615C38.7872 207.822 38.4009 208.013 37.854 208.131C35.1694 208.716 33.8334 208.007 30.6406 208.982C29.0738 209.46 27.1594 211.092 24.7909 212.99C24.3613 213.335 24.5544 214.029 25.1008 214.096C28.1613 214.469 30.8978 214.557 33.1881 213.441C36.9966 211.585 37.9614 209.145 40.2178 208.324C41.1811 208.88 41.8152 209.249 41.9508 209.327C43.6947 210.334 44.1187 214.012 44.1187 214.012C44.1187 214.012 47.2663 212.396 49.0267 213.413C49.9429 213.942 50.3575 214.654 50.4809 215.277C50.349 215.994 49.7559 216.612 49.0267 217.033C47.2663 218.05 44.1187 216.434 44.1187 216.434C44.1187 216.434 43.6947 220.112 41.9508 221.119C41.8152 221.197 41.1802 221.566 40.2154 222.122C37.9604 221.3 36.9948 218.861 33.1876 217.005C30.8973 215.889 28.1609 215.977 25.1004 216.35C24.5539 216.417 24.3608 217.112 24.7904 217.456C27.1589 219.354 29.0733 220.986 30.6401 221.464C33.833 222.439 35.1689 221.731 37.8535 222.315C38.399 222.434 38.7843 222.623 38.9845 222.83C37.1125 223.905 34.5801 225.348 32.034 226.766C28.6272 225.816 27.4387 222.292 22.0003 219.642C18.7433 218.054 14.8236 218.252 10.4323 218.815C9.8859 218.885 9.69322 219.579 10.1242 219.922C13.5498 222.653 16.2947 225.046 18.5243 225.726C22.8807 227.056 24.7037 226.09 28.3667 226.887C29.3329 227.097 29.9325 227.47 30.0842 227.846C25.994 230.094 22.3098 232.007 21.8335 231.879C19.294 231.199 18.9478 229.477 14.9254 227.516C12.7151 226.439 10.0899 226.48 7.1603 226.817C6.48244 226.896 6.23419 227.754 6.76602 228.182C9.02054 229.994 10.8563 231.528 12.3694 231.99C15.5731 232.968 16.9132 232.257 19.6068 232.844C20.8141 233.106 21.2513 233.714 20.5956 234.093C16.8619 236.249 13.8866 234.434 10.0329 236.659C6.66097 238.606 3.68431 242.632 0.205965 245.842C-0.284885 246.295 0.175347 247.092 0.813169 246.894C5.33163 245.485 10.3061 244.92 13.678 242.973C17.5318 240.748 17.447 237.263 21.1811 235.107C21.8368 234.729 22.1444 235.412 21.7685 236.589C20.9291 239.215 19.6435 240.02 18.8889 243.284C18.5323 244.825 18.9431 247.182 19.3849 250.041C19.489 250.715 20.3567 250.93 20.7633 250.382C22.5208 248.013 23.8685 245.76 24.0409 243.307C24.3547 238.843 23.0366 237.682 23.7168 235.142C23.8478 234.652 27.3417 232.419 31.3283 230.005C31.5841 230.32 31.6095 231.03 31.3062 231.979C30.1648 235.551 28.4167 236.646 27.3897 241.085C26.8645 243.356 27.5636 246.929 28.2155 251.262C28.2975 251.807 28.9947 251.987 29.3286 251.549C32.0118 248.027 34.1425 244.732 34.3968 241.116C34.8213 235.073 32.3576 232.283 33.247 228.852C35.7469 227.358 38.261 225.89 40.1269 224.808C40.207 225.085 40.1787 225.515 40.0082 226.048C39.1715 228.666 37.8903 229.469 37.138 232.722C36.7686 234.318 37.2246 236.792 37.6839 239.793C37.7673 240.337 38.4654 240.517 38.7966 240.077C40.6502 237.613 42.0945 235.287 42.273 232.745C42.5698 228.518 40.9418 226.461 41.3597 224.096C42.3216 223.54 42.957 223.176 43.0922 223.098C44.8361 222.091 48.233 223.563 48.233 223.563C48.233 223.563 48.4077 220.029 50.1681 219.013C51.0843 218.484 51.9082 218.481 52.5098 218.685C53.0642 219.158 53.303 219.981 53.303 220.823C53.303 222.856 50.3302 224.774 50.3302 224.774C50.3302 224.774 53.303 226.98 53.303 228.994C53.303 229.151 53.3049 229.885 53.304 230.998C51.4649 232.54 48.8698 232.157 45.3595 234.527C43.2477 235.953 41.9556 238.367 40.7487 241.204C40.5329 241.711 41.0384 242.226 41.5514 242.026C44.3792 240.923 46.7496 240.082 47.947 238.964C50.3876 236.686 50.4423 235.174 52.2903 233.141C52.6657 232.728 53.0223 232.488 53.3016 232.419C53.296 234.578 53.2795 237.493 53.2347 240.407C50.7084 242.882 47.0624 242.149 42.0484 245.534C39.0453 247.562 37.2567 251.055 35.5486 255.14C35.3361 255.649 35.8407 256.163 36.3532 255.961C40.4307 254.359 43.8747 253.178 45.579 251.587C48.9089 248.478 48.9834 246.417 51.5055 243.642C52.1706 242.911 52.7934 242.578 53.1947 242.635C53.0962 247.301 52.9102 251.448 52.5616 251.798C50.7028 253.657 49.0385 253.096 45.3298 255.6C43.292 256.975 42.0144 259.269 40.8424 261.976C40.5711 262.602 41.1905 263.246 41.8265 263C44.5229 261.953 46.7694 261.13 47.9258 260.05C50.3744 257.764 50.4291 256.248 52.2837 254.208C53.1146 253.294 53.8598 253.219 53.8598 253.977C53.8598 258.288 50.8003 259.958 50.8003 264.408C50.8003 268.302 52.7981 272.893 53.8382 277.511C53.9851 278.163 54.9061 278.163 55.0526 277.511C56.0927 272.893 58.0905 268.302 58.0905 264.408C58.0905 259.958 55.0309 258.289 55.0309 253.977C55.0309 253.219 55.7761 253.294 56.6071 254.208C58.4612 256.248 58.5163 257.765 60.9649 260.05C62.1214 261.13 64.3679 261.953 67.0643 263C67.7002 263.246 68.3197 262.602 68.0483 261.976C66.8763 259.269 65.5988 256.975 63.561 255.6C59.8523 253.096 58.188 253.657 56.3292 251.798C55.9707 251.439 55.7837 247.296 55.6866 242.636C56.0875 242.572 56.715 242.905 57.3853 243.642C59.9069 246.417 59.9818 248.478 63.3113 251.587C65.0156 253.178 68.4596 254.359 72.5371 255.961C73.0496 256.162 73.5546 255.648 73.3422 255.14C71.6341 251.055 69.8455 247.562 66.8424 245.534C61.8223 242.146 58.1739 242.884 55.6475 240.398C55.6042 237.486 55.5901 234.574 55.5863 232.418C55.8656 232.486 56.2237 232.726 56.6005 233.14C58.449 235.174 58.5031 236.685 60.9437 238.963C62.1412 240.081 64.5116 240.923 67.3394 242.025C67.8524 242.226 68.3578 241.711 68.1421 241.204C66.9352 238.366 65.6431 235.952 63.5313 234.526C60.02 232.156 57.4244 232.54 55.5849 230.996C55.5849 229.883 55.5872 229.15 55.5872 228.993C55.5872 226.979 58.5601 224.774 58.5601 224.774C58.5601 224.774 55.5872 222.855 55.5872 220.822C55.5872 219.764 55.9966 219.049 56.4747 218.63C57.1615 218.386 57.993 218.59 58.7222 219.012C60.483 220.028 60.6573 223.562 60.6573 223.562C60.6573 223.562 64.0537 222.09 65.7981 223.097C65.9337 223.175 66.5692 223.54 67.5311 224.097C67.9475 226.462 66.3205 228.518 66.6172 232.744C66.7958 235.286 68.24 237.612 70.0937 240.076C70.4249 240.516 71.123 240.336 71.2063 239.792C71.6656 236.791 72.1216 234.317 71.7523 232.721C71 229.468 69.7187 228.665 68.8821 226.048C68.7121 225.516 68.6833 225.087 68.7625 224.81C70.6293 225.894 73.1448 227.366 75.6461 228.862C76.5266 232.288 74.069 235.08 74.4934 241.115C74.7473 244.73 76.878 248.026 79.5612 251.548C79.8947 251.986 80.5923 251.806 80.6743 251.261C81.3262 246.929 82.0253 243.355 81.5001 241.084C80.4736 236.645 78.725 235.55 77.5836 231.978C77.2826 231.036 77.3057 230.33 77.5554 230.011C81.5467 232.43 85.0453 234.664 85.173 235.141C85.8532 237.68 84.5356 238.842 84.8493 243.305C85.0218 245.759 86.3695 248.012 88.127 250.38C88.5336 250.928 89.4013 250.714 89.5054 250.04C89.9477 247.181 90.358 244.824 90.0014 243.282C89.2467 240.019 87.9612 239.213 87.1218 236.587C86.7458 235.41 87.0535 234.727 87.7092 235.106C91.4428 237.262 91.3585 240.747 95.2123 242.972C98.5842 244.919 103.559 245.484 108.077 246.892C108.713 247.092 109.174 246.294 108.683 245.841Z" fill="#FFE6E6"/>
<path d="M268.908 107.442C268.866 107.113 268.423 106.899 268.157 107.081C264.881 109.316 255.524 113.523 249.39 110.019C245.772 107.953 244.954 106.027 244.821 104.653L244.829 104.653C244.815 104.49 244.802 104.309 244.799 104.111C244.802 103.914 244.815 103.733 244.829 103.569L244.821 103.57C244.954 102.195 245.773 100.27 249.39 98.2034C255.524 94.7001 264.881 98.9062 268.157 101.141C268.423 101.323 268.866 101.11 268.908 100.781C269.494 96.1859 269.92 88.9355 278.735 79.9121C278.906 79.737 278.925 79.5337 278.84 79.3889C278.756 79.2442 278.569 79.1581 278.33 79.2171C266.023 82.2577 259.463 78.9971 255.148 77.2018C254.839 77.0734 254.43 77.3462 254.456 77.6653C254.775 81.589 253.779 91.7089 247.645 95.2122C244.027 97.2783 241.932 97.0171 240.662 96.4434L240.667 96.4364C240.517 96.3673 240.352 96.2879 240.178 96.1918C240.006 96.0905 239.854 95.9888 239.719 95.8946L239.715 95.9024C238.578 95.1012 237.302 93.4366 237.302 89.3047C237.302 82.2978 245.662 76.3844 249.257 74.6956C249.549 74.5583 249.583 74.0722 249.317 73.8718C245.587 71.0721 239.453 67.0823 235.961 55.0184C235.893 54.7843 235.725 54.667 235.556 54.667C235.387 54.667 235.218 54.7843 235.15 55.0184C231.659 67.0823 225.525 71.0721 221.795 73.8718C221.528 74.0722 221.563 74.5583 221.855 74.6956C225.449 76.3844 233.81 82.2978 233.81 89.3047C233.81 93.437 232.534 95.1012 231.397 95.9024L231.393 95.8946C231.257 95.9888 231.105 96.0905 230.934 96.1918C230.76 96.2879 230.595 96.3673 230.445 96.4364L230.45 96.4434C229.18 97.0171 227.084 97.2783 223.467 95.2122C217.333 91.7085 216.337 81.589 216.656 77.6653C216.682 77.3466 216.273 77.0734 215.964 77.2018C211.649 78.9971 205.089 82.2577 192.782 79.2171C192.543 79.1581 192.356 79.2442 192.272 79.3889C192.187 79.5337 192.205 79.737 192.377 79.9121C201.192 88.9355 201.618 96.1855 202.204 100.781C202.246 101.11 202.689 101.323 202.955 101.141C206.231 98.9062 215.588 94.6997 221.722 98.2034C225.34 100.27 226.158 102.195 226.291 103.57L226.283 103.569C226.297 103.733 226.31 103.914 226.313 104.111C226.31 104.309 226.297 104.49 226.283 104.653L226.291 104.653C226.158 106.027 225.339 107.953 221.722 110.019C215.588 113.522 206.231 109.316 202.955 107.081C202.689 106.899 202.246 107.113 202.204 107.442C201.618 112.037 201.192 119.287 192.377 128.31C192.206 128.485 192.187 128.689 192.272 128.834C192.356 128.978 192.543 129.064 192.782 129.005C205.089 125.965 211.649 129.225 215.964 131.021C216.273 131.149 216.682 130.876 216.656 130.557C216.337 126.633 217.333 116.514 223.467 113.01C227.085 110.944 229.18 111.205 230.45 111.779L230.445 111.786C230.595 111.855 230.76 111.935 230.934 112.031C231.106 112.132 231.258 112.234 231.393 112.328L231.397 112.32C232.534 113.121 233.81 114.786 233.81 118.918C233.81 125.925 225.449 131.839 221.855 133.527C221.563 133.665 221.528 134.151 221.795 134.351C225.525 137.151 231.659 141.141 235.15 153.204C235.218 153.439 235.387 153.556 235.556 153.556C235.725 153.556 235.893 153.439 235.961 153.204C239.453 141.141 245.587 137.151 249.317 134.351C249.583 134.151 249.549 133.665 249.257 133.527C245.662 131.839 237.302 125.925 237.302 118.918C237.302 114.786 238.578 113.121 239.715 112.32L239.719 112.328C239.854 112.234 240.006 112.132 240.178 112.031C240.352 111.935 240.517 111.855 240.667 111.786L240.662 111.779C241.932 111.205 244.028 110.944 247.645 113.01C253.779 116.514 254.775 126.633 254.456 130.557C254.43 130.876 254.839 131.149 255.148 131.021C259.463 129.225 266.023 125.965 278.33 129.005C278.569 129.064 278.756 128.978 278.84 128.834C278.925 128.689 278.907 128.485 278.735 128.31C269.92 119.287 269.494 112.037 268.908 107.442ZM259.294 84.2863C261.674 84.9814 264.521 85.5346 267.933 85.6185C266.301 88.5841 265.361 91.2992 264.78 93.686C262.477 92.8106 259.827 92.077 257.091 91.811C258.226 89.3333 258.909 86.6965 259.294 84.2863ZM206.331 93.686C205.749 91.2992 204.81 88.5841 203.178 85.6185C206.59 85.5343 209.437 84.9814 211.817 84.2863C212.202 86.6965 212.884 89.3337 214.02 91.811C211.283 92.077 208.633 92.811 206.331 93.686ZM211.817 123.936C209.437 123.241 206.59 122.688 203.178 122.604C204.81 119.638 205.749 116.923 206.331 114.537C208.633 115.412 211.284 116.145 214.02 116.412C212.884 118.889 212.202 121.526 211.817 123.936ZM230.07 73.8611C231.868 72.1694 233.776 70.0071 235.555 67.1257C237.335 70.0071 239.243 72.1694 241.041 73.8611C239.124 75.3962 237.157 77.2994 235.555 79.5106C233.954 77.2994 231.987 75.3962 230.07 73.8611ZM241.041 134.361C239.243 136.053 237.335 138.215 235.555 141.096C233.776 138.215 231.868 136.053 230.07 134.361C231.987 132.826 233.955 130.923 235.555 128.711C237.157 130.923 239.124 132.826 241.041 134.361ZM235.555 108.932C232.864 108.932 230.683 106.774 230.683 104.111C230.683 101.449 232.864 99.2907 235.555 99.2907C238.247 99.2907 240.428 101.449 240.428 104.111C240.428 106.774 238.247 108.932 235.555 108.932ZM259.294 123.936C258.909 121.526 258.226 118.889 257.091 116.412C259.827 116.145 262.477 115.412 264.78 114.537C265.361 116.923 266.3 119.639 267.933 122.604C264.521 122.688 261.674 123.241 259.294 123.936Z" fill="#FFE6E6"/>
<path d="M1540.02 60.7746C1539.98 60.4459 1539.53 60.2325 1539.27 60.4143C1535.99 62.6493 1526.63 66.8558 1520.5 63.3521C1516.88 61.286 1516.06 59.3601 1515.93 57.9856L1515.94 57.986C1515.93 57.8228 1515.91 57.6417 1515.91 57.4443C1515.91 57.2468 1515.93 57.0658 1515.94 56.9025L1515.93 56.9029C1516.06 55.528 1516.88 53.6025 1520.5 51.5364C1526.63 48.0331 1535.99 52.2392 1539.27 54.4742C1539.53 54.656 1539.98 54.4427 1540.02 54.1139C1540.61 49.5189 1541.03 42.2685 1549.85 33.2452C1550.02 33.07 1550.04 32.8667 1549.95 32.7219C1549.87 32.5772 1549.68 32.4911 1549.44 32.5501C1537.13 35.5907 1530.57 32.3301 1526.26 30.5348C1525.95 30.4065 1525.54 30.6792 1525.57 30.9983C1525.89 34.922 1524.89 45.0419 1518.76 48.5452C1515.14 50.6113 1513.04 50.3501 1511.77 49.7764L1511.78 49.7694C1511.63 49.7004 1511.46 49.6209 1511.29 49.5248C1511.12 49.4235 1510.97 49.3219 1510.83 49.2276L1510.83 49.2354C1509.69 48.4343 1508.41 46.7696 1508.41 42.6377C1508.41 35.6308 1516.77 29.7174 1520.37 28.0286C1520.66 27.8913 1520.69 27.4052 1520.43 27.2048C1516.7 24.4051 1510.56 20.4153 1507.07 8.35141C1507 8.11726 1506.84 8 1506.67 8C1506.5 8 1506.33 8.11726 1506.26 8.35141C1502.77 20.4153 1496.64 24.4051 1492.91 27.2048C1492.64 27.4052 1492.67 27.8913 1492.97 28.0286C1496.56 29.7174 1504.92 35.6308 1504.92 42.6377C1504.92 46.77 1503.64 48.4343 1502.51 49.2354L1502.5 49.2276C1502.37 49.3219 1502.22 49.4235 1502.05 49.5248C1501.87 49.6209 1501.71 49.7004 1501.56 49.7694L1501.56 49.7764C1500.29 50.3501 1498.2 50.6113 1494.58 48.5452C1488.44 45.0415 1487.45 34.922 1487.77 30.9983C1487.79 30.6796 1487.38 30.4065 1487.08 30.5348C1482.76 32.3301 1476.2 35.5907 1463.89 32.5501C1463.65 32.4911 1463.47 32.5772 1463.38 32.7219C1463.3 32.8667 1463.32 33.07 1463.49 33.2452C1472.3 42.2685 1472.73 49.5185 1473.31 54.1139C1473.36 54.4427 1473.8 54.656 1474.07 54.4742C1477.34 52.2392 1486.7 48.0328 1492.83 51.5364C1496.45 53.6025 1497.27 55.5284 1497.4 56.9029L1497.39 56.9025C1497.41 57.0658 1497.42 57.2468 1497.42 57.4443C1497.42 57.6417 1497.41 57.8228 1497.39 57.986L1497.4 57.9856C1497.27 59.3605 1496.45 61.286 1492.83 63.3521C1486.7 66.8554 1477.34 62.6493 1474.07 60.4143C1473.8 60.2325 1473.36 60.4459 1473.31 60.7746C1472.73 65.3696 1472.3 72.62 1463.49 81.6434C1463.32 81.8185 1463.3 82.0218 1463.38 82.1666C1463.47 82.3113 1463.65 82.3974 1463.89 82.3384C1476.2 79.2978 1482.76 82.5584 1487.08 84.3537C1487.38 84.4821 1487.79 84.2093 1487.77 83.8902C1487.45 79.9665 1488.44 69.8466 1494.58 66.3433C1498.2 64.2772 1500.29 64.5384 1501.56 65.1121L1501.56 65.1191C1501.71 65.1882 1501.87 65.2676 1502.05 65.3637C1502.22 65.4646 1502.37 65.5667 1502.5 65.6609L1502.51 65.6531C1503.64 66.4543 1504.92 68.1189 1504.92 72.2511C1504.92 79.2581 1496.56 85.1715 1492.97 86.8603C1492.67 86.9976 1492.64 87.4837 1492.91 87.684C1496.64 90.4838 1502.77 94.4736 1506.26 106.537C1506.33 106.772 1506.5 106.889 1506.67 106.889C1506.84 106.889 1507 106.772 1507.07 106.537C1510.56 94.4736 1516.7 90.4838 1520.43 87.684C1520.69 87.4837 1520.66 86.9976 1520.37 86.8603C1516.77 85.1715 1508.41 79.2581 1508.41 72.2511C1508.41 68.1189 1509.69 66.4543 1510.83 65.6531L1510.83 65.6609C1510.97 65.5667 1511.12 65.4646 1511.29 65.3637C1511.46 65.2676 1511.63 65.1882 1511.78 65.1191L1511.77 65.1121C1513.04 64.5384 1515.14 64.2772 1518.76 66.3433C1524.89 69.847 1525.89 79.9665 1525.57 83.8902C1525.54 84.209 1525.95 84.4821 1526.26 84.3537C1530.57 82.5584 1537.13 79.2978 1549.44 82.3384C1549.68 82.3974 1549.87 82.3113 1549.95 82.1666C1550.04 82.0218 1550.02 81.8185 1549.85 81.6434C1541.03 72.62 1540.61 65.3696 1540.02 60.7746ZM1530.4 37.6194C1532.79 38.3144 1535.63 38.8676 1539.04 38.9515C1537.41 41.9171 1536.47 44.6322 1535.89 47.019C1533.59 46.1436 1530.94 45.41 1528.2 45.144C1529.34 42.6663 1530.02 40.0295 1530.4 37.6194ZM1477.44 47.019C1476.86 44.6322 1475.92 41.9171 1474.29 38.9515C1477.7 38.8673 1480.55 38.3144 1482.93 37.6194C1483.31 40.0295 1484 42.6667 1485.13 45.144C1482.39 45.41 1479.74 46.144 1477.44 47.019ZM1482.93 77.2692C1480.55 76.5741 1477.7 76.0209 1474.29 75.937C1475.92 72.9714 1476.86 70.2563 1477.44 67.8695C1479.74 68.7449 1482.39 69.4785 1485.13 69.7446C1484 72.2218 1483.31 74.8587 1482.93 77.2692ZM1501.18 27.1941C1502.98 25.5024 1504.89 23.3401 1506.67 20.4587C1508.45 23.3401 1510.35 25.5024 1512.15 27.1941C1510.23 28.7292 1508.27 30.6324 1506.67 32.8437C1505.06 30.6324 1503.1 28.7292 1501.18 27.1941ZM1512.15 87.6941C1510.35 89.3858 1508.45 91.548 1506.67 94.4294C1504.89 91.548 1502.98 89.3858 1501.18 87.6941C1503.1 86.1589 1505.07 84.2557 1506.67 82.0445C1508.27 84.2557 1510.23 86.1589 1512.15 87.6941ZM1506.67 62.2649C1503.97 62.2649 1501.79 60.1067 1501.79 57.4443C1501.79 54.7818 1503.97 52.6237 1506.67 52.6237C1509.36 52.6237 1511.54 54.7818 1511.54 57.4443C1511.54 60.1067 1509.36 62.2649 1506.67 62.2649ZM1530.4 77.2692C1530.02 74.859 1529.34 72.2218 1528.2 69.7446C1530.94 69.4785 1533.59 68.7445 1535.89 67.8695C1536.47 70.2563 1537.41 72.9718 1539.04 75.937C1535.63 76.0209 1532.79 76.5741 1530.4 77.2692Z" fill="#FFE6E6"/>
<path d="M1828.21 315.61C1811.06 315.61 1795.96 308.247 1794.15 307.303C1792.19 308.326 1780.23 314.775 1779.21 314.775C1778.18 314.775 1775.83 312.73 1775.83 312.73C1775.83 312.73 1773.23 314.775 1771.89 314.775C1771.21 314.775 1768.6 314.619 1766.18 314.464C1767.78 312.645 1769.52 310.684 1770 310.205C1770.94 309.259 1774.23 308.87 1774.23 308.87C1774.23 308.87 1774.45 305.755 1775.17 305.032C1775.89 304.309 1788.91 300.416 1791.02 299.749C1791.64 297.802 1797.11 281.917 1809.23 269.791C1809.54 269.485 1809.46 269.056 1809.2 268.801C1808.94 268.545 1808.52 268.463 1808.21 268.769C1796.08 280.895 1780.2 286.366 1778.25 286.977C1777.58 289.091 1773.69 302.106 1772.97 302.829C1772.25 303.552 1769.13 303.774 1769.13 303.774C1769.13 303.774 1768.74 307.056 1767.8 308.001C1767.32 308.48 1765.36 310.219 1763.54 311.819C1763.38 309.402 1763.23 306.785 1763.23 306.108C1763.23 304.77 1765.27 302.175 1765.27 302.175C1765.27 302.175 1763.23 299.815 1763.23 298.793C1763.23 297.77 1769.68 285.814 1770.7 283.848C1769.75 282.039 1762.39 266.938 1762.39 249.79C1762.39 249.357 1762.03 249.111 1761.67 249.111C1761.31 249.111 1760.94 249.357 1760.94 249.79C1760.94 266.939 1753.58 282.039 1752.64 283.848C1753.66 285.815 1760.11 297.771 1760.11 298.793C1760.11 299.815 1758.06 302.175 1758.06 302.175C1758.06 302.175 1760.11 304.77 1760.11 306.108C1760.11 306.785 1759.95 309.402 1759.8 311.819C1757.98 310.219 1756.02 308.48 1755.54 308.001C1754.59 307.056 1754.2 303.774 1754.2 303.774C1754.2 303.774 1751.09 303.552 1750.37 302.829C1749.64 302.106 1745.75 289.091 1745.08 286.977C1743.13 286.366 1727.25 280.894 1715.12 268.769C1714.82 268.463 1714.39 268.545 1714.13 268.801C1713.88 269.056 1713.8 269.485 1714.1 269.791C1726.23 281.917 1731.7 297.802 1732.31 299.749C1734.42 300.416 1747.44 304.309 1748.16 305.032C1748.88 305.755 1749.11 308.87 1749.11 308.87C1749.11 308.87 1752.39 309.259 1753.33 310.205C1753.81 310.684 1755.55 312.645 1757.15 314.464C1754.74 314.619 1752.12 314.775 1751.44 314.775C1750.1 314.775 1747.51 312.73 1747.51 312.73C1747.51 312.73 1745.15 314.775 1744.13 314.775C1743.1 314.775 1731.15 308.326 1729.18 307.303C1727.37 308.247 1712.27 315.61 1695.12 315.61C1694.69 315.61 1694.44 315.972 1694.44 316.334C1694.44 316.696 1694.69 317.057 1695.12 317.057C1712.27 317.057 1727.37 324.42 1729.18 325.364C1731.15 324.342 1743.1 317.892 1744.13 317.892C1745.15 317.892 1747.51 319.937 1747.51 319.937C1747.51 319.937 1750.1 317.892 1751.44 317.892C1752.12 317.892 1754.74 318.049 1757.15 318.203C1755.55 320.022 1753.81 321.983 1753.33 322.462C1752.39 323.408 1749.11 323.797 1749.11 323.797C1749.11 323.797 1748.88 326.912 1748.16 327.635C1747.44 328.358 1734.42 332.251 1732.31 332.918C1731.7 334.865 1726.23 350.75 1714.1 362.876C1713.8 363.182 1713.88 363.611 1714.13 363.867C1714.39 364.122 1714.82 364.205 1715.12 363.898C1727.25 351.772 1743.13 346.301 1745.08 345.69C1745.75 343.576 1749.64 330.561 1750.37 329.839C1751.09 329.116 1754.2 328.893 1754.2 328.893C1754.2 328.893 1754.59 325.611 1755.54 324.666C1756.02 324.187 1757.98 322.448 1759.8 320.848C1759.95 323.265 1760.11 325.881 1760.11 326.559C1760.11 327.896 1758.06 330.492 1758.06 330.492C1758.06 330.492 1760.11 332.851 1760.11 333.874C1760.11 334.897 1753.66 346.853 1752.64 348.819C1753.58 350.628 1760.94 365.729 1760.94 382.877C1760.94 383.311 1761.31 383.556 1761.67 383.556C1762.03 383.556 1762.39 383.311 1762.39 382.877C1762.39 365.729 1769.75 350.628 1770.7 348.819C1769.68 346.853 1763.23 334.897 1763.23 333.874C1763.23 332.851 1765.27 330.492 1765.27 330.492C1765.27 330.492 1763.23 327.896 1763.23 326.559C1763.23 325.881 1763.38 323.265 1763.54 320.848C1765.36 322.447 1767.32 324.187 1767.8 324.665C1768.74 325.611 1769.13 328.893 1769.13 328.893C1769.13 328.893 1772.25 329.115 1772.97 329.838C1773.69 330.561 1777.58 343.576 1778.25 345.689C1780.2 346.301 1796.08 351.772 1808.21 363.898C1808.52 364.204 1808.94 364.122 1809.2 363.866C1809.46 363.61 1809.54 363.181 1809.23 362.875C1797.11 350.749 1791.64 334.865 1791.02 332.918C1788.91 332.251 1775.9 328.357 1775.17 327.634C1774.45 326.911 1774.23 323.797 1774.23 323.797C1774.23 323.797 1770.95 323.407 1770 322.462C1769.52 321.983 1767.78 320.022 1766.18 318.203C1768.6 318.048 1771.22 317.891 1771.89 317.891C1773.23 317.891 1775.83 319.936 1775.83 319.936C1775.83 319.936 1778.19 317.891 1779.21 317.891C1780.23 317.891 1792.19 324.341 1794.15 325.364C1795.96 324.42 1811.06 317.056 1828.21 317.056C1828.64 317.056 1828.89 316.695 1828.89 316.333C1828.89 315.972 1828.64 315.61 1828.21 315.61ZM1781.81 290.396C1784.09 289.542 1787.92 287.973 1792.41 285.589C1790.03 290.076 1788.46 293.907 1787.6 296.193C1783.96 297.312 1781.22 298.17 1779.16 298.844C1779.83 296.776 1780.69 294.041 1781.81 290.396ZM1735.73 296.193C1734.88 293.907 1733.31 290.076 1730.92 285.589C1735.41 287.973 1739.24 289.542 1741.53 290.396C1742.65 294.041 1743.5 296.776 1744.18 298.844C1742.11 298.17 1739.37 297.312 1735.73 296.193ZM1729.09 320.432C1726.86 319.42 1723.05 317.82 1718.19 316.333C1723.05 314.847 1726.86 313.247 1729.09 312.234C1732.45 314.021 1734.99 315.348 1736.93 316.333C1734.99 317.319 1732.45 318.646 1729.09 320.432ZM1741.53 342.271C1739.24 343.125 1735.41 344.694 1730.92 347.079C1733.31 342.591 1734.88 338.76 1735.73 336.474C1739.37 335.355 1742.11 334.497 1744.18 333.824C1743.5 335.891 1742.65 338.626 1741.53 342.271ZM1787.6 336.474C1788.46 338.76 1790.03 342.591 1792.41 347.079C1787.92 344.694 1784.09 343.125 1781.81 342.271C1780.69 338.626 1779.83 335.891 1779.16 333.824C1781.22 334.497 1783.96 335.355 1787.6 336.474ZM1757.57 283.751C1758.58 281.53 1760.18 277.712 1761.67 272.853C1763.15 277.712 1764.75 281.53 1765.77 283.751C1763.98 287.12 1762.65 289.66 1761.67 291.599C1760.68 289.66 1759.35 287.12 1757.57 283.751ZM1765.77 348.915C1764.75 351.137 1763.15 354.954 1761.67 359.813C1760.18 354.954 1758.58 351.137 1757.57 348.915C1759.35 345.547 1760.68 343.006 1761.67 341.068C1762.65 343.006 1763.98 345.547 1765.77 348.915ZM1761.67 318.727C1760.35 318.727 1759.27 317.655 1759.27 316.333C1759.27 315.012 1760.35 313.94 1761.67 313.94C1762.99 313.94 1764.06 315.012 1764.06 316.333C1764.06 317.655 1762.99 318.727 1761.67 318.727ZM1794.25 320.432C1790.88 318.646 1788.34 317.319 1786.4 316.333C1788.34 315.348 1790.88 314.021 1794.25 312.234C1796.47 313.247 1800.29 314.847 1805.15 316.333C1800.29 317.82 1796.47 319.42 1794.25 320.432Z" fill="#FFE6E6"/>
<line x1="430.555" y1="-145.333" x2="430.555" y2="35.7781" stroke="#FFE6E6" stroke-width="3.33333"/>
<path d="M1655 -77.5L1655 136.889" stroke="#FFE6E6" stroke-width="3.33333"/>
<line x1="810.556" y1="-149.778" x2="810.556" y2="31.3333" stroke="#FFE6E6" stroke-width="3.33333"/>
<line x1="1377.22" y1="-60.8887" x2="1377.22" y2="120.222" stroke="#FFE6E6" stroke-width="3.33333"/>
<line x1="1107.22" y1="-55.333" x2="1107.22" y2="125.778" stroke="#FFE6E6" stroke-width="3.33333"/>
<path d="M435.003 63.0345V61.8548L446.692 60.0837L463.333 44.111L440.976 50.3273L433.575 59.4173L432.539 58.8276L436.827 47.9666L431.111 25.7778L425.395 47.9666L429.683 58.8276L428.646 59.4173L421.246 50.3273L398.889 44.111L415.53 60.0837L427.218 61.8548V63.0345L415.53 64.8055L398.889 80.778L421.246 74.5617L428.646 65.4717L429.683 66.0614L425.395 76.9225L431.111 99.1112L436.827 76.9225L432.539 66.0614L433.575 65.4717L440.976 74.5617L463.333 80.778L446.692 64.8055L435.003 63.0345ZM442.558 52.6817L453.729 49.5758L445.414 57.5568L437.629 58.7365L442.558 52.6817ZM416.808 57.5568L408.493 49.5758L419.664 52.6817L424.594 58.7362L416.808 57.5568ZM419.664 72.2075L408.493 75.3135L416.808 67.3325L424.593 66.1528L419.664 72.2075ZM428.255 47.794L431.111 36.7071L433.967 47.794L431.111 55.0282L428.255 47.794ZM433.967 77.0953L431.111 88.1822L428.255 77.0953L431.111 69.8611L433.967 77.0953ZM432.704 63.3509L431.111 64.2571L429.518 63.3509V61.5386L431.111 60.6325L432.704 61.5386V63.3509ZM442.558 72.2075L437.628 66.1531L445.414 67.3328L453.729 75.3138L442.558 72.2075Z" fill="#FFE6E6"/>
<path d="M1659.45 164.145V162.966L1671.14 161.195L1687.78 145.222L1665.42 151.438L1658.02 160.528L1656.98 159.938L1661.27 149.077L1655.56 126.889L1649.84 149.077L1654.13 159.938L1653.09 160.528L1645.69 151.438L1623.33 145.222L1639.97 161.195L1651.66 162.966V164.145L1639.97 165.916L1623.33 181.889L1645.69 175.673L1653.09 166.583L1654.13 167.172L1649.84 178.033L1655.56 200.222L1661.27 178.033L1656.98 167.172L1658.02 166.583L1665.42 175.673L1687.78 181.889L1671.14 165.916L1659.45 164.145ZM1667 153.793L1678.17 150.687L1669.86 158.668L1662.07 159.847L1667 153.793ZM1641.25 158.668L1632.94 150.687L1644.11 153.793L1649.04 159.847L1641.25 158.668ZM1644.11 173.318L1632.94 176.424L1641.25 168.443L1649.04 167.264L1644.11 173.318ZM1652.7 148.905L1655.56 137.818L1658.41 148.905L1655.56 156.139L1652.7 148.905ZM1658.41 178.206L1655.56 189.293L1652.7 178.206L1655.56 170.972L1658.41 178.206ZM1657.15 164.462L1655.56 165.368L1653.96 164.462V162.649L1655.56 161.743L1657.15 162.649V164.462ZM1667 173.318L1662.07 167.264L1669.86 168.444L1678.17 176.425L1667 173.318Z" fill="#FFE6E6"/>
<path d="M1111.67 153.034V151.855L1123.36 150.084L1140 134.111L1117.64 140.327L1110.24 149.417L1109.21 148.828L1113.49 137.967L1107.78 115.778L1102.06 137.967L1106.35 148.828L1105.31 149.417L1097.91 140.327L1075.56 134.111L1092.2 150.084L1103.89 151.855V153.034L1092.2 154.806L1075.56 170.778L1097.91 164.562L1105.31 155.472L1106.35 156.061L1102.06 166.922L1107.78 189.111L1113.49 166.922L1109.21 156.061L1110.24 155.472L1117.64 164.562L1140 170.778L1123.36 154.806L1111.67 153.034ZM1119.22 142.682L1130.4 139.576L1122.08 147.557L1114.3 148.736L1119.22 142.682ZM1093.47 147.557L1085.16 139.576L1096.33 142.682L1101.26 148.736L1093.47 147.557ZM1096.33 162.208L1085.16 165.313L1093.47 157.332L1101.26 156.153L1096.33 162.208ZM1104.92 137.794L1107.78 126.707L1110.63 137.794L1107.78 145.028L1104.92 137.794ZM1110.63 167.095L1107.78 178.182L1104.92 167.095L1107.78 159.861L1110.63 167.095ZM1109.37 153.351L1107.78 154.257L1106.19 153.351V151.539L1107.78 150.632L1109.37 151.539V153.351ZM1119.22 162.208L1114.3 156.153L1122.08 157.333L1130.4 165.314L1119.22 162.208Z" fill="#FFE6E6"/>
<path d="M790.818 94.7699C791.349 93.5746 791.713 92.3984 791.957 91.3512C793.288 91.7194 794.55 91.9077 795.619 91.9982C795.163 92.9687 794.694 94.1562 794.348 95.4932C793.319 95.1806 792.119 94.9079 790.818 94.7699ZM759.675 96.3106C759.747 96.4362 759.853 96.5386 759.994 96.5966C764.714 98.5399 775.878 101.269 780.179 100.912C777.719 104.458 774.461 115.422 773.784 120.481C773.764 120.633 773.799 120.775 773.872 120.901C774.177 121.43 775.131 121.66 775.274 121.008C777.045 112.913 782.602 101.547 786.73 98.4238C787.934 97.5132 788.025 97.6763 788.025 97.6763C791.752 97.3738 795.225 98.8579 796.062 99.3838C796.463 99.6356 796.76 99.4281 796.784 98.9671C797.016 94.5217 799.571 91.0103 799.571 91.0103L803.841 88.5448L813.578 88.5621L808.718 84.5275L807.574 78.1626L802.721 86.6038L798.45 89.0693C798.45 89.0693 794.132 89.5267 790.166 87.5044C789.755 87.2946 789.427 87.4482 789.444 87.9211C789.481 88.9089 789.03 92.6593 786.904 95.7353C786.905 95.7367 786.995 95.898 785.609 96.4828C780.841 98.4965 768.179 97.5561 760.283 95.0431C759.647 94.8406 759.369 95.7815 759.675 96.3106Z" fill="#FFE6E6"/>
<path d="M768.654 103.221C763.471 109.616 757.88 113.859 757.88 113.859C757.88 113.859 764.247 110.96 772.377 109.669L778.697 101.563L768.654 103.221Z" fill="#FFE6E6"/>
<path d="M790.778 71.9554C792.078 71.8174 793.279 71.5446 794.308 71.2325C794.655 72.5695 795.123 73.757 795.579 74.7275C794.511 74.818 793.248 75.0063 791.917 75.3746C791.673 74.3268 791.309 73.1507 790.778 71.9554ZM773.872 45.7546C773.799 45.8803 773.763 46.0228 773.783 46.1745C774.461 51.234 777.679 62.2668 780.139 65.8135C775.838 65.4561 764.713 68.1163 759.993 70.0596C759.852 70.1176 759.747 70.2205 759.674 70.3461C759.369 70.8748 759.646 71.816 760.283 71.6136C768.179 69.1005 780.8 68.2296 785.569 70.2433C786.96 70.8304 786.864 70.9909 786.864 70.9909C788.989 74.0668 789.441 77.8168 789.404 78.8046C789.387 79.2771 789.715 79.4306 790.126 79.2213C794.091 77.199 798.41 77.6564 798.41 77.6564L802.68 80.1219L807.534 88.5631L808.598 82.3371L813.538 78.1636L803.801 78.1809L799.531 75.7154C799.531 75.7154 796.975 72.204 796.744 67.7586C796.72 67.298 796.423 67.0905 796.023 67.3418C795.186 67.8678 791.712 69.3518 787.985 69.0494C787.984 69.0507 787.89 69.2093 786.69 68.3018C782.563 65.1788 777.046 53.7434 775.274 45.6486C775.131 44.9957 774.177 45.226 773.872 45.7546Z" fill="#FFE6E6"/>
<path d="M772.376 56.9873C764.246 55.6965 757.778 52.9756 757.778 52.9756C757.778 52.9756 763.472 57.0399 768.654 63.435L778.834 64.856L772.376 56.9873Z" fill="#FFE6E6"/>
<path d="M810.516 60.5135C811.286 61.5708 812.122 62.4741 812.907 63.2093C811.922 64.1779 811.128 65.1768 810.516 66.0573C809.903 65.1772 809.109 64.1779 808.125 63.2093C808.91 62.4741 809.746 61.5708 810.516 60.5135ZM824.753 32.772C824.608 32.772 824.467 32.8122 824.346 32.9054C820.303 36.0216 812.357 44.3252 810.516 48.2291C808.674 44.3257 800.809 36.0216 796.766 32.9054C796.645 32.8122 796.503 32.772 796.358 32.772C795.748 32.772 795.072 33.4829 795.565 33.9325C801.69 39.5143 808.755 50.0093 809.395 55.146C809.582 56.6442 809.395 56.6415 809.395 56.6415C807.794 60.02 804.772 62.2858 803.898 62.7483C803.48 62.9694 803.511 63.3304 803.898 63.5817C807.632 66.0052 809.395 69.9735 809.395 69.9735V74.9046L804.512 83.3284L810.436 81.137L816.52 83.3284L811.637 74.9046V69.9735C811.637 69.9735 813.4 66.0047 817.134 63.5817C817.521 63.3308 817.552 62.9694 817.134 62.7483C816.26 62.2858 813.238 60.0204 811.637 56.6415C811.635 56.6415 811.451 56.6388 811.637 55.146C812.277 50.0098 819.422 39.5143 825.547 33.9325C826.041 33.4829 825.364 32.772 824.753 32.772Z" fill="#FFE6E6"/>
<path d="M814.278 37.0932C811.331 29.4074 810.453 22.4443 810.453 22.4443C810.453 22.4443 809.78 29.4069 806.833 37.0932L810.693 46.6196L814.278 37.0932Z" fill="#FFE6E6"/>
<path d="M830.293 71.8858C829.762 73.0811 829.398 74.2572 829.154 75.3049C827.823 74.9366 826.561 74.7483 825.492 74.6579C825.948 73.6874 826.417 72.4999 826.763 71.1629C827.792 71.475 828.992 71.7478 830.293 71.8858ZM861.437 70.3455C861.364 70.2198 861.258 70.1175 861.117 70.059C856.397 68.1157 845.233 65.3865 840.932 65.7439C843.392 62.1972 846.65 51.2334 847.327 46.1744C847.348 46.0227 847.312 45.8801 847.239 45.7545C846.934 45.2258 845.98 44.9955 845.837 45.648C844.066 53.7428 838.509 65.1087 834.381 68.2318C833.177 69.1429 833.086 68.9793 833.086 68.9793C829.359 69.2818 825.886 67.7977 825.049 67.2718C824.648 67.0205 824.351 67.2279 824.327 67.6885C824.096 72.1339 821.54 75.6453 821.54 75.6453L817.27 78.1108L807.533 78.0935L812.393 82.1281L813.537 88.493L818.391 80.0519L822.661 77.5863C822.661 77.5863 826.979 77.129 830.945 79.1513C831.356 79.361 831.685 79.2075 831.667 78.7346C831.63 77.7467 832.081 73.9963 834.207 70.9207C834.206 70.9194 834.116 70.7581 835.502 70.1732C840.27 68.1596 852.932 69.0999 860.828 71.613C861.464 71.8154 861.742 70.8741 861.437 70.3455Z" fill="#FFE6E6"/>
<path d="M852.457 63.434C857.64 57.0389 863.23 52.7969 863.23 52.7969C863.23 52.7969 856.864 55.6956 848.734 56.9864L842.414 65.0922L852.457 63.434Z" fill="#FFE6E6"/>
<path d="M830.334 94.6999C829.034 94.8379 827.833 95.1107 826.804 95.4228C826.457 94.0859 825.989 92.8988 825.533 91.9279C826.601 91.8374 827.864 91.6491 829.195 91.2809C829.44 92.3286 829.804 93.5046 830.334 94.6999ZM847.24 120.901C847.313 120.775 847.349 120.633 847.329 120.481C846.651 115.421 843.433 104.389 840.973 100.842C845.274 101.199 856.398 98.539 861.118 96.5962C861.26 96.5382 861.365 96.4354 861.438 96.3097C861.743 95.7811 861.466 94.8398 860.829 95.0422C852.933 97.5553 840.312 98.4262 835.543 96.4125C834.152 95.8254 834.248 95.665 834.248 95.665C832.123 92.589 831.672 88.839 831.708 87.8507C831.726 87.3783 831.398 87.2247 830.987 87.434C827.021 89.4563 822.702 88.999 822.702 88.999L818.432 86.5334L813.579 78.0923L812.514 84.3183L807.574 88.4918L817.311 88.4744L821.582 90.9399C821.582 90.9399 824.137 94.4514 824.369 98.8968C824.393 99.3574 824.69 99.5648 825.09 99.3135C825.928 98.7876 829.401 97.3035 833.128 97.606C833.128 97.6046 833.223 97.4461 834.422 98.3535C838.55 101.477 844.067 112.912 845.839 121.007C845.981 121.66 846.935 121.43 847.24 120.901Z" fill="#FFE6E6"/>
<path d="M848.735 109.668C856.865 110.959 863.334 113.68 863.334 113.68C863.334 113.68 857.64 109.616 852.458 103.221L842.278 101.8L848.735 109.668Z" fill="#FFE6E6"/>
<path d="M810.596 106.142C809.826 105.085 808.99 104.181 808.205 103.446C809.189 102.478 809.983 101.479 810.596 100.598C811.208 101.478 812.003 102.478 812.987 103.446C812.202 104.181 811.366 105.085 810.596 106.142ZM796.358 133.884C796.504 133.884 796.645 133.843 796.766 133.75C800.809 130.634 808.755 122.33 810.596 118.427C812.438 122.33 820.303 130.634 824.346 133.75C824.467 133.843 824.609 133.884 824.753 133.884C825.364 133.884 826.04 133.173 825.547 132.723C819.422 127.141 812.357 116.646 811.717 111.509C811.53 110.011 811.717 110.014 811.717 110.014C813.318 106.635 816.34 104.369 817.214 103.907C817.632 103.686 817.601 103.325 817.214 103.074C813.48 100.65 811.717 96.682 811.717 96.682V91.751L816.6 83.3271L810.676 85.5185L804.592 83.3271L809.475 91.751V96.682C809.475 96.682 807.712 100.651 803.978 103.074C803.591 103.325 803.56 103.686 803.978 103.907C804.852 104.369 807.874 106.635 809.475 110.014C809.477 110.014 809.661 110.016 809.475 111.509C808.835 116.645 801.69 127.141 795.565 132.723C795.072 133.173 795.748 133.884 796.358 133.884Z" fill="#FFE6E6"/>
<path d="M806.833 129.562C809.78 137.248 810.658 144.211 810.658 144.211C810.658 144.211 811.331 137.249 814.278 129.562L810.418 120.036L806.833 129.562Z" fill="#FFE6E6"/>
<path d="M1333.86 160.745H1337.95L1337.23 161.456C1336.58 162.089 1336.57 163.123 1337.21 163.766C1337.84 164.41 1338.87 164.419 1339.52 163.786L1342.61 160.745H1346.68L1340.67 166.646C1340.03 167.278 1340.02 168.312 1340.65 168.955C1341.28 169.599 1342.32 169.609 1342.96 168.976L1351.34 160.745H1355.49L1351.27 164.891C1350.63 165.523 1350.62 166.557 1351.25 167.2C1351.88 167.844 1352.92 167.853 1353.56 167.221L1360.15 160.745H1364.78L1367.43 163.398V167.151L1364.16 170.422L1354.92 170.503C1354.02 170.51 1353.29 171.248 1353.3 172.15C1353.31 173.053 1354.06 173.79 1354.95 173.769L1360.86 173.717L1357.93 176.652L1346.18 176.755C1345.28 176.762 1344.56 177.5 1344.56 178.402C1344.57 179.304 1345.3 180.031 1346.21 180.021L1354.63 179.948L1351.76 182.822L1347.42 182.86C1346.51 182.868 1345.79 183.606 1345.8 184.508C1345.81 185.41 1346.56 186.152 1347.44 186.126L1348.46 186.118L1345.56 189.014C1344.93 189.652 1344.93 190.686 1345.56 191.324C1346.2 191.961 1347.24 191.961 1347.87 191.324L1350.77 188.427L1350.76 189.443C1350.75 190.345 1351.48 191.082 1352.38 191.091C1352.39 191.091 1352.39 191.091 1352.4 191.091C1353.29 191.091 1354.02 190.369 1354.03 189.472L1354.07 185.132L1356.94 182.257L1356.87 190.677C1356.86 191.579 1357.58 192.317 1358.49 192.325C1358.49 192.325 1358.5 192.325 1358.5 192.325C1359.4 192.325 1360.13 191.603 1360.13 190.705L1360.24 178.962L1363.17 176.027L1363.12 181.943C1363.11 182.844 1363.84 183.582 1364.74 183.59C1364.74 183.59 1364.75 183.59 1364.75 183.59C1365.65 183.59 1366.38 182.868 1366.39 181.971L1366.47 172.732L1369.74 169.46H1373.49L1376.14 172.113V176.74L1369.67 183.331C1369.04 183.974 1369.05 185.008 1369.69 185.64C1370.33 186.272 1371.37 186.264 1372 185.62L1376.14 181.4V185.551L1367.91 193.928C1367.28 194.571 1367.29 195.606 1367.93 196.238C1368.58 196.871 1369.61 196.862 1370.24 196.217L1376.14 190.211V194.277L1373.1 197.373C1372.47 198.016 1372.48 199.05 1373.12 199.682C1373.77 200.315 1374.8 200.306 1375.43 199.662L1376.14 198.937V203.034C1376.14 203.935 1376.88 204.667 1377.78 204.667C1378.68 204.667 1379.41 203.936 1379.41 203.034V198.937L1380.12 199.662C1380.76 200.306 1381.79 200.315 1382.43 199.682C1383.08 199.05 1383.09 198.016 1382.45 197.373L1379.41 194.277V190.211L1385.31 196.217C1385.95 196.861 1386.98 196.87 1387.62 196.238C1388.27 195.606 1388.27 194.571 1387.64 193.928L1379.41 185.551V181.4L1383.56 185.62C1384.19 186.264 1385.22 186.273 1385.87 185.641C1386.51 185.008 1386.52 183.974 1385.89 183.331L1379.41 176.74V172.114L1382.06 169.46H1385.82L1389.09 172.732L1389.17 181.971C1389.18 182.869 1389.91 183.59 1390.8 183.59C1390.81 183.59 1390.81 183.59 1390.82 183.59C1391.72 183.583 1392.44 182.845 1392.44 181.943L1392.38 176.027L1395.32 178.962L1395.42 190.706C1395.43 191.603 1396.16 192.325 1397.05 192.325C1397.06 192.325 1397.06 192.325 1397.07 192.325C1397.97 192.317 1398.7 191.579 1398.69 190.678L1398.61 182.258L1401.49 185.132L1401.53 189.472C1401.53 190.369 1402.26 191.091 1403.16 191.091C1403.16 191.091 1403.17 191.091 1403.17 191.091C1404.08 191.083 1404.8 190.345 1404.79 189.443L1404.78 188.427L1407.68 191.324C1408.32 191.962 1409.35 191.962 1409.99 191.324C1410.63 190.686 1410.63 189.652 1409.99 189.014L1407.09 186.118L1408.11 186.127C1408.11 186.127 1408.12 186.127 1408.12 186.127C1409.02 186.127 1409.75 185.405 1409.76 184.508C1409.77 183.606 1409.04 182.869 1408.14 182.86L1403.8 182.822L1400.92 179.948L1409.34 180.021C1409.35 180.021 1409.35 180.021 1409.36 180.021C1410.25 180.021 1410.98 179.299 1410.99 178.402C1411 177.501 1410.27 176.762 1409.37 176.755L1397.63 176.652L1394.69 173.718L1400.61 173.77C1400.61 173.77 1400.62 173.77 1400.62 173.77C1401.52 173.77 1402.25 173.048 1402.26 172.15C1402.26 171.249 1401.54 170.511 1400.64 170.503L1391.4 170.422L1388.13 167.151V163.398L1390.78 160.745H1395.41L1402 167.221C1402.64 167.853 1403.67 167.844 1404.31 167.2C1404.94 166.557 1404.93 165.523 1404.29 164.891L1400.07 160.745H1404.22L1412.59 168.976C1413.24 169.608 1414.27 169.6 1414.9 168.955C1415.54 168.312 1415.53 167.278 1414.88 166.646L1408.88 160.744H1412.94L1416.04 163.786C1416.68 164.418 1417.72 164.41 1418.35 163.766C1418.98 163.122 1418.97 162.088 1418.33 161.456L1417.6 160.744H1421.7C1422.6 160.744 1423.33 160.013 1423.33 159.111C1423.33 158.209 1422.6 157.478 1421.7 157.478H1417.6L1418.33 156.766C1418.97 156.134 1418.98 155.1 1418.35 154.457C1418.03 154.131 1417.61 153.968 1417.18 153.968C1416.77 153.968 1416.36 154.124 1416.04 154.436L1412.94 157.478H1408.88L1414.88 151.576C1415.53 150.944 1415.54 149.91 1414.9 149.267C1414.58 148.942 1414.16 148.778 1413.74 148.778C1413.33 148.778 1412.91 148.934 1412.59 149.247L1404.22 157.478H1400.07L1404.29 153.332C1404.93 152.7 1404.94 151.666 1404.31 151.023C1403.99 150.697 1403.56 150.534 1403.14 150.534C1402.73 150.534 1402.32 150.69 1402 151.002L1395.41 157.478H1390.78L1388.13 154.825V151.072L1391.4 147.801L1400.64 147.72C1401.54 147.712 1402.26 146.974 1402.26 146.073C1402.25 145.175 1401.52 144.454 1400.62 144.454C1400.62 144.454 1400.61 144.454 1400.61 144.454L1394.69 144.505L1397.63 141.57L1409.37 141.468C1410.27 141.46 1411 140.722 1410.99 139.821C1410.98 138.923 1410.25 138.201 1409.36 138.201C1409.35 138.201 1409.35 138.201 1409.34 138.201L1400.92 138.275L1403.8 135.401L1408.14 135.363C1409.04 135.355 1409.77 134.617 1409.76 133.715C1409.75 132.818 1409.02 132.096 1408.13 132.096C1408.12 132.096 1408.12 132.096 1408.11 132.096L1407.09 132.105L1409.99 129.209C1410.63 128.571 1410.63 127.537 1409.99 126.899C1409.67 126.58 1409.25 126.421 1408.84 126.421C1408.42 126.421 1408 126.58 1407.68 126.899L1404.78 129.796L1404.79 128.78C1404.8 127.878 1404.08 127.14 1403.17 127.132C1403.17 127.132 1403.16 127.132 1403.16 127.132C1402.26 127.132 1401.54 127.854 1401.53 128.751L1401.49 133.091L1398.61 135.965L1398.69 127.545C1398.7 126.644 1397.97 125.906 1397.07 125.898C1397.06 125.898 1397.06 125.898 1397.05 125.898C1396.16 125.898 1395.43 126.62 1395.42 127.517L1395.32 139.261L1392.38 142.196L1392.44 136.28C1392.44 135.378 1391.72 134.64 1390.82 134.633C1390.81 134.633 1390.81 134.633 1390.8 134.633C1389.91 134.633 1389.18 135.355 1389.17 136.252L1389.09 145.491L1385.82 148.763H1382.07L1379.41 146.109V141.483L1385.89 134.892C1386.52 134.249 1386.51 133.215 1385.87 132.582C1385.55 132.27 1385.14 132.114 1384.72 132.114C1384.3 132.114 1383.88 132.278 1383.56 132.603L1379.41 136.823V132.671L1387.64 124.295C1388.27 123.652 1388.27 122.617 1387.62 121.985C1387.3 121.673 1386.89 121.517 1386.48 121.517C1386.06 121.517 1385.63 121.68 1385.31 122.005L1379.41 128.011V123.946L1382.45 120.85C1383.09 120.207 1383.08 119.173 1382.43 118.54C1382.12 118.228 1381.7 118.072 1381.29 118.072C1380.87 118.072 1380.44 118.235 1380.12 118.561L1379.41 119.286V115.189C1379.41 114.287 1378.68 113.556 1377.78 113.556C1376.88 113.556 1376.14 114.287 1376.14 115.189V119.285L1375.43 118.561C1375.11 118.235 1374.69 118.072 1374.27 118.072C1373.85 118.072 1373.44 118.227 1373.12 118.54C1372.48 119.172 1372.47 120.206 1373.1 120.85L1376.14 123.946V128.011L1370.24 122.005C1369.92 121.68 1369.5 121.517 1369.08 121.517C1368.67 121.517 1368.25 121.672 1367.93 121.985C1367.29 122.617 1367.28 123.651 1367.91 124.294L1376.14 132.671V136.823L1372 132.603C1371.68 132.278 1371.26 132.114 1370.83 132.114C1370.42 132.114 1370.01 132.27 1369.69 132.582C1369.05 133.215 1369.04 134.249 1369.67 134.892L1376.14 141.483V146.11L1373.49 148.763H1369.74L1366.47 145.492L1366.39 136.252C1366.38 135.355 1365.65 134.633 1364.75 134.633C1364.75 134.633 1364.74 134.633 1364.74 134.633C1363.84 134.641 1363.11 135.379 1363.12 136.28L1363.17 142.196L1360.24 139.261L1360.13 127.518C1360.13 126.62 1359.4 125.899 1358.5 125.899C1358.5 125.899 1358.49 125.899 1358.49 125.899C1357.58 125.906 1356.86 126.644 1356.87 127.546L1356.94 135.966L1354.07 133.092L1354.03 128.752C1354.02 127.854 1353.29 127.132 1352.4 127.132C1352.39 127.132 1352.39 127.132 1352.38 127.132C1351.48 127.141 1350.75 127.878 1350.76 128.78L1350.77 129.796L1347.87 126.9C1347.56 126.581 1347.14 126.421 1346.72 126.421C1346.3 126.421 1345.88 126.581 1345.56 126.9C1344.93 127.538 1344.93 128.571 1345.56 129.209L1348.46 132.106L1347.44 132.097C1347.44 132.097 1347.44 132.097 1347.43 132.097C1346.53 132.097 1345.81 132.818 1345.8 133.715C1345.79 134.617 1346.51 135.355 1347.42 135.363L1351.76 135.401L1354.63 138.275L1346.21 138.202C1346.21 138.202 1346.2 138.202 1346.2 138.202C1345.3 138.202 1344.57 138.924 1344.56 139.821C1344.56 140.723 1345.28 141.461 1346.18 141.468L1357.93 141.571L1360.86 144.506L1354.95 144.454C1354.94 144.454 1354.94 144.454 1354.93 144.454C1354.04 144.454 1353.31 145.175 1353.3 146.073C1353.29 146.975 1354.02 147.713 1354.92 147.72L1364.16 147.801L1367.43 151.072V154.825L1364.78 157.479H1360.15L1353.56 151.003C1353.24 150.69 1352.83 150.534 1352.41 150.534C1351.99 150.534 1351.57 150.697 1351.25 151.023C1350.62 151.666 1350.63 152.7 1351.27 153.332L1355.49 157.479H1351.34L1342.96 149.247C1342.64 148.935 1342.23 148.779 1341.82 148.779C1341.39 148.779 1340.97 148.942 1340.65 149.267C1340.02 149.91 1340.03 150.945 1340.67 151.577L1346.68 157.478H1342.61L1339.52 154.436C1339.2 154.124 1338.79 153.968 1338.37 153.968C1337.95 153.968 1337.53 154.132 1337.21 154.457C1336.57 155.1 1336.58 156.134 1337.23 156.766L1337.95 157.478H1333.86C1332.95 157.478 1332.22 158.209 1332.22 159.111C1332.22 160.014 1332.95 160.745 1333.86 160.745ZM1367.76 159.111L1369.06 157.812L1370.9 158.089L1372.29 159.12L1370.91 160.138L1369.06 160.411L1367.76 159.111ZM1377.78 149.095L1379.08 150.395L1378.8 152.236L1377.77 153.622L1376.75 152.242L1376.48 150.395L1377.78 149.095ZM1377.76 159.108L1377.77 159.099L1377.78 159.097L1377.79 159.104L1377.79 159.115L1377.79 159.124L1377.77 159.126L1377.77 159.119L1377.76 159.108ZM1386.49 157.812L1387.79 159.111L1386.49 160.411L1384.65 160.134L1383.27 159.103L1384.65 158.085L1386.49 157.812ZM1377.78 169.128L1376.48 167.829L1376.76 165.988L1377.79 164.601L1378.81 165.981L1379.08 167.828L1377.78 169.128ZM1370.7 164.357L1372.19 163.251L1373.9 162.999L1373.65 164.695L1372.53 166.194H1370.7L1370.7 164.357ZM1383.02 166.194L1381.92 164.696L1381.66 162.986L1383.36 163.242L1384.86 164.356V166.194H1383.02ZM1384.86 153.866L1383.36 154.972L1381.65 155.224L1381.91 153.528L1383.02 152.029H1384.86V153.866ZM1372.53 152.029L1373.64 153.527L1373.89 155.237L1372.2 154.981L1370.7 153.867V152.029H1372.53Z" fill="#FFE6E6"/>
<path d="M968.059 77.6379C963.729 84.3428 956.711 92.0366 949.381 98.0046C958.144 94.4629 968.27 92.0253 976.231 91.4665C977.636 88.6729 976.998 81.6849 976.998 81.6849C976.998 81.6849 971.184 77.7554 968.059 77.6379ZM971.937 90.023C971.291 90.1094 970.637 90.2057 969.977 90.3108C970.284 88.0965 970.283 86.084 970.282 85.9851L970.282 85.6542L969.992 85.4941C969.905 85.4459 968.143 84.4741 966.055 83.6752C966.465 83.1477 966.865 82.6214 967.252 82.0972C969.426 82.6958 971.766 83.8733 972.575 84.2987C972.557 85.2121 972.461 87.8302 971.937 90.023ZM960.009 91.7244L959.72 91.5642C959.707 91.5569 959.575 91.4843 959.353 91.3676C959.889 90.812 960.418 90.2524 960.938 89.6896C961.534 89.9704 962.016 90.2174 962.303 90.3688C962.297 90.6935 962.281 91.2341 962.24 91.8922C961.496 92.076 960.75 92.2694 960.005 92.4715C960.01 92.2201 960.01 92.0702 960.01 92.0552L960.009 91.7244ZM963.433 89.7009L963.144 89.5404C963.11 89.5218 962.564 89.2204 961.732 88.8192C962.233 88.264 962.725 87.7066 963.207 87.1477C964.329 87.6263 965.271 88.1053 965.727 88.3449C965.717 88.8593 965.682 89.9154 965.56 91.1301C964.838 91.2826 964.113 91.4446 963.385 91.6157C963.435 90.6931 963.434 90.0697 963.434 90.0317L963.433 89.7009ZM966.859 88.0082L966.858 87.6774L966.569 87.5169C966.511 87.4851 965.434 86.8905 963.972 86.2496C964.433 85.7009 964.883 85.1523 965.322 84.6036C966.989 85.2158 968.527 85.9931 969.152 86.3214C969.138 87.0269 969.078 88.7484 968.809 90.5041C968.117 90.6242 967.419 90.7544 966.716 90.8937C966.86 89.3036 966.859 88.0735 966.859 88.0082ZM958.529 92.2106C958.665 92.2799 958.784 92.3416 958.879 92.3923C958.877 92.5003 958.874 92.6345 958.869 92.7866C958.439 92.9085 958.009 93.0325 957.58 93.1602C957.899 92.8454 958.214 92.5287 958.529 92.2106ZM974.874 89.691C974.3 89.7432 973.716 89.8052 973.126 89.8745C973.707 87.1506 973.707 84.1046 973.706 83.9612L973.705 83.6304L973.416 83.4699C973.291 83.4002 970.623 81.9308 967.956 81.1264C968.301 80.6427 968.637 80.1608 968.96 79.683C970.754 80.1681 973.378 81.6007 975.194 82.7505C975.326 84.8962 975.315 87.886 974.874 89.691Z" fill="#FFE6E6"/>
<path d="M967.976 69.3812C971.098 69.2003 976.83 65.1537 976.83 65.1537C976.83 65.1537 977.327 58.154 975.866 55.3897C967.895 54.9924 957.722 52.7606 948.889 49.3972C956.337 55.2156 963.511 62.7654 967.976 69.3812ZM959.356 55.6271L959.642 55.4608L959.636 55.1299C959.636 55.115 959.633 54.9654 959.623 54.7141C960.372 54.9012 961.121 55.0792 961.868 55.2477C961.923 55.9051 961.95 56.445 961.963 56.7697C961.678 56.9265 961.203 57.183 960.612 57.4763C960.081 56.9243 959.541 56.3753 958.993 55.831C959.213 55.7099 959.343 55.6348 959.356 55.6271ZM972.356 62.6308C971.556 63.0718 969.242 64.2968 967.079 64.9399C966.681 64.4237 966.27 63.9057 965.849 63.3866C967.921 62.5454 969.663 61.5378 969.749 61.4882L970.035 61.3219L970.029 60.991C970.027 60.8922 969.988 58.88 969.636 56.6723C970.297 56.7638 970.953 56.847 971.601 56.9203C972.169 59.1018 972.32 61.7173 972.356 62.6308ZM968.891 60.6773C968.274 61.018 966.752 61.8268 965.098 62.4721C964.647 61.9326 964.186 61.393 963.714 60.8542C965.163 60.1837 966.228 59.5676 966.285 59.5348L966.571 59.3684L966.565 59.0376C966.564 58.9723 966.54 57.7422 966.364 56.155C967.07 56.2801 967.77 56.3957 968.465 56.5019C968.768 58.2514 968.864 59.9718 968.891 60.6773ZM965.427 58.7238C964.976 58.9726 964.044 59.4706 962.931 59.9714C962.439 59.4228 961.936 58.8752 961.423 58.3302C962.247 57.9122 962.787 57.5999 962.82 57.5806L963.105 57.4142L963.1 57.0834C963.099 57.0451 963.087 56.422 963.019 55.5005C963.75 55.657 964.479 55.8041 965.203 55.9419C965.35 57.1531 965.407 58.2091 965.427 58.7238ZM975.005 64.1246C973.213 65.3113 970.618 66.7967 968.835 67.318C968.503 66.8463 968.156 66.3717 967.802 65.8949C970.452 65.0366 973.089 63.5132 973.213 63.441L973.5 63.2746L973.494 62.9438C973.491 62.8004 973.43 59.7555 972.793 57.0436C973.385 57.1005 973.97 57.1512 974.545 57.1914C975.022 58.9883 975.094 61.9771 975.005 64.1246ZM958.48 54.4222C958.488 54.5743 958.494 54.7086 958.499 54.8166C958.404 54.8687 958.286 54.9333 958.152 55.0052C957.831 54.6936 957.509 54.3832 957.184 54.0753C957.615 54.1939 958.048 54.3088 958.48 54.4222Z" fill="#FFE6E6"/>
<path d="M991.063 56.7431C991.063 56.7431 997.373 53.673 999.037 51.0261C995.395 43.924 992.242 33.9984 990.738 24.667C989.424 34.0272 986.472 44.0145 982.975 51.1892C984.692 53.8014 991.063 56.7431 991.063 56.7431ZM991.042 54.6481C989.118 53.6895 986.534 52.1851 985.191 50.9014C985.433 50.3779 985.671 49.8409 985.907 49.2952C987.975 51.1611 990.613 52.6834 990.737 52.7549L991.024 52.9197L991.308 52.7494C991.431 52.6753 994.038 51.0998 996.067 49.1923C996.314 49.7329 996.563 50.2652 996.816 50.7835C995.498 52.0942 992.946 53.6508 991.042 54.6481ZM990.616 40.8236L990.903 40.9885L991.187 40.8181C991.22 40.7981 991.753 40.4763 992.517 39.9561C992.747 40.6679 992.984 41.3723 993.227 42.0687C992.252 42.8012 991.366 43.3779 990.93 43.6529C990.489 43.387 989.592 42.8289 988.602 42.1157C988.831 41.4146 989.053 40.7051 989.269 39.9893C990.043 40.4935 990.583 40.8043 990.616 40.8236ZM989.603 38.8585C989.815 38.1223 990.02 37.3803 990.218 36.634C990.433 36.7642 990.563 36.839 990.576 36.8463L990.863 37.0112L991.146 36.8408C991.159 36.8332 991.288 36.7558 991.5 36.6212C991.713 37.3636 991.933 38.1012 992.161 38.8326C991.619 39.2087 991.165 39.5023 990.89 39.6756C990.612 39.5078 990.152 39.2236 989.603 38.8585ZM990.657 44.8006L990.944 44.9655L991.227 44.7951C991.283 44.7615 992.337 44.1257 993.623 43.1798C993.867 43.8532 994.118 44.5182 994.373 45.1723C993.009 46.3101 991.567 47.2531 990.971 47.6295C990.367 47.2651 988.906 46.3517 987.519 45.242C987.762 44.5824 987.998 43.9127 988.228 43.2345C989.534 44.1542 990.6 44.7681 990.657 44.8006ZM990.697 48.7775L990.984 48.9424L991.267 48.7721C991.352 48.721 993.075 47.6806 994.811 46.2718C995.062 46.8908 995.318 47.5004 995.579 48.0979C993.973 49.6811 991.783 51.1188 991.01 51.6065C990.228 51.1348 988.011 49.7428 986.372 48.1909C986.62 47.5883 986.864 46.9736 987.103 46.3495C988.867 47.7229 990.611 48.7287 990.697 48.7775ZM990.834 34.1891C990.947 34.6225 991.064 35.0548 991.182 35.486C991.054 35.5688 990.941 35.641 990.849 35.6987C990.757 35.6428 990.642 35.5728 990.513 35.4926C990.623 35.0592 990.73 34.6247 990.834 34.1891Z" fill="#FFE6E6"/>
<path d="M1014.4 68.9104C1018.73 62.2055 1025.75 54.5117 1033.08 48.5437C1024.32 52.0855 1014.19 54.523 1006.23 55.0819C1004.82 57.8754 1005.46 64.8634 1005.46 64.8634C1005.46 64.8634 1011.28 68.7929 1014.4 68.9104ZM1010.52 56.5253C1011.17 56.4389 1011.82 56.3426 1012.48 56.2375C1012.18 58.4518 1012.18 60.4644 1012.18 60.5632L1012.18 60.8941L1012.47 61.0546C1012.56 61.1027 1014.32 62.0746 1016.41 62.8735C1016 63.4009 1015.6 63.9273 1015.21 64.4515C1013.03 63.8525 1010.69 62.675 1009.88 62.25C1009.9 61.3366 1010 58.7203 1010.52 56.5253ZM1022.45 54.4931L1022.45 54.824L1022.74 54.9845C1022.75 54.9914 1022.89 55.064 1023.11 55.1807C1022.57 55.7359 1022.04 56.2955 1021.52 56.8584C1020.93 56.5771 1020.44 56.3305 1020.16 56.1795C1020.16 55.8552 1020.18 55.3146 1020.22 54.6561C1020.97 54.4723 1021.71 54.279 1022.46 54.0769C1022.45 54.3282 1022.45 54.4785 1022.45 54.4931ZM1019.03 56.5166L1019.03 56.8475L1019.32 57.008C1019.35 57.0266 1019.9 57.3279 1020.73 57.7292C1020.23 58.2844 1019.74 58.8418 1019.25 59.4006C1018.13 58.922 1017.19 58.4431 1016.73 58.2034C1016.74 57.6887 1016.78 56.6319 1016.9 55.4182C1017.62 55.2657 1018.35 55.1038 1019.08 54.9327C1019.03 55.8552 1019.03 56.4783 1019.03 56.5166ZM1015.6 58.5401L1015.6 58.871L1015.89 59.0311C1015.95 59.0632 1017.03 59.6574 1018.49 60.2984C1018.03 60.847 1017.58 61.3957 1017.14 61.9443C1015.47 61.3322 1013.93 60.5548 1013.31 60.2265C1013.32 59.5214 1013.38 57.8007 1013.65 56.0435C1014.34 55.9234 1015.04 55.7932 1015.74 55.6539C1015.6 57.2447 1015.6 58.4748 1015.6 58.5401ZM1023.93 54.3377C1023.8 54.2684 1023.68 54.2067 1023.58 54.1564C1023.58 54.0484 1023.59 53.9142 1023.59 53.762C1024.02 53.6402 1024.45 53.5162 1024.88 53.3885C1024.56 53.7029 1024.25 54.0196 1023.93 54.3377ZM1007.59 56.8573C1008.16 56.8051 1008.74 56.7431 1009.33 56.6738C1008.75 59.3977 1008.75 62.4437 1008.75 62.5871L1008.75 62.918L1009.04 63.0785C1009.17 63.1481 1011.84 64.6175 1014.5 65.4219C1014.16 65.9056 1013.82 66.3875 1013.5 66.8654C1011.71 66.3802 1009.08 64.9477 1007.27 63.7975C1007.13 61.6521 1007.15 58.6623 1007.59 56.8573Z" fill="#FFE6E6"/>
<path d="M1014.48 77.167C1011.36 77.3479 1005.63 81.3946 1005.63 81.3946C1005.63 81.3946 1005.13 88.3942 1006.59 91.1586C1014.57 91.5558 1024.74 93.7876 1033.57 97.151C1026.12 91.3326 1018.95 83.7829 1014.48 77.167ZM1023.11 90.9211L1022.82 91.0874L1022.82 91.4183C1022.83 91.4333 1022.83 91.5828 1022.84 91.8342C1022.09 91.647 1021.34 91.469 1020.59 91.3001C1020.54 90.6428 1020.51 90.1029 1020.5 89.7778C1020.78 89.621 1021.26 89.3645 1021.85 89.0716C1022.38 89.6235 1022.92 90.1725 1023.47 90.7168C1023.25 90.8387 1023.12 90.9138 1023.11 90.9211ZM1010.1 83.9175C1010.9 83.4764 1013.22 82.2518 1015.38 81.6087C1015.78 82.1249 1016.19 82.6429 1016.61 83.162C1014.54 84.0032 1012.8 85.0107 1012.71 85.0604L1012.43 85.2267L1012.43 85.5576C1012.43 85.6564 1012.47 87.6686 1012.82 89.8763C1012.16 89.7848 1011.51 89.7016 1010.86 89.6283C1010.29 87.4461 1010.14 84.8309 1010.1 83.9175ZM1013.57 85.8713C1014.19 85.5306 1015.71 84.7226 1017.36 84.0761C1017.81 84.6157 1018.27 85.1552 1018.75 85.6944C1017.3 86.3652 1016.23 86.9813 1016.18 87.0142L1015.89 87.1805L1015.9 87.5114C1015.9 87.5767 1015.92 88.8068 1016.1 90.3936C1015.39 90.2688 1014.69 90.1528 1014 90.0467C1013.69 88.2964 1013.6 86.5764 1013.57 85.8713ZM1017.03 87.8247C1017.48 87.576 1018.42 87.078 1019.53 86.5768C1020.02 87.1254 1020.52 87.673 1021.04 88.218C1020.21 88.636 1019.67 88.9483 1019.64 88.9673L1019.35 89.1336L1019.36 89.4645C1019.36 89.5028 1019.37 90.1262 1019.44 91.0473C1018.71 90.8908 1017.98 90.7438 1017.26 90.6059C1017.11 89.3952 1017.05 88.3395 1017.03 87.8247ZM1007.46 82.4236C1009.25 81.237 1011.84 79.7515 1013.63 79.2303C1013.96 79.7016 1014.3 80.1765 1014.66 80.6529C1012.01 81.5113 1009.37 83.0343 1009.25 83.1065L1008.96 83.2729L1008.97 83.6037C1008.97 83.7471 1009.03 86.792 1009.67 89.5039C1009.08 89.447 1008.49 89.3963 1007.92 89.3561C1007.44 87.5599 1007.37 84.5712 1007.46 82.4236ZM1023.98 92.126C1023.97 91.9742 1023.97 91.84 1023.96 91.732C1024.06 91.6799 1024.18 91.6157 1024.31 91.5434C1024.63 91.855 1024.95 92.1654 1025.28 92.4733C1024.85 92.3547 1024.41 92.2394 1023.98 92.126Z" fill="#FFE6E6"/>
<path d="M991.398 89.8052C991.398 89.8052 985.088 92.8753 983.424 95.5222C987.066 102.624 990.219 112.55 991.723 121.881C993.037 112.521 995.989 102.534 999.486 95.3591C997.769 92.7469 991.398 89.8052 991.398 89.8052ZM991.419 91.9002C993.343 92.8589 995.927 94.3633 997.27 95.647C997.028 96.1704 996.79 96.7078 996.555 97.2531C994.486 95.3872 991.848 93.8649 991.724 93.7934L991.437 93.6286L991.153 93.7989C991.03 93.873 988.423 95.4485 986.394 97.356C986.147 96.8154 985.898 96.2831 985.645 95.7644C986.963 94.4541 989.515 92.8975 991.419 91.9002ZM991.845 105.725L991.558 105.561L991.274 105.731C991.241 105.751 990.708 106.073 989.944 106.593C989.714 105.881 989.477 105.177 989.234 104.48C990.209 103.748 991.095 103.171 991.531 102.896C991.972 103.162 992.869 103.72 993.859 104.433C993.631 105.134 993.408 105.844 993.192 106.56C992.418 106.055 991.878 105.744 991.845 105.725ZM992.858 107.69C992.646 108.426 992.441 109.168 992.243 109.914C992.028 109.784 991.898 109.709 991.885 109.702L991.598 109.537L991.315 109.707C991.302 109.715 991.173 109.792 990.961 109.927C990.748 109.185 990.528 108.447 990.3 107.716C990.842 107.34 991.296 107.046 991.571 106.873C991.849 107.04 992.309 107.325 992.858 107.69ZM991.805 101.748L991.517 101.583L991.234 101.754C991.177 101.787 990.124 102.423 988.838 103.369C988.593 102.695 988.343 102.031 988.088 101.376C989.451 100.239 990.893 99.2956 991.49 98.9188C992.094 99.2832 993.554 100.196 994.941 101.307C994.699 101.966 994.463 102.636 994.232 103.315C992.927 102.395 991.861 101.781 991.805 101.748ZM991.764 97.7708L991.477 97.6059L991.194 97.7762C991.109 97.8273 989.386 98.8677 987.65 100.277C987.398 99.6575 987.143 99.0479 986.882 98.4504C988.487 96.8672 990.677 95.4295 991.45 94.9418C992.232 95.4142 994.451 96.8074 996.088 98.3574C995.84 98.96 995.597 99.5743 995.358 100.198C993.593 98.825 991.85 97.8196 991.764 97.7708ZM991.627 112.359C991.513 111.926 991.397 111.494 991.279 111.063C991.407 110.98 991.52 110.908 991.611 110.85C991.704 110.906 991.818 110.976 991.948 111.056C991.838 111.489 991.731 111.924 991.627 112.359Z" fill="#FFE6E6"/>
<path d="M977.66 65.4393L966.865 73.2798H966.829L977.66 81.109L979.025 94.4034L979.036 94.4089L991.225 88.944H991.233L1003.42 94.3724L1003.44 94.4053L1004.8 81.1086L1004.8 81.1082L1015.61 73.2689H1015.63L1004.8 65.4397L1004.8 65.439L1003.44 52.1449L1003.41 52.1591L991.23 57.6043L979.035 52.1394L979.025 52.1449L977.66 65.4393ZM978.764 66.9594L978.776 66.951L981.317 68.4182L974.626 73.278H974.602L981.315 78.1312L978.776 79.5973L978.761 79.5867L970.049 73.2893L978.764 66.9594ZM999.378 69.4572L1004.65 73.2674L999.375 77.0919L999.362 77.101L996.561 75.4835L999.61 73.2725H999.617L996.562 71.0641L999.363 69.4469L999.378 69.4572ZM988.433 70.7912L988.435 70.7733L988.639 68.7859L990.462 69.6031L990.479 69.6104V71.3125L991.23 71.6492L991.982 71.3132V69.61L991.997 69.6034L993.822 68.7878L994.026 70.773L994.028 70.7908L992.553 71.6419L992.638 72.4612L993.305 72.9438L994.779 72.0928L994.794 72.1034L996.41 73.2718L994.791 74.4457L994.779 74.4548L993.304 73.6034L992.638 74.0867L992.554 74.9057L994.028 75.7567L994.026 75.7754L993.823 77.758L991.995 76.9438L991.982 76.9383V75.2344L991.23 74.8995L990.479 75.2366V76.9379L990.461 76.946L988.639 77.7631L988.435 75.7761L988.434 75.7578L989.908 74.9068L989.823 74.0875L989.156 73.6048L987.682 74.4559L987.667 74.4453L986.052 73.2776L987.67 72.1019L987.682 72.0935L989.158 72.9457L989.823 72.4623L989.908 71.6426L988.433 70.7912ZM986.65 76.7862L987.035 80.5362L987.039 80.5381L990.479 78.9957V82.2289L990.461 82.2369L984.517 84.9021L983.851 78.4212L983.85 78.4029L986.65 76.7862ZM991.982 78.9943L995.419 80.5257L995.426 80.537L995.81 76.7858L998.611 78.4026L998.609 78.4212L997.946 84.8871L991.994 82.2354L991.982 82.2303V78.9943H991.982ZM995.81 69.7621L995.426 66.0121L995.418 66.0168L991.982 67.5526V64.3172L991.997 64.3107L997.945 61.6524L998.609 68.1268L998.611 68.145L995.81 69.7621ZM990.479 67.5519L987.039 66.0102L987.035 66.0121L986.65 69.7618L983.85 68.1446L983.851 68.1268L984.517 61.6459L990.462 64.3099L990.479 64.3176V67.5519ZM985.901 71.0648L982.856 73.2762H982.843L985.899 75.4846L983.098 77.1017L983.083 77.0912L977.816 73.2835L983.086 69.455L983.098 69.4466L985.901 71.0648ZM980.63 91.6358L979.529 80.9171L979.527 80.8989L982.067 79.4328L982.913 87.6734L982.92 87.677L990.479 84.2881V87.2196L990.46 87.228L980.63 91.6358ZM1001.83 91.6102L991.993 87.2258L991.982 87.2207V84.2867L999.535 87.6519L999.548 87.6741L1000.39 79.4317L1002.93 80.8978L1002.93 80.916L1001.83 91.6102ZM1003.7 79.5874L1003.68 79.5965L1001.14 78.1297L1007.85 73.2703H1007.86L1001.15 68.4171L1003.69 66.951L1003.7 66.9616L1012.42 73.2634L1003.7 79.5874ZM1001.83 54.9239L1002.93 65.6312L1002.93 65.6491L1000.39 67.1152L999.548 58.8746L999.534 58.8844L991.982 62.2595V59.3262L991.997 59.3196L1001.83 54.9239ZM980.629 54.9125L990.462 59.3189L990.479 59.3265V62.2591L982.919 58.8716L982.913 58.8753L982.067 67.1156L979.527 65.6495L979.529 65.6316L980.629 54.9125Z" fill="#FFE6E6"/>
<path d="M990.57 74.4176L990.571 74.418L991.231 74.1221L991.89 74.4158L991.891 74.4176L991.965 73.6982L992.55 73.274H992.551L991.965 72.8501L991.891 72.1307L991.89 72.1315L991.231 72.4262L990.571 72.1304L990.57 72.1307L990.496 72.8501L989.912 73.2744H989.91L990.496 73.6982L990.57 74.4176Z" fill="#FFE6E6"/>
</g>
<defs>
<clipPath id="clip0_46_2466">
<rect width="1829" height="545.56" fill="white"/>
</clipPath>
</defs>
</svg>
