<svg width="1966" height="204" viewBox="0 0 1966 204" fill="none" xmlns="http://www.w3.org/2000/svg">
<g clip-path="url(#clip0_49_10134)">
<rect width="1965.56" height="203.333" fill="#5B3C3E"/>
<path d="M1015.65 41.4182C956.157 31.8292 896.46 61.9028 842.885 83.4934C813.832 95.202 784.142 106.221 753.079 111.174C716.911 116.943 679.954 113.966 644.03 107.966C577.456 96.8457 512.336 76.013 444.297 75.72C370.799 75.4049 298.906 94.0431 225.554 95.7749C146.842 97.6323 70.6875 75.2617 3.48966 34.6142C0.834619 33.008 -1.415 37.0115 1.0858 38.7279C55.7708 76.2686 120.298 98.0091 186.388 103.116C259.438 108.761 330.826 91.2294 403.244 85.3817C440.256 82.3917 476.71 83.8415 513.352 89.8875C547.914 95.5898 581.931 104.053 616.27 110.903C648.959 117.423 682.199 122.643 715.622 122.224C747.376 121.827 778.098 115.413 808.074 105.174C841.691 93.6905 873.917 78.5843 907.265 66.3844C942.571 53.4661 977.223 46.779 1014.86 47.2439C1018.1 47.2813 1019.02 41.9624 1015.65 41.4182Z" fill="#FFE6E6" fill-opacity="0.3"/>
<path d="M58.2367 103.483C50.3002 110.483 41.0219 112.968 39.1182 101.33C37.6067 92.0917 40.9867 78.519 49.6987 72.5942C58.9109 66.3301 70.8487 71.4485 70.2362 83.2408C69.9035 89.6592 64.4854 97.9702 58.2367 103.483Z" fill="#E04141" fill-opacity="0.3"/>
<path d="M61.5059 96.7846C61.1181 97.1724 60.7281 97.5359 60.3448 97.8708C56.7996 100.958 52.4281 101.251 50.5795 97.2275C49.4999 94.8809 49.6761 91.7786 50.6302 88.9428C51.9985 84.8799 54.6799 79.7989 58.5402 78.1684C62.4952 76.5005 66.6287 78.6267 67.5299 82.7602C68.5589 87.4842 65.0974 93.1865 61.5059 96.7846Z" fill="#F86262" fill-opacity="0.3"/>
<path d="M61.9207 65.4684C61.0438 65.583 60.1602 65.9289 59.4023 66.5701C58.9484 66.9557 58.5231 67.4514 58.001 67.6277C56.5556 68.1102 54.7554 66.0633 53.4048 68.9409C52.4551 70.9636 53.9953 72.9268 55.1035 73.9227C57.8115 76.3618 61.4977 77.4304 64.838 78.7128C65.9132 79.127 67.0281 79.5456 68.2465 79.409C73.0344 78.8758 70.2736 74.5529 68.4448 73.0149C69.6721 72.4112 70.1194 70.4987 69.6302 69.3133C69.1411 68.1279 68.0438 67.4999 66.9994 66.9315C65.8647 66.3123 64.7102 65.6866 63.4036 65.4861C62.9276 65.4133 62.4253 65.4045 61.9207 65.4684Z" fill="#FFE6E6" fill-opacity="0.3"/>
<path d="M515.945 52.803C517.115 42.2842 522.311 34.2067 531.545 41.5416C538.873 47.3651 545.499 59.684 543.033 69.9274C540.425 80.7569 528.147 84.9961 520.671 75.8544C516.602 70.8793 515.026 61.0854 515.945 52.803Z" fill="#599B67" fill-opacity="0.3"/>
<path d="M518.028 59.9593C518.054 59.4107 518.096 58.8797 518.158 58.3729C518.706 53.704 521.745 50.5488 525.819 52.2828C528.194 53.2942 530.15 55.7091 531.351 58.45C533.07 62.3786 534.502 67.9421 532.739 71.7428C530.933 75.6384 526.444 76.8414 522.998 74.3869C519.061 71.5864 517.79 65.0358 518.028 59.9593Z" fill="#6CBA7D" fill-opacity="0.3"/>
<path d="M538.776 83.4209C539.349 82.7444 539.77 81.8962 539.9 80.9113C539.977 80.3208 539.957 79.6686 540.226 79.1883C540.971 77.8596 543.679 78.1637 542.745 75.1253C542.088 72.9902 539.627 72.5716 538.137 72.5782C534.493 72.5936 531.045 74.2814 527.711 75.5769C526.636 75.9934 525.53 76.4341 524.719 77.3528C521.535 80.9663 526.484 82.3104 528.872 82.2179C528.368 83.4892 529.324 85.2056 530.483 85.7542C531.642 86.3029 532.876 86.0297 534.032 85.7498C535.288 85.4458 536.564 85.1329 537.666 84.4036C538.069 84.137 538.448 83.8087 538.776 83.4209Z" fill="#FFE6E6" fill-opacity="0.3"/>
<path d="M991.025 74.8543C992.417 85.3444 989.311 94.4355 978.587 89.5308C970.073 85.6397 960.685 75.2707 960.618 64.7343C960.55 53.5963 971.45 46.5324 980.903 53.6095C986.045 57.4654 989.93 66.5939 991.025 74.8543Z" fill="#E04141" fill-opacity="0.3"/>
<path d="M987.286 68.4074C987.392 68.945 987.478 69.4716 987.542 69.9784C988.13 74.6407 985.938 78.4349 981.568 77.7298C979.019 77.3178 976.54 75.4449 974.718 73.0719C972.107 69.6721 969.382 64.6132 970.179 60.5018C970.997 56.2868 975.066 54.0415 979.002 55.5949C983.49 57.3686 986.297 63.4234 987.286 68.4074Z" fill="#F86262" fill-opacity="0.3"/>
<path d="M961.51 50.6173C961.116 51.4106 960.911 52.336 961.023 53.3209C961.09 53.9136 961.268 54.5415 961.12 55.0725C960.715 56.5422 958.014 56.8969 959.651 59.6202C960.801 61.5349 963.291 61.3499 964.734 60.9863C968.268 60.0962 971.21 57.6306 974.136 55.5727C975.079 54.9095 976.046 54.2176 976.612 53.1292C978.835 48.8569 973.708 48.7401 971.412 49.4033C971.595 48.0482 970.255 46.6117 969 46.3583C967.744 46.1049 966.609 46.6668 965.556 47.2154C964.41 47.8125 963.247 48.4228 962.352 49.3967C962.024 49.7514 961.735 50.1635 961.51 50.6173Z" fill="#FFE6E6" fill-opacity="0.3"/>
<path d="M125.545 56.1857C127.083 45.7154 132.563 37.8251 141.533 45.4818C148.652 51.5586 154.839 64.1045 152.014 74.2553C149.026 84.9857 136.606 88.7887 129.456 79.3914C125.565 74.2752 124.336 64.4306 125.545 56.1857Z" fill="#599B67" fill-opacity="0.3"/>
<path d="M127.375 63.4122C127.421 62.8658 127.483 62.337 127.56 61.8324C128.272 57.1878 131.42 54.1405 135.43 56.0156C137.77 57.1106 139.639 59.5916 140.74 62.3723C142.32 66.3581 143.554 71.9701 141.659 75.707C139.718 79.5364 135.188 80.5807 131.83 78.0072C127.998 75.068 126.958 68.4778 127.375 63.4122Z" fill="#6CBA7D" fill-opacity="0.3"/>
<path d="M147.284 87.588C147.882 86.9336 148.331 86.1007 148.494 85.1202C148.593 84.5319 148.595 83.8797 148.882 83.4082C149.673 82.106 152.37 82.5048 151.541 79.4378C150.96 77.2807 148.516 76.7761 147.027 76.7298C143.385 76.6175 139.879 78.1819 136.501 79.3585C135.413 79.7374 134.291 80.1384 133.45 81.0286C130.14 84.5275 135.038 86.0456 137.429 86.0368C136.88 87.2883 137.775 89.04 138.914 89.6283C140.053 90.2166 141.296 89.9874 142.461 89.7473C143.728 89.4873 145.013 89.2185 146.141 88.5288C146.553 88.2798 146.943 87.9648 147.284 87.588Z" fill="#FFE6E6" fill-opacity="0.3"/>
<path d="M626.771 133.992C627.644 144.54 624.096 153.466 613.626 148.041C605.315 143.736 596.447 132.917 596.901 122.392C597.379 111.263 608.616 104.745 617.707 112.281C622.653 116.379 626.084 125.688 626.771 133.992Z" fill="#E04141" fill-opacity="0.3"/>
<path d="M623.353 127.369C623.432 127.911 623.491 128.442 623.531 128.951C623.89 133.637 621.513 137.319 617.183 136.398C614.658 135.863 612.274 133.869 610.571 131.41C608.13 127.884 605.655 122.7 606.656 118.63C607.68 114.462 611.855 112.419 615.707 114.164C620.107 116.156 622.612 122.341 623.353 127.369Z" fill="#F86262" fill-opacity="0.3"/>
<path d="M598.485 108.332C598.053 109.106 597.802 110.018 597.866 111.009C597.903 111.604 598.049 112.241 597.877 112.763C597.401 114.211 594.684 114.433 596.185 117.234C597.24 119.203 599.734 119.14 601.195 118.849C604.769 118.133 607.827 115.815 610.852 113.902C611.826 113.285 612.829 112.642 613.446 111.584C615.876 107.427 610.762 107.056 608.435 107.607C608.684 106.263 607.417 104.761 606.175 104.445C604.932 104.13 603.773 104.635 602.691 105.133C601.517 105.673 600.325 106.226 599.384 107.153C599.042 107.49 598.734 107.889 598.485 108.332Z" fill="#FFE6E6" fill-opacity="0.3"/>
<path d="M230.548 138.273C227.016 148.25 220.12 154.933 212.796 145.69C206.984 138.353 203.335 124.848 208.065 115.436C213.069 105.483 225.99 104.15 231.19 114.75C234.021 120.521 233.329 130.418 230.548 138.273Z" fill="#E04141" fill-opacity="0.3"/>
<path d="M230.148 130.83C229.998 131.359 229.835 131.866 229.661 132.346C228.066 136.766 224.388 139.148 220.815 136.535C218.73 135.01 217.375 132.212 216.831 129.272C216.051 125.057 215.923 119.313 218.503 116.013C221.147 112.631 225.794 112.481 228.59 115.654C231.789 119.274 231.536 125.941 230.148 130.83Z" fill="#F86262" fill-opacity="0.3"/>
<path d="M215.281 103.267C214.57 103.793 213.966 104.525 213.618 105.454C213.409 106.012 213.279 106.653 212.908 107.058C211.879 108.182 209.313 107.27 209.533 110.441C209.687 112.668 211.987 113.635 213.439 113.968C216.991 114.781 220.733 113.924 224.276 113.42C225.417 113.257 226.593 113.08 227.592 112.371C231.516 109.577 227.001 107.142 224.654 106.688C225.434 105.565 224.895 103.676 223.89 102.879C222.885 102.081 221.623 102.066 220.433 102.077C219.139 102.088 217.826 102.103 216.588 102.561C216.132 102.729 215.689 102.965 215.281 103.267Z" fill="#FFE6E6" fill-opacity="0.3"/>
<path d="M694.867 79.3868C698.055 69.2954 704.722 62.3813 712.357 71.3688C718.416 78.5032 722.523 91.8754 718.114 101.445C713.454 111.562 700.586 113.336 695.027 102.916C692 97.2472 692.355 87.3321 694.867 79.3868Z" fill="#599B67" fill-opacity="0.3"/>
<path d="M695.517 86.812C695.649 86.2788 695.795 85.7676 695.951 85.2807C697.394 80.8079 700.99 78.3026 704.65 80.7946C706.785 82.2488 708.235 84.9964 708.88 87.9181C709.804 92.1044 710.128 97.842 707.662 101.229C705.135 104.699 700.497 105.007 697.593 101.931C694.272 98.417 694.296 91.7453 695.517 86.812Z" fill="#6CBA7D" fill-opacity="0.3"/>
<path d="M711.316 113.854C712.008 113.303 712.588 112.552 712.905 111.611C713.097 111.047 713.202 110.401 713.559 109.982C714.549 108.823 717.147 109.647 716.818 106.486C716.587 104.265 714.256 103.377 712.793 103.093C709.214 102.401 705.504 103.386 701.983 104.009C700.848 104.21 699.678 104.426 698.704 105.17C694.879 108.096 699.473 110.377 701.833 110.749C701.093 111.899 701.697 113.768 702.728 114.53C703.759 115.292 705.024 115.264 706.211 115.213C707.502 115.158 708.816 115.099 710.038 114.598C710.484 114.42 710.92 114.169 711.316 113.854Z" fill="#FFE6E6" fill-opacity="0.3"/>
<path d="M314.607 52.3143C319.019 42.6945 326.488 36.6573 332.953 46.5195C338.084 54.348 340.506 68.1256 334.949 77.0756C329.072 86.539 316.084 86.7086 311.855 75.6831C309.555 69.6833 311.133 59.8894 314.607 52.3143Z" fill="#599B67" fill-opacity="0.3"/>
<path d="M314.336 59.7635C314.532 59.2523 314.742 58.761 314.955 58.2983C316.941 54.0392 320.816 51.9967 324.141 54.9205C326.08 56.6259 327.18 59.5344 327.457 62.5111C327.856 66.779 327.468 72.5121 324.602 75.5682C321.665 78.6991 317.024 78.4325 314.523 75.0217C311.666 71.1262 312.516 64.5095 314.336 59.7635Z" fill="#6CBA7D" fill-opacity="0.3"/>
<path d="M326.67 88.5506C327.426 88.0901 328.092 87.4158 328.524 86.5213C328.783 85.9837 328.969 85.3579 329.374 84.9877C330.5 83.961 332.974 85.0979 333.04 81.9207C333.087 79.6865 330.881 78.5187 329.467 78.056C326.003 76.9279 322.198 77.4457 318.626 77.6308C317.474 77.6903 316.286 77.7585 315.228 78.3777C311.071 80.808 315.347 83.6393 317.643 84.3003C316.766 85.3491 317.134 87.2793 318.064 88.1628C318.992 89.0463 320.25 89.1763 321.435 89.2733C322.724 89.379 324.033 89.4804 325.309 89.1345C325.774 89.0089 326.239 88.815 326.67 88.5506Z" fill="#FFE6E6" fill-opacity="0.3"/>
<path d="M832.739 124.458C836.725 134.261 836.009 143.839 824.393 141.794C815.174 140.17 803.479 132.498 800.764 122.319C797.893 111.555 806.667 101.977 817.595 106.448C823.544 108.88 829.599 116.74 832.739 124.458Z" fill="#E04141" fill-opacity="0.3"/>
<path d="M827.498 119.16C827.736 119.653 827.952 120.14 828.142 120.616C829.885 124.981 828.719 129.205 824.31 129.621C821.739 129.866 818.868 128.674 816.508 126.838C813.124 124.205 809.215 119.997 808.951 115.815C808.682 111.532 812.055 108.333 816.252 108.846C821.049 109.432 825.288 114.583 827.498 119.16Z" fill="#F86262" fill-opacity="0.3"/>
<path d="M798.076 108.427C797.896 109.293 797.929 110.24 798.286 111.168C798.499 111.725 798.828 112.289 798.821 112.838C798.799 114.361 796.274 115.385 798.543 117.608C800.139 119.173 802.501 118.366 803.807 117.65C807.002 115.898 809.23 112.772 811.543 110.044C812.29 109.165 813.052 108.251 813.326 107.056C814.403 102.361 809.41 103.54 807.355 104.758C807.192 103.401 805.532 102.348 804.252 102.418C802.972 102.489 802.016 103.317 801.135 104.115C800.176 104.981 799.204 105.864 798.581 107.032C798.356 107.46 798.18 107.931 798.076 108.427Z" fill="#FFE6E6" fill-opacity="0.3"/>
<path d="M438.598 115.191C435.069 125.168 428.17 131.85 420.846 122.607C415.033 115.27 411.385 101.766 416.115 92.3532C421.119 82.4006 434.04 81.0676 439.239 91.6679C442.071 97.4385 441.379 107.336 438.598 115.191Z" fill="#E04141" fill-opacity="0.3"/>
<path d="M438.2 107.748C438.05 108.277 437.887 108.783 437.713 109.264C436.117 113.686 432.44 116.068 428.866 113.452C426.782 111.927 425.427 109.129 424.883 106.19C424.103 101.975 423.975 96.2308 426.555 92.9302C429.199 89.5481 433.846 89.3982 436.642 92.5711C439.839 96.1912 439.588 102.859 438.2 107.748Z" fill="#F86262" fill-opacity="0.3"/>
<path d="M423.331 80.184C422.62 80.7106 422.016 81.4421 421.668 82.372C421.458 82.9294 421.328 83.5706 420.958 83.976C419.929 85.0997 417.362 84.1875 417.583 87.3581C417.737 89.5857 420.037 90.553 421.489 90.8857C425.041 91.6987 428.782 90.8416 432.325 90.3371C433.467 90.1762 434.643 89.9999 435.641 89.2883C439.566 86.4944 435.051 84.0575 432.704 83.6058C433.484 82.4821 432.944 80.5938 431.94 79.7962C430.935 78.9986 429.67 78.9832 428.483 78.9942C427.189 79.0052 425.876 79.0207 424.638 79.479C424.184 79.6464 423.741 79.8821 423.331 80.184Z" fill="#FFE6E6" fill-opacity="0.3"/>
<path d="M869.103 37.9043C873.166 28.1324 880.413 21.8286 887.23 31.4529C892.639 39.0919 895.557 52.7725 890.324 61.9186C884.793 71.5869 871.818 72.2237 867.197 61.3568C864.681 55.443 865.904 45.5984 869.103 37.9043Z" fill="#599B67" fill-opacity="0.3"/>
<path d="M869.1 45.3586C869.279 44.8408 869.468 44.3428 869.666 43.8713C871.497 39.5417 875.298 37.3626 878.724 40.1653C880.723 41.8001 881.926 44.6667 882.311 47.6324C882.864 51.8849 882.682 57.6268 879.927 60.7842C877.105 64.0187 872.458 63.9196 869.834 60.6014C866.842 56.8094 867.452 50.1663 869.1 45.3586Z" fill="#6CBA7D" fill-opacity="0.3"/>
<path d="M882.464 73.6823C883.202 73.1931 883.843 72.4969 884.244 71.5869C884.484 71.0405 884.647 70.4081 885.04 70.0225C886.126 68.9561 888.642 70.0049 888.594 66.8255C888.558 64.5913 886.313 63.5028 884.883 63.093C881.38 62.0905 877.597 62.7449 874.034 63.0577C872.886 63.1591 871.7 63.2715 870.665 63.9259C866.598 66.506 870.973 69.1808 873.291 69.7581C872.452 70.8378 872.89 72.7525 873.849 73.603C874.809 74.4535 876.07 74.5372 877.257 74.5901C878.549 74.6496 879.86 74.7046 881.122 74.3124C881.583 74.1736 882.039 73.9621 882.464 73.6823Z" fill="#FFE6E6" fill-opacity="0.3"/>
<path d="M1009.33 47.1157C1067.37 63.3199 1130.06 40.135 1185.72 24.6924C1215.9 16.3179 1246.64 8.70007 1278.07 7.26383C1314.65 5.59036 1351.04 12.6953 1386.07 22.6882C1450.97 41.2087 1513.34 69.217 1580.92 77.143C1653.92 85.7033 1727.45 75.2501 1800.53 81.7602C1878.95 88.7469 1952.12 119.522 2014.33 167.453C2016.79 169.347 2019.47 165.621 2017.18 163.635C1967.05 120.195 1905.37 91.3511 1840.27 78.8599C1768.32 65.0536 1695.41 74.4643 1622.8 72.149C1585.68 70.9669 1549.62 65.4356 1513.89 55.3161C1480.19 45.7717 1447.33 33.5448 1413.98 22.8846C1382.23 12.738 1349.78 3.82134 1316.53 0.486919C1284.93 -2.68223 1253.68 0.243942 1222.74 7.05453C1188.05 14.6937 1154.33 26.0883 1119.83 34.4692C1083.29 43.3441 1048.11 46.1006 1010.76 41.415C1007.54 41.0141 1006.03 46.1963 1009.33 47.1157Z" fill="#FFE6E6" fill-opacity="0.3"/>
<path d="M1967.66 92.8759C1976.33 86.8107 1985.83 85.3821 1986.41 97.1603C1986.88 106.51 1982 119.618 1972.67 124.528C1962.82 129.719 1951.53 123.293 1953.46 111.644C1954.51 105.303 1960.83 97.6527 1967.66 92.8759Z" fill="#E04141" fill-opacity="0.3"/>
<path d="M1963.66 99.1652C1964.08 98.8234 1964.51 98.5059 1964.93 98.2161C1968.8 95.5465 1973.18 95.7459 1974.56 99.9512C1975.37 102.404 1974.85 105.467 1973.58 108.178C1971.77 112.062 1968.53 116.81 1964.51 117.997C1960.4 119.21 1956.53 116.634 1956.1 112.425C1955.6 107.615 1959.68 102.338 1963.66 99.1652Z" fill="#F86262" fill-opacity="0.3"/>
<path d="M1959.73 130.237C1960.61 130.221 1961.53 129.977 1962.36 129.425C1962.85 129.092 1963.33 128.648 1963.87 128.531C1965.36 128.214 1966.92 130.45 1968.58 127.742C1969.75 125.839 1968.44 123.715 1967.45 122.601C1965.03 119.873 1961.49 118.398 1958.32 116.749C1957.29 116.217 1956.23 115.675 1955.01 115.674C1950.19 115.667 1952.45 120.272 1954.09 122.006C1952.81 122.468 1952.15 124.318 1952.5 125.551C1952.85 126.784 1953.87 127.531 1954.85 128.213C1955.9 128.956 1956.98 129.707 1958.26 130.053C1958.72 130.179 1959.22 130.244 1959.73 130.237Z" fill="#FFE6E6" fill-opacity="0.3"/>
<path d="M1507.15 91.8754C1504.81 102.197 1498.74 109.64 1490.39 101.315C1483.76 94.7062 1478.56 81.7216 1482.16 71.8196C1485.96 61.3512 1498.64 58.5164 1505.04 68.4392C1508.53 73.8396 1508.99 83.7485 1507.15 91.8754Z" fill="#599B67" fill-opacity="0.3"/>
<path d="M1505.89 84.5308C1505.8 85.073 1505.7 85.5959 1505.58 86.0926C1504.51 90.6704 1501.14 93.4648 1497.28 91.2845C1495.04 90.013 1493.36 87.3938 1492.48 84.5354C1491.21 80.4388 1490.41 74.7498 1492.59 71.1708C1494.82 67.5026 1499.42 66.8108 1502.56 69.6365C1506.16 72.8611 1506.69 79.513 1505.89 84.5308Z" fill="#6CBA7D" fill-opacity="0.3"/>
<path d="M1487.9 58.8892C1487.26 59.4971 1486.74 60.2928 1486.5 61.2569C1486.36 61.835 1486.31 62.4853 1485.98 62.9324C1485.1 64.1691 1482.44 63.5631 1483.03 66.6872C1483.44 68.8824 1485.84 69.5745 1487.32 69.7351C1490.94 70.1287 1494.56 68.8386 1498.02 67.9253C1499.13 67.6321 1500.28 67.3183 1501.19 66.4963C1504.76 63.2629 1499.99 61.372 1497.61 61.196C1498.25 59.9893 1497.49 58.1764 1496.4 57.5012C1495.31 56.826 1494.06 56.959 1492.88 57.1073C1491.59 57.2685 1490.29 57.4363 1489.11 58.0373C1488.68 58.257 1488.27 58.5407 1487.9 58.8892Z" fill="#FFE6E6" fill-opacity="0.3"/>
<path d="M1037.55 16.6539C1037.34 6.07378 1041.45 -2.61124 1051.55 3.46577C1059.58 8.28766 1067.74 19.6447 1066.63 30.122C1065.44 41.1972 1053.82 46.9935 1045.22 38.9003C1040.54 34.4917 1037.71 24.985 1037.55 16.6539Z" fill="#E04141" fill-opacity="0.3"/>
<path d="M1040.54 23.4797C1040.49 22.9337 1040.47 22.4007 1040.46 21.89C1040.4 17.1911 1043 13.6669 1047.27 14.8578C1049.75 15.5533 1052.01 17.6925 1053.55 20.255C1055.76 23.9262 1057.9 29.259 1056.65 33.255C1055.36 37.3517 1051.07 39.1261 1047.33 37.1409C1043.07 34.8748 1040.96 28.5433 1040.54 23.4797Z" fill="#F86262" fill-opacity="0.3"/>
<path d="M1064.16 44.0497C1064.64 43.3058 1064.94 42.4092 1064.94 41.4179C1064.94 40.8215 1064.84 40.1775 1065.04 39.6664C1065.61 38.2516 1068.33 38.2022 1067.01 35.3123C1066.09 33.2807 1063.59 33.1852 1062.12 33.3845C1058.5 33.8724 1055.3 35.9924 1052.17 37.7089C1051.15 38.2621 1050.12 38.8411 1049.43 39.8592C1046.74 43.855 1051.82 44.5464 1054.18 44.145C1053.85 45.4709 1055.02 47.0488 1056.24 47.4415C1057.46 47.8342 1058.65 47.4032 1059.75 46.9762C1060.96 46.5115 1062.18 46.0356 1063.18 45.1682C1063.55 44.8525 1063.88 44.4755 1064.16 44.0497Z" fill="#FFE6E6" fill-opacity="0.3"/>
<path d="M1895.46 132.322C1892.76 142.553 1886.43 149.779 1878.38 141.164C1871.99 134.327 1867.24 121.166 1871.19 111.396C1875.36 101.069 1888.13 98.6834 1894.18 108.824C1897.48 114.344 1897.59 124.264 1895.46 132.322Z" fill="#599B67" fill-opacity="0.3"/>
<path d="M1894.46 124.935C1894.35 125.473 1894.23 125.992 1894.1 126.484C1892.87 131.02 1889.4 133.695 1885.62 131.381C1883.42 130.031 1881.84 127.356 1881.06 124.469C1879.94 120.331 1879.34 114.616 1881.64 111.115C1884 107.528 1888.62 106.998 1891.67 109.933C1895.15 113.283 1895.44 119.948 1894.46 124.935Z" fill="#6CBA7D" fill-opacity="0.3"/>
<path d="M1877.39 98.6781C1876.72 99.2614 1876.18 100.039 1875.91 100.995C1875.74 101.568 1875.67 102.216 1875.33 102.652C1874.4 103.857 1871.76 103.159 1872.24 106.299C1872.58 108.508 1874.95 109.283 1876.42 109.497C1880.03 110.017 1883.69 108.856 1887.18 108.066C1888.3 107.811 1889.46 107.539 1890.4 106.748C1894.08 103.643 1889.38 101.585 1887.01 101.325C1887.69 100.143 1887 98.3024 1885.93 97.59C1884.87 96.8776 1883.61 96.9658 1882.42 97.0737C1881.13 97.1899 1879.83 97.3128 1878.63 97.8715C1878.19 98.0727 1877.77 98.342 1877.39 98.6781Z" fill="#FFE6E6" fill-opacity="0.3"/>
<path d="M1406.14 -1.23728C1406.45 -11.816 1410.98 -20.2874 1420.77 -13.7221C1428.55 -8.51134 1436.15 3.23395 1434.52 13.642C1432.79 24.6471 1420.89 29.8625 1412.71 21.3546C1408.25 16.7271 1405.89 7.09184 1406.14 -1.23728Z" fill="#E04141" fill-opacity="0.3"/>
<path d="M1408.79 5.72811C1408.77 5.18061 1408.77 4.64627 1408.79 4.13606C1408.96 -0.561169 1411.73 -3.95295 1415.93 -2.55193C1418.38 -1.73656 1420.53 0.512403 1421.94 3.14693C1423.97 6.92397 1425.85 12.3533 1424.4 16.285C1422.91 20.3124 1418.54 21.8735 1414.91 19.7073C1410.76 17.2343 1408.96 10.8075 1408.79 5.72811Z" fill="#F86262" fill-opacity="0.3"/>
<path d="M1431.36 27.435C1431.88 26.715 1432.23 25.8368 1432.28 24.8443C1432.31 24.249 1432.24 23.5999 1432.47 23.1003C1433.1 21.7152 1435.83 21.799 1434.65 18.8478C1433.82 16.772 1431.34 16.5556 1429.85 16.6807C1426.22 16.9913 1422.92 18.9514 1419.7 20.5124C1418.66 21.0161 1417.59 21.5429 1416.86 22.5246C1413.98 26.3834 1419.02 27.3251 1421.4 27.0388C1421 28.3464 1422.09 29.9818 1423.29 30.4343C1424.49 30.8868 1425.69 30.5155 1426.83 30.1421C1428.05 29.7375 1429.3 29.3217 1430.34 28.5055C1430.72 28.2088 1431.07 27.8472 1431.36 27.435Z" fill="#FFE6E6" fill-opacity="0.3"/>
<path d="M1800.34 38.9698C1804.97 29.4523 1812.57 23.5857 1818.81 33.5922C1823.76 41.5352 1825.87 55.3637 1820.11 64.1862C1814.03 73.5144 1801.04 73.3891 1797.06 62.2722C1794.89 56.2204 1796.69 46.4631 1800.34 38.9698Z" fill="#E04141" fill-opacity="0.3"/>
<path d="M1799.9 46.4107C1800.11 45.902 1800.33 45.4167 1800.55 44.959C1802.63 40.746 1806.56 38.7918 1809.81 41.7895C1811.71 43.5385 1812.75 46.4712 1812.96 49.4529C1813.26 53.7288 1812.74 59.451 1809.81 62.4413C1806.8 65.5054 1802.17 65.1328 1799.74 61.6663C1796.97 57.7101 1797.97 51.1133 1799.9 46.4107Z" fill="#F86262" fill-opacity="0.3"/>
<path d="M1811.58 75.4685C1812.34 75.0251 1813.03 74.3659 1813.48 73.481C1813.75 72.9506 1813.95 72.3281 1814.36 71.9667C1815.51 70.9656 1817.96 72.16 1818.1 68.9847C1818.19 66.7539 1816.01 65.5346 1814.61 65.0411C1811.17 63.8346 1807.36 64.2665 1803.78 64.3703C1802.63 64.4043 1801.44 64.4474 1800.37 65.0404C1796.15 67.3762 1800.37 70.3022 1802.65 71.0165C1801.75 72.0456 1802.07 73.9825 1802.98 74.8878C1803.89 75.7931 1805.14 75.9501 1806.33 76.0727C1807.61 76.2069 1808.92 76.3389 1810.2 76.0225C1810.67 75.9073 1811.14 75.7227 1811.58 75.4685Z" fill="#FFE6E6" fill-opacity="0.3"/>
<path d="M1332.34 45.3825C1328.04 55.0524 1320.64 61.1747 1314.06 51.3873C1308.84 43.618 1306.26 29.8694 1311.72 20.8554C1317.48 11.3244 1330.47 11.0058 1334.82 21.9835C1337.2 27.9566 1335.73 37.7692 1332.34 45.3825Z" fill="#599B67" fill-opacity="0.3"/>
<path d="M1332.53 37.9312C1332.34 38.4462 1332.14 38.9378 1331.93 39.4041C1329.99 43.6867 1326.14 45.7726 1322.78 42.8857C1320.82 41.2011 1319.69 38.3082 1319.38 35.3326C1318.93 31.069 1319.25 25.3314 1322.08 22.2429C1324.98 19.0781 1329.62 19.2921 1332.16 22.6744C1335.07 26.5391 1334.3 33.166 1332.53 37.9312Z" fill="#6CBA7D" fill-opacity="0.3"/>
<path d="M1319.86 9.28755C1319.12 9.75728 1318.46 10.4388 1318.03 11.3381C1317.78 11.8771 1317.6 12.5067 1317.2 12.8827C1316.09 13.9233 1313.6 12.813 1313.57 15.9916C1313.55 18.2246 1315.77 19.3685 1317.19 19.8151C1320.67 20.9041 1324.47 20.3418 1328.03 20.1172C1329.18 20.0453 1330.37 19.9621 1331.42 19.3313C1335.55 16.853 1331.24 14.0714 1328.94 13.4366C1329.8 12.3768 1329.41 10.4524 1328.48 9.57912C1327.54 8.70587 1326.28 8.59242 1325.09 8.50952C1323.8 8.41937 1322.49 8.33111 1321.22 8.69089C1320.76 8.81829 1320.29 9.01897 1319.86 9.28755Z" fill="#FFE6E6" fill-opacity="0.3"/>
<path d="M1707.16 114.954C1701.7 124.018 1693.6 129.179 1688.28 118.653C1684.06 110.298 1683.2 96.3361 1689.73 88.0661C1696.63 79.3219 1709.55 80.6108 1712.52 92.0412C1714.13 98.2611 1711.47 107.816 1707.16 114.954Z" fill="#599B67" fill-opacity="0.3"/>
<path d="M1708.27 107.582C1708.02 108.068 1707.75 108.533 1707.49 108.968C1705.04 112.978 1700.96 114.572 1697.98 111.294C1696.25 109.382 1695.48 106.368 1695.54 103.379C1695.62 99.0936 1696.65 93.4402 1699.84 90.7251C1703.11 87.9435 1707.69 88.7291 1709.79 92.399C1712.2 96.5906 1710.61 103.07 1708.27 107.582Z" fill="#6CBA7D" fill-opacity="0.3"/>
<path d="M1699.24 77.5926C1698.44 77.9653 1697.7 78.5607 1697.17 79.4011C1696.85 79.9062 1696.6 80.5072 1696.16 80.8295C1694.92 81.7235 1692.59 80.3161 1692.17 83.4658C1691.87 85.6807 1693.93 87.0886 1695.29 87.7071C1698.6 89.2167 1702.44 89.1292 1706.01 89.3461C1707.16 89.4163 1708.35 89.4817 1709.47 88.9851C1713.87 87.0367 1709.94 83.7434 1707.73 82.8289C1708.72 81.8852 1708.57 79.9259 1707.75 78.9436C1706.93 77.9616 1705.69 77.6912 1704.52 77.4619C1703.26 77.2121 1701.97 76.9646 1700.66 77.1651C1700.18 77.2378 1699.7 77.3783 1699.24 77.5926Z" fill="#FFE6E6" fill-opacity="0.3"/>
<path d="M1200.4 -14.875C1197.54 -25.063 1199.32 -34.5001 1210.64 -31.1649C1219.62 -28.5168 1230.38 -19.5809 1231.93 -9.16106C1233.58 1.8565 1223.78 10.3895 1213.43 4.72078C1207.79 1.63609 1202.65 -6.85304 1200.4 -14.875Z" fill="#E04141" fill-opacity="0.3"/>
<path d="M1205.01 -9.02199C1204.83 -9.53913 1204.67 -10.0472 1204.54 -10.5414C1203.29 -15.0742 1204.93 -19.1406 1209.35 -19.0597C1211.94 -19.0142 1214.66 -17.5075 1216.79 -15.4189C1219.86 -12.4228 1223.27 -7.80236 1223.07 -3.61714C1222.85 0.66929 1219.14 3.46981 1215.03 2.48868C1210.33 1.36804 1206.69 -4.22655 1205.01 -9.02199Z" fill="#F86262" fill-opacity="0.3"/>
<path d="M1233.04 4.94457C1233.32 4.10439 1233.39 3.15922 1233.14 2.19741C1232.99 1.6195 1232.73 1.02218 1232.8 0.477748C1232.99 -1.03268 1235.62 -1.76745 1233.61 -4.23125C1232.2 -5.96475 1229.76 -5.42845 1228.38 -4.8635C1225.01 -3.4814 1222.45 -0.624557 1219.84 1.82636C1219 2.61613 1218.14 3.43921 1217.74 4.59523C1216.14 9.14002 1221.23 8.52891 1223.41 7.54883C1223.42 8.91582 1224.95 10.1485 1226.23 10.2221C1227.51 10.2957 1228.56 9.5798 1229.52 8.88613C1230.57 8.13323 1231.64 7.36429 1232.39 6.27385C1232.66 5.87432 1232.89 5.42557 1233.04 4.94457Z" fill="#FFE6E6" fill-opacity="0.3"/>
<path d="M1591.01 38.5611C1595.64 29.0434 1603.24 23.1769 1609.48 33.1835C1614.44 41.1265 1616.55 54.955 1610.79 63.7774C1604.7 73.1056 1591.71 72.9804 1587.73 61.8636C1585.57 55.8117 1587.37 46.0544 1591.01 38.5611Z" fill="#E04141" fill-opacity="0.3"/>
<path d="M1590.57 46.0017C1590.78 45.4931 1591 45.0078 1591.23 44.55C1593.31 40.3348 1597.23 38.3807 1600.49 41.3806C1602.39 43.1296 1603.42 46.0622 1603.63 49.044C1603.93 53.3199 1603.41 59.0421 1600.48 62.0324C1597.47 65.0965 1592.84 64.7239 1590.42 61.2574C1587.65 57.3014 1588.64 50.7043 1590.57 46.0017Z" fill="#F86262" fill-opacity="0.3"/>
<path d="M1602.25 75.06C1603.02 74.6166 1603.7 73.9574 1604.15 73.0726C1604.42 72.5421 1604.62 71.9196 1605.04 71.5583C1606.18 70.5571 1608.63 71.7516 1608.77 68.5762C1608.87 66.3454 1606.69 65.1261 1605.28 64.6326C1601.85 63.4261 1598.03 63.858 1594.45 63.9619C1593.3 63.9936 1592.11 64.0367 1591.04 64.6319C1586.83 66.9678 1591.04 69.8959 1593.32 70.608C1592.42 71.6371 1592.75 73.5741 1593.65 74.4794C1594.56 75.3847 1595.82 75.5419 1597 75.6643C1598.29 75.7984 1599.59 75.9305 1600.87 75.614C1601.34 75.4985 1601.81 75.314 1602.25 75.06Z" fill="#FFE6E6" fill-opacity="0.3"/>
<path d="M1154.55 67.0517C1149.42 76.3059 1141.51 81.7567 1135.82 71.4283C1131.3 63.2306 1129.93 49.309 1136.16 40.8079C1142.74 31.8212 1155.71 32.6444 1159.08 43.9612C1160.91 50.12 1158.59 59.7652 1154.55 67.0517Z" fill="#599B67" fill-opacity="0.3"/>
<path d="M1155.39 59.645C1155.16 60.1395 1154.91 60.613 1154.66 61.0593C1152.36 65.1561 1148.34 66.895 1145.25 63.7255C1143.44 61.8767 1142.57 58.8933 1142.52 55.903C1142.45 51.6153 1143.27 45.9302 1146.36 43.1018C1149.53 40.2044 1154.14 40.8244 1156.37 44.4161C1158.92 48.5199 1157.57 55.0525 1155.39 59.645Z" fill="#6CBA7D" fill-opacity="0.3"/>
<path d="M1145.29 30.0005C1144.5 30.4037 1143.79 31.0236 1143.29 31.8829C1142.99 32.3989 1142.75 33.0089 1142.32 33.3481C1141.12 34.2859 1138.74 32.9614 1138.43 36.1262C1138.21 38.3502 1140.32 39.6837 1141.7 40.2514C1145.07 41.6407 1148.9 41.415 1152.48 41.5038C1153.63 41.5319 1154.82 41.5533 1155.92 41.0192C1160.25 38.9118 1156.2 35.7629 1153.96 34.9291C1154.92 33.9505 1154.7 31.9987 1153.84 31.046C1152.98 30.0931 1151.74 29.8684 1150.57 29.6826C1149.29 29.4786 1147.99 29.2768 1146.69 29.5249C1146.22 29.6111 1145.74 29.7701 1145.29 30.0005Z" fill="#FFE6E6" fill-opacity="0.3"/>
<g filter="url(#filter0_f_49_10134)">
<rect x="1.11111" y="12.2222" width="1943.33" height="181.111" stroke="#4A2C2E" stroke-width="22.2222"/>
</g>
<path d="M1113.99 183.64C1173.49 174.051 1233.18 204.125 1286.76 225.715C1315.81 237.424 1345.5 248.443 1376.57 253.396C1412.73 259.164 1449.69 256.188 1485.61 250.188C1552.19 239.068 1617.31 218.235 1685.35 217.942C1758.84 217.627 1830.74 236.265 1904.09 237.997C1982.8 239.854 2058.96 217.484 2126.15 176.836C2128.81 175.23 2131.06 179.233 2128.56 180.95C2073.87 218.491 2009.35 240.231 1943.26 245.338C1870.21 250.983 1798.82 233.451 1726.4 227.604C1689.39 224.614 1652.93 226.063 1616.29 232.109C1581.73 237.812 1547.71 246.275 1513.37 253.125C1480.68 259.645 1447.44 264.864 1414.02 264.446C1382.27 264.049 1351.55 257.635 1321.57 247.396C1287.95 235.912 1255.73 220.806 1222.38 208.606C1187.07 195.688 1152.42 189.001 1114.78 189.466C1111.54 189.503 1110.62 184.184 1113.99 183.64Z" fill="#FFE6E6" fill-opacity="0.5"/>
<path d="M1613.7 195.025C1612.53 184.506 1607.33 176.429 1598.1 183.764C1590.77 189.587 1584.15 201.906 1586.61 212.149C1589.22 222.979 1601.5 227.218 1608.97 218.076C1613.04 213.101 1614.62 203.307 1613.7 195.025Z" fill="#599B67" fill-opacity="0.5"/>
<path d="M1611.62 202.181C1611.59 201.633 1611.55 201.102 1611.49 200.595C1610.94 195.926 1607.9 192.771 1603.83 194.505C1601.45 195.516 1599.49 197.931 1598.29 200.672C1596.57 204.601 1595.14 210.164 1596.9 213.965C1598.71 217.86 1603.2 219.063 1606.65 216.609C1610.58 213.808 1611.85 207.258 1611.62 202.181Z" fill="#6CBA7D" fill-opacity="0.5"/>
<path d="M1138.62 217.076C1137.23 227.566 1140.33 236.657 1151.06 231.753C1159.57 227.862 1168.96 217.493 1169.03 206.956C1169.09 195.818 1158.19 188.754 1148.74 195.831C1143.6 199.687 1139.71 208.816 1138.62 217.076Z" fill="#E04141" fill-opacity="0.5"/>
<path d="M1142.36 210.629C1142.25 211.167 1142.17 211.694 1142.1 212.2C1141.51 216.863 1143.71 220.657 1148.08 219.952C1150.63 219.54 1153.1 217.667 1154.93 215.294C1157.54 211.894 1160.26 206.835 1159.47 202.724C1158.65 198.509 1154.58 196.263 1150.64 197.817C1146.15 199.591 1143.35 205.645 1142.36 210.629Z" fill="#F86262" fill-opacity="0.5"/>
<path d="M1168.13 192.839C1168.53 193.632 1168.73 194.558 1168.62 195.543C1168.55 196.135 1168.38 196.763 1168.52 197.294C1168.93 198.764 1171.63 199.119 1169.99 201.842C1168.84 203.757 1166.35 203.572 1164.91 203.208C1161.38 202.318 1158.44 199.853 1155.51 197.795C1154.57 197.131 1153.6 196.44 1153.03 195.351C1150.81 191.079 1155.94 190.962 1158.23 191.625C1158.05 190.27 1159.39 188.834 1160.64 188.58C1161.9 188.327 1163.04 188.889 1164.09 189.437C1165.23 190.034 1166.4 190.645 1167.29 191.619C1167.62 191.973 1167.91 192.385 1168.13 192.839Z" fill="#FFE6E6" fill-opacity="0.5"/>
<path d="M1815.04 194.536C1810.63 184.916 1803.16 178.879 1796.69 188.741C1791.56 196.57 1789.14 210.348 1794.69 219.298C1800.57 228.761 1813.56 228.931 1817.79 217.905C1820.09 211.905 1818.51 202.111 1815.04 194.536Z" fill="#599B67" fill-opacity="0.5"/>
<path d="M1815.31 201.985C1815.11 201.474 1814.9 200.983 1814.69 200.52C1812.7 196.261 1808.83 194.219 1805.5 197.142C1803.56 198.848 1802.46 201.756 1802.19 204.733C1801.79 209.001 1802.18 214.734 1805.04 217.79C1807.98 220.921 1812.62 220.654 1815.12 217.244C1817.98 213.348 1817.13 206.731 1815.31 201.985Z" fill="#6CBA7D" fill-opacity="0.5"/>
<path d="M1260.54 180.126C1256.48 170.354 1249.23 164.051 1242.41 173.675C1237 181.314 1234.09 194.994 1239.32 204.141C1244.85 213.809 1257.83 214.446 1262.45 203.579C1264.96 197.665 1263.74 187.82 1260.54 180.126Z" fill="#599B67" fill-opacity="0.5"/>
<path d="M1260.54 187.58C1260.36 187.063 1260.18 186.565 1259.98 186.093C1258.15 181.764 1254.35 179.585 1250.92 182.387C1248.92 184.022 1247.72 186.889 1247.33 189.854C1246.78 194.107 1246.96 199.849 1249.72 203.006C1252.54 206.241 1257.19 206.142 1259.81 202.823C1262.8 199.031 1262.19 192.388 1260.54 187.58Z" fill="#6CBA7D" fill-opacity="0.5"/>
<path d="M1120.32 189.338C1062.28 205.542 999.583 182.357 943.924 166.914C913.74 158.54 883.001 150.922 851.578 149.486C814.992 147.812 778.602 154.917 743.579 164.91C678.673 183.431 616.302 211.439 548.725 219.365C475.727 227.925 402.197 217.472 329.114 223.982C250.69 230.969 177.527 261.744 115.314 309.675C112.856 311.569 110.172 307.843 112.464 305.857C162.591 262.417 224.272 233.573 289.371 221.082C361.326 207.275 434.231 216.686 506.847 214.371C543.961 213.189 580.022 207.658 615.754 197.538C649.458 187.994 682.311 175.767 715.665 165.107C747.415 154.96 779.86 146.043 813.118 142.709C844.717 139.54 875.964 142.466 906.9 149.276C941.593 156.916 975.311 168.31 1009.82 176.691C1046.35 185.566 1081.53 188.323 1118.88 183.637C1122.1 183.236 1123.61 188.418 1120.32 189.338Z" fill="#FFE6E6" fill-opacity="0.5"/>
<path d="M622.492 234.098C624.835 244.419 630.904 251.862 639.257 243.537C645.885 236.928 651.087 223.944 647.487 214.042C643.68 203.573 631.004 200.739 624.601 210.661C621.116 216.062 620.649 225.971 622.492 234.098Z" fill="#599B67" fill-opacity="0.5"/>
<path d="M641.743 201.111C642.388 201.719 642.901 202.515 643.141 203.479C643.284 204.057 643.337 204.707 643.658 205.155C644.547 206.391 647.204 205.785 646.617 208.909C646.204 211.105 643.805 211.797 642.324 211.957C638.701 212.351 635.085 211.061 631.627 210.147C630.512 209.854 629.364 209.541 628.455 208.718C624.886 205.485 629.652 203.594 632.036 203.418C631.392 202.211 632.15 200.399 633.24 199.723C634.33 199.048 635.587 199.181 636.767 199.329C638.05 199.491 639.352 199.658 640.529 200.26C640.959 200.479 641.373 200.763 641.743 201.111Z" fill="#FFE6E6" fill-opacity="0.5"/>
<path d="M1092.1 158.876C1092.3 148.296 1088.2 139.611 1078.09 145.688C1070.07 150.51 1061.9 161.867 1063.02 172.344C1064.2 183.419 1075.82 189.216 1084.42 181.122C1089.1 176.714 1091.93 167.207 1092.1 158.876Z" fill="#E04141" fill-opacity="0.5"/>
<path d="M1089.1 165.702C1089.15 165.156 1089.18 164.623 1089.18 164.112C1089.24 159.413 1086.64 155.889 1082.38 157.08C1079.89 157.775 1077.64 159.915 1076.09 162.477C1073.88 166.148 1071.74 171.481 1072.99 175.477C1074.28 179.574 1078.57 181.348 1082.31 179.363C1086.57 177.097 1088.68 170.765 1089.1 165.702Z" fill="#F86262" fill-opacity="0.5"/>
<path d="M1065.49 186.272C1065.01 185.528 1064.7 184.631 1064.7 183.64C1064.7 183.044 1064.81 182.4 1064.6 181.889C1064.03 180.474 1061.31 180.424 1062.63 177.535C1063.56 175.503 1066.05 175.407 1067.53 175.607C1071.14 176.095 1074.34 178.215 1077.48 179.931C1078.49 180.484 1079.53 181.063 1080.21 182.081C1082.9 186.077 1077.82 186.769 1075.46 186.367C1075.8 187.693 1074.63 189.271 1073.41 189.664C1072.19 190.056 1071 189.625 1069.89 189.198C1068.68 188.734 1067.46 188.258 1066.46 187.39C1066.1 187.075 1065.76 186.698 1065.49 186.272Z" fill="#FFE6E6" fill-opacity="0.5"/>
<path d="M723.508 140.985C723.191 130.406 718.665 121.935 708.869 128.5C701.094 133.711 693.495 145.456 695.128 155.864C696.851 166.869 708.749 172.085 716.937 163.577C721.392 158.949 723.757 149.314 723.508 140.985Z" fill="#E04141" fill-opacity="0.5"/>
<path d="M720.853 147.95C720.871 147.403 720.87 146.868 720.853 146.358C720.684 141.661 717.908 138.269 713.709 139.67C711.26 140.486 709.115 142.735 707.699 145.369C705.668 149.146 703.791 154.576 705.242 158.507C706.728 162.535 711.106 164.096 714.737 161.929C718.886 159.456 720.682 153.03 720.853 147.95Z" fill="#F86262" fill-opacity="0.5"/>
<path d="M698.279 169.657C697.763 168.937 697.411 168.059 697.364 167.067C697.334 166.471 697.407 165.822 697.178 165.322C696.542 163.937 693.818 164.021 694.995 161.07C695.822 158.994 698.308 158.778 699.792 158.903C703.424 159.213 706.723 161.174 709.943 162.735C710.98 163.238 712.049 163.765 712.781 164.747C715.662 168.606 710.622 169.547 708.248 169.261C708.646 170.569 707.556 172.204 706.356 172.656C705.157 173.109 703.949 172.738 702.818 172.364C701.59 171.96 700.344 171.544 699.305 170.728C698.928 170.431 698.576 170.069 698.279 169.657Z" fill="#FFE6E6" fill-opacity="0.5"/>
<path d="M329.308 181.192C324.678 171.675 317.076 165.808 310.835 175.814C305.883 183.757 303.772 197.586 309.529 206.408C315.618 215.737 328.607 215.611 332.584 204.494C334.75 198.443 332.952 188.685 329.308 181.192Z" fill="#E04141" fill-opacity="0.5"/>
<path d="M329.745 188.633C329.537 188.124 329.318 187.639 329.091 187.181C327.01 182.968 323.089 181.014 319.831 184.012C317.93 185.761 316.898 188.693 316.687 191.675C316.385 195.951 316.902 201.673 319.837 204.663C322.844 207.728 327.478 207.355 329.9 203.888C332.673 199.932 331.673 193.335 329.745 188.633Z" fill="#F86262" fill-opacity="0.5"/>
<path d="M797.3 187.605C801.6 197.275 809.001 203.397 815.579 193.609C820.8 185.84 823.38 172.092 817.925 163.078C812.159 153.547 799.174 153.228 794.819 164.206C792.447 170.179 793.912 179.991 797.3 187.605Z" fill="#599B67" fill-opacity="0.5"/>
<path d="M797.113 180.153C797.304 180.668 797.506 181.16 797.716 181.626C799.652 185.909 803.507 187.995 806.864 185.108C808.822 183.423 809.954 180.53 810.268 177.555C810.716 173.291 810.394 167.554 807.564 164.465C804.663 161.3 800.02 161.514 797.479 164.897C794.574 168.761 795.347 175.388 797.113 180.153Z" fill="#6CBA7D" fill-opacity="0.5"/>
<path d="M809.779 151.51C810.528 151.979 811.188 152.661 811.609 153.56C811.863 154.099 812.04 154.729 812.442 155.105C813.555 156.145 816.044 155.035 816.072 158.214C816.092 160.447 813.875 161.591 812.453 162.037C808.975 163.126 805.178 162.564 801.609 162.339C800.459 162.267 799.272 162.184 798.221 161.553C794.091 159.075 798.401 156.294 800.704 155.659C799.839 154.599 800.229 152.675 801.168 151.801C802.107 150.928 803.367 150.815 804.553 150.732C805.842 150.642 807.154 150.553 808.425 150.913C808.887 151.04 809.349 151.241 809.779 151.51Z" fill="#FFE6E6" fill-opacity="0.5"/>
<path d="M929.245 127.347C932.105 117.159 930.319 107.722 919.006 111.057C910.028 113.705 899.267 122.641 897.712 133.061C896.067 144.079 905.86 152.612 916.218 146.943C921.856 143.858 926.991 135.369 929.245 127.347Z" fill="#E04141" fill-opacity="0.5"/>
<path d="M924.632 133.2C924.813 132.683 924.973 132.175 925.108 131.681C926.35 127.148 924.718 123.082 920.29 123.162C917.707 123.208 914.988 124.715 912.849 126.803C909.782 129.799 906.37 134.42 906.576 138.605C906.79 142.891 910.501 145.692 914.614 144.711C919.315 143.59 922.949 137.996 924.632 133.2Z" fill="#F86262" fill-opacity="0.5"/>
<path d="M896.6 147.167C896.323 146.327 896.25 145.381 896.5 144.42C896.65 143.842 896.913 143.244 896.845 142.7C896.652 141.189 894.028 140.455 896.034 137.991C897.443 136.257 899.881 136.794 901.26 137.359C904.631 138.741 907.195 141.598 909.8 144.049C910.641 144.838 911.501 145.661 911.907 146.817C913.504 151.362 908.411 150.751 906.231 149.771C906.221 151.138 904.691 152.371 903.411 152.444C902.131 152.518 901.088 151.802 900.123 151.108C899.073 150.355 898.008 149.586 897.258 148.496C896.986 148.096 896.758 147.648 896.6 147.167Z" fill="#FFE6E6" fill-opacity="0.5"/>
<path d="M538.634 180.784C534.007 171.266 526.402 165.399 520.161 175.406C515.209 183.349 513.098 197.177 518.855 206C524.944 215.328 537.933 215.203 541.91 204.086C544.076 198.034 542.278 188.277 538.634 180.784Z" fill="#E04141" fill-opacity="0.5"/>
<path d="M539.073 188.224C538.865 187.715 538.646 187.23 538.419 186.772C536.338 182.557 532.416 180.603 529.159 183.603C527.259 185.352 526.226 188.285 526.015 191.266C525.713 195.542 526.231 201.265 529.165 204.255C532.172 207.319 536.806 206.946 539.228 203.48C541.999 199.524 541.001 192.927 539.073 188.224Z" fill="#F86262" fill-opacity="0.5"/>
<path d="M975.092 209.274C980.226 218.528 988.134 223.979 993.829 213.65C998.346 205.453 999.71 191.531 993.484 183.03C986.904 174.043 973.938 174.867 970.567 186.183C968.73 192.342 971.05 201.987 975.092 209.274Z" fill="#599B67" fill-opacity="0.5"/>
<path d="M974.253 201.867C974.488 202.362 974.732 202.835 974.982 203.281C977.287 207.378 981.309 209.117 984.399 205.948C986.201 204.099 987.075 201.115 987.125 198.125C987.198 193.838 986.372 188.152 983.281 185.324C980.113 182.427 975.507 183.047 973.271 186.638C970.724 190.742 972.076 197.275 974.253 201.867Z" fill="#6CBA7D" fill-opacity="0.5"/>
<path d="M984.354 172.223C985.142 172.626 985.858 173.246 986.358 174.105C986.658 174.621 986.891 175.231 987.324 175.57C988.523 176.508 990.906 175.184 991.215 178.348C991.43 180.572 989.321 181.906 987.946 182.474C984.578 183.863 980.745 183.637 977.17 183.726C976.017 183.754 974.827 183.775 973.724 183.241C969.393 181.134 973.441 177.985 975.68 177.151C974.724 176.173 974.945 174.221 975.802 173.268C976.661 172.315 977.904 172.091 979.079 171.905C980.355 171.701 981.651 171.499 982.95 171.747C983.423 171.833 983.9 171.992 984.354 172.223Z" fill="#FFE6E6" fill-opacity="0.5"/>
<g filter="url(#filter1_f_49_10134)">
<rect x="27.7781" y="15.5554" width="1943.33" height="181.111" stroke="#4A2C2E" stroke-width="22.2222"/>
</g>
<path d="M1017.33 78.0844C1076.82 68.4955 1136.52 98.569 1190.09 120.16C1219.15 131.868 1248.84 142.887 1279.9 147.84C1316.07 153.609 1353.02 150.632 1388.95 144.632C1455.52 133.512 1520.64 112.679 1588.68 112.386C1662.18 112.071 1734.07 130.709 1807.42 132.441C1886.14 134.299 1962.29 111.928 2029.49 71.2805C2032.14 69.6743 2034.39 73.6778 2031.89 75.3942C1977.21 112.935 1912.68 134.675 1846.59 139.783C1773.54 145.428 1702.15 127.896 1629.73 122.048C1592.72 119.058 1556.27 120.508 1519.63 126.554C1485.06 132.256 1451.05 140.719 1416.71 147.569C1384.02 154.089 1350.78 159.309 1317.36 158.89C1285.6 158.494 1254.88 152.08 1224.9 141.841C1191.29 130.357 1159.06 115.251 1125.71 103.051C1090.41 90.1324 1055.75 83.4452 1018.11 83.9101C1014.87 83.9476 1013.95 78.6287 1017.33 78.0844Z" fill="#FFE6E6"/>
<path d="M1974.74 140.149C1982.68 147.149 1991.96 149.635 1993.86 137.997C1995.37 128.758 1991.99 115.185 1983.28 109.26C1974.07 102.996 1962.13 108.115 1962.74 119.907C1963.07 126.325 1968.49 134.636 1974.74 140.149Z" fill="#E04141"/>
<path d="M1971.47 133.451C1971.86 133.839 1972.25 134.202 1972.63 134.537C1976.18 137.624 1980.55 137.917 1982.4 133.894C1983.48 131.547 1983.3 128.445 1982.35 125.609C1980.98 121.546 1978.3 116.465 1974.44 114.835C1970.48 113.167 1966.35 115.293 1965.45 119.426C1964.42 124.15 1967.88 129.853 1971.47 133.451Z" fill="#F86262"/>
<path d="M1971.06 102.135C1971.93 102.249 1972.82 102.595 1973.58 103.236C1974.03 103.622 1974.45 104.118 1974.98 104.294C1976.42 104.777 1978.22 102.73 1979.57 105.607C1980.52 107.63 1978.98 109.593 1977.87 110.589C1975.17 113.028 1971.48 114.097 1968.14 115.379C1967.06 115.793 1965.95 116.212 1964.73 116.075C1959.94 115.542 1962.7 111.219 1964.53 109.681C1963.31 109.077 1962.86 107.165 1963.35 105.98C1963.84 104.794 1964.93 104.166 1965.98 103.598C1967.11 102.979 1968.27 102.353 1969.57 102.152C1970.05 102.08 1970.55 102.071 1971.06 102.135Z" fill="#FFE6E6"/>
<path d="M1517.03 89.4692C1515.86 78.9504 1510.67 70.8729 1501.43 78.2079C1494.1 84.0313 1487.48 96.3503 1489.94 106.594C1492.55 117.423 1504.83 121.662 1512.31 112.521C1516.38 107.546 1517.95 97.7516 1517.03 89.4692Z" fill="#599B67"/>
<path d="M1514.95 96.6256C1514.92 96.077 1514.88 95.5459 1514.82 95.0392C1514.27 90.3703 1511.23 87.2151 1507.16 88.9491C1504.78 89.9604 1502.83 92.3753 1501.63 95.1163C1499.91 99.0449 1498.48 104.608 1500.24 108.409C1502.04 112.305 1506.53 113.508 1509.98 111.053C1513.92 108.253 1515.19 101.702 1514.95 96.6256Z" fill="#6CBA7D"/>
<path d="M1494.2 120.087C1493.63 119.411 1493.21 118.562 1493.08 117.578C1493 116.987 1493.02 116.335 1492.75 115.855C1492.01 114.526 1489.3 114.83 1490.23 111.792C1490.89 109.656 1493.35 109.238 1494.84 109.244C1498.48 109.26 1501.93 110.948 1505.27 112.243C1506.34 112.66 1507.45 113.1 1508.26 114.019C1511.44 117.633 1506.49 118.977 1504.11 118.884C1504.61 120.155 1503.65 121.872 1502.49 122.42C1501.34 122.969 1500.1 122.696 1498.95 122.416C1497.69 122.112 1496.41 121.799 1495.31 121.07C1494.91 120.803 1494.53 120.475 1494.2 120.087Z" fill="#FFE6E6"/>
<path d="M1041.95 111.521C1040.56 122.011 1043.67 131.102 1054.39 126.197C1062.91 122.306 1072.29 111.937 1072.36 101.401C1072.43 90.2626 1061.53 83.1986 1052.08 90.2758C1046.93 94.1317 1043.05 103.26 1041.95 111.521Z" fill="#E04141"/>
<path d="M1045.69 105.074C1045.59 105.611 1045.5 106.138 1045.44 106.645C1044.85 111.307 1047.04 115.101 1051.41 114.396C1053.96 113.984 1056.44 112.111 1058.26 109.738C1060.87 106.338 1063.6 101.279 1062.8 97.168C1061.98 92.953 1057.91 90.7078 1053.98 92.2612C1049.49 94.0349 1046.68 100.09 1045.69 105.074Z" fill="#F86262"/>
<path d="M1071.47 87.2836C1071.86 88.0768 1072.07 89.0022 1071.96 89.9871C1071.89 90.5798 1071.71 91.2078 1071.86 91.7388C1072.26 93.2084 1074.96 93.5632 1073.33 96.2865C1072.18 98.2012 1069.69 98.0161 1068.24 97.6526C1064.71 96.7624 1061.77 94.2969 1058.84 92.239C1057.9 91.5758 1056.93 90.8839 1056.37 89.7954C1054.14 85.5231 1059.27 85.4064 1061.57 86.0696C1061.38 84.7145 1062.72 83.2779 1063.98 83.0245C1065.23 82.7711 1066.37 83.333 1067.42 83.8816C1068.57 84.4788 1069.73 85.0891 1070.63 86.0629C1070.95 86.4177 1071.24 86.8297 1071.47 87.2836Z" fill="#FFE6E6"/>
<path d="M1907.43 92.8519C1905.89 82.3816 1900.41 74.4914 1891.44 82.1481C1884.33 88.2249 1878.14 100.771 1880.96 110.922C1883.95 121.652 1896.37 125.455 1903.52 116.058C1907.41 110.941 1908.64 101.097 1907.43 92.8519Z" fill="#599B67"/>
<path d="M1905.6 100.079C1905.56 99.5321 1905.5 99.0032 1905.42 98.4987C1904.71 93.854 1901.56 90.8068 1897.55 92.6818C1895.21 93.7769 1893.34 96.2579 1892.24 99.0385C1890.66 103.024 1889.42 108.636 1891.32 112.373C1893.26 116.203 1897.79 117.247 1901.15 114.673C1904.98 111.734 1906.02 105.144 1905.6 100.079Z" fill="#6CBA7D"/>
<path d="M1885.69 124.254C1885.1 123.6 1884.65 122.767 1884.48 121.786C1884.38 121.198 1884.38 120.546 1884.1 120.074C1883.3 118.772 1880.61 119.171 1881.44 116.104C1882.02 113.947 1884.46 113.442 1885.95 113.396C1889.59 113.284 1893.1 114.848 1896.48 116.025C1897.56 116.404 1898.69 116.805 1899.53 117.695C1902.84 121.194 1897.94 122.712 1895.55 122.703C1896.1 123.955 1895.2 125.706 1894.06 126.295C1892.92 126.883 1891.68 126.654 1890.52 126.414C1889.25 126.154 1887.96 125.885 1886.84 125.195C1886.42 124.946 1886.03 124.631 1885.69 124.254Z" fill="#FFE6E6"/>
<path d="M1406.21 170.659C1405.33 181.206 1408.88 190.132 1419.35 184.707C1427.66 180.402 1436.53 169.583 1436.08 159.058C1435.6 147.929 1424.36 141.411 1415.27 148.947C1410.32 153.045 1406.89 162.354 1406.21 170.659Z" fill="#E04141"/>
<path d="M1409.63 164.035C1409.55 164.577 1409.49 165.108 1409.45 165.617C1409.09 170.304 1411.47 173.985 1415.79 173.064C1418.32 172.529 1420.7 170.535 1422.41 168.076C1424.85 164.551 1427.32 159.366 1426.32 155.297C1425.3 151.128 1421.12 149.085 1417.27 150.83C1412.87 152.822 1410.37 159.007 1409.63 164.035Z" fill="#F86262"/>
<path d="M1434.49 144.998C1434.92 145.772 1435.18 146.684 1435.11 147.675C1435.07 148.27 1434.93 148.907 1435.1 149.429C1435.58 150.877 1438.29 151.099 1436.79 153.9C1435.74 155.87 1433.24 155.806 1431.78 155.515C1428.21 154.799 1425.15 152.481 1422.13 150.568C1421.15 149.952 1420.15 149.308 1419.53 148.251C1417.1 144.093 1422.22 143.723 1424.54 144.273C1424.29 142.929 1425.56 141.427 1426.8 141.112C1428.05 140.797 1429.2 141.301 1430.29 141.799C1431.46 142.339 1432.65 142.892 1433.59 143.82C1433.94 144.157 1434.24 144.556 1434.49 144.998Z" fill="#FFE6E6"/>
<path d="M1802.43 174.94C1805.96 184.916 1812.86 191.599 1820.18 182.356C1825.99 175.019 1829.64 161.515 1824.91 152.102C1819.91 142.149 1806.99 140.816 1801.79 151.417C1798.96 157.187 1799.65 167.085 1802.43 174.94Z" fill="#E04141"/>
<path d="M1802.83 167.497C1802.98 168.025 1803.14 168.532 1803.32 169.012C1804.91 173.432 1808.59 175.814 1812.16 173.201C1814.25 171.676 1815.6 168.878 1816.15 165.939C1816.93 161.724 1817.05 155.98 1814.47 152.679C1811.83 149.297 1807.18 149.147 1804.39 152.32C1801.19 155.94 1801.44 162.607 1802.83 167.497Z" fill="#F86262"/>
<path d="M1817.7 139.933C1818.41 140.459 1819.01 141.191 1819.36 142.121C1819.57 142.678 1819.7 143.319 1820.07 143.725C1821.1 144.848 1823.66 143.936 1823.44 147.107C1823.29 149.334 1820.99 150.302 1819.54 150.634C1815.99 151.447 1812.24 150.59 1808.7 150.086C1807.56 149.923 1806.38 149.747 1805.39 149.037C1801.46 146.243 1805.98 143.808 1808.32 143.355C1807.54 142.231 1808.08 140.343 1809.09 139.545C1810.09 138.747 1811.35 138.732 1812.54 138.743C1813.84 138.754 1815.15 138.769 1816.39 139.228C1816.85 139.395 1817.29 139.631 1817.7 139.933Z" fill="#FFE6E6"/>
<path d="M1338.11 116.053C1334.92 105.962 1328.26 99.0476 1320.62 108.035C1314.56 115.169 1310.45 128.542 1314.86 138.111C1319.52 148.229 1332.39 150.002 1337.95 139.583C1340.98 133.913 1340.62 123.998 1338.11 116.053Z" fill="#599B67"/>
<path d="M1337.46 123.478C1337.33 122.945 1337.18 122.434 1337.03 121.947C1335.58 117.474 1331.99 114.969 1328.33 117.461C1326.19 118.915 1324.74 121.663 1324.1 124.584C1323.17 128.771 1322.85 134.508 1325.32 137.895C1327.84 141.365 1332.48 141.674 1335.38 138.598C1338.71 135.083 1338.68 128.412 1337.46 123.478Z" fill="#6CBA7D"/>
<path d="M1321.66 150.52C1320.97 149.969 1320.39 149.218 1320.07 148.277C1319.88 147.713 1319.78 147.067 1319.42 146.649C1318.43 145.49 1315.83 146.314 1316.16 143.152C1316.39 140.931 1318.72 140.043 1320.18 139.759C1323.76 139.067 1327.47 140.052 1330.99 140.675C1332.13 140.876 1333.3 141.092 1334.27 141.837C1338.1 144.763 1333.5 147.043 1331.14 147.415C1331.88 148.566 1331.28 150.434 1330.25 151.196C1329.22 151.959 1327.95 151.93 1326.77 151.879C1325.48 151.824 1324.16 151.765 1322.94 151.265C1322.49 151.086 1322.06 150.835 1321.66 150.52Z" fill="#FFE6E6"/>
<path d="M1718.37 88.9806C1713.96 79.3607 1706.49 73.3236 1700.02 83.1858C1694.89 91.0143 1692.47 104.792 1698.03 113.742C1703.9 123.205 1716.89 123.375 1721.12 112.349C1723.42 106.35 1721.84 96.5557 1718.37 88.9806Z" fill="#599B67"/>
<path d="M1718.64 96.4298C1718.44 95.9186 1718.24 95.4273 1718.02 94.9645C1716.04 90.7055 1712.16 88.6629 1708.84 91.5868C1706.9 93.2922 1705.8 96.2006 1705.52 99.1774C1705.12 103.445 1705.51 109.178 1708.38 112.234C1711.31 115.365 1715.95 115.099 1718.45 111.688C1721.31 107.792 1720.46 101.176 1718.64 96.4298Z" fill="#6CBA7D"/>
<path d="M1706.31 125.217C1705.55 124.756 1704.89 124.082 1704.45 123.188C1704.19 122.65 1704.01 122.024 1703.6 121.654C1702.48 120.627 1700 121.764 1699.94 118.587C1699.89 116.353 1702.1 115.185 1703.51 114.722C1706.97 113.594 1710.78 114.112 1714.35 114.297C1715.5 114.357 1716.69 114.425 1717.75 115.044C1721.91 117.474 1717.63 120.306 1715.33 120.967C1716.21 122.015 1715.84 123.946 1714.91 124.829C1713.99 125.713 1712.73 125.843 1711.54 125.94C1710.25 126.045 1708.94 126.147 1707.67 125.801C1707.2 125.675 1706.74 125.481 1706.31 125.217Z" fill="#FFE6E6"/>
<path d="M1200.24 161.124C1196.25 170.927 1196.97 180.505 1208.58 178.46C1217.8 176.837 1229.5 169.164 1232.21 158.985C1235.08 148.222 1226.31 138.644 1215.38 143.114C1209.43 145.547 1203.38 153.406 1200.24 161.124Z" fill="#E04141"/>
<path d="M1205.48 155.826C1205.24 156.32 1205.03 156.807 1204.84 157.282C1203.09 161.647 1204.26 165.871 1208.67 166.288C1211.24 166.532 1214.11 165.34 1216.47 163.505C1219.85 160.872 1223.76 156.663 1224.03 152.481C1224.3 148.198 1220.92 144.999 1216.73 145.512C1211.93 146.098 1207.69 151.25 1205.48 155.826Z" fill="#F86262"/>
<path d="M1234.9 145.093C1235.08 145.959 1235.05 146.907 1234.69 147.834C1234.48 148.392 1234.15 148.956 1234.16 149.504C1234.18 151.027 1236.7 152.051 1234.43 154.275C1232.84 155.839 1230.48 155.032 1229.17 154.316C1225.98 152.565 1223.75 149.438 1221.43 146.71C1220.69 145.831 1219.93 144.917 1219.65 143.723C1218.57 139.027 1223.57 140.206 1225.62 141.425C1225.79 140.067 1227.45 139.014 1228.73 139.085C1230.01 139.155 1230.96 139.984 1231.84 140.781C1232.8 141.647 1233.77 142.531 1234.4 143.698C1234.62 144.126 1234.8 144.597 1234.9 145.093Z" fill="#FFE6E6"/>
<path d="M1594.38 151.857C1597.91 161.833 1604.81 168.516 1612.13 159.273C1617.94 151.936 1621.59 138.432 1616.86 129.019C1611.86 119.066 1598.94 117.733 1593.74 128.334C1590.91 134.104 1591.6 144.002 1594.38 151.857Z" fill="#E04141"/>
<path d="M1594.78 144.414C1594.93 144.942 1595.09 145.449 1595.26 145.929C1596.86 150.352 1600.54 152.733 1604.11 150.118C1606.2 148.593 1607.55 145.795 1608.09 142.856C1608.87 138.641 1609 132.897 1606.42 129.596C1603.78 126.214 1599.13 126.064 1596.34 129.237C1593.14 132.857 1593.39 139.524 1594.78 144.414Z" fill="#F86262"/>
<path d="M1609.65 116.85C1610.36 117.376 1610.96 118.108 1611.31 119.038C1611.52 119.595 1611.65 120.236 1612.02 120.642C1613.05 121.765 1615.61 120.853 1615.39 124.024C1615.24 126.252 1612.94 127.219 1611.49 127.551C1607.94 128.365 1604.19 127.507 1600.65 127.003C1599.51 126.842 1598.33 126.666 1597.34 125.954C1593.41 123.16 1597.93 120.723 1600.27 120.272C1599.49 119.148 1600.03 117.26 1601.04 116.462C1602.04 115.664 1603.31 115.649 1604.49 115.66C1605.79 115.671 1607.1 115.686 1608.34 116.145C1608.79 116.312 1609.24 116.548 1609.65 116.85Z" fill="#FFE6E6"/>
<path d="M1163.87 74.5706C1159.81 64.7987 1152.56 58.4949 1145.75 68.1191C1140.34 75.7581 1137.42 89.4387 1142.65 98.5849C1148.18 108.253 1161.16 108.89 1165.78 98.023C1168.3 92.1092 1167.07 82.2647 1163.87 74.5706Z" fill="#599B67"/>
<path d="M1163.88 82.0248C1163.7 81.507 1163.51 81.0091 1163.31 80.5376C1161.48 76.208 1157.68 74.0289 1154.25 76.8315C1152.25 78.4664 1151.05 81.333 1150.67 84.2987C1150.11 88.5512 1150.3 94.2931 1153.05 97.4505C1155.87 100.685 1160.52 100.586 1163.14 97.2676C1166.14 93.4757 1165.53 86.8325 1163.88 82.0248Z" fill="#6CBA7D"/>
<path d="M1150.51 110.349C1149.78 109.859 1149.13 109.163 1148.73 108.253C1148.49 107.707 1148.33 107.074 1147.94 106.689C1146.85 105.622 1144.34 106.671 1144.38 103.492C1144.42 101.258 1146.66 100.169 1148.09 99.7592C1151.6 98.7567 1155.38 99.4111 1158.94 99.724C1160.09 99.8254 1161.28 99.9377 1162.31 100.592C1166.38 103.172 1162 105.847 1159.69 106.424C1160.53 107.504 1160.09 109.419 1159.13 110.269C1158.17 111.12 1156.91 111.203 1155.72 111.256C1154.43 111.316 1153.12 111.371 1151.86 110.979C1151.4 110.84 1150.94 110.628 1150.51 110.349Z" fill="#FFE6E6"/>
<path d="M1023.65 83.7819C965.612 99.9861 902.917 76.8013 847.258 61.3587C817.074 52.9841 786.335 45.3663 754.912 43.9301C718.326 42.2566 681.936 49.3616 646.913 59.3544C582.007 77.8749 519.636 105.883 452.059 113.809C379.061 122.37 305.531 111.916 232.448 118.426C154.024 125.413 80.8608 156.188 18.6485 204.119C16.1904 206.013 13.5058 202.287 15.7982 200.301C65.9253 156.861 127.606 128.017 192.705 115.526C264.66 101.72 337.565 111.131 410.181 108.815C447.295 107.633 483.356 102.102 519.088 91.9824C552.792 82.4379 585.645 70.2111 618.999 59.5509C650.749 49.4043 683.194 40.4876 716.452 37.1532C748.051 33.984 779.298 36.9102 810.234 43.7208C844.927 51.36 878.645 62.7546 913.151 71.1355C949.684 80.0103 984.868 82.7669 1022.22 78.0813C1025.43 77.6804 1026.94 82.8626 1023.65 83.7819Z" fill="#FFE6E6"/>
<path d="M65.322 129.542C56.6502 123.477 47.1516 122.048 46.5659 133.827C46.1006 143.177 50.9822 156.284 60.3041 161.194C70.161 166.385 81.449 159.959 79.5171 148.31C78.4663 141.97 72.1499 134.319 65.322 129.542Z" fill="#E04141"/>
<path d="M69.3222 135.831C68.8934 135.49 68.4651 135.172 68.0465 134.882C64.1773 132.213 59.8006 132.412 58.4151 136.617C57.6056 139.07 58.1289 142.133 59.3951 144.844C61.2107 148.728 64.4454 153.476 68.4642 154.663C72.5814 155.876 76.4502 153.3 76.8819 149.091C77.3742 144.282 73.2948 139.004 69.3222 135.831Z" fill="#F86262"/>
<path d="M73.2479 166.903C72.3637 166.888 71.4469 166.643 70.6218 166.091C70.1275 165.759 69.6493 165.314 69.1106 165.197C67.6202 164.88 66.0611 167.116 64.3961 164.408C63.2255 162.505 64.5356 160.381 65.5252 159.267C67.9423 156.54 71.4853 155.064 74.6606 153.415C75.6825 152.883 76.7434 152.342 77.9695 152.341C82.787 152.333 80.5287 156.939 78.8841 158.672C80.1713 159.134 80.8304 160.985 80.4773 162.217C80.1243 163.45 79.1044 164.197 78.1304 164.879C77.0723 165.622 75.9953 166.373 74.7195 166.719C74.2547 166.845 73.7565 166.91 73.2479 166.903Z" fill="#FFE6E6"/>
<path d="M525.826 128.542C528.169 138.863 534.238 146.306 542.591 137.981C549.219 131.372 554.421 118.388 550.821 108.486C547.014 98.0175 534.338 95.1826 527.935 105.105C524.45 110.506 523.983 120.415 525.826 128.542Z" fill="#599B67"/>
<path d="M527.092 121.197C527.18 121.739 527.281 122.262 527.4 122.759C528.469 127.337 531.842 130.131 535.696 127.951C537.942 126.679 539.616 124.06 540.501 121.202C541.768 117.105 542.567 111.416 540.389 107.837C538.157 104.169 533.562 103.477 530.413 106.303C526.815 109.527 526.286 116.179 527.092 121.197Z" fill="#6CBA7D"/>
<path d="M545.077 95.5555C545.722 96.1634 546.235 96.959 546.475 97.9231C546.618 98.5012 546.671 99.1515 546.992 99.5987C547.881 100.835 550.538 100.229 549.951 103.353C549.538 105.549 547.139 106.241 545.658 106.401C542.035 106.795 538.419 105.505 534.961 104.592C533.846 104.298 532.698 103.985 531.789 103.163C528.22 99.9292 532.986 98.0383 535.37 97.8622C534.726 96.6556 535.484 94.8427 536.574 94.1675C537.664 93.4923 538.921 93.6253 540.101 93.7735C541.384 93.9348 542.686 94.1025 543.863 94.7036C544.293 94.9233 544.707 95.207 545.077 95.5555Z" fill="#FFE6E6"/>
<path d="M995.43 53.3202C995.637 42.74 991.529 34.055 981.424 40.132C973.4 44.9539 965.235 56.3109 966.351 66.7882C967.533 77.8635 979.157 83.6597 987.756 75.5666C992.433 71.158 995.269 61.6513 995.43 53.3202Z" fill="#E04141"/>
<path d="M992.439 60.146C992.484 59.5999 992.51 59.067 992.517 58.5563C992.578 53.8574 989.974 50.3332 985.711 51.5241C983.224 52.2196 980.971 54.3587 979.427 56.9212C977.214 60.5925 975.073 65.9253 976.327 69.9213C977.613 74.0179 981.908 75.7923 985.644 73.8072C989.905 71.5411 992.015 65.2095 992.439 60.146Z" fill="#F86262"/>
<path d="M968.822 80.716C968.341 79.972 968.034 79.0754 968.035 78.0842C968.034 77.4878 968.141 76.8438 967.934 76.3327C967.367 74.9178 964.643 74.8684 965.964 71.9786C966.892 69.9469 969.387 69.8514 970.862 70.0507C974.473 70.5387 977.673 72.6586 980.811 74.3752C981.823 74.9284 982.862 75.5074 983.546 76.5254C986.235 80.5213 981.153 81.2126 978.797 80.8112C979.131 82.1372 977.961 83.7151 976.742 84.1078C975.522 84.5005 974.332 84.0695 973.223 83.6425C972.018 83.1777 970.793 82.7018 969.795 81.8345C969.429 81.5188 969.096 81.1418 968.822 80.716Z" fill="#FFE6E6"/>
<path d="M137.513 168.988C140.216 179.219 146.546 186.445 154.6 177.83C160.992 170.993 165.733 157.832 161.787 148.062C157.614 137.735 144.845 135.35 138.795 145.49C135.502 151.01 135.385 160.931 137.513 168.988Z" fill="#599B67"/>
<path d="M138.519 161.602C138.627 162.139 138.747 162.658 138.881 163.151C140.109 167.686 143.58 170.361 147.354 168.048C149.556 166.697 151.135 164.022 151.917 161.135C153.04 156.997 153.636 151.282 151.334 147.782C148.975 144.194 144.357 143.665 141.309 146.599C137.831 149.949 137.537 156.615 138.519 161.602Z" fill="#6CBA7D"/>
<path d="M155.591 135.345C156.258 135.928 156.798 136.705 157.07 137.661C157.235 138.235 157.31 138.882 157.647 139.319C158.58 140.524 161.215 139.825 160.736 142.966C160.4 145.174 158.028 145.95 156.553 146.163C152.947 146.683 149.288 145.522 145.799 144.732C144.675 144.478 143.516 144.205 142.58 143.415C138.899 140.31 143.595 138.251 145.972 137.992C145.286 136.81 145.979 134.969 147.044 134.256C148.11 133.544 149.371 133.632 150.556 133.74C151.844 133.856 153.151 133.979 154.349 134.538C154.787 134.739 155.209 135.009 155.591 135.345Z" fill="#FFE6E6"/>
<path d="M626.842 35.429C626.525 24.8502 621.999 16.3789 612.203 22.9442C604.428 28.1549 596.829 39.9002 598.462 50.3082C600.185 61.3134 612.083 66.5288 620.271 58.0208C624.726 53.3934 627.091 43.7581 626.842 35.429Z" fill="#E04141"/>
<path d="M624.187 42.3944C624.205 41.8469 624.204 41.3125 624.187 40.8023C624.018 36.1051 621.242 32.7133 617.043 34.1143C614.594 34.9297 612.449 37.1787 611.033 39.8132C609.002 43.5902 607.125 49.0196 608.576 52.9512C610.062 56.9787 614.44 58.5398 618.071 56.3736C622.22 53.9006 624.016 47.4737 624.187 42.3944Z" fill="#F86262"/>
<path d="M601.613 64.1013C601.097 63.3813 600.745 62.503 600.698 61.5106C600.668 60.9153 600.741 60.2662 600.512 59.7666C599.876 58.3815 597.152 58.4652 598.329 55.5141C599.156 53.4383 601.642 53.2219 603.126 53.347C606.758 53.6575 610.057 55.6177 613.277 57.1786C614.314 57.6824 615.383 58.2092 616.115 59.1909C618.996 63.0497 613.956 63.9913 611.582 63.7051C611.98 65.0127 610.89 66.648 609.69 67.1006C608.491 67.5531 607.283 67.1818 606.152 66.8084C604.924 66.4037 603.678 65.9879 602.639 65.1718C602.262 64.8751 601.91 64.5134 601.613 64.1013Z" fill="#FFE6E6"/>
<path d="M232.642 75.636C228.012 66.1186 220.409 60.2519 214.169 70.2584C209.217 78.2015 207.106 92.03 212.863 100.852C218.952 110.181 231.941 110.055 235.918 98.9385C238.084 92.8867 236.286 83.1294 232.642 75.636Z" fill="#E04141"/>
<path d="M233.079 83.0769C232.871 82.5683 232.652 82.083 232.425 81.6252C230.344 77.4122 226.423 75.4581 223.165 78.4558C221.264 80.2048 220.232 83.1374 220.021 86.1192C219.719 90.3951 220.236 96.1173 223.171 99.1075C226.177 102.172 230.812 101.799 233.234 98.3326C236.007 94.3763 235.007 87.7795 233.079 83.0769Z" fill="#F86262"/>
<path d="M221.399 112.135C220.633 111.691 219.951 111.032 219.501 110.147C219.23 109.617 219.029 108.994 218.616 108.633C217.467 107.632 215.019 108.826 214.882 105.651C214.785 103.42 216.963 102.201 218.368 101.707C221.806 100.501 225.62 100.933 229.197 101.037C230.35 101.071 231.539 101.114 232.61 101.707C236.823 104.043 232.61 106.968 230.329 107.683C231.23 108.712 230.906 110.649 229.997 111.554C229.088 112.459 227.835 112.616 226.652 112.739C225.365 112.873 224.059 113.005 222.777 112.689C222.305 112.574 221.838 112.389 221.399 112.135Z" fill="#FFE6E6"/>
<path d="M700.634 82.0488C704.934 91.7186 712.335 97.8409 718.913 88.0535C724.134 80.2842 726.714 66.5357 721.259 57.5217C715.493 47.9907 702.508 47.6721 698.153 58.6497C695.781 64.6228 697.246 74.4355 700.634 82.0488Z" fill="#599B67"/>
<path d="M700.447 74.5974C700.638 75.1124 700.84 75.6041 701.05 76.0704C702.986 80.353 706.841 82.4389 710.198 79.552C712.156 77.8674 713.288 74.9745 713.602 71.9988C714.05 67.7353 713.728 61.9977 710.898 58.9092C707.997 55.7444 703.354 55.9583 700.813 59.3406C697.908 63.2054 698.681 69.8323 700.447 74.5974Z" fill="#6CBA7D"/>
<path d="M713.113 45.9538C713.862 46.4235 714.522 47.1051 714.943 48.0044C715.197 48.5434 715.374 49.173 715.776 49.5489C716.889 50.5896 719.378 49.4792 719.406 52.6579C719.426 54.8908 717.209 56.0347 715.787 56.4813C712.309 57.5703 708.511 57.008 704.943 56.7835C703.793 56.7116 702.606 56.6283 701.555 55.9976C697.425 53.5192 701.735 50.7377 704.038 50.1028C703.173 49.043 703.563 47.1186 704.502 46.2454C705.441 45.3721 706.701 45.2587 707.887 45.1758C709.176 45.0856 710.488 44.9974 711.759 45.3572C712.221 45.4846 712.683 45.6852 713.113 45.9538Z" fill="#FFE6E6"/>
<path d="M325.815 151.62C331.278 160.684 339.378 165.845 344.695 155.32C348.915 146.965 349.776 133.002 343.25 124.732C336.348 115.988 323.423 117.277 320.458 128.707C318.846 134.927 321.512 144.482 325.815 151.62Z" fill="#599B67"/>
<path d="M324.709 144.248C324.962 144.734 325.225 145.199 325.489 145.635C327.94 149.644 332.02 151.239 334.996 147.96C336.731 146.048 337.497 143.035 337.439 140.046C337.357 135.76 336.328 130.106 333.136 127.391C329.867 124.61 325.286 125.395 323.183 129.065C320.781 133.257 322.368 139.736 324.709 144.248Z" fill="#6CBA7D"/>
<path d="M333.736 114.259C334.538 114.632 335.275 115.227 335.805 116.067C336.123 116.572 336.377 117.173 336.822 117.496C338.056 118.39 340.387 116.982 340.809 120.132C341.106 122.347 339.045 123.755 337.692 124.373C334.376 125.883 330.537 125.795 326.967 126.012C325.816 126.083 324.628 126.148 323.507 125.651C319.103 123.703 323.035 120.41 325.242 119.495C324.253 118.551 324.402 116.592 325.227 115.61C326.05 114.628 327.285 114.357 328.452 114.128C329.721 113.878 331.011 113.631 332.317 113.831C332.793 113.904 333.277 114.045 333.736 114.259Z" fill="#FFE6E6"/>
<path d="M832.579 21.7913C835.439 11.6032 833.653 2.16612 822.34 5.50138C813.362 8.14945 802.601 17.0854 801.046 27.5052C799.401 38.5228 809.194 47.0557 819.552 41.387C825.19 38.3023 830.325 29.8132 832.579 21.7913Z" fill="#E04141"/>
<path d="M827.966 27.6443C828.147 27.1271 828.307 26.619 828.442 26.1249C829.684 21.592 828.052 17.5256 823.624 17.6066C821.041 17.6521 818.322 19.1587 816.183 21.2473C813.116 24.2435 809.704 28.8639 809.91 33.0491C810.124 37.3355 813.835 40.1361 817.948 39.1549C822.649 38.0343 826.283 32.4397 827.966 27.6443Z" fill="#F86262"/>
<path d="M799.934 41.6108C799.657 40.7707 799.584 39.8255 799.834 38.8637C799.984 38.2858 800.247 37.6884 800.179 37.144C799.986 35.6336 797.362 34.8988 799.368 32.435C800.777 30.7015 803.215 31.2378 804.594 31.8028C807.965 33.1849 810.529 36.0417 813.134 38.4926C813.975 39.2824 814.835 40.1055 815.241 41.2615C816.838 45.8063 811.745 45.1952 809.565 44.2151C809.555 45.5821 808.025 46.8148 806.745 46.8884C805.465 46.962 804.422 46.2461 803.457 45.5524C802.407 44.7995 801.342 44.0305 800.592 42.9401C800.32 42.5406 800.092 42.0918 799.934 41.6108Z" fill="#FFE6E6"/>
<path d="M441.968 75.2279C437.341 65.7102 429.736 59.8437 423.495 69.8502C418.543 77.7933 416.432 91.6218 422.189 100.444C428.278 109.772 441.267 109.647 445.244 98.5303C447.41 92.4785 445.612 82.7212 441.968 75.2279Z" fill="#E04141"/>
<path d="M442.407 82.6685C442.199 82.1598 441.98 81.6745 441.753 81.2168C439.672 77.0016 435.75 75.0475 432.493 78.0474C430.593 79.7963 429.56 82.7289 429.349 85.7107C429.047 89.9866 429.565 95.7089 432.499 98.6991C435.506 101.763 440.14 101.391 442.562 97.9241C445.333 93.9681 444.335 87.3711 442.407 82.6685Z" fill="#F86262"/>
<path d="M430.726 111.727C429.959 111.283 429.277 110.624 428.827 109.739C428.557 109.209 428.355 108.586 427.942 108.225C426.793 107.224 424.345 108.418 424.208 105.243C424.112 103.012 426.289 101.793 427.694 101.299C431.133 100.093 434.946 100.525 438.524 100.629C439.676 100.66 440.865 100.703 441.936 101.299C446.149 103.635 441.937 106.563 439.655 107.275C440.557 108.304 440.232 110.241 439.323 111.146C438.414 112.051 437.159 112.209 435.978 112.331C434.692 112.465 433.385 112.597 432.103 112.281C431.633 112.165 431.167 111.981 430.726 111.727Z" fill="#FFE6E6"/>
<path d="M878.425 103.718C883.559 112.972 891.467 118.423 897.162 108.095C901.679 99.8968 903.043 85.9753 896.817 77.4741C890.237 68.4875 877.272 69.3107 873.9 80.6275C872.063 86.7863 874.383 96.4314 878.425 103.718Z" fill="#599B67"/>
<path d="M877.586 96.3112C877.821 96.8057 878.065 97.2793 878.315 97.7256C880.621 101.822 884.642 103.561 887.732 100.392C889.534 98.543 890.408 95.5595 890.458 92.5693C890.531 88.2816 889.705 82.5965 886.614 79.768C883.446 76.8707 878.84 77.4906 876.604 81.0824C874.057 85.1862 875.409 91.7188 877.586 96.3112Z" fill="#6CBA7D"/>
<path d="M887.687 66.6667C888.475 67.0699 889.191 67.6899 889.691 68.5491C889.991 69.0651 890.224 69.6752 890.657 70.0143C891.856 70.9521 894.239 69.6276 894.548 72.7924C894.763 75.0165 892.654 76.35 891.279 76.9177C887.911 78.307 884.078 78.0812 880.503 78.1701C879.35 78.1982 878.16 78.2196 877.057 77.6855C872.726 75.5781 876.774 72.4291 879.013 71.5954C878.057 70.6168 878.278 68.6649 879.135 67.7122C879.995 66.7593 881.237 66.5347 882.412 66.3489C883.688 66.1449 884.984 65.9431 886.283 66.1911C886.756 66.2774 887.233 66.4364 887.687 66.6667Z" fill="#FFE6E6"/>
</g>
<defs>
<filter id="filter0_f_49_10134" x="-87.7778" y="-76.6667" width="2121.11" height="358.889" filterUnits="userSpaceOnUse" color-interpolation-filters="sRGB">
<feFlood flood-opacity="0" result="BackgroundImageFix"/>
<feBlend mode="normal" in="SourceGraphic" in2="BackgroundImageFix" result="shape"/>
<feGaussianBlur stdDeviation="38.8889" result="effect1_foregroundBlur_49_10134"/>
</filter>
<filter id="filter1_f_49_10134" x="-61.1108" y="-73.3334" width="2121.11" height="358.889" filterUnits="userSpaceOnUse" color-interpolation-filters="sRGB">
<feFlood flood-opacity="0" result="BackgroundImageFix"/>
<feBlend mode="normal" in="SourceGraphic" in2="BackgroundImageFix" result="shape"/>
<feGaussianBlur stdDeviation="38.8889" result="effect1_foregroundBlur_49_10134"/>
</filter>
<clipPath id="clip0_49_10134">
<rect width="1965.56" height="203.333" fill="white"/>
</clipPath>
</defs>
</svg>
